<svg width="73" height="73" viewBox="0 0 73 73" fill="none" xmlns="http://www.w3.org/2000/svg">
<circle cx="36.4873" cy="36.4873" r="36.4873" fill="#E1C196"/>
<path d="M38.0082 15.2031C25.4143 15.2031 15.2036 25.4139 15.2036 38.0077C15.2036 50.6015 25.4143 60.8122 38.0082 60.8122C50.602 60.8122 60.8127 50.6015 60.8127 38.0077C60.8127 25.4139 50.602 15.2031 38.0082 15.2031ZM38.0082 57.0115C28.2326 57.0115 20.1636 49.5905 19.1222 40.0886L23.6546 41.2953L26.2296 31.8257L20.728 30.142C23.7268 23.5819 30.3364 19.0058 38.0063 19.0058C45.6971 19.0058 52.32 23.6066 55.3074 30.1914L49.7829 31.8257L52.358 41.2953L56.8884 40.0886C55.8527 49.5905 47.7837 57.0115 38.0082 57.0115ZM36.2295 45.5484L34.9543 47.272C34.6103 47.7395 33.8692 47.8611 33.3941 47.5096C32.8943 47.1447 32.7859 46.4454 33.1546 45.9456L34.4279 44.2257C34.7966 43.7278 35.494 43.6214 35.9919 43.9863C36.4898 44.3511 36.5981 45.0505 36.2295 45.5484ZM33.9737 43.8988L32.6909 45.6377C32.3508 46.1014 31.6229 46.2192 31.1345 45.8619C30.6385 45.4952 30.5226 44.811 30.8894 44.315L32.174 42.5781C32.537 42.0821 33.2363 41.9738 33.7323 42.3386C34.2321 42.7035 34.3424 43.4047 33.9737 43.8988ZM31.7198 42.2531L30.4427 43.9749C30.0968 44.4462 29.352 44.5602 28.8807 44.2143C28.3828 43.8494 28.2744 43.1482 28.6393 42.6522L29.9164 40.9286C30.2793 40.4307 30.9787 40.3223 31.4785 40.691C31.9802 41.0559 32.0846 41.7552 31.7198 42.2531ZM47.4588 43.1121C47.8959 43.5473 47.8959 44.2561 47.4588 44.6932C47.0236 45.1284 46.3129 45.1284 45.8796 44.6932L42.6716 41.4854C42.5671 41.3808 42.3981 41.377 42.2878 41.4778C42.17 41.5861 42.1643 41.7704 42.2783 41.8825L45.2467 44.8528C45.6819 45.2899 45.6819 45.9969 45.2467 46.4339C44.8116 46.871 44.1027 46.871 43.6656 46.4339L41.252 44.0186C41.1437 43.9102 40.9709 43.9102 40.8626 44.0167C40.7447 44.125 40.7447 44.3036 40.8569 44.4158L42.8598 46.4188C43.295 46.8558 43.295 47.5609 42.8598 47.9999C42.4246 48.4351 41.7158 48.4351 41.2787 47.9999L40.2449 46.9641C40.5129 45.3146 39.3004 43.9692 37.82 43.8399C37.4266 42.9049 36.5506 42.2797 35.5681 42.1961C35.1918 41.2915 34.3252 40.6378 33.3123 40.5485C32.5103 38.6348 29.8936 38.2813 28.6393 39.9936L27.9419 40.9362C27.233 40.6682 26.4652 40.4459 25.5834 40.2387L27.6017 32.8196C30.6119 32.793 32.9798 29.9406 35.7562 31.6965C34.8459 32.8196 34.1029 33.7166 32.9779 34.3741C32.079 34.8986 31.659 35.9268 31.9307 36.934C32.2747 38.1958 33.5537 39.0776 35.0493 39.0776C37.0256 39.0776 39.0705 37.4547 40.6269 36.2878C41.5409 37.1981 46.691 42.2645 47.4588 43.1121ZM38.2495 45.632C38.7474 45.995 38.8539 46.6962 38.4871 47.1903L37.21 48.9196C36.868 49.3871 36.1306 49.5107 35.6479 49.1572C35.15 48.7923 35.0435 48.093 35.4065 47.5951L36.6874 45.8657C37.0504 45.3754 37.7478 45.2633 38.2495 45.632ZM48.4279 32.8652L50.4803 40.4154C49.7449 40.7442 49.0095 41.1262 48.2417 41.5975C48.2417 41.5975 43.2931 36.7135 41.8223 35.2426C41.0393 34.4578 40.4977 34.3513 39.5912 35.0811C38.4377 36.0104 37.0257 36.953 35.9842 37.3197C33.9394 38.0343 32.822 36.2935 33.7741 35.7386C35.7067 34.6117 36.6494 32.9869 38.2704 31.1492C38.7208 30.638 39.2586 30.4499 39.804 30.4499C40.3988 30.4499 41.0107 30.6722 41.5372 30.9459C43.9392 32.1868 46.1265 33.0344 48.4279 32.8652ZM40.3209 47.8288C41.0924 48.6004 40.5223 49.4099 39.6633 49.4099C39.441 49.4099 39.1958 49.3586 38.9507 49.2313C39.3213 48.7277 39.8668 48.0569 40.0701 47.5761L40.3209 47.8288Z" fill="#F5F5F5"/>
</svg>
