<svg width="73" height="73" viewBox="0 0 73 73" fill="none" xmlns="http://www.w3.org/2000/svg">
<circle cx="36.4873" cy="36.4873" r="36.4873" fill="#E1C196"/>
<path d="M56.273 53.1864C55.8087 50.1199 55.4215 48.9599 51.1803 48.4661C49.5759 48.2808 45.2057 47.8289 43.5798 46.8986C41.9552 45.967 42.2146 41.3076 42.2146 41.3076H33.3375C33.3375 41.3076 33.5969 45.967 31.971 46.8986C30.3451 47.829 25.9761 48.2808 24.3705 48.4661C20.1293 48.9599 19.7422 50.1199 19.2778 53.1864C19.0342 55.0922 18.9049 57.0109 18.8906 58.9323H56.6601C56.6458 57.0109 56.5166 55.0922 56.273 53.1864V53.1864Z" stroke="#F5F5F5" stroke-width="0.5" stroke-miterlimit="10"/>
<path d="M56.661 59.5806H18.8915C18.7191 59.5802 18.5539 59.5113 18.4322 59.389C18.311 59.2662 18.2433 59.1003 18.2437 58.9276C18.2574 56.9746 18.3892 55.0242 18.6384 53.0872C19.1547 49.6818 19.7759 48.3453 24.2967 47.8192L24.5991 47.7843C26.2844 47.5926 30.2333 47.144 31.6517 46.3323C32.5323 45.8278 32.7904 43.1103 32.6917 41.3422C32.6869 41.254 32.7001 41.1657 32.7303 41.0827C32.7605 40.9997 32.8072 40.9237 32.8676 40.8593C32.9283 40.7953 33.0013 40.7443 33.0822 40.7094C33.1631 40.6745 33.2502 40.6564 33.3383 40.6563H42.2154C42.3035 40.6562 42.3907 40.6741 42.4716 40.7091C42.5526 40.744 42.6256 40.7951 42.6861 40.8593C42.7466 40.9235 42.7935 40.9994 42.824 41.0823C42.8544 41.1652 42.8678 41.2534 42.8632 41.3416C42.7658 43.1109 43.0239 45.829 43.902 46.3329C45.3191 47.1433 49.2668 47.5926 50.9534 47.7843L51.2557 47.8186C55.7765 48.3453 56.3978 49.6818 56.914 53.0872C57.1646 55.024 57.2964 56.9745 57.3087 58.9276C57.3092 59.0132 57.2928 59.098 57.2604 59.1772C57.2281 59.2564 57.1804 59.3284 57.1202 59.389C57.06 59.4497 56.9885 59.4979 56.9097 59.5308C56.8309 59.5637 56.7463 59.5807 56.661 59.5806V59.5806ZM19.5507 58.2809H56.0031C55.975 56.6091 55.8517 54.9403 55.6336 53.2826C55.2123 50.5068 55.0718 49.5713 51.1065 49.11L50.8079 49.0757C48.8923 48.8581 44.9092 48.4049 43.2606 47.4613C41.698 46.5658 41.5322 43.4612 41.5474 41.9559H34.0077C34.0228 43.4612 33.8558 46.5658 32.2932 47.4613C30.6446 48.4049 26.6602 48.8581 24.7447 49.0757L24.446 49.11C20.482 49.5713 20.3402 50.5068 19.9202 53.2826C19.7022 54.9403 19.5788 56.6091 19.5507 58.2809V58.2809Z" stroke="#F5F5F5" stroke-width="0.5" stroke-miterlimit="10"/>
<path d="M47.7723 29.6751H47.5749C47.6584 28.9942 47.7432 28.324 47.8254 27.6894C48.2531 24.4007 49.216 14.792 37.7792 14.792C26.3425 14.792 27.304 24.4007 27.7317 27.6894C27.8139 28.324 27.8987 28.9942 27.9835 29.6751H27.7861C26.0451 28.3836 25.8996 31.7567 26.6246 32.9098C27.0645 33.5533 27.3946 34.2657 27.6014 35.0179C27.8683 35.7935 28.3137 35.8956 28.6845 35.8119C28.7313 36.2707 28.7718 36.6712 28.7996 36.9897C28.9603 38.7628 33.2091 42.3142 34.1706 43.4248C35.0728 44.4668 36.5772 44.0607 37.0592 44.0391C37.5464 44.0162 37.7792 44.0035 37.7792 44.0035C37.7792 44.0035 38.0108 44.0162 38.4979 44.0391C38.98 44.0607 40.4843 44.4668 41.3865 43.4248C42.3493 42.3142 46.5968 38.7628 46.7563 36.9897C46.7854 36.6712 46.8259 36.2707 46.8727 35.8106C47.2447 35.8956 47.6888 35.7935 47.9557 35.0179C48.1619 34.2655 48.4921 33.553 48.9326 32.9098C49.6588 31.7567 49.512 28.3837 47.7723 29.6751Z" stroke="#F5F5F5" stroke-width="0.5" stroke-miterlimit="10"/>
<path d="M39.6066 44.7842C39.306 44.7803 39.0059 44.757 38.7082 44.7144C38.6108 44.7017 38.5286 44.6903 38.4666 44.6878L37.7758 44.6535L37.0862 44.6878C37.0229 44.6903 36.9407 44.7017 36.8432 44.7144C36.5456 44.757 36.2455 44.7803 35.9449 44.7842C35.5217 44.8072 35.0987 44.7353 34.7067 44.5737C34.3147 44.4121 33.9636 44.1649 33.6788 43.85C33.4561 43.593 33.0057 43.1596 32.4856 42.6576C30.1917 40.4466 28.2825 38.4983 28.1508 37.0476C28.1357 36.868 28.1154 36.6617 28.0927 36.4339C27.8215 36.3439 27.5776 36.1862 27.3839 35.9756C27.1902 35.765 27.0531 35.5084 26.9856 35.23L26.9096 35.0079C26.7291 34.382 26.4465 33.7903 26.0733 33.257C25.7708 32.6796 25.599 32.0425 25.5699 31.391C25.5408 30.7395 25.6552 30.0895 25.905 29.4874C26.0213 29.2446 26.2085 29.0431 26.4418 28.9098C26.6751 28.7765 26.9433 28.7176 27.2108 28.741C27.169 28.4117 27.1273 28.088 27.0855 27.7733C26.8603 26.0382 26.1746 20.7588 29.1909 17.314C31.0332 15.2091 33.9217 14.1416 37.7758 14.1416C41.6298 14.1416 44.5184 15.209 46.362 17.3147C49.3771 20.7613 48.69 26.0388 48.4648 27.7733C48.4243 28.088 48.3826 28.4117 48.3408 28.7417C48.6082 28.7177 48.8766 28.7762 49.11 28.9095C49.3434 29.0428 49.5306 29.2444 49.6466 29.4874C49.8962 30.0895 50.0105 30.7394 49.9811 31.3908C49.9518 32.0423 49.7797 32.6792 49.477 33.2564C49.1044 33.7883 48.8226 34.3787 48.6432 35.0034L48.5648 35.23C48.4976 35.5086 48.3607 35.7654 48.167 35.9761C47.9732 36.1867 47.7291 36.3443 47.4577 36.4339C47.4349 36.6624 47.4147 36.8686 47.3982 37.0482C47.2679 38.4983 45.3586 40.4472 43.0646 42.6582C42.5446 43.1602 42.0954 43.593 41.8728 43.85C41.5879 44.1648 41.2367 44.4119 40.8447 44.5735C40.4527 44.7351 40.0298 44.8071 39.6066 44.7842V44.7842ZM37.7758 43.3532C37.7871 43.3532 37.7985 43.3532 37.8111 43.3538L38.5248 43.3893C38.6121 43.3931 38.7311 43.4071 38.8715 43.4248C39.115 43.4605 39.3605 43.4804 39.6066 43.4845C39.8439 43.5059 40.0831 43.4732 40.3061 43.389C40.5292 43.3047 40.7303 43.171 40.8946 42.9978C41.1553 42.6963 41.6019 42.266 42.1675 41.7215C43.5099 40.4263 46.0101 38.016 46.1075 36.9302C46.1379 36.609 46.1784 36.2067 46.2252 35.7441C46.2346 35.6525 46.2633 35.564 46.3093 35.4843C46.3553 35.4047 46.4176 35.3358 46.4922 35.2821C46.5667 35.2286 46.6517 35.1916 46.7415 35.1734C46.8314 35.1553 46.9241 35.1564 47.0134 35.1767C47.0354 35.1819 47.0579 35.1846 47.0805 35.1849C47.2033 35.1849 47.3184 34.8689 47.3399 34.8055L47.4171 34.5808C47.6302 33.8608 47.9561 33.1794 48.3825 32.5621C48.8177 31.8704 48.7482 30.2476 48.4495 30.0287C48.3443 30.0714 48.2451 30.1279 48.1547 30.1969C48.0431 30.2799 47.9078 30.3246 47.7688 30.3244H47.5714C47.4798 30.3243 47.3893 30.3047 47.3058 30.267C47.2223 30.2292 47.1476 30.1742 47.0868 30.1054C47.026 30.0365 46.9805 29.9553 46.9532 29.8674C46.926 29.7794 46.9176 29.6867 46.9287 29.5952C47.0122 28.913 47.097 28.2416 47.1792 27.6057C47.3867 26.0147 48.0168 21.1764 45.3876 18.1721C43.8022 16.3602 41.2413 15.4413 37.7758 15.4413C34.3114 15.4413 31.7506 16.3596 30.1639 18.1715C27.5359 21.1745 28.1635 26.0147 28.371 27.6051C28.4532 28.2403 28.538 28.9124 28.6228 29.5946C28.6341 29.6859 28.626 29.7787 28.599 29.8666C28.572 29.9546 28.5266 30.0358 28.4659 30.1049C28.405 30.1738 28.3302 30.229 28.2465 30.2669C28.1627 30.3047 28.0719 30.3243 27.9801 30.3244H27.7827C27.6437 30.3244 27.5085 30.2797 27.3968 30.1969C27.3075 30.1148 27.1977 30.0587 27.0791 30.0344C26.8034 30.2343 26.7312 31.8672 27.169 32.5627C27.5958 33.1809 27.9217 33.8634 28.1344 34.5846L28.2103 34.8048C28.2331 34.8689 28.3482 35.1862 28.4735 35.1862C28.4957 35.1856 28.5177 35.1827 28.5393 35.1773C28.6285 35.1568 28.7211 35.1558 28.8108 35.1742C28.9005 35.1925 28.9852 35.23 29.0593 35.2839C29.1338 35.3376 29.1961 35.4064 29.2421 35.4859C29.2881 35.5654 29.3168 35.6538 29.3263 35.7453C29.3731 36.2073 29.4136 36.6103 29.4414 36.9308C29.5401 38.0153 32.0402 40.4256 33.384 41.7209C33.9483 42.266 34.3949 42.6963 34.6568 42.9977C34.8211 43.1709 35.0223 43.3047 35.2454 43.389C35.4684 43.4732 35.7075 43.5059 35.9449 43.4845C36.191 43.4804 36.4365 43.4605 36.68 43.4248C36.8204 43.4071 36.9381 43.3931 37.028 43.3893L37.7403 43.3538C37.7517 43.3532 37.7644 43.3532 37.7758 43.3532Z" stroke="#F5F5F5" stroke-width="0.5" stroke-miterlimit="10"/>
<path d="M45.4974 14.7913C43.0756 13.7226 41.904 14.3154 41.904 14.3154L41.9027 14.3179C41.2524 13.6192 39.5797 12.4426 35.9003 12.9459C30.7912 13.6458 30.2876 14.7913 28.3922 14.3433C27.8329 15.3868 27.4227 16.5042 27.1737 17.6624C26.335 21.5121 26.5795 25.5199 27.8798 29.2384C28.1223 30.2657 28.417 31.2799 28.7629 32.277C28.7629 32.277 28.2809 25.9886 29.2437 23.504C30.2129 21.0163 33.5899 20.4769 34.7173 21.564C35.5866 22.2461 36.6737 22.5874 37.7755 22.5241C38.8769 22.5873 39.9635 22.246 40.8323 21.564C41.7826 20.6469 44.3295 20.8926 45.6871 22.4842L46.1338 23.1397C46.1975 23.258 46.2549 23.3796 46.3059 23.504C47.27 25.9886 46.788 32.277 46.788 32.277C47.4672 30.3092 47.95 28.2786 48.2291 26.2151H48.2303C49.5678 18.29 47.6964 15.7629 45.4974 14.7913Z" stroke="#F5F5F5" stroke-width="0.5" stroke-miterlimit="10"/>
<path d="M28.7653 32.9268C28.6323 32.9267 28.5026 32.8856 28.3938 32.8091C28.2849 32.7326 28.2021 32.6244 28.1567 32.4991C27.802 31.4791 27.5005 30.4414 27.2533 29.3901C25.931 25.5779 25.6849 21.4733 26.5422 17.5297C26.8047 16.3045 27.2392 15.1229 27.8328 14.0203C27.9018 13.8983 28.0085 13.8022 28.1368 13.7463C28.265 13.6905 28.4079 13.6779 28.5438 13.7105C29.3221 13.855 30.1259 13.7551 30.8454 13.4243C32.4625 12.8918 34.1268 12.516 35.8154 12.3023C36.404 12.2195 36.9975 12.1767 37.5918 12.1742C39.2087 12.0762 40.805 12.5778 42.0772 13.5836C42.3446 13.5271 42.6174 13.4997 42.8907 13.5017C43.8847 13.5331 44.8615 13.7694 45.7604 14.196C49.0362 15.6436 50.0244 19.497 48.8717 26.3236C48.5878 28.4262 48.0948 30.495 47.4002 32.4991C47.346 32.6464 47.2408 32.7693 47.1037 32.8452C46.9666 32.9211 46.8068 32.9449 46.6536 32.9123C46.5006 32.8791 46.3648 32.7915 46.2713 32.6656C46.1778 32.5397 46.1329 32.384 46.1451 32.2275C46.1501 32.1659 46.6044 26.0577 45.7047 23.7401C45.6679 23.6494 45.626 23.5609 45.5794 23.4748L45.1758 22.8814C44.8305 22.507 44.4125 22.2075 43.9475 22.0012C43.4825 21.795 42.9804 21.6863 42.4719 21.682C42.0469 21.6528 41.6255 21.7771 41.2839 22.0324C40.354 22.8077 39.1737 23.2153 37.9651 23.1785C37.8803 23.1785 37.8157 23.1765 37.7778 23.1753C37.7386 23.1765 37.6754 23.1785 37.5893 23.1785C36.3807 23.2149 35.2006 22.8074 34.2705 22.0324C33.9266 21.7758 33.5025 21.651 33.0749 21.6808C32.3956 21.6713 31.7284 21.8612 31.1554 22.2272C30.5823 22.5932 30.1285 23.1193 29.8497 23.7407C29.0222 25.875 29.3423 31.2172 29.403 32.1025C29.4188 32.1593 29.4269 32.218 29.4271 32.277C29.427 32.4493 29.3587 32.6145 29.2372 32.7364C29.1157 32.8582 28.951 32.9267 28.7793 32.9268C28.7746 32.9278 28.7699 32.9278 28.7653 32.9268ZM28.7514 15.0667C28.3314 15.9359 28.0154 16.8519 27.81 17.7956C27.1171 20.9777 27.1896 24.2795 28.0213 27.4278C28.0207 26.0181 28.2302 24.6162 28.6426 23.2685C29.0192 22.4054 29.6397 21.6718 30.4274 21.1586C31.2152 20.6454 32.1356 20.3751 33.0748 20.3811C33.8382 20.3421 34.5875 20.5978 35.1688 21.0956C35.8605 21.6308 36.7163 21.9077 37.5893 21.8788C37.6754 21.8788 37.7285 21.8762 37.7374 21.8756C37.7639 21.8736 37.793 21.8749 37.8196 21.8756C37.8272 21.8762 37.8803 21.8788 37.9651 21.8788C38.838 21.908 39.6939 21.6313 40.3855 21.0963C40.9645 20.5996 41.7111 20.3441 42.472 20.3823C43.1733 20.3851 43.8661 20.5362 44.5053 20.8256C45.1445 21.1151 45.7157 21.5364 46.1817 22.0622C46.1967 22.0797 46.2107 22.0982 46.2235 22.1174L46.6714 22.7729C46.6857 22.7944 46.6988 22.8167 46.7106 22.8396C46.785 22.9778 46.8517 23.1199 46.9105 23.2654C47.2722 24.3972 47.4716 25.5748 47.5027 26.7628C47.5343 26.5553 47.5634 26.3459 47.5887 26.1352C48.9564 18.0324 46.9029 16.1215 45.2391 15.386C44.5046 15.0314 43.7052 14.8324 42.8907 14.8015C42.6545 14.7934 42.4186 14.8265 42.1936 14.8992C42.1322 14.9294 42.0664 14.95 41.9988 14.9602C41.8953 14.9758 41.7896 14.9658 41.6908 14.9312C41.5921 14.8966 41.5032 14.8383 41.4319 14.7615C40.9852 14.2805 39.8908 13.4739 37.5918 13.4739C37.0559 13.4765 36.5207 13.5153 35.99 13.59C34.3749 13.7947 32.783 14.1542 31.2364 14.6638C30.4489 14.9843 29.5994 15.122 28.7514 15.0667V15.0667Z" fill="#F5F5F5" stroke="#F5F5F5" stroke-width="0.5" stroke-miterlimit="10"/>
<path d="M37.6824 47.3039L32.9845 45.2705H32.9819C32.8597 45.9203 32.4989 46.5005 31.971 46.8965C30.3451 47.8268 25.9761 48.2787 24.3705 48.464C20.1293 48.9577 19.7422 50.1178 19.2778 53.1843C19.0342 55.09 18.9049 57.0088 18.8906 58.9301H56.6601C56.6458 57.0088 56.5166 55.09 56.273 53.1843C55.8087 50.1178 55.4214 48.9577 51.1803 48.464C49.5759 48.2787 45.2057 47.8268 43.5798 46.8965C43.0525 46.5006 42.6923 45.921 42.5701 45.2718L42.5676 45.2705L37.6824 47.3039Z" stroke="#F5F5F5" stroke-width="0.5" stroke-miterlimit="10"/>
<path d="M56.6749 59.5813C56.6702 59.581 56.6656 59.581 56.661 59.5813H18.8915C18.7191 59.5809 18.5539 59.5119 18.4322 59.3896C18.311 59.2668 18.2433 59.101 18.2437 58.9282C18.2574 56.9752 18.3892 55.0248 18.6384 53.0878C19.1547 49.6825 19.7759 48.3459 24.2967 47.8198L24.5991 47.7849C26.2844 47.5933 30.2333 47.1446 31.6517 46.333C32.0249 46.0155 32.2756 45.577 32.3602 45.0935C32.3878 45.0059 32.4331 44.925 32.4934 44.8558C32.5536 44.7866 32.6274 44.7306 32.7102 44.6914C32.793 44.6521 32.883 44.6304 32.9745 44.6276C33.066 44.6249 33.1572 44.6411 33.2421 44.6753L37.6882 46.5995L42.3203 44.6715C42.4189 44.6306 42.526 44.6147 42.6322 44.6252C42.7383 44.6357 42.8403 44.6723 42.929 44.7318C43.0574 44.8174 43.1512 44.9461 43.1934 45.0948C43.2782 45.5784 43.5293 46.0168 43.9032 46.3336C45.319 47.144 49.2667 47.5933 50.9533 47.785L51.2556 47.8193C55.7764 48.346 56.3977 49.6825 56.914 53.0879C57.1609 54.9806 57.2923 56.8868 57.3074 58.7957C57.3176 58.8402 57.3227 58.8858 57.3226 58.9315C57.3224 59.1037 57.254 59.2689 57.1326 59.3907C57.0112 59.5125 56.8466 59.581 56.6749 59.5813ZM19.5507 58.2816H56.0031C55.975 56.6098 55.8516 54.941 55.6336 53.2833C55.2123 50.5075 55.0718 49.572 51.1065 49.1107L50.8079 49.0764C48.8923 48.8587 44.9092 48.4056 43.2606 47.462C42.7662 47.1505 42.3885 46.6837 42.1863 46.1343L37.9325 47.9055C37.8523 47.9386 37.7664 47.9552 37.6797 47.9546C37.593 47.9539 37.5074 47.9359 37.4277 47.9017L33.3637 46.1432C33.1617 46.6887 32.7859 47.152 32.2945 47.4613C30.6446 48.4056 26.6602 48.8587 24.7446 49.0764L24.446 49.1107C20.4819 49.572 20.3402 50.5075 19.9201 53.2833C19.7022 54.941 19.5788 56.6098 19.5507 58.2815V58.2816Z" fill="#F5F5F5" stroke="#F5F5F5" stroke-width="0.5" stroke-miterlimit="10"/>
<path d="M38.9719 59.581H36.5792C36.5145 59.5808 36.4501 59.5709 36.3882 59.5518L35.0988 59.1507C34.9395 59.1014 34.8053 58.9923 34.7242 58.8461C34.6432 58.7 34.6214 58.5281 34.6636 58.3663L36.9196 49.6542C36.9394 49.5771 36.9733 49.5044 37.0196 49.4397L37.2486 49.1173C37.3087 49.0332 37.3879 48.9647 37.4797 48.9175C37.5714 48.8703 37.6731 48.8456 37.7762 48.8457C37.8794 48.8456 37.9812 48.8703 38.073 48.9177C38.1647 48.965 38.2439 49.0337 38.3038 49.118L38.5329 49.4404C38.5787 49.5049 38.6122 49.5774 38.6316 49.6542L40.8888 58.3663C40.9307 58.5281 40.9088 58.6999 40.8278 58.8459C40.7468 58.992 40.6127 59.1012 40.4536 59.1507L39.1642 59.5518C39.1019 59.571 39.0371 59.5809 38.9719 59.581ZM36.6779 58.2813H38.8745L39.4793 58.0927L37.7762 51.5168L36.0731 58.0927L36.6779 58.2813Z" fill="#F5F5F5" stroke="#F5F5F5" stroke-width="0.5" stroke-miterlimit="10"/>
<path d="M29.0191 47.8037C27.2642 48.149 25.3283 48.3546 24.3705 48.465C20.1293 48.9588 19.7422 50.1188 19.2778 53.1853C19.0342 55.0911 18.9049 57.0099 18.8906 58.9312H36.5791L29.0191 47.8037Z" stroke="#F5F5F5" stroke-width="0.5" stroke-miterlimit="10"/>
<path d="M36.5799 59.5807H18.8915C18.8063 59.5806 18.722 59.5636 18.6434 59.5307C18.5648 59.4978 18.4934 59.4497 18.4335 59.389C18.3731 59.3285 18.3252 59.2565 18.2926 59.1773C18.26 59.0981 18.2434 59.0133 18.2437 58.9276C18.2574 56.9746 18.3892 55.0242 18.6384 53.0872C19.1547 49.6819 19.7759 48.3453 24.2967 47.8192L24.5877 47.7856C25.6126 47.6695 27.3283 47.474 28.896 47.1656C29.0203 47.141 29.1491 47.1536 29.2663 47.2019C29.3835 47.2502 29.484 47.332 29.5551 47.4372L37.1151 58.5646C37.1817 58.6622 37.2204 58.7761 37.2271 58.8941C37.2338 59.0121 37.2082 59.1297 37.1531 59.2342C37.098 59.3387 37.0155 59.4263 36.9145 59.4873C36.8135 59.5484 36.6978 59.5806 36.5799 59.5807ZM19.5507 58.281H35.3552L28.7239 48.5205C27.2296 48.7934 25.6872 48.9685 24.7332 49.0771L24.446 49.1101C20.4819 49.5714 20.3402 50.5069 19.9201 53.2827C19.7023 54.9404 19.5789 56.6092 19.5507 58.2809V58.281Z" fill="#F5F5F5" stroke="#F5F5F5" stroke-width="0.5" stroke-miterlimit="10"/>
<path d="M56.6601 58.9312C56.6458 57.0099 56.5165 55.0911 56.2729 53.1853C55.8086 50.1188 55.4214 48.9588 51.1802 48.465C50.2237 48.3546 48.2866 48.149 46.5316 47.8037L38.9717 58.9312L56.6601 58.9312Z" stroke="#F5F5F5" stroke-width="0.5" stroke-miterlimit="10"/>
<path d="M56.6606 59.5807H38.9723C38.8545 59.5807 38.739 59.5484 38.6382 59.4873C38.5374 59.4262 38.4551 59.3387 38.4003 59.2342C38.345 59.1298 38.3192 59.0123 38.3257 58.8943C38.3322 58.7763 38.3707 58.6623 38.437 58.5646L45.997 47.4373C46.0684 47.332 46.1691 47.2501 46.2865 47.2018C46.4039 47.1535 46.5329 47.141 46.6574 47.1656C48.2239 47.4734 49.9383 47.6689 50.9631 47.7857L51.2555 47.8187C55.7762 48.3454 56.3975 49.6819 56.9138 53.0873C57.1644 55.0241 57.2962 56.9746 57.3084 58.9277C57.3089 59.0133 57.2925 59.0981 57.2602 59.1773C57.2278 59.2565 57.1801 59.3284 57.1199 59.3891C57.0598 59.4498 56.9882 59.498 56.9094 59.5309C56.8305 59.5638 56.746 59.5807 56.6606 59.5807V59.5807ZM40.1983 58.281H56.0027C55.9746 56.6092 55.8513 54.9404 55.6333 53.2827C55.2119 50.5069 55.0715 49.5714 51.1061 49.1101L50.8164 49.0771C49.8624 48.9685 48.3213 48.7928 46.8296 48.5205L40.1983 58.281Z" stroke="#F5F5F5" stroke-width="0.5" stroke-miterlimit="10"/>
<path d="M36.1602 48.8708L37.6829 50.4931L39.4585 48.8708L37.6829 47.3047L36.1602 48.8708Z" fill="white" stroke="#F5F5F5" stroke-width="0.5" stroke-miterlimit="10"/>
<path d="M37.6838 51.1436C37.5956 51.1437 37.5082 51.1257 37.4273 51.0905C37.3463 51.0554 37.2734 51.0039 37.2131 50.9392L35.6897 49.3172C35.575 49.1953 35.5118 49.0336 35.5132 48.866C35.5146 48.6984 35.5806 48.5378 35.6973 48.4179L37.2207 46.8516C37.3367 46.7322 37.4939 46.6621 37.6599 46.6557C37.8259 46.6494 37.988 46.7072 38.1127 46.8173L39.8879 48.3836C39.9562 48.444 40.0109 48.5182 40.0487 48.6013C40.0864 48.6844 40.1062 48.7746 40.1068 48.8659C40.108 48.9573 40.0897 49.0479 40.0533 49.1317C40.0168 49.2156 39.9631 49.2906 39.8955 49.352L38.1203 50.9741C38.001 51.0833 37.8453 51.1437 37.6838 51.1436ZM37.0588 48.8792L37.7192 49.583L38.4885 48.8799L37.718 48.2008L37.0588 48.8792Z" fill="#F5F5F5" stroke="#F5F5F5" stroke-width="0.5" stroke-miterlimit="10"/>
<path d="M37.6823 47.304L34.5802 50.4925L31.478 47.304L32.9848 45.2705L37.6823 47.304Z" stroke="#F5F5F5" stroke-width="0.5" stroke-miterlimit="10"/>
<path d="M34.5807 51.1419C34.4944 51.1419 34.409 51.1245 34.3294 51.0908C34.2499 51.0571 34.1779 51.0078 34.1176 50.9458L31.0152 47.7575C30.9074 47.647 30.8425 47.5015 30.8321 47.3473C30.8216 47.193 30.8664 47.0401 30.9583 46.916L32.4652 44.8827C32.5521 44.7649 32.6762 44.6801 32.8173 44.6422C32.9584 44.6043 33.1081 44.6154 33.2421 44.6739L37.94 46.7072C38.0366 46.7488 38.1216 46.8133 38.1877 46.8953C38.2538 46.9772 38.2991 47.074 38.3196 47.1774C38.3398 47.2809 38.3347 47.3877 38.3048 47.4887C38.2748 47.5898 38.2208 47.682 38.1475 47.7575L35.0451 50.9458C34.9845 51.0077 34.9123 51.057 34.8326 51.0907C34.7528 51.1243 34.6672 51.1417 34.5807 51.1419ZM32.3285 47.246L34.5807 49.5617L36.5622 47.5259L33.199 46.0707L32.3285 47.246Z" fill="#F5F5F5" stroke="#F5F5F5" stroke-width="0.5" stroke-miterlimit="10"/>
<path d="M37.6841 47.304L40.7884 50.4925L43.8891 47.304L42.3838 45.2705L37.6841 47.304Z" stroke="#F5F5F5" stroke-width="0.5" stroke-miterlimit="10"/>
<path d="M40.7879 51.1415C40.7016 51.1415 40.6161 51.1241 40.5366 51.0904C40.4571 51.0567 40.3851 51.0074 40.3248 50.9454L37.2211 47.7571C37.1476 47.6818 37.0934 47.5896 37.0634 47.4885C37.0335 47.3874 37.0285 47.2805 37.0491 47.1771C37.0696 47.0736 37.1149 46.9767 37.181 46.8947C37.2471 46.8127 37.3321 46.748 37.4286 46.7062L42.1278 44.6729C42.2618 44.6152 42.4112 44.6045 42.5519 44.6425C42.6926 44.6805 42.8165 44.765 42.9035 44.8823L44.4091 46.9156C44.5009 47.0397 44.5457 47.1925 44.5355 47.3466C44.5253 47.5008 44.4607 47.6463 44.3534 47.7571L41.251 50.9454C41.1908 51.0074 41.1188 51.0568 41.0392 51.0904C40.9597 51.1241 40.8742 51.1415 40.7879 51.1415ZM38.8065 47.5255L40.7879 49.5614L43.0401 47.2456L42.1696 46.0703L38.8065 47.5255Z" fill="#F5F5F5" stroke="#F5F5F5" stroke-width="0.5" stroke-miterlimit="10"/>
</svg>
