<svg width="73" height="73" viewBox="0 0 73 73" fill="none" xmlns="http://www.w3.org/2000/svg">
<circle cx="36.4873" cy="36.4873" r="36.4873" fill="#E1C196"/>
<path d="M33.5786 44.39C38.6964 43.2315 41.6839 42.2182 39.375 37.9465C32.3536 24.9492 37.5143 18 44.9304 18C52.4929 18 57.5268 25.217 50.4839 37.9465C48.1054 42.2427 51.2643 43.256 56.2732 44.39C60.7071 45.3945 61 47.5172 61 51.1957V53H28.8571C28.8571 48.1963 28.4643 45.5485 33.5786 44.39ZM11 53H24.9446C24.8821 38.6902 31.0804 43.7023 31.0804 33.5278C31.0804 29.1335 28.1536 26.75 24.3875 26.75C18.825 26.75 14.9554 31.9632 20.2214 41.7107C21.9518 44.9132 18.3804 45.6745 14.5411 46.5425C11.2161 47.295 11 48.8875 11 51.6472V53V53Z" fill="#F5F5F5"/>
</svg>
