<svg width="1448" height="971" viewBox="0 0 1448 971" fill="none" xmlns="http://www.w3.org/2000/svg">
<g opacity="0.3">
<g opacity="0.05">
<path d="M451.143 5.19753e-05C451.143 117.863 351.047 213.409 227.571 213.409C104.096 213.409 4 117.863 4 5.19753e-05" stroke="#E1C196" stroke-width="7"/>
<path d="M433.076 2.15578C433.076 109.304 341.069 196.164 227.571 196.164C114.074 196.164 22.0664 109.304 22.0664 2.15578" stroke="#E1C196" stroke-width="7"/>
<path d="M415.01 2.15586C415.01 99.7794 331.091 178.919 227.571 178.919C124.051 178.919 40.1323 99.7794 40.1323 2.15586" stroke="#E1C196" stroke-width="7"/>
</g>
<g opacity="0.05">
<path d="M451.143 548.767C451.143 666.629 351.047 762.176 227.571 762.176C104.096 762.176 4 666.629 4 548.767" stroke="#E1C196" stroke-width="7"/>
<path d="M433.076 550.922C433.076 658.07 341.069 744.931 227.571 744.931C114.074 744.931 22.0664 658.07 22.0664 550.922" stroke="#E1C196" stroke-width="7"/>
<path d="M415.01 550.922C415.01 648.546 331.091 727.686 227.571 727.686C124.051 727.686 40.1323 648.546 40.1323 550.922" stroke="#E1C196" stroke-width="7"/>
</g>
<g opacity="0.05">
<path d="M451.143 493.335C451.143 375.472 351.047 279.926 227.571 279.926C104.096 279.926 4 375.472 4 493.335" stroke="#E1C196" stroke-width="7"/>
<path d="M433.076 491.179C433.076 384.031 341.069 297.171 227.571 297.171C114.074 297.171 22.0664 384.031 22.0664 491.179" stroke="#E1C196" stroke-width="7"/>
<path d="M415.01 491.179C415.01 393.556 331.091 314.416 227.571 314.416C124.051 314.416 40.1323 393.556 40.1323 491.179" stroke="#E1C196" stroke-width="7"/>
</g>
<g opacity="0.05">
<path d="M451.143 970.041C451.143 852.178 351.047 756.632 227.571 756.632C104.096 756.632 4 852.178 4 970.041" stroke="#E1C196" stroke-width="7"/>
<path d="M433.076 967.885C433.076 860.737 341.069 773.877 227.571 773.877C114.074 773.877 22.0664 860.737 22.0664 967.885" stroke="#E1C196" stroke-width="7"/>
<path d="M415.01 967.885C415.01 870.262 331.091 791.122 227.571 791.122C124.051 791.122 40.1323 870.262 40.1323 967.885" stroke="#E1C196" stroke-width="7"/>
</g>
<g opacity="0.05">
<path d="M782.145 5.19753e-05C782.145 117.863 682.048 213.409 558.573 213.409C435.098 213.409 335.002 117.863 335.002 5.19753e-05" stroke="#E1C196" stroke-width="7"/>
<path d="M764.078 2.15578C764.078 109.304 672.071 196.164 558.573 196.164C445.076 196.164 353.068 109.304 353.068 2.15578" stroke="#E1C196" stroke-width="7"/>
<path d="M746.012 2.15586C746.012 99.7794 662.092 178.919 558.573 178.919C455.053 178.919 371.134 99.7794 371.134 2.15586" stroke="#E1C196" stroke-width="7"/>
</g>
<g opacity="0.05">
<path d="M782.145 487.792C782.145 605.655 682.048 701.201 558.573 701.201C435.098 701.201 335.002 605.655 335.002 487.792" stroke="#E1C196" stroke-width="7"/>
<path d="M764.078 489.948C764.078 597.096 672.071 683.956 558.573 683.956C445.076 683.956 353.068 597.096 353.068 489.948" stroke="#E1C196" stroke-width="7"/>
<path d="M746.012 489.948C746.012 587.571 662.092 666.711 558.573 666.711C455.053 666.711 371.134 587.571 371.134 489.948" stroke="#E1C196" stroke-width="7"/>
</g>
<g opacity="0.05">
<path d="M782.145 493.335C782.145 375.472 682.048 279.926 558.573 279.926C435.098 279.926 335.002 375.472 335.002 493.335" stroke="#E1C196" stroke-width="7"/>
<path d="M764.078 491.179C764.078 384.031 672.071 297.171 558.573 297.171C445.076 297.171 353.068 384.031 353.068 491.179" stroke="#E1C196" stroke-width="7"/>
<path d="M746.012 491.179C746.012 393.556 662.092 314.416 558.573 314.416C455.053 314.416 371.134 393.556 371.134 491.179" stroke="#E1C196" stroke-width="7"/>
</g>
<g opacity="0.05">
<path d="M782.145 970.041C782.145 852.178 682.048 756.632 558.573 756.632C435.098 756.632 335.002 852.178 335.002 970.041" stroke="#E1C196" stroke-width="7"/>
<path d="M764.078 967.885C764.078 860.737 672.071 773.877 558.573 773.877C445.076 773.877 353.068 860.737 353.068 967.885" stroke="#E1C196" stroke-width="7"/>
<path d="M746.012 967.885C746.012 870.262 662.092 791.122 558.573 791.122C455.053 791.122 371.134 870.262 371.134 967.885" stroke="#E1C196" stroke-width="7"/>
</g>
<g opacity="0.05">
<path d="M1113.15 5.19753e-05C1113.15 117.863 1013.05 213.409 889.575 213.409C766.1 213.409 666.004 117.863 666.004 5.19753e-05" stroke="#E1C196" stroke-width="7"/>
<path d="M1095.08 2.15578C1095.08 109.304 1003.07 196.164 889.575 196.164C776.078 196.164 684.07 109.304 684.07 2.15578" stroke="#E1C196" stroke-width="7"/>
<path d="M1077.01 2.15586C1077.01 99.7794 993.094 178.919 889.575 178.919C786.055 178.919 702.136 99.7794 702.136 2.15586" stroke="#E1C196" stroke-width="7"/>
</g>
<g opacity="0.05">
<path d="M1113.15 487.792C1113.15 605.655 1013.05 701.201 889.575 701.201C766.1 701.201 666.004 605.655 666.004 487.792" stroke="#E1C196" stroke-width="7"/>
<path d="M1095.08 489.948C1095.08 597.096 1003.07 683.956 889.575 683.956C776.078 683.956 684.07 597.096 684.07 489.948" stroke="#E1C196" stroke-width="7"/>
<path d="M1077.01 489.948C1077.01 587.571 993.094 666.711 889.575 666.711C786.055 666.711 702.136 587.571 702.136 489.948" stroke="#E1C196" stroke-width="7"/>
</g>
<g opacity="0.05">
<path d="M1113.15 493.335C1113.15 375.472 1013.05 279.926 889.575 279.926C766.1 279.926 666.004 375.472 666.004 493.335" stroke="#E1C196" stroke-width="7"/>
<path d="M1095.08 491.179C1095.08 384.031 1003.07 297.171 889.575 297.171C776.078 297.171 684.07 384.031 684.07 491.179" stroke="#E1C196" stroke-width="7"/>
<path d="M1077.01 491.179C1077.01 393.556 993.094 314.416 889.575 314.416C786.055 314.416 702.136 393.556 702.136 491.179" stroke="#E1C196" stroke-width="7"/>
</g>
<g opacity="0.05">
<path d="M1113.15 970.041C1113.15 852.178 1013.05 756.632 889.575 756.632C766.1 756.632 666.004 852.178 666.004 970.041" stroke="#E1C196" stroke-width="7"/>
<path d="M1095.08 967.885C1095.08 860.737 1003.07 773.877 889.575 773.877C776.078 773.877 684.07 860.737 684.07 967.885" stroke="#E1C196" stroke-width="7"/>
<path d="M1077.01 967.885C1077.01 870.262 993.094 791.122 889.575 791.122C786.055 791.122 702.136 870.262 702.136 967.885" stroke="#E1C196" stroke-width="7"/>
</g>
<g opacity="0.05">
<path d="M1444.15 5.19753e-05C1444.15 117.863 1344.05 213.409 1220.58 213.409C1097.1 213.409 997.006 117.863 997.006 5.19753e-05" stroke="#E1C196" stroke-width="7"/>
<path d="M1426.08 2.15578C1426.08 109.304 1334.07 196.164 1220.58 196.164C1107.08 196.164 1015.07 109.304 1015.07 2.15578" stroke="#E1C196" stroke-width="7"/>
<path d="M1408.02 2.15586C1408.02 99.7794 1324.1 178.919 1220.58 178.919C1117.06 178.919 1033.14 99.7794 1033.14 2.15586" stroke="#E1C196" stroke-width="7"/>
</g>
<g opacity="0.05">
<path d="M1444.15 548.767C1444.15 666.629 1344.05 762.176 1220.58 762.176C1097.1 762.176 997.006 666.629 997.006 548.767" stroke="#E1C196" stroke-width="7"/>
<path d="M1426.08 550.922C1426.08 658.07 1334.07 744.931 1220.58 744.931C1107.08 744.931 1015.07 658.07 1015.07 550.922" stroke="#E1C196" stroke-width="7"/>
<path d="M1408.02 550.922C1408.02 648.546 1324.1 727.686 1220.58 727.686C1117.06 727.686 1033.14 648.546 1033.14 550.922" stroke="#E1C196" stroke-width="7"/>
</g>
<g opacity="0.05">
<path d="M1444.15 493.335C1444.15 375.472 1344.05 279.926 1220.58 279.926C1097.1 279.926 997.006 375.472 997.006 493.335" stroke="#E1C196" stroke-width="7"/>
<path d="M1426.08 491.179C1426.08 384.031 1334.07 297.171 1220.58 297.171C1107.08 297.171 1015.07 384.031 1015.07 491.179" stroke="#E1C196" stroke-width="7"/>
<path d="M1408.02 491.179C1408.02 393.556 1324.1 314.416 1220.58 314.416C1117.06 314.416 1033.14 393.556 1033.14 491.179" stroke="#E1C196" stroke-width="7"/>
</g>
<g opacity="0.05">
<path d="M1444.15 970.041C1444.15 852.178 1344.05 756.632 1220.58 756.632C1097.1 756.632 997.006 852.178 997.006 970.041" stroke="#E1C196" stroke-width="7"/>
<path d="M1426.08 967.885C1426.08 860.737 1334.07 773.877 1220.58 773.877C1107.08 773.877 1015.07 860.737 1015.07 967.885" stroke="#E1C196" stroke-width="7"/>
<path d="M1408.02 967.885C1408.02 870.262 1324.1 791.122 1220.58 791.122C1117.06 791.122 1033.14 870.262 1033.14 967.885" stroke="#E1C196" stroke-width="7"/>
</g>
</g>
</svg>
