<svg width="73" height="73" viewBox="0 0 73 73" fill="none" xmlns="http://www.w3.org/2000/svg">
<circle cx="36.4873" cy="36.4873" r="36.4873" fill="#E1C196"/>
<path d="M55.864 25.7114C57.1909 24.2313 57.9277 22.3126 57.9336 20.322C57.9335 18.1579 57.0765 16.0824 55.5511 14.5521C54.0256 13.0218 51.9566 12.1621 49.7992 12.1621C47.6419 12.1621 45.5729 13.0218 44.0474 14.5521C42.5219 16.0824 41.6649 18.1579 41.6649 20.322C41.6707 22.313 42.4077 24.232 43.7351 25.7122C40.4273 28.4414 38.9309 31.9526 38.4111 38.2737C38.4111 41.0198 38.4111 44.094 41.9372 44.6965L43.3402 51.7248C44.2689 55.4493 46.8037 57.8574 49.7984 57.8574H49.7992C52.794 57.8574 55.3312 55.4509 56.2764 51.6499L57.6619 44.6965C61.1888 44.0925 61.1888 41.0055 61.1824 38.1383C60.668 31.9495 59.171 28.4407 55.864 25.7114ZM49.7992 15.4261C51.0932 15.4275 52.3337 15.9438 53.2487 16.8617C54.1637 17.7795 54.6784 19.024 54.6798 20.322C54.6784 21.62 54.1637 22.8645 53.2487 23.7823C52.3337 24.7002 51.0932 25.2164 49.7992 25.2179C48.5052 25.2164 47.2647 24.7002 46.3497 23.7823C45.4348 22.8645 44.9201 21.62 44.9186 20.322C44.9201 19.024 45.4348 17.7795 46.3497 16.8617C47.2647 15.9438 48.5052 15.4275 49.7992 15.4261ZM56.3067 41.5377C55.9307 41.5379 55.5664 41.6686 55.2756 41.9077C54.9849 42.1468 54.7855 42.4795 54.7115 42.8493L53.1037 50.9328C52.5493 53.1576 51.252 54.5935 49.7992 54.5935C48.3471 54.5935 47.0506 53.1577 46.5136 51.0091L44.8867 42.8492C44.8129 42.4794 44.6136 42.1467 44.3228 41.9076C44.0321 41.6685 43.6677 41.5377 43.2917 41.5376C41.6649 41.5376 41.6649 41.5376 41.6592 38.4091C42.1692 32.2678 43.6134 29.988 45.9354 28.1241C46.0421 28.0381 46.1377 27.9391 46.2198 27.8292C46.2566 27.7801 46.2985 27.7292 46.3368 27.6794C46.6664 27.8306 47.0058 27.9594 47.3527 28.0649L48.7146 30.1138L46.5455 35.5537L49.7992 39.9057L53.053 35.5537L50.8839 30.1138L52.2455 28.0649C52.5928 27.9593 52.9327 27.8303 53.2627 27.6787C53.3012 27.7287 53.3432 27.7799 53.3801 27.8292C53.4624 27.9389 53.558 28.0379 53.6645 28.1241C55.9857 29.988 57.4299 32.2679 57.935 38.2737C57.935 41.5377 57.935 41.5377 56.3067 41.5377Z" fill="#F5F5F5"/>
<path d="M35.153 35.0098H30.2724C30.0587 35.0097 29.8472 35.0519 29.6498 35.1339C29.4524 35.2159 29.273 35.3361 29.1219 35.4877C28.9708 35.6392 28.851 35.8191 28.7693 36.0172C28.6875 36.2152 28.6455 36.4274 28.6455 36.6417V56.2254C28.6454 56.4398 28.6875 56.652 28.7692 56.85C28.851 57.0481 28.9708 57.228 29.1219 57.3796C29.273 57.5311 29.4523 57.6513 29.6497 57.7333C29.8472 57.8153 30.0587 57.8575 30.2724 57.8574H35.153C35.3667 57.8575 35.5782 57.8153 35.7757 57.7333C35.9731 57.6514 36.1524 57.5311 36.3035 57.3796C36.4546 57.228 36.5744 57.0481 36.6562 56.85C36.7379 56.652 36.7799 56.4398 36.7799 56.2254V36.6417C36.7799 36.4274 36.7379 36.2152 36.6561 36.0171C36.5744 35.8191 36.4546 35.6392 36.3035 35.4876C36.1524 35.3361 35.973 35.2159 35.7756 35.1339C35.5782 35.0519 35.3667 35.0097 35.153 35.0098ZM33.5261 54.5935H31.8993V38.2737H33.5261V54.5935Z" fill="#F5F5F5"/>
<path d="M25.3922 44.8008H20.5116C20.298 44.8007 20.0864 44.8429 19.889 44.9249C19.6916 45.0069 19.5123 45.1271 19.3612 45.2787C19.2101 45.4302 19.0903 45.6101 19.0085 45.8082C18.9268 46.0062 18.8847 46.2184 18.8848 46.4328V56.2246C18.8847 56.4389 18.9268 56.6512 19.0085 56.8492C19.0902 57.0472 19.2101 57.2271 19.3611 57.3787C19.5122 57.5303 19.6916 57.6504 19.889 57.7324C20.0864 57.8144 20.298 57.8566 20.5116 57.8566H25.3922C25.6059 57.8566 25.8175 57.8145 26.0149 57.7325C26.2123 57.6505 26.3917 57.5303 26.5428 57.3787C26.6939 57.2272 26.8137 57.0472 26.8954 56.8492C26.9772 56.6512 27.0192 56.4389 27.0191 56.2246V46.4328C27.0192 46.2184 26.9771 46.0062 26.8954 45.8081C26.8137 45.6101 26.6938 45.4302 26.5427 45.2786C26.3917 45.1271 26.2123 45.0069 26.0149 44.9249C25.8175 44.8429 25.6059 44.8007 25.3922 44.8008ZM23.7654 54.5926H22.1385V48.0647H23.7654V54.5926Z" fill="#F5F5F5"/>
<path d="M15.6295 48.0664H10.7489C10.5353 48.0664 10.3237 48.1085 10.1263 48.1905C9.92891 48.2725 9.74954 48.3927 9.59846 48.5443C9.44738 48.6958 9.32756 48.8758 9.24582 49.0738C9.16408 49.2718 9.12202 49.484 9.12207 49.6984V56.2263C9.12201 56.4406 9.16406 56.6528 9.2458 56.8509C9.32753 57.0489 9.44736 57.2288 9.59844 57.3804C9.74952 57.5319 9.92888 57.6521 10.1263 57.7341C10.3237 57.8161 10.5353 57.8583 10.7489 57.8582H15.6295C15.8432 57.8583 16.0548 57.8161 16.2522 57.7342C16.4496 57.6522 16.629 57.5319 16.7801 57.3804C16.9311 57.2288 17.051 57.0489 17.1327 56.8509C17.2145 56.6528 17.2565 56.4406 17.2564 56.2263V49.6984C17.2565 49.484 17.2144 49.2718 17.1327 49.0738C17.051 48.8757 16.9311 48.6958 16.78 48.5443C16.629 48.3927 16.4496 48.2725 16.2522 48.1905C16.0548 48.1085 15.8432 48.0663 15.6295 48.0664ZM14.0027 54.5943H12.3758V51.3303H14.0027V54.5943Z" fill="#F5F5F5"/>
<path d="M35.8797 15.5984C35.6095 15.4626 35.3068 15.4051 35.0058 15.4324C34.7047 15.4597 34.4173 15.5707 34.1757 15.753L28.3554 20.1326C28.1845 20.2611 28.0405 20.4221 27.9317 20.6064C27.8229 20.7908 27.7513 20.9948 27.7211 21.2069C27.691 21.419 27.7028 21.635 27.7558 21.8425C27.8089 22.0501 27.9023 22.245 28.0305 22.4164C28.1584 22.5882 28.3188 22.7331 28.5026 22.8426C28.6864 22.952 28.89 23.024 29.1016 23.0544C29.3132 23.0848 29.5287 23.0729 29.7357 23.0195C29.9428 22.966 30.1372 22.8721 30.308 22.7431L30.5157 22.5867C23.8519 34.995 17.0509 41.5379 10.7489 41.5379C10.5353 41.5379 10.3237 41.58 10.1263 41.662C9.92891 41.744 9.74954 41.8642 9.59846 42.0158C9.44738 42.1673 9.32756 42.3473 9.24582 42.5453C9.16408 42.7433 9.12202 42.9556 9.12207 43.1699C9.12201 43.3842 9.16406 43.5965 9.2458 43.7945C9.32753 43.9925 9.44736 44.1724 9.59844 44.324C9.74952 44.4756 9.92888 44.5958 10.1263 44.6777C10.3237 44.7597 10.5353 44.8019 10.7489 44.8019C18.4665 44.8019 26.1207 37.764 33.5251 23.8754V24.356C33.5251 24.5703 33.5672 24.7826 33.6489 24.9806C33.7306 25.1786 33.8505 25.3585 34.0015 25.5101C34.1526 25.6616 34.332 25.7818 34.5294 25.8638C34.7268 25.9458 34.9384 25.988 35.152 25.988C35.3657 25.988 35.5773 25.9459 35.7747 25.8639C35.9721 25.7819 36.1514 25.6617 36.3025 25.5101C36.4536 25.3586 36.5734 25.1786 36.6552 24.9806C36.7369 24.7826 36.7789 24.5703 36.7789 24.356V17.0582C36.7789 16.7552 36.6947 16.4581 36.5359 16.2002C36.3771 15.9424 36.1499 15.734 35.8797 15.5984Z" fill="#F5F5F5"/>
</svg>
