<svg width="24" height="19" viewBox="0 0 24 19" fill="none" xmlns="http://www.w3.org/2000/svg">
<g filter="url(#filter0_d_536_3)">
<path d="M3.79449 10.3813C4.23327 10.3813 4.58899 10.0256 4.58899 9.58684C4.58899 9.14805 4.23327 8.79236 3.79449 8.79236C3.35571 8.79236 3 9.14805 3 9.58684C3 10.0256 3.35571 10.3813 3.79449 10.3813Z" fill="#E1C196"/>
</g>
<path d="M11.0161 10.7235V13.3495H10.0133V11.7739H8.68188V10.7235H11.0161Z" fill="#372C2E"/>
<path d="M14.2257 10.1399H13.0586V13.3494H14.2257V10.1399Z" fill="#372C2E"/>
<path d="M16.268 6.34692L14.8216 8.63442L14.2591 9.53308V9.99408H13.025V9.53308L12.4625 8.63442L11.0161 6.34692H12.3535L13.6449 8.25511L14.9306 6.34692H16.268Z" fill="#372C2E"/>
<path d="M16.0485 12.1824H13.7144V13.3495H16.0485V12.1824Z" fill="#372C2E"/>
<path d="M12.7667 10.3267H6.82898C6.96301 11.0212 7.44081 11.6747 8.38478 12.054C8.61786 12.1474 8.87425 12.2233 9.1656 12.2816L8.82763 12.9644L8.64116 13.3495C7.28348 13.3495 6.37447 12.5909 5.91998 11.5755C5.74516 11.1904 5.64028 10.7644 5.59366 10.3326H4.74292C4.80119 10.2625 5.02844 9.99412 5.02844 9.5798C5.02844 9.16548 4.80119 8.89706 4.74292 8.82703H12.3005L12.7667 9.57396V10.3267Z" fill="#E1C196"/>
<path d="M10.7243 6.78632L10.5511 7.9999C9.05551 6.90654 7.64659 7.53622 7.08648 8.6811H5.76416C6.22032 6.91226 7.87178 5.63572 10.7243 6.78632Z" fill="#372C2E"/>
<path d="M23.7513 8.49845C23.5777 8.07738 23.3176 7.69668 22.9765 7.37366C22.6354 7.05065 22.248 6.79685 21.8085 6.61804C21.5599 6.51421 21.3054 6.44498 21.0453 6.39885C20.8487 6.36424 20.6522 6.34692 20.4497 6.34692C19.9814 6.34692 19.5246 6.43346 19.0793 6.61804C18.6342 6.79685 18.2468 7.05065 17.9114 7.37366C17.5703 7.70245 17.3101 8.07738 17.1308 8.49845C17.0846 8.60805 17.0441 8.72341 17.0094 8.83877H14.9915L14.5173 9.58863V10.3443H16.8995C16.9458 10.6961 17.0499 11.0307 17.2002 11.3479C17.4257 11.8151 17.7437 12.2131 18.1658 12.5477C18.4954 12.8073 18.8538 13.0034 19.2412 13.1418C19.6345 13.2803 20.0334 13.3495 20.4439 13.3495C20.496 13.3495 20.5537 13.3495 20.6058 13.3437C21.0164 13.3264 21.4095 13.2399 21.797 13.0841C22.2306 12.9053 22.6237 12.6515 22.9706 12.3227C23.3061 11.9997 23.5605 11.6248 23.7396 11.198C23.8321 10.9788 23.8957 10.7538 23.9421 10.5231C23.9768 10.2231 23.994 9.91742 23.9999 9.6117C23.9883 9.22524 23.9017 8.85031 23.7513 8.49845ZM21.953 11.446C21.7738 11.6363 21.5773 11.7863 21.3518 11.8901C21.08 12.017 20.7794 12.0805 20.4497 12.0805C19.8311 12.0805 19.3222 11.8671 18.9291 11.446C18.6977 11.198 18.5359 10.9153 18.4434 10.5923H17.4488V10.1481H18.3566C18.3508 10.0962 18.3451 10.0386 18.3451 9.98087H17.4546V9.53672H18.3624C18.3682 9.47904 18.374 9.42712 18.3855 9.36944H17.4546V8.9253H18.507C18.6052 8.67727 18.7498 8.45231 18.9406 8.24465C19.3395 7.81204 19.8426 7.59862 20.4497 7.59862C20.8891 7.59862 21.2708 7.71398 21.6062 7.94471C21.7275 8.03123 21.8432 8.12929 21.9472 8.24465C22.3463 8.67727 22.5486 9.20793 22.5486 9.84243C22.5428 10.4885 22.3463 11.0191 21.953 11.446Z" fill="#E1C196"/>
<defs>
<filter id="filter0_d_536_3" x="0" y="0.792358" width="17.5889" height="17.589" filterUnits="userSpaceOnUse" color-interpolation-filters="sRGB">
<feFlood flood-opacity="0" result="BackgroundImageFix"/>
<feColorMatrix in="SourceAlpha" type="matrix" values="0 0 0 0 0 0 0 0 0 0 0 0 0 0 0 0 0 0 127 0" result="hardAlpha"/>
<feOffset dx="5"/>
<feGaussianBlur stdDeviation="4"/>
<feComposite in2="hardAlpha" operator="out"/>
<feColorMatrix type="matrix" values="0 0 0 0 0 0 0 0 0 0 0 0 0 0 0 0 0 0 0.25 0"/>
<feBlend mode="normal" in2="BackgroundImageFix" result="effect1_dropShadow_536_3"/>
<feBlend mode="normal" in="SourceGraphic" in2="effect1_dropShadow_536_3" result="shape"/>
</filter>
</defs>
</svg>
