<svg id="Layer_1" data-name="Layer 1" xmlns="http://www.w3.org/2000/svg" viewBox="0 0 3.3 2.44"><defs><style>.cls-1{fill:#e1c196;}</style></defs><path class="cls-1" d="M6.56,4.91a1.09,1.09,0,0,0-.27-.4,1.2,1.2,0,0,0-.4-.26l-.27-.08H5.41a1.27,1.27,0,0,0-.47.09,1.36,1.36,0,0,0-.41.26A1.07,1.07,0,0,0,4.22,5H3.51l-.16.26v.26h.83a1.17,1.17,0,0,0,.44.77A1.36,1.36,0,0,0,5,6.53a1.23,1.23,0,0,0,.42.07h.06a1.43,1.43,0,0,0,.41-.09,1.13,1.13,0,0,0,.41-.27,1.05,1.05,0,0,0,.27-.39,1.09,1.09,0,0,0,.07-.24c0-.1,0-.21,0-.31A.86.86,0,0,0,6.56,4.91Zm-.62,1a.8.8,0,0,1-.21.15.71.71,0,0,1-.32.07.69.69,0,0,1-.52-.22.75.75,0,0,1-.17-.3H4.37V5.48h.32a.13.13,0,0,1,0-.06H4.37V5.27h.32a.13.13,0,0,1,0-.06H4.37V5.06h.37a.61.61,0,0,1,.15-.24.68.68,0,0,1,.52-.23.73.73,0,0,1,.41.12l.12.11a.84.84,0,0,1,.21.56A.9.9,0,0,1,5.94,5.94Z" transform="translate(-3.35 -4.16)"/></svg>