<svg width="73" height="73" viewBox="0 0 73 73" fill="none" xmlns="http://www.w3.org/2000/svg">
<circle cx="36.4873" cy="36.4873" r="36.4873" fill="#E1C196"/>
<path d="M38.8213 66.8308H36.5471C34.7697 66.8289 33.0657 66.1198 31.8087 64.8592C30.5518 63.5986 29.8446 61.8894 29.8423 60.1064V53.8512C29.8423 53.7889 29.8545 53.7272 29.8782 53.6696C29.902 53.6121 29.9368 53.5598 29.9807 53.5158C30.0246 53.4718 30.0767 53.4368 30.1341 53.413C30.1915 53.3892 30.253 53.3769 30.315 53.377H45.0499C45.1119 53.3769 45.1734 53.3892 45.2308 53.413C45.2882 53.4368 45.3403 53.4718 45.3842 53.5158C45.4281 53.5598 45.4629 53.6121 45.4866 53.6697C45.5104 53.7272 45.5226 53.7889 45.5226 53.8512V60.1063C45.5208 61.8889 44.8143 63.5979 43.558 64.8586C42.3017 66.1192 40.5983 66.8285 38.8213 66.8308ZM30.7878 54.3254V60.1064C30.7897 61.6379 31.3971 63.1062 32.4768 64.189C33.5565 65.2718 35.0203 65.8808 36.5471 65.8824H38.8213C40.3476 65.8805 41.8108 65.2712 42.8899 64.1884C43.969 63.1055 44.5758 61.6375 44.5771 60.1064V54.3254H30.7878Z" fill="#F5F5F5" stroke="#F5F5F5" stroke-width="0.5" stroke-miterlimit="10"/>
<path d="M45.0523 54.3247H30.3175C30.2072 54.3245 30.1005 54.2857 30.0157 54.215C29.931 54.1442 29.8735 54.0461 29.8532 53.9374C29.1749 51.0071 27.6168 48.3561 25.3893 46.3421C23.3371 44.3913 21.7649 41.9889 20.7967 39.3243C19.8285 36.6597 19.4908 33.8058 19.8102 30.9879C20.2977 26.8321 22.167 22.9625 25.1163 20.0034C28.0656 17.0443 31.9228 15.1685 36.0655 14.6788C36.6012 14.5987 37.143 14.5663 37.6845 14.582C37.9777 14.582 38.2474 14.6069 38.5157 14.6318C38.7534 14.6539 38.9905 14.676 39.2461 14.676C43.4001 15.1521 47.272 17.0221 50.2336 19.9828C53.1951 22.9434 55.0727 26.821 55.5616 30.9864C55.8819 33.805 55.5444 36.6597 54.5758 39.325C53.6072 41.9902 52.0339 44.3931 49.9804 46.3435C47.754 48.3582 46.1962 51.0086 45.5165 53.9381C45.4962 54.0467 45.4387 54.1448 45.3539 54.2154C45.2692 54.286 45.1625 54.3247 45.0523 54.3247ZM30.7022 53.3762H44.6676C45.4471 50.407 47.0653 47.7269 49.3274 45.6585C51.2754 43.8084 52.7678 41.5292 53.6866 39.001C54.6055 36.4727 54.9257 33.7648 54.6219 31.0911C54.1612 27.147 52.3875 23.4741 49.5876 20.6668C46.7877 17.8594 43.1255 16.0818 39.1935 15.6215C38.9714 15.6236 38.6953 15.6002 38.4284 15.5753C38.1885 15.5532 37.9471 15.5304 37.6845 15.5304C37.1868 15.5154 36.6887 15.5445 36.1961 15.6172C32.2616 16.0781 28.5969 17.8561 25.7941 20.664C22.9912 23.4719 21.2139 27.1457 20.7493 31.0919C20.4462 33.7651 20.7666 36.4723 21.6852 39C22.6037 41.5277 24.0954 43.8067 26.0423 45.6571C28.3059 47.7249 29.9243 50.4058 30.7022 53.3762H30.7022Z" fill="#F5F5F5" stroke="#F5F5F5" stroke-width="0.5" stroke-miterlimit="10"/>
<path d="M44.5645 57.3337H30.7429C30.6959 57.3337 30.6494 57.3244 30.606 57.3064C30.5626 57.2884 30.5232 57.262 30.4899 57.2287C30.4567 57.1953 30.4304 57.1558 30.4124 57.1122C30.3945 57.0687 30.3852 57.0221 30.3853 56.9749C30.3852 56.9278 30.3945 56.8812 30.4124 56.8377C30.4304 56.7941 30.4567 56.7546 30.4899 56.7212C30.5232 56.6879 30.5626 56.6615 30.606 56.6435C30.6494 56.6255 30.6959 56.6162 30.7429 56.6162H44.5645C44.6114 56.6162 44.6579 56.6255 44.7013 56.6435C44.7447 56.6615 44.7842 56.6879 44.8174 56.7212C44.8506 56.7546 44.8769 56.7941 44.8949 56.8377C44.9128 56.8812 44.9221 56.9278 44.9221 56.9749C44.9221 57.0221 44.9128 57.0687 44.8949 57.1123C44.8769 57.1558 44.8506 57.1953 44.8173 57.2287C44.7841 57.262 44.7447 57.2884 44.7013 57.3064C44.6579 57.3244 44.6114 57.3337 44.5645 57.3337Z" fill="#F5F5F5" stroke="#F5F5F5" stroke-width="0.5" stroke-miterlimit="10"/>
<path d="M37.6814 54.3296C37.6244 54.3295 37.5679 54.3192 37.5147 54.299C37.452 54.2754 37.3951 54.2386 37.3478 54.1913C37.3004 54.1439 37.2636 54.0869 37.2399 54.0242L30.0149 39.708C29.9582 39.5959 29.9483 39.4657 29.9873 39.3462C30.0263 39.2267 30.111 39.1276 30.2228 39.0708C30.3347 39.0141 30.4643 39.0042 30.5834 39.0433C30.7025 39.0824 30.8013 39.1673 30.8581 39.2794L37.575 52.5901L40.8699 39.3784C40.9004 39.2564 40.978 39.1516 41.0855 39.087C41.1931 39.0223 41.3218 39.0032 41.4434 39.0337C41.5649 39.0645 41.6693 39.1423 41.7337 39.2502C41.7981 39.358 41.8172 39.4871 41.7869 39.6091L38.3231 53.4845L38.1236 54.0227C38.0897 54.1129 38.0293 54.1905 37.9503 54.2454C37.8713 54.3002 37.7775 54.3296 37.6814 54.3296Z" fill="#F5F5F5" stroke="#F5F5F5" stroke-width="0.5" stroke-miterlimit="10"/>
<path d="M35.4302 38.2945C34.5708 38.2579 33.7599 37.8853 33.1709 37.2564C31.564 35.7498 29.8611 36.6953 28.619 37.386C28.2489 37.6459 27.8241 37.8167 27.3775 37.8851C27.3154 37.8852 27.2539 37.8729 27.1966 37.849C27.1392 37.8252 27.0871 37.7903 27.0432 37.7463C26.9993 37.7022 26.9645 37.6499 26.9407 37.5924C26.917 37.5349 26.9048 37.4732 26.9048 37.4109C26.9049 37.2858 26.9543 37.1658 27.0421 37.077C27.13 36.9882 27.2492 36.9377 27.374 36.9367C27.6492 36.8387 27.9131 36.7112 28.1611 36.5564C29.4019 35.8679 31.7101 34.5892 33.8162 36.5636C35.2421 37.8958 36.2181 37.2714 37.3495 36.5487C37.8783 36.136 38.5032 35.8654 39.1652 35.7625C40.8304 35.6892 44.0451 37.2549 44.1793 37.3226C44.2914 37.3787 44.3768 37.4772 44.4166 37.5964C44.4564 37.7157 44.4474 37.8459 44.3915 37.9585C44.3355 38.0709 44.2373 38.1564 44.1184 38.1963C43.9996 38.2362 43.8699 38.2273 43.7576 38.1714C42.9023 37.7441 40.4067 36.6319 39.2149 36.7096C38.7201 36.8172 38.256 37.0355 37.8571 37.3482C37.1552 37.8903 36.3128 38.2187 35.4302 38.2945Z" fill="#F5F5F5" stroke="#F5F5F5" stroke-width="0.5" stroke-miterlimit="10"/>
<path d="M37.6812 13.1476C37.6191 13.1476 37.5576 13.1354 37.5002 13.1115C37.4429 13.0877 37.3908 13.0528 37.3469 13.0087C37.303 12.9647 37.2682 12.9124 37.2444 12.8549C37.2207 12.7973 37.2085 12.7357 37.2085 12.6734V9.59524C37.2085 9.53297 37.2207 9.4713 37.2445 9.41376C37.2682 9.35623 37.303 9.30395 37.3469 9.25992C37.3908 9.21589 37.4429 9.18096 37.5003 9.15714C37.5576 9.13332 37.6191 9.12108 37.6812 9.12109C37.7432 9.12107 37.8047 9.1333 37.8621 9.15712C37.9195 9.18094 37.9716 9.21586 38.0155 9.2599C38.0594 9.30393 38.0942 9.3562 38.118 9.41374C38.1417 9.47128 38.1539 9.53297 38.1539 9.59524V12.6734C38.1539 12.7357 38.1417 12.7974 38.118 12.8549C38.0942 12.9124 38.0594 12.9647 38.0155 13.0088C37.9716 13.0528 37.9195 13.0877 37.8621 13.1116C37.8047 13.1354 37.7432 13.1476 37.6812 13.1476Z" fill="#F5F5F5" stroke="#F5F5F5" stroke-width="0.5" stroke-miterlimit="10"/>
<path d="M48.6701 16.1028C48.5876 16.1026 48.5066 16.0807 48.4351 16.0394C48.3814 16.0084 48.3342 15.967 48.2963 15.9177C48.2585 15.8684 48.2307 15.812 48.2145 15.7519C48.1984 15.6918 48.1942 15.6291 48.2022 15.5674C48.2102 15.5057 48.2303 15.4461 48.2612 15.3922L49.7944 12.7199C49.857 12.611 49.9601 12.5315 50.081 12.4988C50.202 12.4661 50.331 12.4828 50.4396 12.5454C50.4934 12.5765 50.5406 12.6178 50.5784 12.6671C50.6163 12.7165 50.6441 12.7728 50.6602 12.8329C50.6764 12.893 50.6806 12.9557 50.6726 13.0174C50.6646 13.0792 50.6445 13.1387 50.6136 13.1927L49.0804 15.865C49.0389 15.9374 48.9791 15.9975 48.9071 16.0392C48.835 16.081 48.7533 16.1029 48.6701 16.1028Z" fill="#F5F5F5" stroke="#F5F5F5" stroke-width="0.5" stroke-miterlimit="10"/>
<path d="M56.7124 24.1701C56.6292 24.1702 56.5475 24.1483 56.4754 24.1065C56.4034 24.0648 56.3436 24.0047 56.3021 23.9323C56.2397 23.8233 56.2229 23.6939 56.2556 23.5726C56.2882 23.4512 56.3675 23.3478 56.4761 23.2851L59.1393 21.7463C59.2479 21.6839 59.3768 21.6673 59.4977 21.7C59.6186 21.7327 59.7217 21.8121 59.7844 21.9208C59.8469 22.0298 59.8636 22.1592 59.831 22.2805C59.7984 22.4019 59.7191 22.5053 59.6105 22.568L56.9473 24.1067C56.8759 24.1481 56.7949 24.17 56.7124 24.1701Z" fill="#F5F5F5" stroke="#F5F5F5" stroke-width="0.5" stroke-miterlimit="10"/>
<path d="M62.7336 35.1886H59.6572C59.5952 35.1887 59.5337 35.1764 59.4763 35.1526C59.419 35.1288 59.3669 35.0938 59.323 35.0498C59.2791 35.0058 59.2442 34.9535 59.2205 34.8959C59.1968 34.8384 59.1845 34.7767 59.1846 34.7144C59.1845 34.6522 59.1968 34.5905 59.2205 34.533C59.2442 34.4754 59.2791 34.4231 59.323 34.3791C59.3669 34.335 59.419 34.3001 59.4763 34.2763C59.5337 34.2525 59.5952 34.2402 59.6572 34.2402H62.7336C62.7957 34.2402 62.8572 34.2525 62.9145 34.2763C62.9719 34.3001 63.024 34.335 63.0679 34.3791C63.1118 34.4231 63.1466 34.4754 63.1704 34.533C63.1941 34.5905 63.2063 34.6522 63.2063 34.7144C63.2063 34.7767 63.1941 34.8384 63.1704 34.896C63.1466 34.9535 63.1118 35.0058 63.0679 35.0498C63.024 35.0938 62.9719 35.1288 62.9145 35.1526C62.8572 35.1764 62.7957 35.1887 62.7336 35.1886Z" fill="#F5F5F5" stroke="#F5F5F5" stroke-width="0.5" stroke-miterlimit="10"/>
<path d="M59.3742 47.7508C59.2917 47.7507 59.2107 47.7288 59.1392 47.6874L56.476 46.148C56.3675 46.0852 56.2882 45.9819 56.2556 45.8605C56.2229 45.7391 56.2397 45.6097 56.3021 45.5007C56.3649 45.3921 56.468 45.3127 56.5889 45.2801C56.7097 45.2474 56.8386 45.264 56.9473 45.3263L59.6105 46.8658C59.7191 46.9285 59.7984 47.0319 59.831 47.1533C59.8636 47.2747 59.8468 47.404 59.7844 47.513C59.7429 47.5854 59.6832 47.6455 59.6112 47.6872C59.5391 47.729 59.4574 47.7509 59.3742 47.7508Z" fill="#F5F5F5" stroke="#F5F5F5" stroke-width="0.5" stroke-miterlimit="10"/>
<path d="M15.9937 47.7499C15.9105 47.75 15.8287 47.7281 15.7567 47.6863C15.6846 47.6446 15.6248 47.5845 15.5834 47.5121C15.5209 47.4032 15.5042 47.2737 15.5368 47.1524C15.5694 47.031 15.6487 46.9276 15.7573 46.8649L18.4219 45.3254C18.5306 45.2631 18.6595 45.2464 18.7804 45.2791C18.9013 45.3118 19.0044 45.3912 19.0671 45.4999C19.1295 45.6089 19.1463 45.7382 19.1137 45.8596C19.0811 45.981 19.0018 46.0844 18.8932 46.1471L16.2286 47.6865C16.1572 47.7279 16.0762 47.7498 15.9937 47.7499Z" fill="#F5F5F5" stroke="#F5F5F5" stroke-width="0.5" stroke-miterlimit="10"/>
<path d="M15.7097 35.1886H12.6348C12.5728 35.1887 12.5112 35.1764 12.4539 35.1526C12.3965 35.1288 12.3444 35.0938 12.3005 35.0498C12.2566 35.0058 12.2218 34.9535 12.198 34.896C12.1743 34.8384 12.1621 34.7767 12.1621 34.7144C12.1621 34.6522 12.1743 34.5905 12.198 34.533C12.2218 34.4754 12.2566 34.4231 12.3005 34.3791C12.3444 34.335 12.3965 34.3001 12.4539 34.2763C12.5112 34.2525 12.5728 34.2402 12.6348 34.2402H15.7097C15.7718 34.2402 15.8333 34.2525 15.8906 34.2763C15.948 34.3001 16.0001 34.335 16.044 34.3791C16.0879 34.4231 16.1227 34.4754 16.1465 34.533C16.1702 34.5905 16.1824 34.6522 16.1824 34.7144C16.1824 34.7767 16.1702 34.8384 16.1465 34.8959C16.1227 34.9535 16.0879 35.0058 16.044 35.0498C16.0001 35.0938 15.948 35.1288 15.8906 35.1526C15.8333 35.1764 15.7718 35.1887 15.7097 35.1886Z" fill="#F5F5F5" stroke="#F5F5F5" stroke-width="0.5" stroke-miterlimit="10"/>
<path d="M18.6569 24.1692C18.5744 24.169 18.4934 24.1471 18.4219 24.1058L15.7574 22.5672C15.6488 22.5045 15.5694 22.4011 15.5368 22.2797C15.5042 22.1583 15.521 22.0289 15.5834 21.9199C15.6461 21.8111 15.7492 21.7317 15.8701 21.699C15.991 21.6663 16.12 21.683 16.2286 21.7455L18.8933 23.2842C19.0019 23.3469 19.0812 23.4503 19.1138 23.5717C19.1465 23.6931 19.1296 23.8225 19.0672 23.9314C19.0257 24.0038 18.966 24.0639 18.8939 24.1056C18.8219 24.1474 18.7401 24.1693 18.6569 24.1692Z" fill="#F5F5F5" stroke="#F5F5F5" stroke-width="0.5" stroke-miterlimit="10"/>
<path d="M26.6975 16.103C26.6143 16.1032 26.5325 16.0812 26.4605 16.0395C26.3884 15.9977 26.3286 15.9376 26.2872 15.8652L24.7533 13.1929C24.6909 13.084 24.6741 12.9546 24.7067 12.8332C24.7393 12.7118 24.8186 12.6084 24.9272 12.5457C24.981 12.5146 25.0403 12.4945 25.1019 12.4864C25.1634 12.4783 25.2259 12.4825 25.2859 12.4987C25.3458 12.515 25.4019 12.5428 25.4511 12.5808C25.5003 12.6188 25.5415 12.6662 25.5724 12.7201L27.1063 15.3924C27.1688 15.5014 27.1855 15.6308 27.1529 15.7521C27.1203 15.8735 27.041 15.9769 26.9324 16.0397C26.861 16.081 26.78 16.1028 26.6975 16.103Z" fill="#F5F5F5" stroke="#F5F5F5" stroke-width="0.5" stroke-miterlimit="10"/>
</svg>
