<svg width="345" height="77" viewBox="0 0 345 77" fill="none" xmlns="http://www.w3.org/2000/svg">
<path d="M145.964 37.7588C145.928 39.6402 145.82 41.4855 145.603 43.2945C145.856 41.9558 146.001 40.5809 146.001 39.1699C146.001 38.6633 145.964 38.193 145.964 37.7588Z" fill="#E1C196"/>
<g filter="url(#filter0_d_535_2)">
<path d="M8.49821 40.6542C11.5059 40.6542 13.9442 38.2159 13.9442 35.2081C13.9442 32.2004 11.5059 29.7622 8.49821 29.7622C5.49049 29.7622 3.05225 32.2004 3.05225 35.2081C3.05225 38.2159 5.49049 40.6542 8.49821 40.6542Z" fill="#E1C196"/>
</g>
<path d="M58 43V61H51.1261V50.2H42V43H58Z" fill="#372C2E" stroke="#372C2E" stroke-miterlimit="10"/>
<path d="M80 39H72V61H80V39Z" fill="#372C2E" stroke="#372C2E" stroke-miterlimit="10"/>
<path d="M94 13L84.0852 28.68L80.2295 34.84V38H71.7705V34.84L67.9148 28.68L58 13H67.1672L76.0196 26.08L84.8328 13H94Z" fill="#372C2E" stroke="#372C2E" stroke-width="0.5" stroke-miterlimit="10"/>
<path d="M97 53H81V61H97V53Z" fill="#372C2E" stroke="#372C2E" stroke-miterlimit="10"/>
<path d="M70 40.28H29.2992C30.2179 45.04 33.4931 49.5201 39.9637 52.1201C41.5614 52.7601 43.3188 53.28 45.316 53.68L42.9993 58.3601L41.7211 61C32.4146 61 26.1837 55.8 23.0683 48.8401C21.87 46.2 21.1511 43.28 20.8315 40.32H15C15.3994 39.84 16.9572 38 16.9572 35.16C16.9572 32.32 15.3994 30.48 15 30H66.8047L70 35.12V40.28Z" fill="#E1C196"/>
<path d="M56 16.0119L54.8125 24.3306C44.5611 16.836 34.9034 21.1522 31.0641 29H22C25.1269 16.8752 36.447 8.12496 56 16.0119Z" fill="#372C2E" stroke="#372C2E" stroke-width="0.5" stroke-miterlimit="10"/>
<path d="M145.296 27.748C144.106 24.8617 142.323 22.2521 139.985 20.0379C137.646 17.8238 134.991 16.0841 131.979 14.8584C130.274 14.1467 128.53 13.6722 126.747 13.3559C125.399 13.1187 124.052 13 122.664 13C119.455 13 116.323 13.5932 113.271 14.8584C110.219 16.0841 107.564 17.8238 105.265 20.0379C102.927 22.2917 101.143 24.8617 99.9146 27.748C99.5975 28.4992 99.32 29.29 99.0823 30.0807H85.25L82 35.2208V40.4004H98.3292C98.6463 42.8123 99.3597 45.1055 100.39 47.2801C101.936 50.4828 104.116 53.2109 107.009 55.5041C109.268 57.2834 111.725 58.6278 114.381 59.5766C117.076 60.5256 119.811 61 122.625 61C122.982 61 123.377 61 123.734 60.9605C126.549 60.8419 129.243 60.2488 131.9 59.1813C134.872 57.9556 137.566 56.2159 139.944 53.9621C142.244 51.748 143.988 49.178 145.216 46.2522C145.85 44.7497 146.286 43.2076 146.603 41.626C146.841 39.5701 146.959 37.4745 147 35.3789C146.92 32.7299 146.326 30.1599 145.296 27.748ZM132.969 47.9523C131.741 49.257 130.393 50.2851 128.848 50.9967C126.984 51.8666 124.924 52.3015 122.664 52.3015C118.424 52.3015 114.936 50.8386 112.241 47.9523C110.655 46.2522 109.546 44.3147 108.911 42.1005H102.094V39.056H108.317C108.277 38.7002 108.238 38.3048 108.238 37.9095H102.134V34.865H108.357C108.396 34.4696 108.436 34.1137 108.515 33.7183H102.134V30.6739H109.347C110.021 28.9737 111.012 27.4317 112.32 26.0082C115.054 23.0428 118.503 21.5799 122.664 21.5799C125.677 21.5799 128.292 22.3707 130.592 23.9523C131.423 24.5453 132.216 25.2175 132.929 26.0082C135.665 28.9737 137.051 32.6112 137.051 36.9605C137.012 41.3888 135.665 45.0264 132.969 47.9523Z" fill="#E1C196"/>
<path d="M155 63.1973H339.655" stroke="#E1C196" stroke-miterlimit="10"/>
<path d="M175 23.1862C172.932 24.4149 170.577 25 167.993 25C165.006 25 162.595 24.0053 160.757 22.0745C158.919 20.1436 158 17.5106 158 14.2925C158 11.016 159.034 8.32446 161.044 6.15956C163.111 4.05318 165.696 3 168.797 3C171.094 3 172.99 3.35106 174.54 4.11169V6.8617C172.875 5.75 170.865 5.22341 168.568 5.22341C166.213 5.22341 164.318 6.04255 162.825 7.68084C161.332 9.31914 160.584 11.4255 160.584 14.0585C160.584 16.75 161.274 18.8564 162.652 20.3776C164.03 21.899 165.926 22.6596 168.28 22.6596C169.889 22.6596 171.324 22.3085 172.53 21.6649V15.6968H167.936V13.4148H174.942V23.1862H175Z" fill="#372C2E" stroke="#372C2E" stroke-width="0.5" stroke-miterlimit="10"/>
<path d="M190.942 17.5609H180.416C180.474 19.273 180.876 20.5719 181.739 21.5166C182.602 22.4613 183.753 22.9335 185.248 22.9335C186.916 22.9335 188.469 22.3431 189.907 21.2214V23.524C188.584 24.5276 186.858 25 184.73 25C182.602 25 180.991 24.2915 179.783 22.9335C178.576 21.5756 178 19.5683 178 17.0885C178 14.7269 178.633 12.7786 179.956 11.2436C181.279 9.76754 182.89 9 184.846 9C186.801 9 188.296 9.64946 189.389 10.9484C190.482 12.2473 191 14.0184 191 16.321V17.5609H190.942ZM188.526 15.4944C188.526 14.0775 188.181 12.9557 187.549 12.1882C186.916 11.4207 185.995 11.0074 184.788 11.0074C183.637 11.0074 182.717 11.4207 181.912 12.2472C181.107 13.0738 180.646 14.1365 180.474 15.4944H188.526Z" fill="#372C2E" stroke="#372C2E" stroke-width="0.5" stroke-miterlimit="10"/>
<path d="M202 24.5309C201.408 24.824 200.639 25 199.691 25C197.027 25 195.665 23.5337 195.665 20.5426V11.5102H193V9.45749H195.665V5.76247L198.152 5V9.51614H202V11.5689H198.152V20.132C198.152 21.1291 198.329 21.8915 198.684 22.302C199.04 22.7127 199.632 22.9472 200.402 22.9472C200.994 22.9472 201.586 22.7713 202 22.4194V24.5309Z" fill="#372C2E" stroke="#372C2E" stroke-width="0.5" stroke-miterlimit="10"/>
<path d="M217 24H214.667V15.6853C214.667 12.5955 213.555 11.0225 211.333 11.0225C210.166 11.0225 209.222 11.4719 208.445 12.3146C207.666 13.2135 207.333 14.2809 207.333 15.6292V23.9438H205V9.33708H207.333V11.7528H207.389C208.5 9.89887 210.056 9 212.111 9C213.667 9 214.889 9.5056 215.722 10.5168C216.555 11.5281 217 13.0449 217 14.955V24Z" fill="#372C2E" stroke="#372C2E" stroke-width="0.5" stroke-miterlimit="10"/>
<path d="M233.942 17.5609H223.416C223.474 19.273 223.876 20.5719 224.739 21.5166C225.602 22.4613 226.753 22.9335 228.248 22.9335C229.916 22.9335 231.469 22.3431 232.907 21.2214V23.524C231.584 24.5276 229.858 25 227.73 25C225.602 25 223.992 24.2915 222.783 22.9335C221.576 21.5756 221 19.5683 221 17.0885C221 14.7269 221.634 12.7786 222.956 11.2436C224.279 9.76754 225.89 9 227.846 9C229.801 9 231.297 9.64946 232.39 10.9484C233.482 12.2473 234 14.0184 234 16.321V17.5609H233.942ZM231.469 15.4944C231.469 14.0775 231.124 12.9557 230.491 12.1882C229.858 11.4207 228.939 11.0074 227.73 11.0074C226.58 11.0074 225.66 11.4207 224.855 12.2472C224.049 13.0738 223.588 14.1365 223.416 15.4944H231.469Z" fill="#372C2E" stroke="#372C2E" stroke-width="0.5" stroke-miterlimit="10"/>
<path d="M243 24.5309C242.474 24.824 241.789 25 240.947 25C238.578 25 237.369 23.5337 237.369 20.5426V11.5102H235V9.45749H237.369V5.76247L239.578 5V9.51614H243V11.5689H239.578V20.132C239.578 21.1291 239.737 21.8915 240.053 22.302C240.368 22.7127 240.895 22.9472 241.579 22.9472C242.105 22.9472 242.632 22.7713 243 22.4194V24.5309Z" fill="#372C2E" stroke="#372C2E" stroke-width="0.5" stroke-miterlimit="10"/>
<path d="M268 4L261.118 16.6171V24H258.71V16.6722L252 4H254.753L259.398 13.0358C259.455 13.146 259.627 13.5317 259.914 14.248H259.972C260.086 13.9174 260.258 13.5317 260.545 13.0358L265.419 4H268Z" fill="#372C2E" stroke="#372C2E" stroke-width="0.5" stroke-miterlimit="10"/>
<path d="M279 24.6471H276.553V22.2353H276.495C275.446 24.0588 273.873 25 271.835 25C270.321 25 269.155 24.5883 268.281 23.7647C267.408 22.9412 267 21.8824 267 20.5883C267 17.7647 268.689 16.0589 272.01 15.5882L276.553 14.9411C276.553 12.3529 275.505 11.0588 273.466 11.0588C271.66 11.0588 270.029 11.7059 268.515 12.9411V10.4118C270.029 9.47059 271.718 9 273.64 9C277.194 9 278.941 10.8824 278.941 14.7059V24.6471H279ZM276.553 16.9412L272.883 17.4705C271.777 17.647 270.903 17.8824 270.321 18.2941C269.737 18.7059 269.447 19.4118 269.447 20.4118C269.447 21.1765 269.737 21.7647 270.262 22.2353C270.786 22.7059 271.485 22.9412 272.359 22.9412C273.583 22.9412 274.573 22.5295 275.33 21.6471C276.087 20.7647 276.495 19.7059 276.495 18.4118V16.9412H276.553Z" fill="#372C2E" stroke="#372C2E" stroke-width="0.5" stroke-miterlimit="10"/>
<path d="M302 9.05748L297.488 24H295L291.934 13.3103C291.818 12.908 291.76 12.4483 291.703 11.9311H291.645C291.587 12.2759 291.53 12.7356 291.355 13.3103L288 24H285.57L281 9.05748H283.545L286.67 20.2644C286.785 20.6092 286.843 21.069 286.901 21.5862H287.016C287.074 21.1839 287.133 20.7241 287.306 20.2069L290.777 9H292.976L296.099 20.2644C296.215 20.6092 296.273 21.069 296.33 21.5862H296.447C296.447 21.1839 296.562 20.7816 296.678 20.2644L299.744 9H302V9.05748Z" fill="#372C2E" stroke="#372C2E" stroke-width="0.5" stroke-miterlimit="10"/>
<path d="M317 24H313.51L306.588 16.8385H306.528V24H304V2H306.528V15.9791H306.588L313.148 9.16146H316.398L309.176 16.3229L317 24Z" fill="#372C2E" stroke="#372C2E" stroke-width="0.5" stroke-miterlimit="10"/>
<path d="M330 24.6471H327.554V22.2353H327.496C326.447 24.0588 324.874 25 322.835 25C321.321 25 320.155 24.5883 319.281 23.7647C318.408 22.9412 318 21.8824 318 20.5883C318 17.7647 319.69 16.0589 323.01 15.5882L327.554 14.9411C327.554 12.3529 326.505 11.0588 324.467 11.0588C322.661 11.0588 321.029 11.7059 319.515 12.9411V10.4118C321.029 9.47059 322.719 9 324.641 9C328.195 9 329.942 10.8824 329.942 14.7059V24.6471H330ZM327.554 16.9412L323.883 17.4705C322.777 17.647 321.903 17.8824 321.321 18.2941C320.738 18.7059 320.447 19.4118 320.447 20.4118C320.447 21.1765 320.738 21.7647 321.262 22.2353C321.787 22.7059 322.486 22.9412 323.36 22.9412C324.583 22.9412 325.574 22.5295 326.33 21.6471C327.088 20.8235 327.496 19.7059 327.496 18.4118V16.9412H327.554Z" fill="#372C2E" stroke="#372C2E" stroke-width="0.5" stroke-miterlimit="10"/>
<path d="M337 24H334V2H337V24Z" fill="#372C2E" stroke="#372C2E" stroke-width="0.5" stroke-miterlimit="10"/>
<path d="M168.941 49H160.941V33H162.724V47.3158H168.941V49Z" fill="#372C2E" stroke="#372C2E" stroke-width="0.5" stroke-miterlimit="10"/>
<path d="M179.941 49.6948H178.108V47.7418H178.052C177.274 49.2065 176.107 50 174.552 50C173.441 50 172.552 49.6948 171.886 49.0234C171.219 48.3521 170.941 47.4976 170.941 46.3991C170.941 44.0798 172.163 42.7371 174.663 42.3709L178.052 41.8216C178.052 39.6855 177.274 38.6479 175.719 38.6479C174.33 38.6479 173.108 39.1362 172.052 40.1737V38.1597C173.164 37.3662 174.441 37 175.885 37C178.552 37 179.885 38.5258 179.885 41.6385V49.6948H179.941ZM178.108 43.4084L175.386 43.8357C174.552 43.9577 173.885 44.2019 173.497 44.507C173.052 44.8122 172.83 45.4225 172.83 46.277C172.83 46.8873 173.052 47.3756 173.441 47.7418C173.83 48.108 174.386 48.291 174.997 48.291C175.885 48.291 176.663 47.9249 177.219 47.2535C177.83 46.5821 178.108 45.6666 178.108 44.6291V43.4084Z" fill="#372C2E" stroke="#372C2E" stroke-width="0.5" stroke-miterlimit="10"/>
<path d="M197.941 38.1067L194.529 49H192.627L190.277 41.2038C190.164 40.8834 190.109 40.5631 190.109 40.1893H190.053C190.053 40.4563 189.941 40.7767 189.829 41.1505L187.255 48.9466H185.409L181.941 38.0534H183.843L186.192 46.2233C186.248 46.4903 186.305 46.8106 186.361 47.1845H186.472C186.472 46.8641 186.585 46.5437 186.696 46.1699L189.325 38H191.003L193.353 46.2233C193.41 46.4903 193.466 46.8106 193.521 47.1845H193.633C193.633 46.9174 193.69 46.5971 193.801 46.2233L196.095 38H197.941V38.1067Z" fill="#372C2E" stroke="#372C2E" stroke-width="0.5" stroke-miterlimit="10"/>
<path d="M213.414 50C211.183 50 209.343 49.2509 208.004 47.6949C206.666 46.139 205.941 44.1796 205.941 41.7017C205.941 39.0508 206.61 36.9762 208.004 35.3627C209.399 33.7491 211.295 33 213.636 33C215.811 33 217.595 33.7491 218.934 35.3051C220.273 36.861 220.941 38.8204 220.941 41.2983C220.941 44.0068 220.273 46.0814 218.878 47.6373C217.54 49.2509 215.7 50 213.414 50ZM213.525 34.7288C211.852 34.7288 210.513 35.3627 209.454 36.5729C208.395 37.8406 207.893 39.4542 207.893 41.4712C207.893 43.4881 208.395 45.1017 209.399 46.3694C210.402 47.5796 211.741 48.2136 213.358 48.2136C215.086 48.2136 216.481 47.6373 217.484 46.4271C218.488 45.217 218.99 43.6034 218.99 41.4712C218.99 39.2813 218.488 37.6102 217.54 36.4576C216.592 35.3627 215.254 34.7288 213.525 34.7288Z" fill="#372C2E" stroke="#372C2E" stroke-width="0.5" stroke-miterlimit="10"/>
<path d="M229.941 33.8334C229.6 33.6112 229.144 33.5555 228.689 33.5555C227.38 33.5555 226.754 34.3334 226.754 35.9445V37.6667H229.485V39.2223H226.754V49H224.933V39.2223H222.941V37.6667H224.933V35.8889C224.933 34.7222 225.274 33.7778 225.957 33.0556C226.64 32.389 227.55 32 228.575 32C229.144 32 229.6 32.0556 229.941 32.2223V33.8334Z" fill="#372C2E" stroke="#372C2E" stroke-width="0.5" stroke-miterlimit="10"/>
<path d="M236.941 33.8334C236.599 33.6112 236.144 33.5555 235.688 33.5555C234.38 33.5555 233.754 34.3334 233.754 35.9445V37.6667H236.486V39.2223H233.754V49H231.933V39.2223H229.941V37.6667H231.933V35.8889C231.933 34.7222 232.274 33.7778 232.957 33.0556C233.64 32.389 234.551 32 235.575 32C236.144 32 236.599 32.0556 236.941 32.2223V33.8334Z" fill="#372C2E" stroke="#372C2E" stroke-width="0.5" stroke-miterlimit="10"/>
<path d="M239.44 34.404C239.012 34.404 238.655 34.2896 238.369 34.0605C238.084 33.8316 237.941 33.5454 237.941 33.2019C237.941 32.8586 238.084 32.5724 238.369 32.3434C238.655 32.1144 239.012 32 239.44 32C239.87 32 240.226 32.1144 240.512 32.3434C240.797 32.5724 240.941 32.8586 240.941 33.2019C240.941 33.5454 240.797 33.8316 240.512 34.0605C240.226 34.2896 239.87 34.404 239.44 34.404ZM240.583 49H238.227V37.3232H240.583V49Z" fill="#372C2E" stroke="#372C2E" stroke-width="0.5" stroke-miterlimit="10"/>
<path d="M251.941 49.1495C250.999 49.6962 249.941 50 248.647 50C246.94 50 245.588 49.4533 244.528 48.2991C243.47 47.1449 242.941 45.6869 242.941 43.8038C242.941 41.7384 243.529 40.0982 244.647 38.8832C245.764 37.6683 247.294 37 249.176 37C250.234 37 251.176 37.1822 251.941 37.6076V39.6121C251.059 38.944 250.117 38.6402 249.058 38.6402C247.823 38.6402 246.823 39.0654 246.058 39.9766C245.294 40.8879 244.882 42.1029 244.882 43.5607C244.882 45.0187 245.234 46.1729 246 46.9627C246.764 47.8131 247.705 48.2384 248.94 48.2384C250 48.2384 250.94 47.8738 251.882 47.1449V49.1495H251.941Z" fill="#372C2E" stroke="#372C2E" stroke-width="0.5" stroke-miterlimit="10"/>
<path d="M263.941 44.0188H255.897C255.952 45.4225 256.288 46.4601 256.902 47.2535C257.573 47.9859 258.466 48.3521 259.583 48.3521C260.869 48.3521 262.041 47.8638 263.103 46.9483V48.8404C262.097 49.6338 260.756 50 259.136 50C257.516 50 256.288 49.4507 255.337 48.291C254.388 47.1314 253.941 45.5446 253.941 43.5305C253.941 41.5775 254.444 39.9906 255.45 38.831C256.455 37.6714 257.684 37 259.193 37C260.701 37 261.818 37.5493 262.656 38.5869C263.494 39.6244 263.885 41.0892 263.885 42.9812V44.0188H263.941ZM262.097 42.3099C262.097 41.1502 261.818 40.2958 261.316 39.6244C260.812 39.0141 260.142 38.6479 259.249 38.6479C258.411 38.6479 257.684 39.0141 257.069 39.6855C256.455 40.3568 256.12 41.2113 255.952 42.3099H262.097Z" fill="#372C2E" stroke="#372C2E" stroke-width="0.5" stroke-miterlimit="10"/>
<path d="M156.644 69.9512H157.349V74.826H159.698V75.4133H156.644V69.9512Z" fill="#372C2E"/>
<path d="M163.868 73.4168C163.868 74.8852 162.87 75.4725 161.93 75.4725C160.873 75.4725 160.05 74.7089 160.05 73.4756C160.05 72.1834 160.931 71.4199 161.989 71.4199C163.104 71.4199 163.868 72.2422 163.868 73.4168ZM160.755 73.4756C160.755 74.3565 161.225 75.0026 161.93 75.0026C162.635 75.0026 163.104 74.3565 163.104 73.4756C163.104 72.8295 162.752 71.9485 161.93 71.9485C161.108 71.9485 160.755 72.712 160.755 73.4756Z" fill="#372C2E"/>
<path d="M167.568 75.2971C167.392 75.4146 166.981 75.532 166.452 75.532C165.278 75.532 164.514 74.7098 164.514 73.5351C164.514 72.3017 165.337 71.4795 166.629 71.4795C167.04 71.4795 167.392 71.597 167.627 71.6557L167.451 72.1843C167.275 72.0668 167.04 72.0081 166.629 72.0081C165.748 72.0081 165.219 72.6541 165.219 73.4764C165.219 74.3574 165.806 74.9447 166.57 74.9447C166.981 74.9447 167.216 74.8273 167.451 74.7685L167.568 75.2971Z" fill="#372C2E"/>
<path d="M170.564 75.4146L170.505 74.9447C170.27 75.2384 169.859 75.532 169.33 75.532C168.567 75.532 168.156 75.0034 168.156 74.4161C168.156 73.4764 168.978 72.9478 170.505 72.9478V72.8891C170.505 72.5367 170.388 72.0081 169.624 72.0081C169.272 72.0081 168.861 72.1255 168.626 72.3017L168.45 71.8319C168.743 71.597 169.213 71.4795 169.742 71.4795C170.916 71.4795 171.21 72.3018 171.21 73.0653V74.5336C171.21 74.886 171.21 75.1797 171.269 75.4733H170.564V75.4146ZM170.446 73.4177C169.683 73.4177 168.802 73.5351 168.802 74.2987C168.802 74.7685 169.096 75.0034 169.448 75.0034C169.977 75.0034 170.27 74.651 170.388 74.3574C170.388 74.2987 170.446 74.1812 170.446 74.1225V73.4177Z" fill="#372C2E"/>
<path d="M172.267 69.6582H172.972V75.414H172.267V69.6582Z" fill="#372C2E"/>
<path d="M178.728 72.8878H176.614V74.826H178.963V75.4133H175.909V69.9512H178.845V70.5385H176.614V72.2418H178.728V72.8878Z" fill="#372C2E"/>
<path d="M180.196 71.4787L180.725 72.3009C180.842 72.5358 181.018 72.712 181.136 72.947C181.253 72.712 181.371 72.5358 181.547 72.3009L182.076 71.4787H182.839L181.488 73.3581L182.839 75.355H182.017L181.43 74.474C181.253 74.2391 181.136 74.0042 181.018 73.7692C180.901 74.0042 180.725 74.2391 180.607 74.474L180.02 75.355H179.256L180.666 73.3581L179.315 71.4199H180.196V71.4787Z" fill="#372C2E"/>
<path d="M183.602 72.7709C183.602 72.2423 183.602 71.8899 183.544 71.4788H184.19L184.248 72.1248C184.542 71.655 185.012 71.3613 185.658 71.3613C186.598 71.3613 187.302 72.1836 187.302 73.3582C187.302 74.7678 186.421 75.4726 185.54 75.4726C185.012 75.4726 184.542 75.2377 184.307 74.8853V76.9996H183.602V72.7709ZM184.307 73.8281C184.307 73.9455 184.307 74.0043 184.366 74.1217C184.483 74.5916 184.894 74.944 185.423 74.944C186.187 74.944 186.598 74.3567 186.598 73.417C186.598 72.6534 186.187 71.9487 185.423 71.9487C184.953 71.9487 184.483 72.301 184.366 72.8296C184.366 72.9471 184.307 73.0058 184.307 73.1233V73.8281Z" fill="#372C2E"/>
<path d="M188.595 73.593C188.595 74.5328 189.241 74.9439 189.946 74.9439C190.474 74.9439 190.768 74.8264 191.003 74.7677L191.121 75.2963C190.886 75.4137 190.416 75.5312 189.828 75.5312C188.595 75.5312 187.89 74.7677 187.89 73.5343C187.89 72.3009 188.595 71.4199 189.711 71.4199C191.003 71.4199 191.355 72.5358 191.355 73.2406C191.355 73.3581 191.355 73.4756 191.355 73.593H188.595ZM190.709 73.0644C190.709 72.5946 190.533 71.8898 189.711 71.8898C189.006 71.8898 188.654 72.5359 188.595 73.0644H190.709Z" fill="#372C2E"/>
<path d="M192.236 72.7122C192.236 72.2423 192.236 71.8312 192.177 71.4788H192.823V72.2423H192.882C193.058 71.7137 193.469 71.3613 193.939 71.3613C193.998 71.3613 194.057 71.3613 194.115 71.3613V72.0074C194.057 72.0074 193.998 72.0074 193.881 72.0074C193.352 72.0074 193 72.3598 192.941 72.9471C192.941 73.0646 192.882 73.182 192.882 73.2995V75.4139H192.236V72.7122Z" fill="#372C2E"/>
<path d="M195.936 70.3633V71.4792H196.935V72.0078H195.936V74.1222C195.936 74.592 196.054 74.8857 196.465 74.8857C196.641 74.8857 196.817 74.8857 196.876 74.827L196.935 75.3555C196.817 75.4143 196.582 75.473 196.289 75.473C195.936 75.473 195.701 75.3556 195.525 75.1794C195.349 74.9444 195.231 74.592 195.231 74.1809V72.0665H194.644V71.5379H195.231V70.5982L195.936 70.3633Z" fill="#372C2E"/>
<path d="M198.579 70.421C198.579 70.656 198.403 70.8322 198.109 70.8322C197.874 70.8322 197.698 70.656 197.698 70.421C197.698 70.1861 197.874 69.9512 198.168 69.9512C198.403 69.9512 198.579 70.1274 198.579 70.421ZM197.757 75.4133V71.4782H198.461V75.4133H197.757Z" fill="#372C2E"/>
<path d="M199.577 74.7089C199.812 74.8264 200.165 75.0026 200.517 75.0026C201.046 75.0026 201.281 74.7677 201.281 74.4153C201.281 74.0629 201.104 73.8867 200.576 73.7105C199.871 73.4756 199.519 73.0644 199.519 72.5946C199.519 71.9485 200.047 71.4199 200.869 71.4199C201.281 71.4199 201.633 71.5374 201.809 71.6549L201.633 72.1835C201.457 72.066 201.222 71.9485 200.811 71.9485C200.4 71.9485 200.165 72.1835 200.165 72.4771C200.165 72.7708 200.4 72.947 200.928 73.1232C201.633 73.3581 201.927 73.7105 201.927 74.2978C201.927 75.0026 201.398 75.4725 200.458 75.4725C200.047 75.4725 199.636 75.355 199.342 75.1788L199.577 74.7089Z" fill="#372C2E"/>
<path d="M203.278 73.593C203.278 74.5328 203.924 74.9439 204.628 74.9439C205.157 74.9439 205.451 74.8264 205.686 74.7677L205.803 75.2963C205.568 75.4137 205.098 75.5312 204.511 75.5312C203.278 75.5312 202.573 74.7677 202.573 73.5343C202.573 72.3009 203.278 71.4199 204.394 71.4199C205.686 71.4199 206.038 72.5358 206.038 73.2406C206.038 73.3581 206.038 73.4756 206.038 73.593H203.278ZM205.333 73.0644C205.333 72.5946 205.157 71.8898 204.335 71.8898C203.63 71.8898 203.278 72.5359 203.219 73.0644H205.333Z" fill="#372C2E"/>
<path d="M206.626 75.0032C206.626 74.7095 206.802 74.4746 207.095 74.4746C207.389 74.4746 207.565 74.7095 207.565 75.0032C207.565 75.2969 207.389 75.5318 207.095 75.5318C206.86 75.5318 206.626 75.2969 206.626 75.0032Z" fill="#372C2E"/>
<path d="M210.913 69.9512V75.4133H210.209V69.9512H210.913Z" fill="#563727"/>
<path d="M212.205 72.536C212.205 72.1249 212.205 71.7724 212.146 71.4788H212.792L212.851 72.1248C213.027 71.7724 213.497 71.3613 214.143 71.3613C214.672 71.3613 215.553 71.655 215.553 73.0058V75.3551H214.848V73.1233C214.848 72.4772 214.613 71.9487 213.967 71.9487C213.497 71.9487 213.145 72.301 213.027 72.6534C212.968 72.7709 212.968 72.8884 212.968 73.0058V75.3551H212.205V72.536Z" fill="#563727"/>
<path d="M217.549 70.3633V71.4792H218.548V72.0078H217.549V74.1222C217.549 74.592 217.667 74.8857 218.078 74.8857C218.254 74.8857 218.431 74.8857 218.489 74.827L218.548 75.3555C218.43 75.4143 218.196 75.473 217.902 75.473C217.55 75.473 217.315 75.3556 217.138 75.1794C216.962 74.9444 216.845 74.592 216.845 74.1809V72.0665H216.257V71.5379H216.845V70.5982L217.549 70.3633Z" fill="#563727"/>
<path d="M219.664 73.593C219.664 74.5328 220.31 74.9439 221.015 74.9439C221.544 74.9439 221.837 74.8264 222.072 74.7677L222.19 75.2963C221.955 75.4137 221.485 75.5312 220.898 75.5312C219.723 75.5312 218.96 74.7677 218.96 73.5343C218.96 72.3009 219.664 71.4199 220.78 71.4199C222.072 71.4199 222.425 72.5358 222.425 73.2406C222.425 73.3581 222.425 73.4756 222.425 73.593H219.664ZM221.779 73.0644C221.779 72.5946 221.603 71.8898 220.78 71.8898C220.075 71.8898 219.723 72.5359 219.664 73.0644H221.779Z" fill="#563727"/>
<path d="M223.364 72.7122C223.364 72.2423 223.364 71.8312 223.305 71.4788H223.951V72.2423H224.01C224.186 71.7137 224.597 71.3613 225.067 71.3613C225.126 71.3613 225.185 71.3613 225.243 71.3613V72.0074C225.185 72.0074 225.126 72.0074 225.008 72.0074C224.48 72.0074 224.128 72.3598 224.069 72.9471C224.069 73.0646 224.01 73.182 224.01 73.2995V75.4139H223.364V72.7122Z" fill="#563727"/>
<path d="M226.008 72.536C226.008 72.1249 226.008 71.7724 225.949 71.4788H226.595L226.654 72.1248C226.83 71.7724 227.3 71.3613 227.946 71.3613C228.474 71.3613 229.355 71.655 229.355 73.0058V75.3551H228.65V73.1233C228.65 72.4772 228.416 71.9487 227.77 71.9487C227.3 71.9487 226.947 72.301 226.83 72.6534C226.771 72.7709 226.771 72.8884 226.771 73.0058V75.3551H226.066V72.536H226.008Z" fill="#563727"/>
<path d="M232.644 75.4146L232.585 74.9447C232.35 75.2384 231.939 75.532 231.411 75.532C230.647 75.532 230.236 75.0034 230.236 74.4161C230.236 73.4764 231.058 72.9478 232.585 72.9478V72.8891C232.585 72.5367 232.468 72.0081 231.704 72.0081C231.352 72.0081 230.941 72.1255 230.706 72.3017L230.53 71.8319C230.823 71.597 231.293 71.4795 231.822 71.4795C232.996 71.4795 233.29 72.3018 233.29 73.0653V74.5336C233.29 74.886 233.29 75.1797 233.349 75.4733H232.644V75.4146ZM232.585 73.4177C231.822 73.4177 230.941 73.5351 230.941 74.2987C230.941 74.7685 231.234 75.0034 231.587 75.0034C232.115 75.0034 232.409 74.651 232.526 74.3574C232.526 74.2987 232.585 74.1812 232.585 74.1225V73.4177Z" fill="#563727"/>
<path d="M235.228 70.3633V71.4792H236.227V72.0078H235.228V74.1222C235.228 74.592 235.346 74.8857 235.757 74.8857C235.933 74.8857 236.109 74.8857 236.168 74.827L236.227 75.3555C236.109 75.4143 235.874 75.473 235.581 75.473C235.228 75.473 234.993 75.3556 234.817 75.1794C234.641 74.9444 234.523 74.592 234.523 74.1809V72.0665H233.936V71.5379H234.523V70.5982L235.228 70.3633Z" fill="#563727"/>
<path d="M237.812 70.421C237.812 70.656 237.636 70.8322 237.342 70.8322C237.107 70.8322 236.931 70.656 236.931 70.421C236.931 70.1861 237.107 69.9512 237.401 69.9512C237.636 69.9512 237.812 70.1274 237.812 70.421ZM237.049 75.4133V71.4782H237.754V75.4133H237.049Z" fill="#563727"/>
<path d="M242.453 73.4168C242.453 74.8852 241.455 75.4725 240.515 75.4725C239.458 75.4725 238.635 74.7089 238.635 73.4756C238.635 72.1834 239.516 71.4199 240.574 71.4199C241.689 71.4199 242.453 72.2422 242.453 73.4168ZM239.34 73.4756C239.34 74.3565 239.81 75.0026 240.515 75.0026C241.22 75.0026 241.689 74.3565 241.689 73.4756C241.689 72.8295 241.337 71.9485 240.515 71.9485C239.751 71.9485 239.34 72.712 239.34 73.4756Z" fill="#563727"/>
<path d="M243.334 72.536C243.334 72.1249 243.334 71.7724 243.275 71.4788H243.921L243.98 72.1248C244.156 71.7724 244.626 71.3613 245.272 71.3613C245.8 71.3613 246.681 71.655 246.681 73.0058V75.3551H245.977V73.1233C245.977 72.4772 245.742 71.9487 245.096 71.9487C244.626 71.9487 244.273 72.301 244.156 72.6534C244.097 72.7709 244.097 72.8884 244.097 73.0058V75.3551H243.334V72.536Z" fill="#563727"/>
<path d="M250.029 75.4146L249.97 74.9447C249.735 75.2384 249.324 75.532 248.795 75.532C248.032 75.532 247.621 75.0034 247.621 74.4161C247.621 73.4764 248.443 72.9478 249.97 72.9478V72.8891C249.97 72.5367 249.853 72.0081 249.089 72.0081C248.737 72.0081 248.325 72.1255 248.091 72.3017L247.914 71.8319C248.208 71.597 248.678 71.4795 249.206 71.4795C250.381 71.4795 250.675 72.3018 250.675 73.0653V74.5336C250.675 74.886 250.675 75.1797 250.734 75.4733H250.029V75.4146ZM249.911 73.4177C249.148 73.4177 248.267 73.5351 248.267 74.2987C248.267 74.7685 248.56 75.0034 248.913 75.0034C249.441 75.0034 249.735 74.651 249.853 74.3574C249.853 74.2987 249.911 74.1812 249.911 74.1225V73.4177Z" fill="#563727"/>
<path d="M251.732 69.6582H252.437V75.414H251.732V69.6582Z" fill="#563727"/>
<path d="M255.374 70.0686C255.785 70.0099 256.313 69.9512 256.842 69.9512C257.84 69.9512 258.545 70.1861 259.074 70.656C259.544 71.1258 259.837 71.7131 259.837 72.5941C259.837 73.4751 259.544 74.2387 259.074 74.7085C258.545 75.2371 257.723 75.472 256.666 75.472C256.137 75.472 255.726 75.472 255.374 75.4133V70.0686ZM256.078 74.8847C256.255 74.9435 256.49 74.9434 256.783 74.9434C258.31 74.9434 259.074 74.1212 259.074 72.6529C259.074 71.3608 258.369 70.5385 256.842 70.5385C256.49 70.5385 256.196 70.5972 256.02 70.5972V74.8847H256.078Z" fill="#563727"/>
<path d="M261.188 73.593C261.188 74.5328 261.834 74.9439 262.539 74.9439C263.067 74.9439 263.361 74.8264 263.596 74.7677L263.713 75.2963C263.478 75.4137 263.008 75.5312 262.421 75.5312C261.247 75.5312 260.483 74.7677 260.483 73.5343C260.483 72.3009 261.188 71.4199 262.304 71.4199C263.596 71.4199 263.948 72.5358 263.948 73.2406C263.948 73.3581 263.948 73.4756 263.948 73.593H261.188ZM263.243 73.0644C263.243 72.5946 263.067 71.8898 262.245 71.8898C261.54 71.8898 261.188 72.5359 261.129 73.0644H263.243Z" fill="#563727"/>
<path d="M264.83 72.7709C264.83 72.2423 264.83 71.8899 264.771 71.4788H265.417L265.476 72.1248C265.77 71.655 266.239 71.3613 266.885 71.3613C267.825 71.3613 268.53 72.1836 268.53 73.3582C268.53 74.7678 267.649 75.4726 266.768 75.4726C266.239 75.4726 265.77 75.2377 265.535 74.8853V76.9996H264.83V72.7709ZM265.535 73.8281C265.535 73.9455 265.535 74.0043 265.593 74.1217C265.711 74.5916 266.122 74.944 266.651 74.944C267.414 74.944 267.825 74.3567 267.825 73.417C267.825 72.6534 267.414 71.9487 266.651 71.9487C266.181 71.9487 265.711 72.301 265.593 72.8296C265.593 72.9471 265.535 73.0058 265.535 73.1233V73.8281Z" fill="#563727"/>
<path d="M270.292 70.3633V71.4792H271.29V72.0078H270.292V74.1222C270.292 74.592 270.409 74.8857 270.82 74.8857C270.996 74.8857 271.173 74.8857 271.231 74.827L271.29 75.3555C271.173 75.4143 270.938 75.473 270.644 75.473C270.292 75.473 270.057 75.3556 269.881 75.1794C269.704 74.9444 269.587 74.592 269.587 74.1809V72.0665H269V71.5379H269.587V70.5982L270.292 70.3633Z" fill="#563727"/>
<path d="M272.112 69.6582H272.817V72.125C272.934 71.9488 273.11 71.7726 273.345 71.5964C273.58 71.4789 273.815 71.4202 274.05 71.4202C274.579 71.4202 275.401 71.7139 275.401 73.0647V75.414H274.696V73.1822C274.696 72.5361 274.461 72.0075 273.815 72.0075C273.345 72.0075 272.993 72.3599 272.875 72.7123C272.817 72.8298 272.817 72.8885 272.817 73.0647V75.414H272.112V69.6582Z" fill="#563727"/>
<path d="M276.4 75.0032C276.4 74.7095 276.576 74.4746 276.87 74.4746C277.164 74.4746 277.34 74.7095 277.34 75.0032C277.34 75.2969 277.164 75.5318 276.87 75.5318C276.635 75.5318 276.4 75.2969 276.4 75.0032Z" fill="#563727"/>
<path d="M279.982 70.0686C280.276 70.0099 280.746 69.9512 281.274 69.9512C281.979 69.9512 282.449 70.0686 282.743 70.3623C283.036 70.5972 283.212 70.8909 283.212 71.302C283.212 71.8306 282.86 72.3005 282.273 72.4767C282.801 72.5941 283.389 73.0053 283.389 73.8275C283.389 74.2974 283.212 74.6498 282.919 74.9434C282.566 75.2958 281.92 75.472 281.039 75.472C280.569 75.472 280.158 75.4133 279.923 75.4133V70.0686H279.982ZM280.687 72.3005H281.333C282.097 72.3005 282.508 71.8894 282.508 71.3608C282.508 70.7147 282.038 70.4798 281.333 70.4798C280.981 70.4798 280.804 70.4798 280.687 70.5385V72.3005ZM280.687 74.8847C280.804 74.8847 281.039 74.9434 281.274 74.9434C281.979 74.9434 282.684 74.6498 282.684 73.8863C282.684 73.1227 282.038 72.8291 281.274 72.8291H280.687V74.8847Z" fill="#E1C196"/>
<path d="M287.618 74.3574C287.618 74.7685 287.618 75.1209 287.676 75.4146H287.03L286.972 74.7685C286.795 75.0622 286.384 75.4733 285.68 75.4733C285.092 75.4733 284.329 75.1209 284.329 73.7701V71.4795H285.033V73.6526C285.033 74.4161 285.268 74.886 285.914 74.886C286.384 74.886 286.737 74.5336 286.854 74.2399C286.913 74.1225 286.913 74.005 286.913 73.8875V71.4795H287.618V74.3574Z" fill="#E1C196"/>
<path d="M288.675 74.7089C288.91 74.8264 289.262 75.0026 289.615 75.0026C290.143 75.0026 290.378 74.7677 290.378 74.4153C290.378 74.0629 290.202 73.8867 289.673 73.7105C288.969 73.4756 288.616 73.0644 288.616 72.5946C288.616 71.9485 289.145 71.4199 289.967 71.4199C290.378 71.4199 290.731 71.5374 290.907 71.6549L290.731 72.1835C290.554 72.066 290.319 71.9485 289.908 71.9485C289.497 71.9485 289.262 72.1835 289.262 72.4771C289.262 72.7708 289.497 72.947 290.026 73.1232C290.731 73.3581 291.024 73.7105 291.024 74.2978C291.024 75.0026 290.496 75.4725 289.556 75.4725C289.145 75.4725 288.734 75.355 288.44 75.1788L288.675 74.7089Z" fill="#E1C196"/>
<path d="M292.786 70.421C292.786 70.656 292.61 70.8322 292.316 70.8322C292.081 70.8322 291.905 70.656 291.905 70.421C291.905 70.1861 292.081 69.9512 292.375 69.9512C292.61 69.9512 292.786 70.1274 292.786 70.421ZM292.022 75.4133V71.4782H292.727V75.4133H292.022Z" fill="#E1C196"/>
<path d="M293.902 72.536C293.902 72.1249 293.902 71.7724 293.843 71.4788H294.489L294.548 72.1248C294.724 71.7724 295.194 71.3613 295.84 71.3613C296.369 71.3613 297.25 71.655 297.25 73.0058V75.3551H296.545V73.1233C296.545 72.4772 296.31 71.9487 295.664 71.9487C295.194 71.9487 294.842 72.301 294.724 72.6534C294.666 72.7709 294.666 72.8884 294.666 73.0058V75.3551H293.961V72.536H293.902Z" fill="#E1C196"/>
<path d="M298.777 73.593C298.777 74.5328 299.423 74.9439 300.127 74.9439C300.656 74.9439 300.95 74.8264 301.185 74.7677L301.302 75.2963C301.067 75.4137 300.597 75.5312 300.01 75.5312C298.835 75.5312 298.072 74.7677 298.072 73.5343C298.072 72.3009 298.777 71.4199 299.893 71.4199C301.185 71.4199 301.537 72.5358 301.537 73.2406C301.537 73.3581 301.537 73.4756 301.537 73.593H298.777ZM300.832 73.0644C300.832 72.5946 300.656 71.8898 299.834 71.8898C299.129 71.8898 298.777 72.5359 298.718 73.0644H300.832Z" fill="#E1C196"/>
<path d="M302.301 74.7089C302.536 74.8264 302.888 75.0026 303.241 75.0026C303.769 75.0026 304.004 74.7677 304.004 74.4153C304.004 74.0629 303.828 73.8867 303.299 73.7105C302.595 73.4756 302.242 73.0644 302.242 72.5946C302.242 71.9485 302.771 71.4199 303.593 71.4199C304.004 71.4199 304.357 71.5374 304.533 71.6549L304.357 72.1835C304.18 72.066 303.945 71.9485 303.534 71.9485C303.123 71.9485 302.888 72.1835 302.888 72.4771C302.888 72.7708 303.123 72.947 303.652 73.1232C304.357 73.3581 304.65 73.7105 304.65 74.2978C304.65 75.0026 304.122 75.4725 303.182 75.4725C302.771 75.4725 302.36 75.355 302.066 75.1788L302.301 74.7089Z" fill="#E1C196"/>
<path d="M305.531 74.7089C305.766 74.8264 306.119 75.0026 306.471 75.0026C307 75.0026 307.235 74.7677 307.235 74.4153C307.235 74.0629 307.058 73.8867 306.53 73.7105C305.825 73.4756 305.473 73.0644 305.473 72.5946C305.473 71.9485 306.001 71.4199 306.824 71.4199C307.235 71.4199 307.587 71.5374 307.763 71.6549L307.587 72.1835C307.411 72.066 307.176 71.9485 306.765 71.9485C306.354 71.9485 306.119 72.1835 306.119 72.4771C306.119 72.7708 306.354 72.947 306.882 73.1232C307.587 73.3581 307.881 73.7105 307.881 74.2978C307.881 75.0026 307.352 75.4725 306.412 75.4725C306.001 75.4725 305.59 75.355 305.296 75.1788L305.531 74.7089Z" fill="#E1C196"/>
<path d="M311.464 73.7101L310.876 75.4133H310.171L312.051 69.9512H312.873L314.753 75.4133H313.989L313.402 73.7101H311.464ZM313.226 73.1815L312.697 71.5957C312.579 71.2433 312.521 70.8909 312.403 70.5972C312.345 70.9496 312.227 71.2433 312.11 71.5957L311.581 73.1815H313.226Z" fill="#E1C196"/>
<path d="M318.159 75.2971C317.983 75.4146 317.572 75.532 317.043 75.532C315.869 75.532 315.105 74.7098 315.105 73.5351C315.105 72.3017 315.927 71.4795 317.219 71.4795C317.631 71.4795 317.983 71.597 318.218 71.6557L318.042 72.1843C317.865 72.0668 317.631 72.0081 317.219 72.0081C316.338 72.0081 315.81 72.6541 315.81 73.4764C315.81 74.3574 316.397 74.9447 317.161 74.9447C317.572 74.9447 317.807 74.8273 318.042 74.7685L318.159 75.2971Z" fill="#E1C196"/>
<path d="M322.27 74.3574C322.27 74.7685 322.27 75.1209 322.329 75.4146H321.683L321.624 74.7685C321.448 75.0622 321.037 75.4733 320.332 75.4733C319.745 75.4733 318.981 75.1209 318.981 73.7701V71.4795H319.686V73.6526C319.686 74.4161 319.921 74.886 320.567 74.886C321.037 74.886 321.389 74.5336 321.507 74.2399C321.565 74.1225 321.565 74.005 321.565 73.8875V71.4795H322.27V74.3574Z" fill="#E1C196"/>
<path d="M323.445 72.536C323.445 72.1249 323.445 71.7724 323.386 71.4788H324.032L324.091 72.1248C324.326 71.7724 324.678 71.42 325.324 71.42C325.853 71.42 326.264 71.7137 326.44 72.1836C326.558 71.9487 326.734 71.7725 326.852 71.655C327.086 71.4788 327.321 71.3613 327.733 71.3613C328.261 71.3613 329.025 71.7137 329.025 73.0646V75.3551H328.32V73.1233C328.32 72.3598 328.026 71.9487 327.498 71.9487C327.086 71.9487 326.793 72.2423 326.675 72.5947C326.617 72.7122 326.617 72.8296 326.617 72.9471V75.3551H325.912V73.0058C325.912 72.3598 325.618 71.9487 325.09 71.9487C324.62 71.9487 324.326 72.301 324.209 72.6534C324.15 72.7709 324.15 72.8884 324.15 73.0058V75.3551H323.445V72.536Z" fill="#E1C196"/>
<path d="M330.61 73.593C330.61 74.5328 331.256 74.9439 331.961 74.9439C332.489 74.9439 332.783 74.8264 333.018 74.7677L333.135 75.2963C332.9 75.4137 332.43 75.5312 331.843 75.5312C330.668 75.5312 329.905 74.7677 329.905 73.5343C329.905 72.3009 330.61 71.4199 331.726 71.4199C333.018 71.4199 333.37 72.5358 333.37 73.2406C333.37 73.3581 333.37 73.4756 333.37 73.593H330.61ZM332.665 73.0644C332.665 72.5946 332.489 71.8898 331.667 71.8898C330.962 71.8898 330.61 72.5359 330.551 73.0644H332.665Z" fill="#E1C196"/>
<path d="M334.252 72.536C334.252 72.1249 334.252 71.7724 334.193 71.4788H334.839L334.898 72.1248C335.074 71.7724 335.544 71.3613 336.19 71.3613C336.718 71.3613 337.599 71.655 337.599 73.0058V75.3551H336.895V73.1233C336.895 72.4772 336.66 71.9487 336.014 71.9487C335.544 71.9487 335.191 72.301 335.074 72.6534C335.015 72.7709 335.015 72.8884 335.015 73.0058V75.3551H334.31V72.536H334.252Z" fill="#E1C196"/>
<path d="M338.539 75.0032C338.539 74.7095 338.715 74.4746 339.009 74.4746C339.302 74.4746 339.478 74.7095 339.478 75.0032C339.478 75.2969 339.302 75.5318 339.009 75.5318C338.774 75.5318 338.539 75.2969 338.539 75.0032Z" fill="#E1C196"/>
<defs>
<filter id="filter0_d_535_2" x="0.0522461" y="21.7622" width="26.8918" height="26.892" filterUnits="userSpaceOnUse" color-interpolation-filters="sRGB">
<feFlood flood-opacity="0" result="BackgroundImageFix"/>
<feColorMatrix in="SourceAlpha" type="matrix" values="0 0 0 0 0 0 0 0 0 0 0 0 0 0 0 0 0 0 127 0" result="hardAlpha"/>
<feOffset dx="5"/>
<feGaussianBlur stdDeviation="4"/>
<feComposite in2="hardAlpha" operator="out"/>
<feColorMatrix type="matrix" values="0 0 0 0 0 0 0 0 0 0 0 0 0 0 0 0 0 0 0.25 0"/>
<feBlend mode="normal" in2="BackgroundImageFix" result="effect1_dropShadow_535_2"/>
<feBlend mode="normal" in="SourceGraphic" in2="effect1_dropShadow_535_2" result="shape"/>
</filter>
</defs>
</svg>
