<svg id="Layer_1" data-name="Layer 1" xmlns="http://www.w3.org/2000/svg" viewBox="0 0 712.75 134.68"><defs><style>.cls-1,.cls-3{fill:#e1c196;}.cls-2,.cls-5,.cls-6{fill:#372c2e;}.cls-2,.cls-5{stroke:#372c2e;}.cls-2,.cls-3,.cls-4,.cls-5{stroke-miterlimit:10;}.cls-3,.cls-4{stroke:#e1c196;}.cls-4{fill:none;}.cls-5{stroke-width:0.5px;}</style></defs><path class="cls-1" d="M362.2,58.38a153.15,153.15,0,0,1-1,15.3,61.2,61.2,0,0,0,1.1-11.4C362.3,60.88,362.2,59.58,362.2,58.38Z" transform="translate(-3 -0.5)"/><path class="cls-1" d="M16.8,71.08A13.8,13.8,0,1,0,3,57.28,13.8,13.8,0,0,0,16.8,71.08Z" transform="translate(-3 -0.5)"/><path class="cls-2" d="M143.1,77.88v45H125.4v-27H101.9v-18Z" transform="translate(-3 -0.5)"/><path class="cls-2" d="M195.2,66.88H173.7v55.9h21.5Z" transform="translate(-3 -0.5)"/><path class="cls-2" d="M230.2,1.88,205,41.08l-9.8,15.4v7.9H173.7v-7.9l-9.8-15.4L138.7,1.88H162l22.5,32.7,22.4-32.7Z" transform="translate(-3 -0.5)"/><path class="cls-2" d="M237.4,102.48H197.9v20.3h39.5Z" transform="translate(-3 -0.5)"/><path class="cls-3" d="M171.4,70.28H69.5c2.3,11.9,10.5,23.1,26.7,29.6a75.91,75.91,0,0,0,13.4,3.9l-5.8,11.7-3.2,6.6c-23.3,0-38.9-13-46.7-30.4a69.79,69.79,0,0,1-5.6-21.3H33.7a19.43,19.43,0,0,0,0-25.8H163.4l8,12.8v12.9Z" transform="translate(-3 -0.5)"/><path class="cls-2" d="M137.2,8.68l-3,21.2c-25.9-19.1-50.3-8.1-60,11.9H51.3C59.2,10.88,87.8-11.42,137.2,8.68Z" transform="translate(-3 -0.5)"/><path class="cls-3" d="M357.2,38.38a56.28,56.28,0,0,0-13.4-19.5,64.49,64.49,0,0,0-20.2-13.1A62.07,62.07,0,0,0,310.4,2a58.87,58.87,0,0,0-10.3-.9,61.1,61.1,0,0,0-23.7,4.7,62.29,62.29,0,0,0-20.2,13.1,57.2,57.2,0,0,0-15.6,25.4H205.7l-8.2,13v13.1h41.2a58.46,58.46,0,0,0,21.9,38.2,65.34,65.34,0,0,0,18.6,10.3,61.93,61.93,0,0,0,20.8,3.6,26.2,26.2,0,0,0,2.8-.1,61.44,61.44,0,0,0,20.6-4.5,65.76,65.76,0,0,0,20.3-13.2A57.84,57.84,0,0,0,357,85.18a60.5,60.5,0,0,0,3.5-11.7c.6-5.2.9-10.5,1-15.8A53.16,53.16,0,0,0,357.2,38.38Zm-31.1,51.1a33.5,33.5,0,0,1-10.4,7.7,36.34,36.34,0,0,1-15.6,3.3c-10.7,0-19.5-3.7-26.3-11a35.89,35.89,0,0,1-8.4-14.8H248.2V67h15.7a26.42,26.42,0,0,1-.2-2.9H248.3v-7.7H264a28.86,28.86,0,0,1,.4-2.9H248.3v-7.7h18.2A38.07,38.07,0,0,1,274,34c6.9-7.5,15.6-11.2,26.1-11.2a34.22,34.22,0,0,1,20,6A36.05,36.05,0,0,1,326,34c6.9,7.5,10.4,16.7,10.4,27.7C336.3,72.88,332.9,82.08,326.1,89.48Z" transform="translate(-3 -0.5)"/><path class="cls-4" d="M401.1,111.68H715.5" transform="translate(-3 -0.5)"/><path class="cls-5" d="M430.6,41.78a23.81,23.81,0,0,1-12.2,3.1,16.79,16.79,0,0,1-12.6-5c-3.2-3.3-4.8-7.8-4.8-13.3a19.42,19.42,0,0,1,5.3-13.9,18.32,18.32,0,0,1,13.5-5.4,22.88,22.88,0,0,1,10,1.9v4.7a18.6,18.6,0,0,0-10.4-2.8,13,13,0,0,0-10,4.2,15.33,15.33,0,0,0-3.9,10.9q0,6.9,3.6,10.8a12.73,12.73,0,0,0,9.8,3.9,15.84,15.84,0,0,0,7.4-1.7V29h-8v-3.9h12.2v16.7Z" transform="translate(-3 -0.5)"/><path class="cls-5" d="M459.3,32.28H441c.1,2.9.8,5.1,2.3,6.7a7.91,7.91,0,0,0,6.1,2.4,13.18,13.18,0,0,0,8.1-2.9v3.9c-2.3,1.7-5.3,2.5-9,2.5a11,11,0,0,1-8.6-3.5c-2.1-2.3-3.1-5.7-3.1-9.9a14.36,14.36,0,0,1,3.4-9.9,11.09,11.09,0,0,1,8.5-3.8,9.84,9.84,0,0,1,7.9,3.3c1.9,2.2,2.8,5.2,2.8,9.1v2.1Zm-4.2-3.5a8.51,8.51,0,0,0-1.7-5.6,6,6,0,0,0-4.8-2,6.72,6.72,0,0,0-5,2.1,9.1,9.1,0,0,0-2.5,5.5Z" transform="translate(-3 -0.5)"/><path class="cls-5" d="M477.7,44a8.7,8.7,0,0,1-3.9.8c-4.5,0-6.8-2.5-6.8-7.6V21.78h-4.5v-3.5H467V12l4.2-1.3v7.7h6.5v3.5h-6.5v14.6a5.9,5.9,0,0,0,.9,3.7,3.69,3.69,0,0,0,2.9,1.1,4.19,4.19,0,0,0,2.7-.9Z" transform="translate(-3 -0.5)"/><path class="cls-5" d="M504.8,44.18h-4.2V29.38c0-5.5-2-8.3-6-8.3a6.82,6.82,0,0,0-5.2,2.3,8.46,8.46,0,0,0-2,5.9v14.8h-4.2v-26h4.2v4.3h.1a9.35,9.35,0,0,1,8.5-4.9,8,8,0,0,1,6.5,2.7c1.5,1.8,2.3,4.5,2.3,7.9v16.1Z" transform="translate(-3 -0.5)"/><path class="cls-5" d="M533.5,32.28H515.2c.1,2.9.8,5.1,2.3,6.7a7.91,7.91,0,0,0,6.1,2.4,13.18,13.18,0,0,0,8.1-2.9v3.9c-2.3,1.7-5.3,2.5-9,2.5a11,11,0,0,1-8.6-3.5c-2.1-2.3-3.1-5.7-3.1-9.9a14.36,14.36,0,0,1,3.4-9.9,11.09,11.09,0,0,1,8.5-3.8,9.84,9.84,0,0,1,7.9,3.3c1.9,2.2,2.8,5.2,2.8,9.1v2.1Zm-4.3-3.5a8.51,8.51,0,0,0-1.7-5.6,6,6,0,0,0-4.8-2,6.72,6.72,0,0,0-5,2.1,9.1,9.1,0,0,0-2.5,5.5Z" transform="translate(-3 -0.5)"/><path class="cls-5" d="M551.8,44a8.7,8.7,0,0,1-3.9.8c-4.5,0-6.8-2.5-6.8-7.6V21.78h-4.5v-3.5h4.5V12l4.2-1.3v7.7h6.5v3.5h-6.5v14.6a5.9,5.9,0,0,0,.9,3.7,3.69,3.69,0,0,0,2.9,1.1,4.19,4.19,0,0,0,2.7-.9V44Z" transform="translate(-3 -0.5)"/><path class="cls-5" d="M595.7,7.88l-12,22.9v13.4h-4.2V30.88l-11.7-23h4.8l8.1,16.4c.1.2.4.9.9,2.2h.1a12.9,12.9,0,0,1,1-2.2l8.5-16.4Z" transform="translate(-3 -0.5)"/><path class="cls-5" d="M613.8,44.18h-4.2v-4.1h-.1a8.78,8.78,0,0,1-8,4.7,8.53,8.53,0,0,1-6.1-2.1,7,7,0,0,1-2.2-5.4c0-4.8,2.9-7.7,8.6-8.5l7.8-1.1c0-4.4-1.8-6.6-5.3-6.6a13.24,13.24,0,0,0-8.5,3.2V20a16.37,16.37,0,0,1,8.8-2.4c6.1,0,9.1,3.2,9.1,9.7v16.9Zm-4.2-13.1-6.3.9a10.84,10.84,0,0,0-4.4,1.4,4.09,4.09,0,0,0-1.5,3.6,4,4,0,0,0,1.4,3.1,5.22,5.22,0,0,0,3.6,1.2,6.39,6.39,0,0,0,5.1-2.2,8.08,8.08,0,0,0,2-5.5v-2.5Z" transform="translate(-3 -0.5)"/><path class="cls-5" d="M654.3,18.28l-7.8,26h-4.3l-5.3-18.6a15,15,0,0,1-.4-2.4h-.1a17.26,17.26,0,0,1-.5,2.4l-5.8,18.6h-4.2l-7.9-26h4.4l5.4,19.5a12,12,0,0,1,.4,2.3h.2a12.89,12.89,0,0,1,.5-2.4l6-19.5h3.8l5.4,19.6a12,12,0,0,1,.4,2.3h.2a11.13,11.13,0,0,1,.4-2.3l5.3-19.6h3.9Z" transform="translate(-3 -0.5)"/><path class="cls-5" d="M680.7,44.18h-5.8l-11.5-12.5h-.1v12.5h-4.2V5.78h4.2v24.4h.1l10.9-11.9h5.4l-12,12.5Z" transform="translate(-3 -0.5)"/><path class="cls-5" d="M703.5,44.18h-4.2v-4.1h-.1a8.78,8.78,0,0,1-8,4.7,8.53,8.53,0,0,1-6.1-2.1,7,7,0,0,1-2.2-5.4c0-4.8,2.9-7.7,8.6-8.5l7.8-1.1c0-4.4-1.8-6.6-5.3-6.6a13.24,13.24,0,0,0-8.5,3.2V20a16.37,16.37,0,0,1,8.8-2.4c6.1,0,9.1,3.2,9.1,9.7v16.9Zm-4.2-13.1L693,32a10.84,10.84,0,0,0-4.4,1.4,4.09,4.09,0,0,0-1.5,3.6,4,4,0,0,0,1.4,3.1,5.22,5.22,0,0,0,3.6,1.2,6.39,6.39,0,0,0,5.1-2.2,7.91,7.91,0,0,0,2-5.5v-2.5Z" transform="translate(-3 -0.5)"/><path class="cls-5" d="M715.5,44.18h-4.2V5.78h4.2Z" transform="translate(-3 -0.5)"/><path class="cls-5" d="M417.2,88H402.4V59.48h3.3V85h11.5Z" transform="translate(-3 -0.5)"/><path class="cls-5" d="M435.7,88h-3.3v-3.2h-.1a6.92,6.92,0,0,1-6.3,3.7,6.8,6.8,0,0,1-4.8-1.6,5.44,5.44,0,0,1-1.7-4.3c0-3.8,2.2-6,6.7-6.6l6.1-.9c0-3.5-1.4-5.2-4.2-5.2a9.55,9.55,0,0,0-6.6,2.5v-3.3a12.34,12.34,0,0,1,6.9-1.9c4.8,0,7.2,2.5,7.2,7.6V88Zm-3.3-10.3-4.9.7a8,8,0,0,0-3.4,1.1,3.19,3.19,0,0,0-1.2,2.9,3,3,0,0,0,1.1,2.4,4.28,4.28,0,0,0,2.8.9,5.28,5.28,0,0,0,4-1.7,5.89,5.89,0,0,0,1.6-4.3Z" transform="translate(-3 -0.5)"/><path class="cls-5" d="M467.5,67.68l-6.1,20.4H458l-4.2-14.6a5.82,5.82,0,0,1-.3-1.9h-.1a7.42,7.42,0,0,1-.4,1.8L448.4,88h-3.3l-6.2-20.4h3.4l4.2,15.3q.15.75.3,1.8h.2a7.19,7.19,0,0,1,.4-1.9l4.7-15.3h3l4.2,15.4q.15.75.3,1.8h.2a6.72,6.72,0,0,1,.3-1.8l4.1-15.4h3.3Z" transform="translate(-3 -0.5)"/><path class="cls-5" d="M494.4,88.48a12.39,12.39,0,0,1-9.7-4,15,15,0,0,1-3.7-10.4c0-4.6,1.2-8.2,3.7-11s5.9-4.1,10.1-4.1a12.1,12.1,0,0,1,9.5,4,15,15,0,0,1,3.6,10.4c0,4.7-1.2,8.3-3.7,11S498.5,88.48,494.4,88.48Zm.2-26.5a9.4,9.4,0,0,0-7.3,3.2,12.45,12.45,0,0,0-2.8,8.5,12.93,12.93,0,0,0,2.7,8.5,9,9,0,0,0,7.1,3.2,9.24,9.24,0,0,0,7.4-3.1c1.8-2.1,2.7-4.9,2.7-8.6s-.9-6.7-2.6-8.7A9.25,9.25,0,0,0,494.6,62Z" transform="translate(-3 -0.5)"/><path class="cls-5" d="M523.2,60.68a4,4,0,0,0-2.2-.5c-2.3,0-3.4,1.4-3.4,4.3v3.1h4.8v2.8h-4.8V88h-3.2V70.38h-3.5v-2.8h3.5v-3.2a7.22,7.22,0,0,1,1.8-5.1,6.42,6.42,0,0,1,4.6-1.9,5.46,5.46,0,0,1,2.4.4v2.9Z" transform="translate(-3 -0.5)"/><path class="cls-5" d="M536,60.68a4,4,0,0,0-2.2-.5c-2.3,0-3.4,1.4-3.4,4.3v3.1h4.8v2.8h-4.8V88h-3.2V70.38h-3.5v-2.8h3.5v-3.2a7.22,7.22,0,0,1,1.8-5.1,6.42,6.42,0,0,1,4.6-1.9,5.46,5.46,0,0,1,2.4.4v2.9Z" transform="translate(-3 -0.5)"/><path class="cls-5" d="M540.3,62.48a2.05,2.05,0,1,1,1.5-.6A2,2,0,0,1,540.3,62.48ZM541.9,88h-3.3V67.58h3.3Z" transform="translate(-3 -0.5)"/><path class="cls-5" d="M562.4,87.08a11.07,11.07,0,0,1-5.6,1.4,9.12,9.12,0,0,1-7-2.8,10.21,10.21,0,0,1-2.7-7.4,11.3,11.3,0,0,1,2.9-8.1,10.23,10.23,0,0,1,7.7-3.1,9.88,9.88,0,0,1,4.7,1v3.3a8,8,0,0,0-4.9-1.6,6.39,6.39,0,0,0-5.1,2.2,8.77,8.77,0,0,0-2,5.9,7.61,7.61,0,0,0,1.9,5.6,6.42,6.42,0,0,0,5,2.1,8.08,8.08,0,0,0,5-1.8v3.3Z" transform="translate(-3 -0.5)"/><path class="cls-5" d="M583.7,78.68H569.3a8.42,8.42,0,0,0,1.8,5.3,6.49,6.49,0,0,0,4.8,1.8,10,10,0,0,0,6.3-2.3v3.1a11.92,11.92,0,0,1-7.1,1.9,8.55,8.55,0,0,1-6.8-2.8c-1.7-1.9-2.5-4.5-2.5-7.8a10.79,10.79,0,0,1,2.7-7.7,8.94,8.94,0,0,1,6.7-3,7.78,7.78,0,0,1,6.2,2.6c1.5,1.7,2.2,4.1,2.2,7.2v1.7Zm-3.3-2.8a6.63,6.63,0,0,0-1.4-4.4,4.75,4.75,0,0,0-3.7-1.6,5.38,5.38,0,0,0-3.9,1.7,7.52,7.52,0,0,0-2,4.3Z" transform="translate(-3 -0.5)"/><path class="cls-6" d="M403.9,123.18h1.2v8.3h4v1h-5.2Z" transform="translate(-3 -0.5)"/><path class="cls-6" d="M416.2,129.08a3.2,3.2,0,0,1-3.3,3.5,3.15,3.15,0,0,1-3.2-3.4,3.26,3.26,0,0,1,3.3-3.5A3.15,3.15,0,0,1,416.2,129.08Zm-5.3.1c0,1.5.8,2.6,2,2.6s2-1.1,2-2.6c0-1.1-.6-2.6-2-2.6S410.9,127.88,410.9,129.18Z" transform="translate(-3 -0.5)"/><path class="cls-6" d="M422.5,132.28a3.83,3.83,0,0,1-1.9.4,3.18,3.18,0,0,1-3.3-3.4,3.33,3.33,0,0,1,3.6-3.5,6.53,6.53,0,0,1,1.7.3l-.3.9a2.42,2.42,0,0,0-1.4-.3,2.51,2.51,0,0,0-.1,5,4.91,4.91,0,0,0,1.5-.3Z" transform="translate(-3 -0.5)"/><path class="cls-6" d="M427.6,132.48l-.1-.8a2.6,2.6,0,0,1-2,1,1.86,1.86,0,0,1-2-1.9c0-1.6,1.4-2.5,4-2.5v-.1a1.35,1.35,0,0,0-1.5-1.5,3.1,3.1,0,0,0-1.7.5l-.3-.8a3.59,3.59,0,0,1,2.2-.6c2,0,2.5,1.4,2.5,2.7V131a8.08,8.08,0,0,0,.1,1.6h-1.2Zm-.2-3.4c-1.3,0-2.8.2-2.8,1.5a1.08,1.08,0,0,0,1.1,1.2,1.69,1.69,0,0,0,1.6-1.1c0-.1.1-.3.1-.4v-1.2Z" transform="translate(-3 -0.5)"/><path class="cls-6" d="M430.5,122.68h1.2v9.8h-1.2Z" transform="translate(-3 -0.5)"/><path class="cls-6" d="M441.5,128.18h-3.6v3.3h4v1h-5.2v-9.3h5v1h-3.8v2.9h3.6Z" transform="translate(-3 -0.5)"/><path class="cls-6" d="M444,125.78l.9,1.4c.2.4.5.7.7,1.1a6.73,6.73,0,0,1,.7-1.1l.9-1.4h1.3l-2.3,3.2,2.3,3.4h-1.4l-1-1.5a7.46,7.46,0,0,1-.7-1.2c-.2.4-.5.8-.7,1.2l-1,1.5h-1.3l2.4-3.4-2.3-3.3H444Z" transform="translate(-3 -0.5)"/><path class="cls-6" d="M449.8,128a14.79,14.79,0,0,0-.1-2.2h1.1l.1,1.1a2.69,2.69,0,0,1,2.4-1.3c1.6,0,2.8,1.4,2.8,3.4,0,2.4-1.5,3.6-3,3.6a2.52,2.52,0,0,1-2.1-1v3.6h-1.2V128Zm1.2,1.8a.9.9,0,0,0,.1.5,1.83,1.83,0,0,0,1.8,1.4c1.3,0,2-1,2-2.6,0-1.3-.7-2.5-2-2.5a1.9,1.9,0,0,0-1.8,1.5c0,.2-.1.3-.1.5Z" transform="translate(-3 -0.5)"/><path class="cls-6" d="M458.3,129.38a2.15,2.15,0,0,0,2.3,2.3,5.94,5.94,0,0,0,1.8-.3l.2.9a5.35,5.35,0,0,1-2.2.4,3.08,3.08,0,0,1-3.3-3.4c0-2.1,1.2-3.6,3.1-3.6a2.83,2.83,0,0,1,2.8,3.1v.6Zm3.6-.9c0-.8-.3-2-1.7-2a2.05,2.05,0,0,0-1.9,2Z" transform="translate(-3 -0.5)"/><path class="cls-6" d="M464.5,127.88a13.42,13.42,0,0,0-.1-2.1h1.1v1.3h.1a2,2,0,0,1,1.8-1.5h.3v1.1h-.4a1.58,1.58,0,0,0-1.6,1.6c0,.2-.1.4-.1.6v3.6h-1.1Z" transform="translate(-3 -0.5)"/><path class="cls-6" d="M470.8,123.88v1.9h1.7v.9h-1.7v3.6c0,.8.2,1.3.9,1.3.3,0,.6,0,.7-.1l.1.9a2.68,2.68,0,0,1-1.1.2,1.73,1.73,0,0,1-1.3-.5,2.86,2.86,0,0,1-.5-1.7v-3.6h-1v-.9h1v-1.6Z" transform="translate(-3 -0.5)"/><path class="cls-6" d="M475.3,124a.71.71,0,0,1-.8.7.68.68,0,0,1-.7-.7.79.79,0,0,1,.8-.8A.71.71,0,0,1,475.3,124Zm-1.4,8.5v-6.7h1.2v6.7Z" transform="translate(-3 -0.5)"/><path class="cls-6" d="M477,131.28a3.77,3.77,0,0,0,1.6.5c.9,0,1.3-.4,1.3-1s-.3-.9-1.2-1.2c-1.2-.4-1.8-1.1-1.8-1.9a2.09,2.09,0,0,1,2.3-2,3.1,3.1,0,0,1,1.6.4l-.3.9a2.33,2.33,0,0,0-1.4-.4c-.7,0-1.1.4-1.1.9s.4.8,1.3,1.1c1.2.4,1.7,1,1.7,2,0,1.2-.9,2-2.5,2a3.83,3.83,0,0,1-1.9-.5Z" transform="translate(-3 -0.5)"/><path class="cls-6" d="M483.3,129.38a2.15,2.15,0,0,0,2.3,2.3,5.94,5.94,0,0,0,1.8-.3l.2.9a5.35,5.35,0,0,1-2.2.4,3.08,3.08,0,0,1-3.3-3.4c0-2.1,1.2-3.6,3.1-3.6a2.83,2.83,0,0,1,2.8,3.1v.6Zm3.5-.9c0-.8-.3-2-1.7-2a2.05,2.05,0,0,0-1.9,2Z" transform="translate(-3 -0.5)"/><path class="cls-6" d="M489,131.78a.81.81,0,1,1,.8.9A.88.88,0,0,1,489,131.78Z" transform="translate(-3 -0.5)"/><path class="cls-6" d="M496.3,123.18v9.3h-1.2v-9.3Z" transform="translate(-3 -0.5)"/><path class="cls-6" d="M498.5,127.58a9.72,9.72,0,0,0-.1-1.8h1.1l.1,1.1a2.5,2.5,0,0,1,2.2-1.3c.9,0,2.4.5,2.4,2.8v4H503v-3.8c0-1.1-.4-2-1.5-2a1.74,1.74,0,0,0-1.6,1.2,1.27,1.27,0,0,0-.1.6v4h-1.3Z" transform="translate(-3 -0.5)"/><path class="cls-6" d="M507.6,123.88v1.9h1.7v.9h-1.7v3.6c0,.8.2,1.3.9,1.3.3,0,.6,0,.7-.1l.1.9a2.68,2.68,0,0,1-1.1.2,1.73,1.73,0,0,1-1.3-.5,2.86,2.86,0,0,1-.5-1.7v-3.6h-1v-.9h1v-1.6Z" transform="translate(-3 -0.5)"/><path class="cls-6" d="M511.2,129.38a2.15,2.15,0,0,0,2.3,2.3,5.94,5.94,0,0,0,1.8-.3l.2.9a5.35,5.35,0,0,1-2.2.4,3.13,3.13,0,0,1-3.3-3.4c0-2.1,1.2-3.6,3.1-3.6a2.83,2.83,0,0,1,2.8,3.1v.6Zm3.6-.9c0-.8-.3-2-1.7-2a2.05,2.05,0,0,0-1.9,2Z" transform="translate(-3 -0.5)"/><path class="cls-6" d="M517.5,127.88a13.42,13.42,0,0,0-.1-2.1h1.1v1.3h.1a2,2,0,0,1,1.8-1.5h.3v1.1h-.4a1.58,1.58,0,0,0-1.6,1.6c0,.2-.1.4-.1.6v3.6h-1.1Z" transform="translate(-3 -0.5)"/><path class="cls-6" d="M522,127.58a9.72,9.72,0,0,0-.1-1.8H523l.1,1.1a2.5,2.5,0,0,1,2.2-1.3c.9,0,2.4.5,2.4,2.8v4h-1.2v-3.8c0-1.1-.4-2-1.5-2a1.74,1.74,0,0,0-1.6,1.2,1.27,1.27,0,0,0-.1.6v4h-1.2v-4.8Z" transform="translate(-3 -0.5)"/><path class="cls-6" d="M533.3,132.48l-.1-.8a2.6,2.6,0,0,1-2,1,1.86,1.86,0,0,1-2-1.9c0-1.6,1.4-2.5,4-2.5v-.1a1.35,1.35,0,0,0-1.5-1.5,3.1,3.1,0,0,0-1.7.5l-.3-.8a3.59,3.59,0,0,1,2.2-.6c2,0,2.5,1.4,2.5,2.7V131a8.08,8.08,0,0,0,.1,1.6h-1.2Zm-.1-3.4c-1.3,0-2.8.2-2.8,1.5a1.08,1.08,0,0,0,1.1,1.2,1.69,1.69,0,0,0,1.6-1.1c0-.1.1-.3.1-.4v-1.2Z" transform="translate(-3 -0.5)"/><path class="cls-6" d="M537.7,123.88v1.9h1.7v.9h-1.7v3.6c0,.8.2,1.3.9,1.3.3,0,.6,0,.7-.1l.1.9a2.68,2.68,0,0,1-1.1.2,1.73,1.73,0,0,1-1.3-.5,2.86,2.86,0,0,1-.5-1.7v-3.6h-1v-.9h1v-1.6Z" transform="translate(-3 -0.5)"/><path class="cls-6" d="M542.1,124a.71.71,0,0,1-.8.7.68.68,0,0,1-.7-.7.79.79,0,0,1,.8-.8A.71.71,0,0,1,542.1,124Zm-1.3,8.5v-6.7H542v6.7Z" transform="translate(-3 -0.5)"/><path class="cls-6" d="M550,129.08a3.2,3.2,0,0,1-3.3,3.5,3.15,3.15,0,0,1-3.2-3.4,3.26,3.26,0,0,1,3.3-3.5A3.15,3.15,0,0,1,550,129.08Zm-5.3.1c0,1.5.8,2.6,2,2.6s2-1.1,2-2.6c0-1.1-.6-2.6-2-2.6S544.7,127.88,544.7,129.18Z" transform="translate(-3 -0.5)"/><path class="cls-6" d="M551.5,127.58a9.72,9.72,0,0,0-.1-1.8h1.1l.1,1.1a2.5,2.5,0,0,1,2.2-1.3c.9,0,2.4.5,2.4,2.8v4H556v-3.8c0-1.1-.4-2-1.5-2a1.74,1.74,0,0,0-1.6,1.2,1.27,1.27,0,0,0-.1.6v4h-1.3Z" transform="translate(-3 -0.5)"/><path class="cls-6" d="M562.9,132.48l-.1-.8a2.6,2.6,0,0,1-2,1,1.86,1.86,0,0,1-2-1.9c0-1.6,1.4-2.5,4-2.5v-.1a1.35,1.35,0,0,0-1.5-1.5,3.1,3.1,0,0,0-1.7.5l-.3-.8a3.59,3.59,0,0,1,2.2-.6c2,0,2.5,1.4,2.5,2.7V131a8.08,8.08,0,0,0,.1,1.6h-1.2Zm-.2-3.4c-1.3,0-2.8.2-2.8,1.5a1.08,1.08,0,0,0,1.1,1.2,1.69,1.69,0,0,0,1.6-1.1c0-.1.1-.3.1-.4v-1.2Z" transform="translate(-3 -0.5)"/><path class="cls-6" d="M565.8,122.68H567v9.8h-1.2Z" transform="translate(-3 -0.5)"/><path class="cls-6" d="M572,123.38a18.09,18.09,0,0,1,2.5-.2,5.41,5.41,0,0,1,3.8,1.2,4.36,4.36,0,0,1,1.3,3.3,5.09,5.09,0,0,1-1.3,3.6,5.62,5.62,0,0,1-4.1,1.3,14.12,14.12,0,0,1-2.2-.1v-9.1Zm1.2,8.2a4.12,4.12,0,0,0,1.2.1c2.6,0,3.9-1.4,3.9-3.9,0-2.2-1.2-3.6-3.8-3.6-.6,0-1.1.1-1.4.1v7.3Z" transform="translate(-3 -0.5)"/><path class="cls-6" d="M581.9,129.38a2.15,2.15,0,0,0,2.3,2.3,5.94,5.94,0,0,0,1.8-.3l.2.9a5.35,5.35,0,0,1-2.2.4,3.13,3.13,0,0,1-3.3-3.4c0-2.1,1.2-3.6,3.1-3.6a2.83,2.83,0,0,1,2.8,3.1v.6Zm3.5-.9c0-.8-.3-2-1.7-2a2.05,2.05,0,0,0-1.9,2Z" transform="translate(-3 -0.5)"/><path class="cls-6" d="M588.1,128a14.79,14.79,0,0,0-.1-2.2h1.1l.1,1.1a2.69,2.69,0,0,1,2.4-1.3c1.6,0,2.8,1.4,2.8,3.4,0,2.4-1.5,3.6-3,3.6a2.52,2.52,0,0,1-2.1-1v3.6h-1.2V128Zm1.2,1.8a.9.9,0,0,0,.1.5,1.83,1.83,0,0,0,1.8,1.4c1.3,0,2-1,2-2.6,0-1.3-.7-2.5-2-2.5a1.9,1.9,0,0,0-1.8,1.5c0,.2-.1.3-.1.5Z" transform="translate(-3 -0.5)"/><path class="cls-6" d="M597.4,123.88v1.9h1.7v.9h-1.7v3.6c0,.8.2,1.3.9,1.3.3,0,.6,0,.7-.1l.1.9a2.68,2.68,0,0,1-1.1.2,1.73,1.73,0,0,1-1.3-.5,2.86,2.86,0,0,1-.5-1.7v-3.6h-1v-.9h1v-1.6Z" transform="translate(-3 -0.5)"/><path class="cls-6" d="M600.5,122.68h1.2v4.2a3.82,3.82,0,0,1,.9-.9,2.66,2.66,0,0,1,1.2-.3c.9,0,2.3.5,2.3,2.8v4h-1.2v-3.8c0-1.1-.4-2-1.5-2a1.74,1.74,0,0,0-1.6,1.2,1.08,1.08,0,0,0-.1.6v4h-1.2Z" transform="translate(-3 -0.5)"/><path class="cls-6" d="M607.8,131.78a.81.81,0,1,1,.8.9A.88.88,0,0,1,607.8,131.78Z" transform="translate(-3 -0.5)"/><path class="cls-6" d="M613.9,123.38a11.8,11.8,0,0,1,2.2-.2,3.4,3.4,0,0,1,2.5.7,1.94,1.94,0,0,1,.8,1.6,2.11,2.11,0,0,1-1.6,2,2.3,2.3,0,0,1,1.9,2.3,2.56,2.56,0,0,1-.8,1.9,4.53,4.53,0,0,1-3.2.9c-.8,0-1.5-.1-1.9-.1v-9.1Zm1.2,3.8h1.1c1.3,0,2-.7,2-1.6,0-1.1-.8-1.5-2-1.5a2.81,2.81,0,0,0-1.1.1Zm0,4.4c.2,0,.6.1,1,.1,1.2,0,2.4-.5,2.4-1.8s-1.1-1.8-2.4-1.8h-1Z" transform="translate(-3 -0.5)"/><path class="cls-6" d="M626.9,130.68a9.72,9.72,0,0,0,.1,1.8h-1.1l-.1-1.1a2.51,2.51,0,0,1-2.2,1.2c-1,0-2.3-.6-2.3-2.9v-3.9h1.2v3.7c0,1.3.4,2.1,1.5,2.1a1.8,1.8,0,0,0,1.6-1.1,1.27,1.27,0,0,0,.1-.6v-4.1h1.2v4.9Z" transform="translate(-3 -0.5)"/><path class="cls-6" d="M628.7,131.28a3.77,3.77,0,0,0,1.6.5c.9,0,1.3-.4,1.3-1s-.3-.9-1.2-1.2c-1.2-.4-1.8-1.1-1.8-1.9a2.09,2.09,0,0,1,2.3-2,3.1,3.1,0,0,1,1.6.4l-.3.9a2.33,2.33,0,0,0-1.4-.4c-.7,0-1.1.4-1.1.9s.4.8,1.3,1.1c1.2.4,1.7,1,1.7,2,0,1.2-.9,2-2.5,2a3.83,3.83,0,0,1-1.9-.5Z" transform="translate(-3 -0.5)"/><path class="cls-6" d="M635.7,124a.71.71,0,0,1-.8.7.68.68,0,0,1-.7-.7.79.79,0,0,1,.8-.8A.71.71,0,0,1,635.7,124Zm-1.3,8.5v-6.7h1.2v6.7Z" transform="translate(-3 -0.5)"/><path class="cls-6" d="M637.6,127.58a9.72,9.72,0,0,0-.1-1.8h1.1l.1,1.1a2.5,2.5,0,0,1,2.2-1.3c.9,0,2.4.5,2.4,2.8v4h-1.2v-3.8c0-1.1-.4-2-1.5-2a1.74,1.74,0,0,0-1.6,1.2,1.27,1.27,0,0,0-.1.6v4h-1.2v-4.8Z" transform="translate(-3 -0.5)"/><path class="cls-6" d="M645.9,129.38a2.15,2.15,0,0,0,2.3,2.3,5.94,5.94,0,0,0,1.8-.3l.2.9a5.35,5.35,0,0,1-2.2.4,3.13,3.13,0,0,1-3.3-3.4c0-2.1,1.2-3.6,3.1-3.6a2.83,2.83,0,0,1,2.8,3.1v.6Zm3.5-.9c0-.8-.3-2-1.7-2a2.05,2.05,0,0,0-1.9,2Z" transform="translate(-3 -0.5)"/><path class="cls-6" d="M651.9,131.28a3.77,3.77,0,0,0,1.6.5c.9,0,1.3-.4,1.3-1s-.3-.9-1.2-1.2c-1.2-.4-1.8-1.1-1.8-1.9a2.09,2.09,0,0,1,2.3-2,3.1,3.1,0,0,1,1.6.4l-.3.9a2.33,2.33,0,0,0-1.4-.4c-.7,0-1.1.4-1.1.9s.4.8,1.3,1.1c1.2.4,1.7,1,1.7,2,0,1.2-.9,2-2.5,2a3.83,3.83,0,0,1-1.9-.5Z" transform="translate(-3 -0.5)"/><path class="cls-6" d="M657.4,131.28a3.77,3.77,0,0,0,1.6.5c.9,0,1.3-.4,1.3-1s-.3-.9-1.2-1.2c-1.2-.4-1.8-1.1-1.8-1.9a2.09,2.09,0,0,1,2.3-2,3.1,3.1,0,0,1,1.6.4l-.3.9a2.33,2.33,0,0,0-1.4-.4c-.7,0-1.1.4-1.1.9s.4.8,1.3,1.1c1.2.4,1.7,1,1.7,2,0,1.2-.9,2-2.5,2a3.83,3.83,0,0,1-1.9-.5Z" transform="translate(-3 -0.5)"/><path class="cls-6" d="M667.5,129.58l-1,2.9h-1.2l3.2-9.3h1.4l3.2,9.3h-1.3l-1-2.9Zm3-.9-.9-2.7c-.2-.6-.3-1.2-.5-1.7a10.93,10.93,0,0,1-.5,1.7l-.9,2.7Z" transform="translate(-3 -0.5)"/><path class="cls-6" d="M678.9,132.28a3.83,3.83,0,0,1-1.9.4,3.18,3.18,0,0,1-3.3-3.4,3.33,3.33,0,0,1,3.6-3.5,6.53,6.53,0,0,1,1.7.3l-.3.9a2.42,2.42,0,0,0-1.4-.3,2.51,2.51,0,0,0-.1,5,4.91,4.91,0,0,0,1.5-.3Z" transform="translate(-3 -0.5)"/><path class="cls-6" d="M685.9,130.68a9.72,9.72,0,0,0,.1,1.8h-1.1l-.1-1.1a2.51,2.51,0,0,1-2.2,1.2c-1,0-2.3-.6-2.3-2.9v-3.9h1.2v3.7c0,1.3.4,2.1,1.5,2.1a1.8,1.8,0,0,0,1.6-1.1,1.27,1.27,0,0,0,.1-.6v-4.1h1.2v4.9Z" transform="translate(-3 -0.5)"/><path class="cls-6" d="M687.9,127.58a9.72,9.72,0,0,0-.1-1.8h1.1l.1,1.1a2.39,2.39,0,0,1,2.1-1.2A2,2,0,0,1,693,127a3.51,3.51,0,0,1,.7-.9,2.25,2.25,0,0,1,1.5-.5c.9,0,2.2.6,2.2,2.9v3.9h-1.2v-3.8c0-1.3-.5-2-1.4-2a1.5,1.5,0,0,0-1.4,1.1,1.27,1.27,0,0,0-.1.6v4.1h-1.2v-4c0-1.1-.5-1.8-1.4-1.8a1.62,1.62,0,0,0-1.5,1.2,1.27,1.27,0,0,0-.1.6v4h-1.2Z" transform="translate(-3 -0.5)"/><path class="cls-6" d="M700.1,129.38a2.15,2.15,0,0,0,2.3,2.3,5.94,5.94,0,0,0,1.8-.3l.2.9a5.35,5.35,0,0,1-2.2.4,3.13,3.13,0,0,1-3.3-3.4c0-2.1,1.2-3.6,3.1-3.6a2.83,2.83,0,0,1,2.8,3.1v.6Zm3.5-.9c0-.8-.3-2-1.7-2a2.05,2.05,0,0,0-1.9,2Z" transform="translate(-3 -0.5)"/><path class="cls-6" d="M706.3,127.58a9.72,9.72,0,0,0-.1-1.8h1.1l.1,1.1a2.5,2.5,0,0,1,2.2-1.3c.9,0,2.4.5,2.4,2.8v4h-1.2v-3.8c0-1.1-.4-2-1.5-2a1.74,1.74,0,0,0-1.6,1.2,1.27,1.27,0,0,0-.1.6v4h-1.2v-4.8Z" transform="translate(-3 -0.5)"/><path class="cls-6" d="M713.6,131.78a.81.81,0,1,1,.8.9A.88.88,0,0,1,713.6,131.78Z" transform="translate(-3 -0.5)"/></svg>