<svg width="716" height="136" viewBox="0 0 716 136" fill="none" xmlns="http://www.w3.org/2000/svg">
<path d="M362.2 58.3759C362.1 63.5759 361.8 68.6758 361.2 73.6758C361.9 69.9758 362.3 66.1758 362.3 62.2758C362.3 60.8758 362.2 59.5759 362.2 58.3759Z" fill="#E1C196"/>
<g filter="url(#filter0_d_590_2)">
<path d="M16.8 71.0758C24.4215 71.0758 30.6 64.8973 30.6 57.2758C30.6 49.6543 24.4215 43.4758 16.8 43.4758C9.17846 43.4758 3 49.6543 3 57.2758C3 64.8973 9.17846 71.0758 16.8 71.0758Z" fill="#E1C196"/>
</g>
<path d="M143.1 77.8759V122.876H125.4V95.8759H101.9V77.8759H143.1Z" fill="#372C2E" stroke="#372C2E" stroke-miterlimit="10"/>
<path d="M195.2 66.8759H173.7V122.776H195.2V66.8759Z" fill="#372C2E" stroke="#372C2E" stroke-miterlimit="10"/>
<path d="M230.2 1.87585L205 41.0759L195.2 56.4759V64.3759H173.7V56.4759L163.9 41.0759L138.7 1.87585H162L184.5 34.5759L206.9 1.87585H230.2Z" fill="#372C2E" stroke="#372C2E" stroke-miterlimit="10"/>
<path d="M237.4 102.476H197.9V122.776H237.4V102.476Z" fill="#372C2E" stroke="#372C2E" stroke-miterlimit="10"/>
<path d="M171.4 70.2759H69.5C71.8 82.1759 80 93.3759 96.2 99.8759C100.2 101.476 104.6 102.776 109.6 103.776L103.8 115.476L100.6 122.076C77.3 122.076 61.7 109.076 53.9 91.6759C50.9 85.0759 49.1 77.7759 48.3 70.3759H33.7C34.7 69.1759 38.6 64.5759 38.6 57.4759C38.6 50.3759 34.7 45.7759 33.7 44.5759H163.4L171.4 57.3759V70.2759V70.2759Z" fill="#E1C196" stroke="#E1C196" stroke-miterlimit="10"/>
<path d="M137.2 8.67588L134.2 29.8759C108.3 10.7759 83.9 21.7759 74.2 41.7759H51.3C59.2 10.8759 87.8 -11.4241 137.2 8.67588Z" fill="#372C2E" stroke="#372C2E" stroke-miterlimit="10"/>
<path d="M357.2 38.3759C354.2 31.0759 349.7 24.4759 343.8 18.8759C337.9 13.2759 331.2 8.87591 323.6 5.77591C319.3 3.97591 314.9 2.77592 310.4 1.97592C307 1.37592 303.6 1.07593 300.1 1.07593C292 1.07593 284.1 2.57591 276.4 5.77591C268.7 8.87591 262 13.2759 256.2 18.8759C250.3 24.5759 245.8 31.0759 242.7 38.3759C241.9 40.2759 241.2 42.2759 240.6 44.2759H205.7L197.5 57.2759V70.3759H238.7C239.5 76.4759 241.3 82.2759 243.9 87.7759C247.8 95.8759 253.3 102.776 260.6 108.576C266.3 113.076 272.5 116.476 279.2 118.876C286 121.276 292.9 122.476 300 122.476C300.9 122.476 301.9 122.476 302.8 122.376C309.9 122.076 316.7 120.576 323.4 117.876C330.9 114.776 337.7 110.376 343.7 104.676C349.5 99.0759 353.9 92.5759 357 85.1759C358.6 81.3759 359.7 77.4759 360.5 73.4759C361.1 68.2759 361.4 62.9759 361.5 57.6759C361.3 50.9759 359.8 44.4759 357.2 38.3759ZM326.1 89.4759C323 92.7759 319.6 95.3759 315.7 97.1759C311 99.3759 305.8 100.476 300.1 100.476C289.4 100.476 280.6 96.7759 273.8 89.4759C269.8 85.1759 267 80.2759 265.4 74.6759H248.2V66.9759H263.9C263.8 66.0759 263.7 65.0759 263.7 64.0759H248.3V56.3759H264C264.1 55.3759 264.2 54.4759 264.4 53.4759H248.3V45.7759H266.5C268.2 41.4759 270.7 37.5759 274 33.9759C280.9 26.4759 289.6 22.7759 300.1 22.7759C307.7 22.7759 314.3 24.7759 320.1 28.7759C322.2 30.2759 324.2 31.9759 326 33.9759C332.9 41.4759 336.4 50.6759 336.4 61.6759C336.3 72.8759 332.9 82.0759 326.1 89.4759Z" fill="#E1C196" stroke="#E1C196" stroke-miterlimit="10"/>
<path d="M401.1 111.676H715.5" stroke="#E1C196" stroke-miterlimit="10"/>
<path d="M430.6 41.7759C427 43.8759 422.9 44.8759 418.4 44.8759C413.2 44.8759 409 43.1759 405.8 39.8759C402.6 36.5759 401 32.0759 401 26.5759C401 20.9759 402.8 16.3759 406.3 12.6759C409.9 9.07587 414.4 7.27588 419.8 7.27588C423.8 7.27588 427.1 7.87587 429.8 9.17587V13.8759C426.9 11.9759 423.4 11.0759 419.4 11.0759C415.3 11.0759 412 12.4759 409.4 15.2759C406.8 18.0759 405.5 21.6759 405.5 26.1759C405.5 30.7759 406.7 34.3759 409.1 36.9759C411.5 39.5759 414.8 40.8759 418.9 40.8759C421.7 40.8759 424.2 40.2759 426.3 39.1759V28.9759H418.3V25.0759H430.5V41.7759H430.6Z" fill="#372C2E" stroke="#372C2E" stroke-width="0.5" stroke-miterlimit="10"/>
<path d="M459.3 32.2759H441C441.1 35.1759 441.8 37.3759 443.3 38.9759C444.8 40.5759 446.8 41.3759 449.4 41.3759C452.3 41.3759 455 40.3759 457.5 38.4759V42.3759C455.2 44.0759 452.2 44.8759 448.5 44.8759C444.8 44.8759 442 43.6759 439.9 41.3759C437.8 39.0759 436.8 35.6759 436.8 31.4759C436.8 27.4759 437.9 24.1759 440.2 21.5759C442.5 19.0759 445.3 17.7759 448.7 17.7759C452.1 17.7759 454.7 18.8759 456.6 21.0759C458.5 23.2759 459.4 26.2759 459.4 30.1759V32.2759H459.3ZM455.1 28.7759C455.1 26.3759 454.5 24.4759 453.4 23.1759C452.3 21.8759 450.7 21.1759 448.6 21.1759C446.6 21.1759 445 21.8759 443.6 23.2759C442.2 24.6759 441.4 26.4759 441.1 28.7759H455.1Z" fill="#372C2E" stroke="#372C2E" stroke-width="0.5" stroke-miterlimit="10"/>
<path d="M477.7 43.9759C476.7 44.4759 475.4 44.7759 473.8 44.7759C469.3 44.7759 467 42.2759 467 37.1759V21.7759H462.5V18.2759H467V11.9759L471.2 10.6759V18.3759H477.7V21.8759H471.2V36.4759C471.2 38.1759 471.5 39.4759 472.1 40.1759C472.7 40.8759 473.7 41.2759 475 41.2759C476 41.2759 477 40.9759 477.7 40.3759V43.9759Z" fill="#372C2E" stroke="#372C2E" stroke-width="0.5" stroke-miterlimit="10"/>
<path d="M504.8 44.1758H500.6V29.3758C500.6 23.8758 498.6 21.0758 494.6 21.0758C492.5 21.0758 490.8 21.8758 489.4 23.3758C488 24.9758 487.4 26.8758 487.4 29.2758V44.0758H483.2V18.0758H487.4V22.3758H487.5C489.5 19.0758 492.3 17.4758 496 17.4758C498.8 17.4758 501 18.3758 502.5 20.1758C504 21.9758 504.8 24.6758 504.8 28.0758V44.1758V44.1758Z" fill="#372C2E" stroke="#372C2E" stroke-width="0.5" stroke-miterlimit="10"/>
<path d="M533.5 32.2759H515.2C515.3 35.1759 516 37.3759 517.5 38.9759C519 40.5759 521 41.3759 523.6 41.3759C526.5 41.3759 529.2 40.3759 531.7 38.4759V42.3759C529.4 44.0759 526.4 44.8759 522.7 44.8759C519 44.8759 516.2 43.6759 514.1 41.3759C512 39.0759 511 35.6759 511 31.4759C511 27.4759 512.1 24.1759 514.4 21.5759C516.7 19.0759 519.5 17.7759 522.9 17.7759C526.3 17.7759 528.9 18.8759 530.8 21.0759C532.7 23.2759 533.6 26.2759 533.6 30.1759V32.2759H533.5ZM529.2 28.7759C529.2 26.3759 528.6 24.4759 527.5 23.1759C526.4 21.8759 524.8 21.1759 522.7 21.1759C520.7 21.1759 519.1 21.8759 517.7 23.2759C516.3 24.6759 515.5 26.4759 515.2 28.7759H529.2Z" fill="#372C2E" stroke="#372C2E" stroke-width="0.5" stroke-miterlimit="10"/>
<path d="M551.8 43.9759C550.8 44.4759 549.5 44.7759 547.9 44.7759C543.4 44.7759 541.1 42.2759 541.1 37.1759V21.7759H536.6V18.2759H541.1V11.9759L545.3 10.6759V18.3759H551.8V21.8759H545.3V36.4759C545.3 38.1759 545.6 39.4759 546.2 40.1759C546.8 40.8759 547.8 41.2759 549.1 41.2759C550.1 41.2759 551.1 40.9759 551.8 40.3759V43.9759V43.9759Z" fill="#372C2E" stroke="#372C2E" stroke-width="0.5" stroke-miterlimit="10"/>
<path d="M595.7 7.87585L583.7 30.7758V44.1758H579.5V30.8759L567.8 7.87585H572.6L580.7 24.2758C580.8 24.4758 581.1 25.1759 581.6 26.4759H581.7C581.9 25.8759 582.2 25.1758 582.7 24.2758L591.2 7.87585H595.7V7.87585Z" fill="#372C2E" stroke="#372C2E" stroke-width="0.5" stroke-miterlimit="10"/>
<path d="M613.8 44.1759H609.6V40.0759H609.5C607.7 43.1759 605 44.7759 601.5 44.7759C598.9 44.7759 596.9 44.0759 595.4 42.6759C593.9 41.2759 593.2 39.4759 593.2 37.2759C593.2 32.4759 596.1 29.5759 601.8 28.7759L609.6 27.6759C609.6 23.2759 607.8 21.0759 604.3 21.0759C601.2 21.0759 598.4 22.1759 595.8 24.2759V19.9759C598.4 18.3759 601.3 17.5759 604.6 17.5759C610.7 17.5759 613.7 20.7759 613.7 27.2759V44.1759H613.8ZM609.6 31.0759L603.3 31.9759C601.4 32.2759 599.9 32.6759 598.9 33.3759C597.9 34.0759 597.4 35.2759 597.4 36.9759C597.4 38.2759 597.9 39.2759 598.8 40.0759C599.7 40.8759 600.9 41.2759 602.4 41.2759C604.5 41.2759 606.2 40.5759 607.5 39.0759C608.8 37.5759 609.5 35.7759 609.5 33.5759V31.0759H609.6Z" fill="#372C2E" stroke="#372C2E" stroke-width="0.5" stroke-miterlimit="10"/>
<path d="M654.3 18.2759L646.5 44.2759H642.2L636.9 25.6759C636.7 24.9759 636.6 24.1759 636.5 23.2759H636.4C636.3 23.8759 636.2 24.6759 635.9 25.6759L630.1 44.2759H625.9L618 18.2759H622.4L627.8 37.7759C628 38.3759 628.1 39.1759 628.2 40.0759H628.4C628.5 39.3759 628.6 38.5759 628.9 37.6759L634.9 18.1759H638.7L644.1 37.7759C644.3 38.3759 644.4 39.1759 644.5 40.0759H644.7C644.7 39.3759 644.9 38.6759 645.1 37.7759L650.4 18.1759H654.3V18.2759Z" fill="#372C2E" stroke="#372C2E" stroke-width="0.5" stroke-miterlimit="10"/>
<path d="M680.7 44.1759H674.9L663.4 31.6759H663.3V44.1759H659.1V5.77588H663.3V30.1759H663.4L674.3 18.2759H679.7L667.7 30.7759L680.7 44.1759Z" fill="#372C2E" stroke="#372C2E" stroke-width="0.5" stroke-miterlimit="10"/>
<path d="M703.5 44.1759H699.3V40.0759H699.2C697.4 43.1759 694.7 44.7759 691.2 44.7759C688.6 44.7759 686.6 44.0759 685.1 42.6759C683.6 41.2759 682.9 39.4759 682.9 37.2759C682.9 32.4759 685.8 29.5759 691.5 28.7759L699.3 27.6759C699.3 23.2759 697.5 21.0759 694 21.0759C690.9 21.0759 688.1 22.1759 685.5 24.2759V19.9759C688.1 18.3759 691 17.5759 694.3 17.5759C700.4 17.5759 703.4 20.7759 703.4 27.2759V44.1759H703.5ZM699.3 31.0759L693 31.9759C691.1 32.2759 689.6 32.6759 688.6 33.3759C687.6 34.0759 687.1 35.2759 687.1 36.9759C687.1 38.2759 687.6 39.2759 688.5 40.0759C689.4 40.8759 690.6 41.2759 692.1 41.2759C694.2 41.2759 695.9 40.5759 697.2 39.0759C698.5 37.6759 699.2 35.7759 699.2 33.5759V31.0759H699.3Z" fill="#372C2E" stroke="#372C2E" stroke-width="0.5" stroke-miterlimit="10"/>
<path d="M715.5 44.1759H711.3V5.77588H715.5V44.1759Z" fill="#372C2E" stroke="#372C2E" stroke-width="0.5" stroke-miterlimit="10"/>
<path d="M417.2 87.9758H402.4V59.4758H405.7V84.9758H417.2V87.9758Z" fill="#372C2E" stroke="#372C2E" stroke-width="0.5" stroke-miterlimit="10"/>
<path d="M435.7 87.9759H432.4V84.7759H432.3C430.9 87.1759 428.8 88.4759 426 88.4759C424 88.4759 422.4 87.9759 421.2 86.8759C420 85.7759 419.5 84.3759 419.5 82.5759C419.5 78.7759 421.7 76.5759 426.2 75.9759L432.3 75.0759C432.3 71.5759 430.9 69.8759 428.1 69.8759C425.6 69.8759 423.4 70.6759 421.5 72.3759V69.0759C423.5 67.7759 425.8 67.1759 428.4 67.1759C433.2 67.1759 435.6 69.6759 435.6 74.7759V87.9759H435.7ZM432.4 77.6759L427.5 78.3759C426 78.5759 424.8 78.9759 424.1 79.4759C423.3 79.9759 422.9 80.9759 422.9 82.3759C422.9 83.3759 423.3 84.1759 424 84.7759C424.7 85.3759 425.7 85.6759 426.8 85.6759C428.4 85.6759 429.8 85.0759 430.8 83.9759C431.9 82.8759 432.4 81.3759 432.4 79.6759V77.6759Z" fill="#372C2E" stroke="#372C2E" stroke-width="0.5" stroke-miterlimit="10"/>
<path d="M467.5 67.6758L461.4 88.0758H458L453.8 73.4758C453.6 72.8758 453.5 72.2758 453.5 71.5758H453.4C453.4 72.0758 453.2 72.6758 453 73.3758L448.4 87.9758H445.1L438.9 67.5758H442.3L446.5 82.8758C446.6 83.3758 446.7 83.9758 446.8 84.6758H447C447 84.0758 447.2 83.4758 447.4 82.7758L452.1 67.4758H455.1L459.3 82.8758C459.4 83.3758 459.5 83.9758 459.6 84.6758H459.8C459.8 84.1758 459.9 83.5758 460.1 82.8758L464.2 67.4758H467.5V67.6758Z" fill="#372C2E" stroke="#372C2E" stroke-width="0.5" stroke-miterlimit="10"/>
<path d="M494.4 88.4758C490.4 88.4758 487.1 87.1758 484.7 84.4758C482.3 81.7758 481 78.3758 481 74.0758C481 69.4758 482.2 65.8758 484.7 63.0758C487.2 60.2758 490.6 58.9758 494.8 58.9758C498.7 58.9758 501.9 60.2758 504.3 62.9758C506.7 65.6758 507.9 69.0758 507.9 73.3758C507.9 78.0758 506.7 81.6758 504.2 84.3758C501.8 87.1758 498.5 88.4758 494.4 88.4758ZM494.6 61.9758C491.6 61.9758 489.2 63.0758 487.3 65.1758C485.4 67.3758 484.5 70.1758 484.5 73.6758C484.5 77.1758 485.4 79.9758 487.2 82.1758C489 84.2758 491.4 85.3758 494.3 85.3758C497.4 85.3758 499.9 84.3758 501.7 82.2758C503.5 80.1758 504.4 77.3758 504.4 73.6758C504.4 69.8758 503.5 66.9758 501.8 64.9758C500.1 63.0758 497.7 61.9758 494.6 61.9758Z" fill="#372C2E" stroke="#372C2E" stroke-width="0.5" stroke-miterlimit="10"/>
<path d="M523.2 60.6758C522.6 60.2758 521.8 60.1758 521 60.1758C518.7 60.1758 517.6 61.5759 517.6 64.4759V67.5759H522.4V70.3759H517.6V87.9759H514.4V70.3759H510.9V67.5759H514.4V64.3759C514.4 62.2759 515 60.5758 516.2 59.2758C517.4 58.0758 519 57.3759 520.8 57.3759C521.8 57.3759 522.6 57.4758 523.2 57.7758V60.6758V60.6758Z" fill="#372C2E" stroke="#372C2E" stroke-width="0.5" stroke-miterlimit="10"/>
<path d="M536 60.6758C535.4 60.2758 534.6 60.1758 533.8 60.1758C531.5 60.1758 530.4 61.5759 530.4 64.4759V67.5759H535.2V70.3759H530.4V87.9759H527.2V70.3759H523.7V67.5759H527.2V64.3759C527.2 62.2759 527.8 60.5758 529 59.2758C530.2 58.0758 531.8 57.3759 533.6 57.3759C534.6 57.3759 535.4 57.4758 536 57.7758V60.6758V60.6758Z" fill="#372C2E" stroke="#372C2E" stroke-width="0.5" stroke-miterlimit="10"/>
<path d="M540.3 62.4759C539.7 62.4759 539.2 62.2759 538.8 61.8759C538.4 61.4759 538.2 60.9759 538.2 60.3759C538.2 59.7759 538.4 59.2759 538.8 58.8759C539.2 58.4759 539.7 58.2759 540.3 58.2759C540.9 58.2759 541.4 58.4759 541.8 58.8759C542.2 59.2759 542.4 59.7759 542.4 60.3759C542.4 60.9759 542.2 61.4759 541.8 61.8759C541.4 62.2759 540.9 62.4759 540.3 62.4759ZM541.9 87.9759H538.6V67.5759H541.9V87.9759Z" fill="#372C2E" stroke="#372C2E" stroke-width="0.5" stroke-miterlimit="10"/>
<path d="M562.4 87.0759C560.8 87.9759 559 88.4759 556.8 88.4759C553.9 88.4759 551.6 87.5759 549.8 85.6759C548 83.7759 547.1 81.3759 547.1 78.2759C547.1 74.8759 548.1 72.1759 550 70.1759C551.9 68.1759 554.5 67.0759 557.7 67.0759C559.5 67.0759 561.1 67.3759 562.4 68.0759V71.3759C560.9 70.2759 559.3 69.7759 557.5 69.7759C555.4 69.7759 553.7 70.4759 552.4 71.9759C551.1 73.4759 550.4 75.4759 550.4 77.8759C550.4 80.2759 551 82.1759 552.3 83.4759C553.6 84.8759 555.2 85.5759 557.3 85.5759C559.1 85.5759 560.7 84.9759 562.3 83.7759V87.0759H562.4Z" fill="#372C2E" stroke="#372C2E" stroke-width="0.5" stroke-miterlimit="10"/>
<path d="M583.7 78.6759H569.3C569.4 80.9759 570 82.6759 571.1 83.9759C572.3 85.1759 573.9 85.7759 575.9 85.7759C578.2 85.7759 580.3 84.9759 582.2 83.4759V86.5759C580.4 87.8759 578 88.4759 575.1 88.4759C572.2 88.4759 570 87.5759 568.3 85.6759C566.6 83.7759 565.8 81.1759 565.8 77.8759C565.8 74.6759 566.7 72.0759 568.5 70.1759C570.3 68.2759 572.5 67.1759 575.2 67.1759C577.9 67.1759 579.9 68.0759 581.4 69.7759C582.9 71.4759 583.6 73.8759 583.6 76.9759V78.6759H583.7ZM580.4 75.8759C580.4 73.9759 579.9 72.5759 579 71.4759C578.1 70.4759 576.9 69.8759 575.3 69.8759C573.8 69.8759 572.5 70.4759 571.4 71.5759C570.3 72.6759 569.7 74.0759 569.4 75.8759H580.4Z" fill="#372C2E" stroke="#372C2E" stroke-width="0.5" stroke-miterlimit="10"/>
<path d="M403.9 123.176H405.1V131.476H409.1V132.476H403.9V123.176Z" fill="#372C2E"/>
<path d="M416.2 129.076C416.2 131.576 414.5 132.576 412.9 132.576C411.1 132.576 409.7 131.276 409.7 129.176C409.7 126.976 411.2 125.676 413 125.676C414.9 125.676 416.2 127.076 416.2 129.076ZM410.9 129.176C410.9 130.676 411.7 131.776 412.9 131.776C414.1 131.776 414.9 130.676 414.9 129.176C414.9 128.076 414.3 126.576 412.9 126.576C411.5 126.576 410.9 127.876 410.9 129.176Z" fill="#372C2E"/>
<path d="M422.5 132.276C422.2 132.476 421.5 132.676 420.6 132.676C418.6 132.676 417.3 131.276 417.3 129.276C417.3 127.176 418.7 125.776 420.9 125.776C421.6 125.776 422.2 125.976 422.6 126.076L422.3 126.976C422 126.776 421.6 126.676 420.9 126.676C419.4 126.676 418.5 127.776 418.5 129.176C418.5 130.676 419.5 131.676 420.8 131.676C421.5 131.676 421.9 131.476 422.3 131.376L422.5 132.276Z" fill="#372C2E"/>
<path d="M427.6 132.476L427.5 131.676C427.1 132.176 426.4 132.676 425.5 132.676C424.2 132.676 423.5 131.776 423.5 130.776C423.5 129.176 424.9 128.276 427.5 128.276V128.176C427.5 127.576 427.3 126.676 426 126.676C425.4 126.676 424.7 126.876 424.3 127.176L424 126.376C424.5 125.976 425.3 125.776 426.2 125.776C428.2 125.776 428.7 127.176 428.7 128.476V130.976C428.7 131.576 428.7 132.076 428.8 132.576H427.6V132.476ZM427.4 129.076C426.1 129.076 424.6 129.276 424.6 130.576C424.6 131.376 425.1 131.776 425.7 131.776C426.6 131.776 427.1 131.176 427.3 130.676C427.3 130.576 427.4 130.376 427.4 130.276V129.076V129.076Z" fill="#372C2E"/>
<path d="M430.5 122.676H431.7V132.476H430.5V122.676Z" fill="#372C2E"/>
<path d="M441.5 128.176H437.9V131.476H441.9V132.476H436.7V123.176H441.7V124.176H437.9V127.076H441.5V128.176Z" fill="#372C2E"/>
<path d="M444 125.776L444.9 127.176C445.1 127.576 445.4 127.876 445.6 128.276C445.8 127.876 446 127.576 446.3 127.176L447.2 125.776H448.5L446.2 128.976L448.5 132.376H447.1L446.1 130.876C445.8 130.476 445.6 130.076 445.4 129.676C445.2 130.076 444.9 130.476 444.7 130.876L443.7 132.376H442.4L444.8 128.976L442.5 125.676H444V125.776Z" fill="#372C2E"/>
<path d="M449.8 127.976C449.8 127.076 449.8 126.476 449.7 125.776H450.8L450.9 126.876C451.4 126.076 452.2 125.576 453.3 125.576C454.9 125.576 456.1 126.976 456.1 128.976C456.1 131.376 454.6 132.576 453.1 132.576C452.2 132.576 451.4 132.176 451 131.576V135.176H449.8V127.976V127.976ZM451 129.776C451 129.976 451 130.076 451.1 130.276C451.3 131.076 452 131.676 452.9 131.676C454.2 131.676 454.9 130.676 454.9 129.076C454.9 127.776 454.2 126.576 452.9 126.576C452.1 126.576 451.3 127.176 451.1 128.076C451.1 128.276 451 128.376 451 128.576V129.776Z" fill="#372C2E"/>
<path d="M458.3 129.376C458.3 130.976 459.4 131.676 460.6 131.676C461.5 131.676 462 131.476 462.4 131.376L462.6 132.276C462.2 132.476 461.4 132.676 460.4 132.676C458.3 132.676 457.1 131.376 457.1 129.276C457.1 127.176 458.3 125.676 460.2 125.676C462.4 125.676 463 127.576 463 128.776C463 128.976 463 129.176 463 129.376H458.3ZM461.9 128.476C461.9 127.676 461.6 126.476 460.2 126.476C459 126.476 458.4 127.576 458.3 128.476H461.9Z" fill="#372C2E"/>
<path d="M464.5 127.876C464.5 127.076 464.5 126.376 464.4 125.776H465.5V127.076H465.6C465.9 126.176 466.6 125.576 467.4 125.576C467.5 125.576 467.6 125.576 467.7 125.576V126.676C467.6 126.676 467.5 126.676 467.3 126.676C466.4 126.676 465.8 127.276 465.7 128.276C465.7 128.476 465.6 128.676 465.6 128.876V132.476H464.5V127.876Z" fill="#372C2E"/>
<path d="M470.8 123.876V125.776H472.5V126.676H470.8V130.276C470.8 131.076 471 131.576 471.7 131.576C472 131.576 472.3 131.576 472.4 131.476L472.5 132.376C472.3 132.476 471.9 132.576 471.4 132.576C470.8 132.576 470.4 132.376 470.1 132.076C469.8 131.676 469.6 131.076 469.6 130.376V126.776H468.6V125.876H469.6V124.276L470.8 123.876Z" fill="#372C2E"/>
<path d="M475.3 123.976C475.3 124.376 475 124.676 474.5 124.676C474.1 124.676 473.8 124.376 473.8 123.976C473.8 123.576 474.1 123.176 474.6 123.176C475 123.176 475.3 123.476 475.3 123.976ZM473.9 132.476V125.776H475.1V132.476H473.9Z" fill="#372C2E"/>
<path d="M477 131.276C477.4 131.476 478 131.776 478.6 131.776C479.5 131.776 479.9 131.376 479.9 130.776C479.9 130.176 479.6 129.876 478.7 129.576C477.5 129.176 476.9 128.476 476.9 127.676C476.9 126.576 477.8 125.676 479.2 125.676C479.9 125.676 480.5 125.876 480.8 126.076L480.5 126.976C480.2 126.776 479.8 126.576 479.1 126.576C478.4 126.576 478 126.976 478 127.476C478 127.976 478.4 128.276 479.3 128.576C480.5 128.976 481 129.576 481 130.576C481 131.776 480.1 132.576 478.5 132.576C477.8 132.576 477.1 132.376 476.6 132.076L477 131.276Z" fill="#372C2E"/>
<path d="M483.3 129.376C483.3 130.976 484.4 131.676 485.6 131.676C486.5 131.676 487 131.476 487.4 131.376L487.6 132.276C487.2 132.476 486.4 132.676 485.4 132.676C483.3 132.676 482.1 131.376 482.1 129.276C482.1 127.176 483.3 125.676 485.2 125.676C487.4 125.676 488 127.576 488 128.776C488 128.976 488 129.176 488 129.376H483.3ZM486.8 128.476C486.8 127.676 486.5 126.476 485.1 126.476C483.9 126.476 483.3 127.576 483.2 128.476H486.8Z" fill="#372C2E"/>
<path d="M489 131.776C489 131.276 489.3 130.876 489.8 130.876C490.3 130.876 490.6 131.276 490.6 131.776C490.6 132.276 490.3 132.676 489.8 132.676C489.4 132.676 489 132.276 489 131.776Z" fill="#372C2E"/>
<path d="M496.3 123.176V132.476H495.1V123.176H496.3Z" fill="#563727"/>
<path d="M498.5 127.576C498.5 126.876 498.5 126.276 498.4 125.776H499.5L499.6 126.876C499.9 126.276 500.7 125.576 501.8 125.576C502.7 125.576 504.2 126.076 504.2 128.376V132.376H503V128.576C503 127.476 502.6 126.576 501.5 126.576C500.7 126.576 500.1 127.176 499.9 127.776C499.8 127.976 499.8 128.176 499.8 128.376V132.376H498.5V127.576Z" fill="#563727"/>
<path d="M507.6 123.876V125.776H509.3V126.676H507.6V130.276C507.6 131.076 507.8 131.576 508.5 131.576C508.8 131.576 509.1 131.576 509.2 131.476L509.3 132.376C509.1 132.476 508.7 132.576 508.2 132.576C507.6 132.576 507.2 132.376 506.9 132.076C506.6 131.676 506.4 131.076 506.4 130.376V126.776H505.4V125.876H506.4V124.276L507.6 123.876Z" fill="#563727"/>
<path d="M511.2 129.376C511.2 130.976 512.3 131.676 513.5 131.676C514.4 131.676 514.9 131.476 515.3 131.376L515.5 132.276C515.1 132.476 514.3 132.676 513.3 132.676C511.3 132.676 510 131.376 510 129.276C510 127.176 511.2 125.676 513.1 125.676C515.3 125.676 515.9 127.576 515.9 128.776C515.9 128.976 515.9 129.176 515.9 129.376H511.2ZM514.8 128.476C514.8 127.676 514.5 126.476 513.1 126.476C511.9 126.476 511.3 127.576 511.2 128.476H514.8Z" fill="#563727"/>
<path d="M517.5 127.876C517.5 127.076 517.5 126.376 517.4 125.776H518.5V127.076H518.6C518.9 126.176 519.6 125.576 520.4 125.576C520.5 125.576 520.6 125.576 520.7 125.576V126.676C520.6 126.676 520.5 126.676 520.3 126.676C519.4 126.676 518.8 127.276 518.7 128.276C518.7 128.476 518.6 128.676 518.6 128.876V132.476H517.5V127.876Z" fill="#563727"/>
<path d="M522 127.576C522 126.876 522 126.276 521.9 125.776H523L523.1 126.876C523.4 126.276 524.2 125.576 525.3 125.576C526.2 125.576 527.7 126.076 527.7 128.376V132.376H526.5V128.576C526.5 127.476 526.1 126.576 525 126.576C524.2 126.576 523.6 127.176 523.4 127.776C523.3 127.976 523.3 128.176 523.3 128.376V132.376H522.1V127.576H522Z" fill="#563727"/>
<path d="M533.3 132.476L533.2 131.676C532.8 132.176 532.1 132.676 531.2 132.676C529.9 132.676 529.2 131.776 529.2 130.776C529.2 129.176 530.6 128.276 533.2 128.276V128.176C533.2 127.576 533 126.676 531.7 126.676C531.1 126.676 530.4 126.876 530 127.176L529.7 126.376C530.2 125.976 531 125.776 531.9 125.776C533.9 125.776 534.4 127.176 534.4 128.476V130.976C534.4 131.576 534.4 132.076 534.5 132.576H533.3V132.476ZM533.2 129.076C531.9 129.076 530.4 129.276 530.4 130.576C530.4 131.376 530.9 131.776 531.5 131.776C532.4 131.776 532.9 131.176 533.1 130.676C533.1 130.576 533.2 130.376 533.2 130.276V129.076V129.076Z" fill="#563727"/>
<path d="M537.7 123.876V125.776H539.4V126.676H537.7V130.276C537.7 131.076 537.9 131.576 538.6 131.576C538.9 131.576 539.2 131.576 539.3 131.476L539.4 132.376C539.2 132.476 538.8 132.576 538.3 132.576C537.7 132.576 537.3 132.376 537 132.076C536.7 131.676 536.5 131.076 536.5 130.376V126.776H535.5V125.876H536.5V124.276L537.7 123.876Z" fill="#563727"/>
<path d="M542.1 123.976C542.1 124.376 541.8 124.676 541.3 124.676C540.9 124.676 540.6 124.376 540.6 123.976C540.6 123.576 540.9 123.176 541.4 123.176C541.8 123.176 542.1 123.476 542.1 123.976ZM540.8 132.476V125.776H542V132.476H540.8Z" fill="#563727"/>
<path d="M550 129.076C550 131.576 548.3 132.576 546.7 132.576C544.9 132.576 543.5 131.276 543.5 129.176C543.5 126.976 545 125.676 546.8 125.676C548.7 125.676 550 127.076 550 129.076ZM544.7 129.176C544.7 130.676 545.5 131.776 546.7 131.776C547.9 131.776 548.7 130.676 548.7 129.176C548.7 128.076 548.1 126.576 546.7 126.576C545.4 126.576 544.7 127.876 544.7 129.176Z" fill="#563727"/>
<path d="M551.5 127.576C551.5 126.876 551.5 126.276 551.4 125.776H552.5L552.6 126.876C552.9 126.276 553.7 125.576 554.8 125.576C555.7 125.576 557.2 126.076 557.2 128.376V132.376H556V128.576C556 127.476 555.6 126.576 554.5 126.576C553.7 126.576 553.1 127.176 552.9 127.776C552.8 127.976 552.8 128.176 552.8 128.376V132.376H551.5V127.576Z" fill="#563727"/>
<path d="M562.9 132.476L562.8 131.676C562.4 132.176 561.7 132.676 560.8 132.676C559.5 132.676 558.8 131.776 558.8 130.776C558.8 129.176 560.2 128.276 562.8 128.276V128.176C562.8 127.576 562.6 126.676 561.3 126.676C560.7 126.676 560 126.876 559.6 127.176L559.3 126.376C559.8 125.976 560.6 125.776 561.5 125.776C563.5 125.776 564 127.176 564 128.476V130.976C564 131.576 564 132.076 564.1 132.576H562.9V132.476ZM562.7 129.076C561.4 129.076 559.9 129.276 559.9 130.576C559.9 131.376 560.4 131.776 561 131.776C561.9 131.776 562.4 131.176 562.6 130.676C562.6 130.576 562.7 130.376 562.7 130.276V129.076V129.076Z" fill="#563727"/>
<path d="M565.8 122.676H567V132.476H565.8V122.676Z" fill="#563727"/>
<path d="M572 123.376C572.7 123.276 573.6 123.176 574.5 123.176C576.2 123.176 577.4 123.576 578.3 124.376C579.1 125.176 579.6 126.176 579.6 127.676C579.6 129.176 579.1 130.476 578.3 131.276C577.4 132.176 576 132.576 574.2 132.576C573.3 132.576 572.6 132.576 572 132.476V123.376V123.376ZM573.2 131.576C573.5 131.676 573.9 131.676 574.4 131.676C577 131.676 578.3 130.276 578.3 127.776C578.3 125.576 577.1 124.176 574.5 124.176C573.9 124.176 573.4 124.276 573.1 124.276V131.576H573.2Z" fill="#563727"/>
<path d="M581.9 129.376C581.9 130.976 583 131.676 584.2 131.676C585.1 131.676 585.6 131.476 586 131.376L586.2 132.276C585.8 132.476 585 132.676 584 132.676C582 132.676 580.7 131.376 580.7 129.276C580.7 127.176 581.9 125.676 583.8 125.676C586 125.676 586.6 127.576 586.6 128.776C586.6 128.976 586.6 129.176 586.6 129.376H581.9ZM585.4 128.476C585.4 127.676 585.1 126.476 583.7 126.476C582.5 126.476 581.9 127.576 581.8 128.476H585.4Z" fill="#563727"/>
<path d="M588.1 127.976C588.1 127.076 588.1 126.476 588 125.776H589.1L589.2 126.876C589.7 126.076 590.5 125.576 591.6 125.576C593.2 125.576 594.4 126.976 594.4 128.976C594.4 131.376 592.9 132.576 591.4 132.576C590.5 132.576 589.7 132.176 589.3 131.576V135.176H588.1V127.976V127.976ZM589.3 129.776C589.3 129.976 589.3 130.076 589.4 130.276C589.6 131.076 590.3 131.676 591.2 131.676C592.5 131.676 593.2 130.676 593.2 129.076C593.2 127.776 592.5 126.576 591.2 126.576C590.4 126.576 589.6 127.176 589.4 128.076C589.4 128.276 589.3 128.376 589.3 128.576V129.776Z" fill="#563727"/>
<path d="M597.4 123.876V125.776H599.1V126.676H597.4V130.276C597.4 131.076 597.6 131.576 598.3 131.576C598.6 131.576 598.9 131.576 599 131.476L599.1 132.376C598.9 132.476 598.5 132.576 598 132.576C597.4 132.576 597 132.376 596.7 132.076C596.4 131.676 596.2 131.076 596.2 130.376V126.776H595.2V125.876H596.2V124.276L597.4 123.876Z" fill="#563727"/>
<path d="M600.5 122.676H601.7V126.876C601.9 126.576 602.2 126.276 602.6 125.976C603 125.776 603.4 125.676 603.8 125.676C604.7 125.676 606.1 126.176 606.1 128.476V132.476H604.9V128.676C604.9 127.576 604.5 126.676 603.4 126.676C602.6 126.676 602 127.276 601.8 127.876C601.7 128.076 601.7 128.176 601.7 128.476V132.476H600.5V122.676Z" fill="#563727"/>
<path d="M607.8 131.776C607.8 131.276 608.1 130.876 608.6 130.876C609.1 130.876 609.4 131.276 609.4 131.776C609.4 132.276 609.1 132.676 608.6 132.676C608.2 132.676 607.8 132.276 607.8 131.776Z" fill="#563727"/>
<path d="M613.9 123.376C614.4 123.276 615.2 123.176 616.1 123.176C617.3 123.176 618.1 123.376 618.6 123.876C619.1 124.276 619.4 124.776 619.4 125.476C619.4 126.376 618.8 127.176 617.8 127.476C618.7 127.676 619.7 128.376 619.7 129.776C619.7 130.576 619.4 131.176 618.9 131.676C618.3 132.276 617.2 132.576 615.7 132.576C614.9 132.576 614.2 132.476 613.8 132.476V123.376H613.9ZM615.1 127.176H616.2C617.5 127.176 618.2 126.476 618.2 125.576C618.2 124.476 617.4 124.076 616.2 124.076C615.6 124.076 615.3 124.076 615.1 124.176V127.176ZM615.1 131.576C615.3 131.576 615.7 131.676 616.1 131.676C617.3 131.676 618.5 131.176 618.5 129.876C618.5 128.576 617.4 128.076 616.1 128.076H615.1V131.576Z" fill="#E1C196"/>
<path d="M626.9 130.676C626.9 131.376 626.9 131.976 627 132.476H625.9L625.8 131.376C625.5 131.876 624.8 132.576 623.6 132.576C622.6 132.576 621.3 131.976 621.3 129.676V125.776H622.5V129.476C622.5 130.776 622.9 131.576 624 131.576C624.8 131.576 625.4 130.976 625.6 130.476C625.7 130.276 625.7 130.076 625.7 129.876V125.776H626.9V130.676V130.676Z" fill="#E1C196"/>
<path d="M628.7 131.276C629.1 131.476 629.7 131.776 630.3 131.776C631.2 131.776 631.6 131.376 631.6 130.776C631.6 130.176 631.3 129.876 630.4 129.576C629.2 129.176 628.6 128.476 628.6 127.676C628.6 126.576 629.5 125.676 630.9 125.676C631.6 125.676 632.2 125.876 632.5 126.076L632.2 126.976C631.9 126.776 631.5 126.576 630.8 126.576C630.1 126.576 629.7 126.976 629.7 127.476C629.7 127.976 630.1 128.276 631 128.576C632.2 128.976 632.7 129.576 632.7 130.576C632.7 131.776 631.8 132.576 630.2 132.576C629.5 132.576 628.8 132.376 628.3 132.076L628.7 131.276Z" fill="#E1C196"/>
<path d="M635.7 123.976C635.7 124.376 635.4 124.676 634.9 124.676C634.5 124.676 634.2 124.376 634.2 123.976C634.2 123.576 634.5 123.176 635 123.176C635.4 123.176 635.7 123.476 635.7 123.976ZM634.4 132.476V125.776H635.6V132.476H634.4Z" fill="#E1C196"/>
<path d="M637.6 127.576C637.6 126.876 637.6 126.276 637.5 125.776H638.6L638.7 126.876C639 126.276 639.8 125.576 640.9 125.576C641.8 125.576 643.3 126.076 643.3 128.376V132.376H642.1V128.576C642.1 127.476 641.7 126.576 640.6 126.576C639.8 126.576 639.2 127.176 639 127.776C638.9 127.976 638.9 128.176 638.9 128.376V132.376H637.7V127.576H637.6Z" fill="#E1C196"/>
<path d="M645.9 129.376C645.9 130.976 647 131.676 648.2 131.676C649.1 131.676 649.6 131.476 650 131.376L650.2 132.276C649.8 132.476 649 132.676 648 132.676C646 132.676 644.7 131.376 644.7 129.276C644.7 127.176 645.9 125.676 647.8 125.676C650 125.676 650.6 127.576 650.6 128.776C650.6 128.976 650.6 129.176 650.6 129.376H645.9ZM649.4 128.476C649.4 127.676 649.1 126.476 647.7 126.476C646.5 126.476 645.9 127.576 645.8 128.476H649.4Z" fill="#E1C196"/>
<path d="M651.9 131.276C652.3 131.476 652.9 131.776 653.5 131.776C654.4 131.776 654.8 131.376 654.8 130.776C654.8 130.176 654.5 129.876 653.6 129.576C652.4 129.176 651.8 128.476 651.8 127.676C651.8 126.576 652.7 125.676 654.1 125.676C654.8 125.676 655.4 125.876 655.7 126.076L655.4 126.976C655.1 126.776 654.7 126.576 654 126.576C653.3 126.576 652.9 126.976 652.9 127.476C652.9 127.976 653.3 128.276 654.2 128.576C655.4 128.976 655.9 129.576 655.9 130.576C655.9 131.776 655 132.576 653.4 132.576C652.7 132.576 652 132.376 651.5 132.076L651.9 131.276Z" fill="#E1C196"/>
<path d="M657.4 131.276C657.8 131.476 658.4 131.776 659 131.776C659.9 131.776 660.3 131.376 660.3 130.776C660.3 130.176 660 129.876 659.1 129.576C657.9 129.176 657.3 128.476 657.3 127.676C657.3 126.576 658.2 125.676 659.6 125.676C660.3 125.676 660.9 125.876 661.2 126.076L660.9 126.976C660.6 126.776 660.2 126.576 659.5 126.576C658.8 126.576 658.4 126.976 658.4 127.476C658.4 127.976 658.8 128.276 659.7 128.576C660.9 128.976 661.4 129.576 661.4 130.576C661.4 131.776 660.5 132.576 658.9 132.576C658.2 132.576 657.5 132.376 657 132.076L657.4 131.276Z" fill="#E1C196"/>
<path d="M667.5 129.576L666.5 132.476H665.3L668.5 123.176H669.9L673.1 132.476H671.8L670.8 129.576H667.5ZM670.5 128.676L669.6 125.976C669.4 125.376 669.3 124.776 669.1 124.276C669 124.876 668.8 125.376 668.6 125.976L667.7 128.676H670.5Z" fill="#E1C196"/>
<path d="M678.9 132.276C678.6 132.476 677.9 132.676 677 132.676C675 132.676 673.7 131.276 673.7 129.276C673.7 127.176 675.1 125.776 677.3 125.776C678 125.776 678.6 125.976 679 126.076L678.7 126.976C678.4 126.776 678 126.676 677.3 126.676C675.8 126.676 674.9 127.776 674.9 129.176C674.9 130.676 675.9 131.676 677.2 131.676C677.9 131.676 678.3 131.476 678.7 131.376L678.9 132.276Z" fill="#E1C196"/>
<path d="M685.9 130.676C685.9 131.376 685.9 131.976 686 132.476H684.9L684.8 131.376C684.5 131.876 683.8 132.576 682.6 132.576C681.6 132.576 680.3 131.976 680.3 129.676V125.776H681.5V129.476C681.5 130.776 681.9 131.576 683 131.576C683.8 131.576 684.4 130.976 684.6 130.476C684.7 130.276 684.7 130.076 684.7 129.876V125.776H685.9V130.676V130.676Z" fill="#E1C196"/>
<path d="M687.9 127.576C687.9 126.876 687.9 126.276 687.8 125.776H688.9L689 126.876C689.4 126.276 690 125.676 691.1 125.676C692 125.676 692.7 126.176 693 126.976C693.2 126.576 693.5 126.276 693.7 126.076C694.1 125.776 694.5 125.576 695.2 125.576C696.1 125.576 697.4 126.176 697.4 128.476V132.376H696.2V128.576C696.2 127.276 695.7 126.576 694.8 126.576C694.1 126.576 693.6 127.076 693.4 127.676C693.3 127.876 693.3 128.076 693.3 128.276V132.376H692.1V128.376C692.1 127.276 691.6 126.576 690.7 126.576C689.9 126.576 689.4 127.176 689.2 127.776C689.1 127.976 689.1 128.176 689.1 128.376V132.376H687.9V127.576Z" fill="#E1C196"/>
<path d="M700.1 129.376C700.1 130.976 701.2 131.676 702.4 131.676C703.3 131.676 703.8 131.476 704.2 131.376L704.4 132.276C704 132.476 703.2 132.676 702.2 132.676C700.2 132.676 698.9 131.376 698.9 129.276C698.9 127.176 700.1 125.676 702 125.676C704.2 125.676 704.8 127.576 704.8 128.776C704.8 128.976 704.8 129.176 704.8 129.376H700.1ZM703.6 128.476C703.6 127.676 703.3 126.476 701.9 126.476C700.7 126.476 700.1 127.576 700 128.476H703.6Z" fill="#E1C196"/>
<path d="M706.3 127.576C706.3 126.876 706.3 126.276 706.2 125.776H707.3L707.4 126.876C707.7 126.276 708.5 125.576 709.6 125.576C710.5 125.576 712 126.076 712 128.376V132.376H710.8V128.576C710.8 127.476 710.4 126.576 709.3 126.576C708.5 126.576 707.9 127.176 707.7 127.776C707.6 127.976 707.6 128.176 707.6 128.376V132.376H706.4V127.576H706.3Z" fill="#E1C196"/>
<path d="M713.6 131.776C713.6 131.276 713.9 130.876 714.4 130.876C714.9 130.876 715.2 131.276 715.2 131.776C715.2 132.276 714.9 132.676 714.4 132.676C714 132.676 713.6 132.276 713.6 131.776Z" fill="#E1C196"/>
<defs>
<filter id="filter0_d_590_2" x="0" y="35.4758" width="43.6" height="43.6" filterUnits="userSpaceOnUse" color-interpolation-filters="sRGB">
<feFlood flood-opacity="0" result="BackgroundImageFix"/>
<feColorMatrix in="SourceAlpha" type="matrix" values="0 0 0 0 0 0 0 0 0 0 0 0 0 0 0 0 0 0 127 0" result="hardAlpha"/>
<feOffset dx="5"/>
<feGaussianBlur stdDeviation="4"/>
<feComposite in2="hardAlpha" operator="out"/>
<feColorMatrix type="matrix" values="0 0 0 0 0 0 0 0 0 0 0 0 0 0 0 0 0 0 0.25 0"/>
<feBlend mode="normal" in2="BackgroundImageFix" result="effect1_dropShadow_590_2"/>
<feBlend mode="normal" in="SourceGraphic" in2="effect1_dropShadow_590_2" result="shape"/>
</filter>
</defs>
</svg>
