<svg width="332" height="77" viewBox="0 0 332 77" fill="none" xmlns="http://www.w3.org/2000/svg">
<path d="M132.964 37.7588C132.928 39.6402 132.82 41.4855 132.603 43.2945C132.856 41.9558 133.001 40.5809 133.001 39.1699C133.001 38.6633 132.964 38.193 132.964 37.7588Z" fill="#E1C196"/>
<g filter="url(#filter0_d_504_2)">
<path d="M7.99304 42.3543C10.7506 42.3543 12.9861 40.1188 12.9861 37.3612C12.9861 34.6036 10.7506 32.3682 7.99304 32.3682C5.23546 32.3682 3 34.6036 3 37.3612C3 40.1188 5.23546 42.3543 7.99304 42.3543Z" fill="#E1C196"/>
</g>
<path d="M53.69 44.8145V61.0961H47.2858V51.3271H38.7832V44.8145H53.69Z" fill="#372C2E" stroke="#372C2E" stroke-miterlimit="10"/>
<path d="M72.5407 40.835H64.7617V61.0604H72.5407V40.835Z" fill="#372C2E" stroke="#372C2E" stroke-miterlimit="10"/>
<path d="M85.2047 17.3174L76.0869 31.5005L72.5412 37.0725V39.9308H64.7621V37.0725L61.2164 31.5005L52.0986 17.3174H60.5289L68.6697 29.1487L76.7744 17.3174H85.2047Z" fill="#372C2E" stroke="#372C2E" stroke-miterlimit="10"/>
<path d="M87.8093 53.7158H73.5176V61.0607H87.8093V53.7158Z" fill="#372C2E" stroke="#372C2E" stroke-miterlimit="10"/>
<path d="M63.9293 42.0652H27.0604C27.8926 46.3708 30.8594 50.4232 36.7208 52.775C38.1681 53.3539 39.7601 53.8242 41.5692 54.186L39.4706 58.4193L38.3128 60.8072C29.8825 60.8072 24.2382 56.1036 21.4161 49.8081C20.3306 47.4201 19.6794 44.7788 19.3899 42.1014H14.1074C14.4692 41.6672 15.8803 40.0029 15.8803 37.434C15.8803 34.8651 14.4692 33.2008 14.1074 32.7666H61.0348L63.9293 37.3978V42.0652Z" fill="#E1C196" stroke="#E1C196" stroke-miterlimit="10"/>
<path d="M51.5555 19.7772L50.47 27.4477C41.099 20.5371 32.2708 24.517 28.7612 31.7533H20.4756C23.3339 20.5732 33.6818 12.5048 51.5555 19.7772Z" fill="#372C2E" stroke="#372C2E" stroke-miterlimit="10"/>
<path d="M131.155 30.523C130.069 27.8818 128.441 25.4938 126.307 23.4676C124.172 21.4415 121.748 19.8495 118.998 18.7279C117.442 18.0766 115.85 17.6424 114.222 17.353C112.992 17.1359 111.762 17.0273 110.495 17.0273C107.565 17.0273 104.706 17.5701 101.92 18.7279C99.1343 19.8495 96.7101 21.4415 94.6116 23.4676C92.4769 25.53 90.8487 27.8818 89.7271 30.523C89.4376 31.2105 89.1843 31.9341 88.9673 32.6577H76.3399L73.373 37.3613V42.1011H88.2798C88.5693 44.3082 89.2205 46.4067 90.1613 48.3967C91.5723 51.3274 93.5623 53.8239 96.2035 55.9224C98.2659 57.5506 100.509 58.7808 102.933 59.6491C105.394 60.5175 107.89 60.9516 110.459 60.9516C110.785 60.9516 111.146 60.9516 111.472 60.9155C114.041 60.8069 116.501 60.2642 118.926 59.2873C121.639 58.1657 124.099 56.5737 126.27 54.5113C128.369 52.4852 129.961 50.1334 131.082 47.456C131.661 46.0811 132.059 44.67 132.349 43.2227C132.566 41.3413 132.674 39.4237 132.711 37.506C132.638 35.0819 132.096 32.7301 131.155 30.523ZM119.902 49.0118C118.781 50.2057 117.551 51.1465 116.14 51.7977C114.439 52.5937 112.558 52.9917 110.495 52.9917C106.624 52.9917 103.44 51.653 100.98 49.0118C99.5322 47.456 98.5192 45.6831 97.9403 43.6569H91.7171V40.8709H97.3976C97.3614 40.5453 97.3252 40.1835 97.3252 39.8217H91.7532V37.0357H97.4337C97.4699 36.6739 97.5061 36.3482 97.5785 35.9864H91.7532V33.2005H98.3383C98.9533 31.6447 99.8579 30.2336 101.052 28.931C103.548 26.2174 106.696 24.8787 110.495 24.8787C113.245 24.8787 115.633 25.6023 117.732 27.0496C118.491 27.5923 119.215 28.2074 119.866 28.931C122.363 31.6447 123.629 34.9733 123.629 38.9533C123.593 43.0056 122.363 46.3343 119.902 49.0118Z" fill="#E1C196" stroke="#E1C196" stroke-miterlimit="10"/>
<path d="M147.059 63.1973H331.714" stroke="#E1C196" stroke-miterlimit="10"/>
<path d="M164.385 22.1446C162.27 23.378 159.862 23.9653 157.219 23.9653C154.165 23.9653 151.699 22.9668 149.819 21.0287C147.94 19.0905 147 16.4475 147 13.2172C147 9.92821 148.057 7.2265 150.113 5.05339C152.227 2.93902 154.87 1.88184 158.042 1.88184C160.391 1.88184 162.329 2.23423 163.915 2.99775V5.75819C162.212 4.64227 160.156 4.11368 157.807 4.11368C155.399 4.11368 153.461 4.93593 151.934 6.58044C150.407 8.22495 149.643 10.3393 149.643 12.9823C149.643 15.684 150.348 17.7984 151.757 19.3254C153.167 20.8525 155.105 21.616 157.513 21.616C159.158 21.616 160.626 21.2636 161.859 20.6175V14.6268H157.161V12.3362H164.326V22.1446H164.385Z" fill="#372C2E" stroke="#372C2E" stroke-width="0.5" stroke-miterlimit="10"/>
<path d="M181.241 16.5641H170.493C170.552 18.2673 170.963 19.5594 171.844 20.4992C172.725 21.4389 173.9 21.9087 175.427 21.9087C177.13 21.9087 178.716 21.3214 180.184 20.2055V22.4961C178.833 23.4945 177.071 23.9644 174.898 23.9644C172.725 23.9644 171.08 23.2596 169.847 21.9087C168.614 20.5579 168.026 18.561 168.026 16.0942C168.026 13.7449 168.672 11.8067 170.023 10.2797C171.374 8.81139 173.019 8.04785 175.016 8.04785C177.012 8.04785 178.539 8.69392 179.655 9.98604C180.771 11.2782 181.3 13.0401 181.3 15.3307V16.5641H181.241ZM178.774 14.5084C178.774 13.0989 178.422 11.9829 177.776 11.2194C177.13 10.4559 176.19 10.0448 174.957 10.0448C173.782 10.0448 172.842 10.4559 172.02 11.2781C171.198 12.1004 170.728 13.1576 170.552 14.5084H178.774Z" fill="#372C2E" stroke="#372C2E" stroke-width="0.5" stroke-miterlimit="10"/>
<path d="M192.047 23.4359C191.46 23.7295 190.697 23.9057 189.757 23.9057C187.114 23.9057 185.763 22.4374 185.763 19.4421V10.3972H183.12V8.34161H185.763V4.64146L188.23 3.87793V8.40034H192.047V10.456H188.23V19.0309C188.23 20.0294 188.406 20.7929 188.758 21.204C189.111 21.6152 189.698 21.8501 190.462 21.8501C191.049 21.8501 191.636 21.6739 192.047 21.3215V23.4359Z" fill="#372C2E" stroke="#372C2E" stroke-width="0.5" stroke-miterlimit="10"/>
<path d="M207.965 23.5537H205.498V14.8612C205.498 11.631 204.323 9.98645 201.974 9.98645C200.74 9.98645 199.742 10.4563 198.92 11.3373C198.097 12.277 197.745 13.3929 197.745 14.8025V23.4949H195.278V8.22447H197.745V10.75H197.804C198.978 8.81179 200.623 7.87207 202.796 7.87207C204.441 7.87207 205.733 8.40065 206.614 9.45784C207.495 10.515 207.965 12.1008 207.965 14.0977V23.5537Z" fill="#372C2E" stroke="#372C2E" stroke-width="0.5" stroke-miterlimit="10"/>
<path d="M224.82 16.5641H214.072C214.131 18.2673 214.542 19.5594 215.423 20.4992C216.304 21.4389 217.479 21.9087 219.006 21.9087C220.709 21.9087 222.295 21.3214 223.763 20.2055V22.4961C222.412 23.4945 220.65 23.9644 218.477 23.9644C216.304 23.9644 214.66 23.2596 213.426 21.9087C212.193 20.5579 211.605 18.561 211.605 16.0942C211.605 13.7449 212.252 11.8067 213.602 10.2797C214.953 8.81139 216.598 8.04785 218.595 8.04785C220.592 8.04785 222.119 8.69392 223.235 9.98604C224.35 11.2782 224.879 13.0401 224.879 15.3307V16.5641H224.82ZM222.295 14.5084C222.295 13.0989 221.942 11.9829 221.296 11.2194C220.65 10.4559 219.711 10.0448 218.477 10.0448C217.303 10.0448 216.363 10.4559 215.541 11.2781C214.718 12.1004 214.248 13.1576 214.072 14.5084H222.295Z" fill="#372C2E" stroke="#372C2E" stroke-width="0.5" stroke-miterlimit="10"/>
<path d="M235.569 23.4359C234.982 23.7295 234.218 23.9057 233.278 23.9057C230.635 23.9057 229.285 22.4374 229.285 19.4421V10.3972H226.642V8.34161H229.285V4.64146L231.751 3.87793V8.40034H235.569V10.456H231.751V19.0309C231.751 20.0294 231.928 20.7929 232.28 21.204C232.632 21.6152 233.22 21.8501 233.983 21.8501C234.57 21.8501 235.158 21.6739 235.569 21.3215V23.4359Z" fill="#372C2E" stroke="#372C2E" stroke-width="0.5" stroke-miterlimit="10"/>
<path d="M261.352 2.2334L254.304 15.6832V23.5533H251.838V15.7419L244.966 2.2334H247.785L252.542 11.8655C252.601 11.983 252.777 12.3941 253.071 13.1577H253.13C253.247 12.8053 253.423 12.3941 253.717 11.8655L258.709 2.2334H261.352Z" fill="#372C2E" stroke="#372C2E" stroke-width="0.5" stroke-miterlimit="10"/>
<path d="M271.983 23.5535H269.516V21.1455H269.457C268.4 22.9662 266.814 23.9059 264.759 23.9059C263.232 23.9059 262.057 23.4948 261.176 22.6725C260.295 21.8503 259.884 20.7931 259.884 19.501C259.884 16.6818 261.587 14.9786 264.935 14.5087L269.516 13.8626C269.516 11.2784 268.459 9.9863 266.403 9.9863C264.582 9.9863 262.938 10.6324 261.411 11.8657V9.34024C262.938 8.40052 264.641 7.93066 266.579 7.93066C270.162 7.93066 271.924 9.8101 271.924 13.6277V23.5535H271.983ZM269.516 15.8596L265.816 16.3881C264.7 16.5643 263.819 16.7993 263.232 17.2104C262.644 17.6215 262.351 18.3263 262.351 19.3248C262.351 20.0883 262.644 20.6756 263.173 21.1455C263.701 21.6153 264.406 21.8503 265.287 21.8503C266.521 21.8503 267.519 21.4392 268.283 20.5582C269.046 19.6772 269.457 18.62 269.457 17.3279V15.8596H269.516Z" fill="#372C2E" stroke="#372C2E" stroke-width="0.5" stroke-miterlimit="10"/>
<path d="M295.77 8.34194L291.189 23.6124H288.663L285.551 12.6881C285.433 12.277 285.374 11.8072 285.316 11.2786H285.257C285.198 11.631 285.14 12.1008 284.963 12.6881L281.557 23.6124H279.09L274.45 8.34194H277.034L280.206 19.7948C280.323 20.1472 280.382 20.6171 280.441 21.1456H280.558C280.617 20.7345 280.676 20.2646 280.852 19.7361L284.376 8.2832H286.608L289.779 19.7948C289.897 20.1472 289.956 20.6171 290.014 21.1456H290.132C290.132 20.7345 290.249 20.3234 290.367 19.7948L293.48 8.2832H295.77V8.34194Z" fill="#372C2E" stroke="#372C2E" stroke-width="0.5" stroke-miterlimit="10"/>
<path d="M311.275 23.5533H307.869L301.114 16.2117H301.056V23.5533H298.589V1H301.056V15.3307H301.114L307.516 8.34157H310.688L303.64 15.6831L311.275 23.5533Z" fill="#372C2E" stroke="#372C2E" stroke-width="0.5" stroke-miterlimit="10"/>
<path d="M324.666 23.5535H322.2V21.1455H322.141C321.084 22.9662 319.498 23.9059 317.442 23.9059C315.915 23.9059 314.74 23.4948 313.859 22.6725C312.978 21.8503 312.567 20.7931 312.567 19.501C312.567 16.6818 314.271 14.9786 317.618 14.5087L322.2 13.8626C322.2 11.2784 321.142 9.9863 319.087 9.9863C317.266 9.9863 315.621 10.6324 314.094 11.8657V9.34024C315.621 8.40052 317.325 7.93066 319.263 7.93066C322.846 7.93066 324.608 9.8101 324.608 13.6277V23.5535H324.666ZM322.2 15.8596L318.499 16.3881C317.383 16.5643 316.502 16.7993 315.915 17.2104C315.328 17.6215 315.034 18.3263 315.034 19.3248C315.034 20.0883 315.328 20.6756 315.856 21.1455C316.385 21.6153 317.09 21.8503 317.971 21.8503C319.204 21.8503 320.203 21.4392 320.966 20.5582C321.73 19.7359 322.141 18.62 322.141 17.3279V15.8596H322.2Z" fill="#372C2E" stroke="#372C2E" stroke-width="0.5" stroke-miterlimit="10"/>
<path d="M331.714 23.5533H329.247V1H331.714V23.5533Z" fill="#372C2E" stroke="#372C2E" stroke-width="0.5" stroke-miterlimit="10"/>
<path d="M156.515 49.2788H147.822V32.54H149.76V47.5168H156.515V49.2788Z" fill="#372C2E" stroke="#372C2E" stroke-width="0.5" stroke-miterlimit="10"/>
<path d="M167.38 49.2779H165.442V47.3985H165.383C164.561 48.808 163.327 49.5716 161.683 49.5716C160.508 49.5716 159.568 49.2779 158.864 48.6318C158.159 47.9858 157.865 47.1635 157.865 46.1064C157.865 43.8745 159.157 42.5824 161.8 42.23L165.383 41.7014C165.383 39.6458 164.561 38.6473 162.916 38.6473C161.448 38.6473 160.156 39.1172 159.04 40.1156V38.1775C160.215 37.4139 161.565 37.0615 163.092 37.0615C165.912 37.0615 167.321 38.5298 167.321 41.5252V49.2779H167.38ZM165.442 43.2284L162.564 43.6396C161.683 43.757 160.978 43.992 160.567 44.2856C160.097 44.5793 159.862 45.1666 159.862 45.9889C159.862 46.5762 160.097 47.0461 160.508 47.3985C160.919 47.7509 161.507 47.927 162.153 47.927C163.092 47.927 163.915 47.5747 164.502 46.9286C165.148 46.2825 165.442 45.4015 165.442 44.4031V43.2284Z" fill="#372C2E" stroke="#372C2E" stroke-width="0.5" stroke-miterlimit="10"/>
<path d="M186.057 37.3557L182.475 49.3372H180.478L178.011 40.7622C177.893 40.4098 177.835 40.0574 177.835 39.6463H177.776C177.776 39.94 177.659 40.2924 177.541 40.7035L174.839 49.2785H172.901L169.26 37.297H171.257L173.723 46.2831C173.782 46.5768 173.841 46.9291 173.9 47.3403H174.017C174.017 46.9879 174.135 46.6355 174.252 46.2244L177.012 37.2383H178.774L181.241 46.2831C181.3 46.5768 181.359 46.9291 181.417 47.3403H181.535C181.535 47.0466 181.594 46.6942 181.711 46.2831L184.119 37.2383H186.057V37.3557Z" fill="#372C2E" stroke="#372C2E" stroke-width="0.5" stroke-miterlimit="10"/>
<path d="M201.857 49.5722C199.507 49.5722 197.569 48.8087 196.159 47.2229C194.75 45.6371 193.986 43.6402 193.986 41.1147C193.986 38.413 194.691 36.2986 196.159 34.6541C197.628 33.0096 199.625 32.2461 202.091 32.2461C204.382 32.2461 206.261 33.0096 207.671 34.5954C209.081 36.1812 209.785 38.1781 209.785 40.7036C209.785 43.464 209.081 45.5784 207.612 47.1642C206.203 48.8087 204.265 49.5722 201.857 49.5722ZM201.974 34.0081C200.212 34.0081 198.802 34.6541 197.686 35.8875C196.571 37.1796 196.042 38.8241 196.042 40.8798C196.042 42.9354 196.571 44.5799 197.628 45.872C198.685 47.1054 200.095 47.7515 201.798 47.7515C203.618 47.7515 205.087 47.1642 206.144 45.9308C207.201 44.6974 207.73 43.0529 207.73 40.8798C207.73 38.6479 207.201 36.9447 206.203 35.77C205.204 34.6541 203.795 34.0081 201.974 34.0081Z" fill="#372C2E" stroke="#372C2E" stroke-width="0.5" stroke-miterlimit="10"/>
<path d="M218.771 33.2448C218.419 33.0099 217.949 32.9511 217.479 32.9511C216.128 32.9511 215.482 33.7734 215.482 35.4767V37.2974H218.301V38.9419H215.482V49.2788H213.603V38.9419H211.547V37.2974H213.603V35.4179C213.603 34.1845 213.955 33.1861 214.66 32.4226C215.364 31.7178 216.304 31.3066 217.361 31.3066C217.949 31.3066 218.419 31.3654 218.771 31.5416V33.2448Z" fill="#372C2E" stroke="#372C2E" stroke-width="0.5" stroke-miterlimit="10"/>
<path d="M226.289 33.2448C225.936 33.0099 225.466 32.9511 224.996 32.9511C223.646 32.9511 223 33.7734 223 35.4767V37.2974H225.819V38.9419H223V49.2788H221.12V38.9419H219.064V37.2974H221.12V35.4179C221.12 34.1845 221.472 33.1861 222.177 32.4226C222.882 31.7178 223.822 31.3066 224.879 31.3066C225.466 31.3066 225.936 31.3654 226.289 31.5416V33.2448Z" fill="#372C2E" stroke="#372C2E" stroke-width="0.5" stroke-miterlimit="10"/>
<path d="M228.814 34.3017C228.462 34.3017 228.168 34.1843 227.933 33.9493C227.699 33.7144 227.581 33.4207 227.581 33.0683C227.581 32.716 227.699 32.4223 227.933 32.1874C228.168 31.9524 228.462 31.835 228.814 31.835C229.167 31.835 229.46 31.9524 229.695 32.1874C229.93 32.4223 230.048 32.716 230.048 33.0683C230.048 33.4207 229.93 33.7144 229.695 33.9493C229.46 34.1843 229.167 34.3017 228.814 34.3017ZM229.754 49.2785H227.816V37.2971H229.754V49.2785Z" fill="#372C2E" stroke="#372C2E" stroke-width="0.5" stroke-miterlimit="10"/>
<path d="M241.795 48.7494C240.855 49.278 239.798 49.5717 238.506 49.5717C236.802 49.5717 235.452 49.0431 234.394 47.9272C233.337 46.8113 232.809 45.4017 232.809 43.581C232.809 41.5841 233.396 39.9983 234.512 38.8236C235.628 37.649 237.155 37.0029 239.034 37.0029C240.091 37.0029 241.031 37.1791 241.795 37.5903V39.5284C240.914 38.8824 239.974 38.5887 238.917 38.5887C237.683 38.5887 236.685 38.9998 235.921 39.8808C235.158 40.7618 234.747 41.9365 234.747 43.346C234.747 44.7556 235.099 45.8715 235.863 46.6351C236.626 47.4573 237.566 47.8685 238.799 47.8685C239.857 47.8685 240.796 47.516 241.736 46.8113V48.7494H241.795Z" fill="#372C2E" stroke="#372C2E" stroke-width="0.5" stroke-miterlimit="10"/>
<path d="M254.304 43.8158H245.847C245.905 45.1666 246.258 46.1651 246.904 46.9286C247.609 47.6334 248.548 47.9858 249.723 47.9858C251.074 47.9858 252.307 47.5159 253.423 46.6349V48.4557C252.366 49.2192 250.956 49.5716 249.253 49.5716C247.55 49.5716 246.258 49.043 245.259 47.927C244.261 46.8111 243.791 45.2841 243.791 43.3459C243.791 41.4665 244.32 39.9394 245.377 38.8235C246.434 37.7076 247.726 37.0615 249.312 37.0615C250.898 37.0615 252.072 37.5901 252.953 38.5886C253.834 39.587 254.245 40.9966 254.245 42.8173V43.8158H254.304ZM252.366 42.1713C252.366 41.0553 252.072 40.2331 251.544 39.587C251.015 38.9997 250.31 38.6473 249.371 38.6473C248.49 38.6473 247.726 38.9997 247.08 39.6458C246.434 40.2918 246.082 41.1141 245.905 42.1713H252.366Z" fill="#372C2E" stroke="#372C2E" stroke-width="0.5" stroke-miterlimit="10"/>
<path d="M148.703 69.9512H149.408V74.826H151.757V75.4133H148.703V69.9512Z" fill="#372C2E"/>
<path d="M155.927 73.4168C155.927 74.8852 154.929 75.4725 153.989 75.4725C152.932 75.4725 152.109 74.7089 152.109 73.4756C152.109 72.1834 152.99 71.4199 154.048 71.4199C155.163 71.4199 155.927 72.2422 155.927 73.4168ZM152.814 73.4756C152.814 74.3565 153.284 75.0026 153.989 75.0026C154.694 75.0026 155.163 74.3565 155.163 73.4756C155.163 72.8295 154.811 71.9485 153.989 71.9485C153.167 71.9485 152.814 72.712 152.814 73.4756Z" fill="#372C2E"/>
<path d="M159.627 75.2971C159.451 75.4146 159.04 75.532 158.511 75.532C157.337 75.532 156.573 74.7098 156.573 73.5351C156.573 72.3017 157.396 71.4795 158.688 71.4795C159.099 71.4795 159.451 71.597 159.686 71.6557L159.51 72.1843C159.334 72.0668 159.099 72.0081 158.688 72.0081C157.807 72.0081 157.278 72.6541 157.278 73.4764C157.278 74.3574 157.865 74.9447 158.629 74.9447C159.04 74.9447 159.275 74.8273 159.51 74.7685L159.627 75.2971Z" fill="#372C2E"/>
<path d="M162.623 75.4146L162.564 74.9447C162.329 75.2384 161.918 75.532 161.389 75.532C160.626 75.532 160.215 75.0034 160.215 74.4161C160.215 73.4764 161.037 72.9478 162.564 72.9478V72.8891C162.564 72.5367 162.447 72.0081 161.683 72.0081C161.331 72.0081 160.92 72.1255 160.685 72.3017L160.509 71.8319C160.802 71.597 161.272 71.4795 161.801 71.4795C162.975 71.4795 163.269 72.3018 163.269 73.0653V74.5336C163.269 74.886 163.269 75.1797 163.328 75.4733H162.623V75.4146ZM162.505 73.4177C161.742 73.4177 160.861 73.5351 160.861 74.2987C160.861 74.7685 161.155 75.0034 161.507 75.0034C162.036 75.0034 162.329 74.651 162.447 74.3574C162.447 74.2987 162.505 74.1812 162.505 74.1225V73.4177Z" fill="#372C2E"/>
<path d="M164.326 69.6582H165.031V75.414H164.326V69.6582Z" fill="#372C2E"/>
<path d="M170.787 72.8878H168.673V74.826H171.022V75.4133H167.968V69.9512H170.904V70.5385H168.673V72.2418H170.787V72.8878Z" fill="#372C2E"/>
<path d="M172.255 71.4787L172.784 72.3009C172.901 72.5358 173.077 72.712 173.195 72.947C173.312 72.712 173.43 72.5358 173.606 72.3009L174.135 71.4787H174.898L173.547 73.3581L174.898 75.355H174.076L173.489 74.474C173.312 74.2391 173.195 74.0042 173.077 73.7692C172.96 74.0042 172.784 74.2391 172.666 74.474L172.079 75.355H171.315L172.725 73.3581L171.374 71.4199H172.255V71.4787Z" fill="#372C2E"/>
<path d="M175.661 72.7709C175.661 72.2423 175.661 71.8899 175.603 71.4788H176.249L176.307 72.1248C176.601 71.655 177.071 71.3613 177.717 71.3613C178.657 71.3613 179.361 72.1836 179.361 73.3582C179.361 74.7678 178.48 75.4726 177.599 75.4726C177.071 75.4726 176.601 75.2377 176.366 74.8853V76.9996H175.661V72.7709ZM176.366 73.8281C176.366 73.9455 176.366 74.0043 176.425 74.1217C176.542 74.5916 176.953 74.944 177.482 74.944C178.246 74.944 178.657 74.3567 178.657 73.417C178.657 72.6534 178.246 71.9487 177.482 71.9487C177.012 71.9487 176.542 72.301 176.425 72.8296C176.425 72.9471 176.366 73.0058 176.366 73.1233V73.8281Z" fill="#372C2E"/>
<path d="M180.654 73.593C180.654 74.5328 181.3 74.9439 182.005 74.9439C182.533 74.9439 182.827 74.8264 183.062 74.7677L183.18 75.2963C182.945 75.4137 182.475 75.5312 181.887 75.5312C180.654 75.5312 179.949 74.7677 179.949 73.5343C179.949 72.3009 180.654 71.4199 181.77 71.4199C183.062 71.4199 183.414 72.5358 183.414 73.2406C183.414 73.3581 183.414 73.4756 183.414 73.593H180.654ZM182.768 73.0644C182.768 72.5946 182.592 71.8898 181.77 71.8898C181.065 71.8898 180.713 72.5359 180.654 73.0644H182.768Z" fill="#372C2E"/>
<path d="M184.295 72.7122C184.295 72.2423 184.295 71.8312 184.236 71.4788H184.882V72.2423H184.941C185.117 71.7137 185.528 71.3613 185.998 71.3613C186.057 71.3613 186.116 71.3613 186.174 71.3613V72.0074C186.116 72.0074 186.057 72.0074 185.94 72.0074C185.411 72.0074 185.059 72.3598 185 72.9471C185 73.0646 184.941 73.182 184.941 73.2995V75.4139H184.295V72.7122Z" fill="#372C2E"/>
<path d="M187.995 70.3633V71.4792H188.994V72.0078H187.995V74.1222C187.995 74.592 188.113 74.8857 188.524 74.8857C188.7 74.8857 188.876 74.8857 188.935 74.827L188.994 75.3555C188.876 75.4143 188.641 75.473 188.348 75.473C187.995 75.473 187.76 75.3556 187.584 75.1794C187.408 74.9444 187.29 74.592 187.29 74.1809V72.0665H186.703V71.5379H187.29V70.5982L187.995 70.3633Z" fill="#372C2E"/>
<path d="M190.638 70.421C190.638 70.656 190.462 70.8322 190.168 70.8322C189.933 70.8322 189.757 70.656 189.757 70.421C189.757 70.1861 189.933 69.9512 190.227 69.9512C190.462 69.9512 190.638 70.1274 190.638 70.421ZM189.816 75.4133V71.4782H190.52V75.4133H189.816Z" fill="#372C2E"/>
<path d="M191.636 74.7089C191.871 74.8264 192.224 75.0026 192.576 75.0026C193.105 75.0026 193.34 74.7677 193.34 74.4153C193.34 74.0629 193.163 73.8867 192.635 73.7105C191.93 73.4756 191.578 73.0644 191.578 72.5946C191.578 71.9485 192.106 71.4199 192.928 71.4199C193.34 71.4199 193.692 71.5374 193.868 71.6549L193.692 72.1835C193.516 72.066 193.281 71.9485 192.87 71.9485C192.459 71.9485 192.224 72.1835 192.224 72.4771C192.224 72.7708 192.459 72.947 192.987 73.1232C193.692 73.3581 193.986 73.7105 193.986 74.2978C193.986 75.0026 193.457 75.4725 192.517 75.4725C192.106 75.4725 191.695 75.355 191.401 75.1788L191.636 74.7089Z" fill="#372C2E"/>
<path d="M195.337 73.593C195.337 74.5328 195.983 74.9439 196.687 74.9439C197.216 74.9439 197.51 74.8264 197.745 74.7677L197.862 75.2963C197.627 75.4137 197.157 75.5312 196.57 75.5312C195.337 75.5312 194.632 74.7677 194.632 73.5343C194.632 72.3009 195.337 71.4199 196.453 71.4199C197.745 71.4199 198.097 72.5358 198.097 73.2406C198.097 73.3581 198.097 73.4756 198.097 73.593H195.337ZM197.392 73.0644C197.392 72.5946 197.216 71.8898 196.394 71.8898C195.689 71.8898 195.337 72.5359 195.278 73.0644H197.392Z" fill="#372C2E"/>
<path d="M198.685 75.0032C198.685 74.7095 198.861 74.4746 199.154 74.4746C199.448 74.4746 199.624 74.7095 199.624 75.0032C199.624 75.2969 199.448 75.5318 199.154 75.5318C198.919 75.5318 198.685 75.2969 198.685 75.0032Z" fill="#372C2E"/>
<path d="M202.972 69.9512V75.4133H202.268V69.9512H202.972Z" fill="#563727"/>
<path d="M204.264 72.536C204.264 72.1249 204.264 71.7724 204.205 71.4788H204.851L204.91 72.1248C205.086 71.7724 205.556 71.3613 206.202 71.3613C206.731 71.3613 207.612 71.655 207.612 73.0058V75.3551H206.907V73.1233C206.907 72.4772 206.672 71.9487 206.026 71.9487C205.556 71.9487 205.204 72.301 205.086 72.6534C205.027 72.7709 205.027 72.8884 205.027 73.0058V75.3551H204.264V72.536Z" fill="#563727"/>
<path d="M209.608 70.3633V71.4792H210.607V72.0078H209.608V74.1222C209.608 74.592 209.726 74.8857 210.137 74.8857C210.313 74.8857 210.49 74.8857 210.548 74.827L210.607 75.3555C210.489 75.4143 210.255 75.473 209.961 75.473C209.609 75.473 209.374 75.3556 209.197 75.1794C209.021 74.9444 208.904 74.592 208.904 74.1809V72.0665H208.316V71.5379H208.904V70.5982L209.608 70.3633Z" fill="#563727"/>
<path d="M211.723 73.593C211.723 74.5328 212.369 74.9439 213.074 74.9439C213.603 74.9439 213.896 74.8264 214.131 74.7677L214.249 75.2963C214.014 75.4137 213.544 75.5312 212.957 75.5312C211.782 75.5312 211.019 74.7677 211.019 73.5343C211.019 72.3009 211.723 71.4199 212.839 71.4199C214.131 71.4199 214.484 72.5358 214.484 73.2406C214.484 73.3581 214.484 73.4756 214.484 73.593H211.723ZM213.838 73.0644C213.838 72.5946 213.662 71.8898 212.839 71.8898C212.134 71.8898 211.782 72.5359 211.723 73.0644H213.838Z" fill="#563727"/>
<path d="M215.423 72.7122C215.423 72.2423 215.423 71.8312 215.364 71.4788H216.01V72.2423H216.069C216.245 71.7137 216.656 71.3613 217.126 71.3613C217.185 71.3613 217.244 71.3613 217.302 71.3613V72.0074C217.244 72.0074 217.185 72.0074 217.067 72.0074C216.539 72.0074 216.187 72.3598 216.128 72.9471C216.128 73.0646 216.069 73.182 216.069 73.2995V75.4139H215.423V72.7122Z" fill="#563727"/>
<path d="M218.067 72.536C218.067 72.1249 218.067 71.7724 218.008 71.4788H218.654L218.713 72.1248C218.889 71.7724 219.359 71.3613 220.005 71.3613C220.533 71.3613 221.414 71.655 221.414 73.0058V75.3551H220.709V73.1233C220.709 72.4772 220.475 71.9487 219.829 71.9487C219.359 71.9487 219.006 72.301 218.889 72.6534C218.83 72.7709 218.83 72.8884 218.83 73.0058V75.3551H218.125V72.536H218.067Z" fill="#563727"/>
<path d="M224.703 75.4146L224.644 74.9447C224.409 75.2384 223.998 75.532 223.47 75.532C222.706 75.532 222.295 75.0034 222.295 74.4161C222.295 73.4764 223.117 72.9478 224.644 72.9478V72.8891C224.644 72.5367 224.527 72.0081 223.763 72.0081C223.411 72.0081 223 72.1255 222.765 72.3017L222.589 71.8319C222.882 71.597 223.352 71.4795 223.881 71.4795C225.055 71.4795 225.349 72.3018 225.349 73.0653V74.5336C225.349 74.886 225.349 75.1797 225.408 75.4733H224.703V75.4146ZM224.644 73.4177C223.881 73.4177 223 73.5351 223 74.2987C223 74.7685 223.293 75.0034 223.646 75.0034C224.174 75.0034 224.468 74.651 224.585 74.3574C224.585 74.2987 224.644 74.1812 224.644 74.1225V73.4177Z" fill="#563727"/>
<path d="M227.287 70.3633V71.4792H228.286V72.0078H227.287V74.1222C227.287 74.592 227.405 74.8857 227.816 74.8857C227.992 74.8857 228.168 74.8857 228.227 74.827L228.286 75.3555C228.168 75.4143 227.933 75.473 227.64 75.473C227.287 75.473 227.052 75.3556 226.876 75.1794C226.7 74.9444 226.582 74.592 226.582 74.1809V72.0665H225.995V71.5379H226.582V70.5982L227.287 70.3633Z" fill="#563727"/>
<path d="M229.871 70.421C229.871 70.656 229.695 70.8322 229.401 70.8322C229.166 70.8322 228.99 70.656 228.99 70.421C228.99 70.1861 229.166 69.9512 229.46 69.9512C229.695 69.9512 229.871 70.1274 229.871 70.421ZM229.108 75.4133V71.4782H229.813V75.4133H229.108Z" fill="#563727"/>
<path d="M234.512 73.4168C234.512 74.8852 233.514 75.4725 232.574 75.4725C231.517 75.4725 230.694 74.7089 230.694 73.4756C230.694 72.1834 231.575 71.4199 232.633 71.4199C233.748 71.4199 234.512 72.2422 234.512 73.4168ZM231.399 73.4756C231.399 74.3565 231.869 75.0026 232.574 75.0026C233.279 75.0026 233.748 74.3565 233.748 73.4756C233.748 72.8295 233.396 71.9485 232.574 71.9485C231.81 71.9485 231.399 72.712 231.399 73.4756Z" fill="#563727"/>
<path d="M235.393 72.536C235.393 72.1249 235.393 71.7724 235.334 71.4788H235.98L236.039 72.1248C236.215 71.7724 236.685 71.3613 237.331 71.3613C237.859 71.3613 238.74 71.655 238.74 73.0058V75.3551H238.036V73.1233C238.036 72.4772 237.801 71.9487 237.155 71.9487C236.685 71.9487 236.332 72.301 236.215 72.6534C236.156 72.7709 236.156 72.8884 236.156 73.0058V75.3551H235.393V72.536Z" fill="#563727"/>
<path d="M242.088 75.4146L242.029 74.9447C241.794 75.2384 241.383 75.532 240.854 75.532C240.091 75.532 239.68 75.0034 239.68 74.4161C239.68 73.4764 240.502 72.9478 242.029 72.9478V72.8891C242.029 72.5367 241.912 72.0081 241.148 72.0081C240.796 72.0081 240.384 72.1255 240.15 72.3017L239.973 71.8319C240.267 71.597 240.737 71.4795 241.265 71.4795C242.44 71.4795 242.734 72.3018 242.734 73.0653V74.5336C242.734 74.886 242.734 75.1797 242.793 75.4733H242.088V75.4146ZM241.97 73.4177C241.207 73.4177 240.326 73.5351 240.326 74.2987C240.326 74.7685 240.619 75.0034 240.972 75.0034C241.5 75.0034 241.794 74.651 241.912 74.3574C241.912 74.2987 241.97 74.1812 241.97 74.1225V73.4177Z" fill="#563727"/>
<path d="M243.791 69.6582H244.496V75.414H243.791V69.6582Z" fill="#563727"/>
<path d="M247.433 70.0686C247.844 70.0099 248.372 69.9512 248.901 69.9512C249.899 69.9512 250.604 70.1861 251.133 70.656C251.603 71.1258 251.896 71.7131 251.896 72.5941C251.896 73.4751 251.603 74.2387 251.133 74.7085C250.604 75.2371 249.782 75.472 248.725 75.472C248.196 75.472 247.785 75.472 247.433 75.4133V70.0686ZM248.137 74.8847C248.314 74.9435 248.549 74.9434 248.842 74.9434C250.369 74.9434 251.133 74.1212 251.133 72.6529C251.133 71.3608 250.428 70.5385 248.901 70.5385C248.549 70.5385 248.255 70.5972 248.079 70.5972V74.8847H248.137Z" fill="#563727"/>
<path d="M253.247 73.593C253.247 74.5328 253.893 74.9439 254.598 74.9439C255.126 74.9439 255.42 74.8264 255.655 74.7677L255.772 75.2963C255.537 75.4137 255.067 75.5312 254.48 75.5312C253.306 75.5312 252.542 74.7677 252.542 73.5343C252.542 72.3009 253.247 71.4199 254.363 71.4199C255.655 71.4199 256.007 72.5358 256.007 73.2406C256.007 73.3581 256.007 73.4756 256.007 73.593H253.247ZM255.302 73.0644C255.302 72.5946 255.126 71.8898 254.304 71.8898C253.599 71.8898 253.247 72.5359 253.188 73.0644H255.302Z" fill="#563727"/>
<path d="M256.889 72.7709C256.889 72.2423 256.889 71.8899 256.83 71.4788H257.476L257.535 72.1248C257.829 71.655 258.298 71.3613 258.944 71.3613C259.884 71.3613 260.589 72.1836 260.589 73.3582C260.589 74.7678 259.708 75.4726 258.827 75.4726C258.298 75.4726 257.829 75.2377 257.594 74.8853V76.9996H256.889V72.7709ZM257.594 73.8281C257.594 73.9455 257.594 74.0043 257.652 74.1217C257.77 74.5916 258.181 74.944 258.71 74.944C259.473 74.944 259.884 74.3567 259.884 73.417C259.884 72.6534 259.473 71.9487 258.71 71.9487C258.24 71.9487 257.77 72.301 257.652 72.8296C257.652 72.9471 257.594 73.0058 257.594 73.1233V73.8281Z" fill="#563727"/>
<path d="M262.351 70.3633V71.4792H263.349V72.0078H262.351V74.1222C262.351 74.592 262.468 74.8857 262.879 74.8857C263.055 74.8857 263.232 74.8857 263.29 74.827L263.349 75.3555C263.232 75.4143 262.997 75.473 262.703 75.473C262.351 75.473 262.116 75.3556 261.94 75.1794C261.763 74.9444 261.646 74.592 261.646 74.1809V72.0665H261.059V71.5379H261.646V70.5982L262.351 70.3633Z" fill="#563727"/>
<path d="M264.171 69.6582H264.876V72.125C264.993 71.9488 265.169 71.7726 265.404 71.5964C265.639 71.4789 265.874 71.4202 266.109 71.4202C266.638 71.4202 267.46 71.7139 267.46 73.0647V75.414H266.755V73.1822C266.755 72.5361 266.52 72.0075 265.874 72.0075C265.404 72.0075 265.052 72.3599 264.934 72.7123C264.876 72.8298 264.876 72.8885 264.876 73.0647V75.414H264.171V69.6582Z" fill="#563727"/>
<path d="M268.459 75.0032C268.459 74.7095 268.635 74.4746 268.929 74.4746C269.223 74.4746 269.399 74.7095 269.399 75.0032C269.399 75.2969 269.223 75.5318 268.929 75.5318C268.694 75.5318 268.459 75.2969 268.459 75.0032Z" fill="#563727"/>
<path d="M272.041 70.0686C272.335 70.0099 272.805 69.9512 273.333 69.9512C274.038 69.9512 274.508 70.0686 274.802 70.3623C275.095 70.5972 275.271 70.8909 275.271 71.302C275.271 71.8306 274.919 72.3005 274.332 72.4767C274.86 72.5941 275.448 73.0053 275.448 73.8275C275.448 74.2974 275.271 74.6498 274.978 74.9434C274.625 75.2958 273.979 75.472 273.098 75.472C272.628 75.472 272.217 75.4133 271.982 75.4133V70.0686H272.041ZM272.746 72.3005H273.392C274.156 72.3005 274.567 71.8894 274.567 71.3608C274.567 70.7147 274.097 70.4798 273.392 70.4798C273.04 70.4798 272.863 70.4798 272.746 70.5385V72.3005ZM272.746 74.8847C272.863 74.8847 273.098 74.9434 273.333 74.9434C274.038 74.9434 274.743 74.6498 274.743 73.8863C274.743 73.1227 274.097 72.8291 273.333 72.8291H272.746V74.8847Z" fill="#E1C196"/>
<path d="M279.677 74.3574C279.677 74.7685 279.677 75.1209 279.735 75.4146H279.089L279.031 74.7685C278.854 75.0622 278.443 75.4733 277.739 75.4733C277.151 75.4733 276.388 75.1209 276.388 73.7701V71.4795H277.092V73.6526C277.092 74.4161 277.327 74.886 277.973 74.886C278.443 74.886 278.796 74.5336 278.913 74.2399C278.972 74.1225 278.972 74.005 278.972 73.8875V71.4795H279.677V74.3574Z" fill="#E1C196"/>
<path d="M280.734 74.7089C280.969 74.8264 281.321 75.0026 281.674 75.0026C282.202 75.0026 282.437 74.7677 282.437 74.4153C282.437 74.0629 282.261 73.8867 281.732 73.7105C281.028 73.4756 280.675 73.0644 280.675 72.5946C280.675 71.9485 281.204 71.4199 282.026 71.4199C282.437 71.4199 282.79 71.5374 282.966 71.6549L282.79 72.1835C282.613 72.066 282.378 71.9485 281.967 71.9485C281.556 71.9485 281.321 72.1835 281.321 72.4771C281.321 72.7708 281.556 72.947 282.085 73.1232C282.79 73.3581 283.083 73.7105 283.083 74.2978C283.083 75.0026 282.555 75.4725 281.615 75.4725C281.204 75.4725 280.793 75.355 280.499 75.1788L280.734 74.7089Z" fill="#E1C196"/>
<path d="M284.845 70.421C284.845 70.656 284.669 70.8322 284.375 70.8322C284.14 70.8322 283.964 70.656 283.964 70.421C283.964 70.1861 284.14 69.9512 284.434 69.9512C284.669 69.9512 284.845 70.1274 284.845 70.421ZM284.081 75.4133V71.4782H284.786V75.4133H284.081Z" fill="#E1C196"/>
<path d="M285.961 72.536C285.961 72.1249 285.961 71.7724 285.902 71.4788H286.548L286.607 72.1248C286.783 71.7724 287.253 71.3613 287.899 71.3613C288.428 71.3613 289.309 71.655 289.309 73.0058V75.3551H288.604V73.1233C288.604 72.4772 288.369 71.9487 287.723 71.9487C287.253 71.9487 286.901 72.301 286.783 72.6534C286.725 72.7709 286.725 72.8884 286.725 73.0058V75.3551H286.02V72.536H285.961Z" fill="#E1C196"/>
<path d="M290.836 73.593C290.836 74.5328 291.482 74.9439 292.186 74.9439C292.715 74.9439 293.009 74.8264 293.244 74.7677L293.361 75.2963C293.126 75.4137 292.656 75.5312 292.069 75.5312C290.894 75.5312 290.131 74.7677 290.131 73.5343C290.131 72.3009 290.836 71.4199 291.952 71.4199C293.244 71.4199 293.596 72.5358 293.596 73.2406C293.596 73.3581 293.596 73.4756 293.596 73.593H290.836ZM292.891 73.0644C292.891 72.5946 292.715 71.8898 291.893 71.8898C291.188 71.8898 290.836 72.5359 290.777 73.0644H292.891Z" fill="#E1C196"/>
<path d="M294.36 74.7089C294.595 74.8264 294.947 75.0026 295.3 75.0026C295.828 75.0026 296.063 74.7677 296.063 74.4153C296.063 74.0629 295.887 73.8867 295.358 73.7105C294.654 73.4756 294.301 73.0644 294.301 72.5946C294.301 71.9485 294.83 71.4199 295.652 71.4199C296.063 71.4199 296.416 71.5374 296.592 71.6549L296.416 72.1835C296.239 72.066 296.004 71.9485 295.593 71.9485C295.182 71.9485 294.947 72.1835 294.947 72.4771C294.947 72.7708 295.182 72.947 295.711 73.1232C296.416 73.3581 296.709 73.7105 296.709 74.2978C296.709 75.0026 296.181 75.4725 295.241 75.4725C294.83 75.4725 294.419 75.355 294.125 75.1788L294.36 74.7089Z" fill="#E1C196"/>
<path d="M297.59 74.7089C297.825 74.8264 298.178 75.0026 298.53 75.0026C299.059 75.0026 299.294 74.7677 299.294 74.4153C299.294 74.0629 299.117 73.8867 298.589 73.7105C297.884 73.4756 297.532 73.0644 297.532 72.5946C297.532 71.9485 298.06 71.4199 298.883 71.4199C299.294 71.4199 299.646 71.5374 299.822 71.6549L299.646 72.1835C299.47 72.066 299.235 71.9485 298.824 71.9485C298.413 71.9485 298.178 72.1835 298.178 72.4771C298.178 72.7708 298.413 72.947 298.941 73.1232C299.646 73.3581 299.94 73.7105 299.94 74.2978C299.94 75.0026 299.411 75.4725 298.471 75.4725C298.06 75.4725 297.649 75.355 297.355 75.1788L297.59 74.7089Z" fill="#E1C196"/>
<path d="M303.523 73.7101L302.935 75.4133H302.23L304.11 69.9512H304.932L306.812 75.4133H306.048L305.461 73.7101H303.523ZM305.285 73.1815L304.756 71.5957C304.638 71.2433 304.58 70.8909 304.462 70.5972C304.404 70.9496 304.286 71.2433 304.169 71.5957L303.64 73.1815H305.285Z" fill="#E1C196"/>
<path d="M310.218 75.2971C310.042 75.4146 309.631 75.532 309.102 75.532C307.928 75.532 307.164 74.7098 307.164 73.5351C307.164 72.3017 307.986 71.4795 309.278 71.4795C309.69 71.4795 310.042 71.597 310.277 71.6557L310.101 72.1843C309.924 72.0668 309.69 72.0081 309.278 72.0081C308.397 72.0081 307.869 72.6541 307.869 73.4764C307.869 74.3574 308.456 74.9447 309.22 74.9447C309.631 74.9447 309.866 74.8273 310.101 74.7685L310.218 75.2971Z" fill="#E1C196"/>
<path d="M314.329 74.3574C314.329 74.7685 314.329 75.1209 314.388 75.4146H313.742L313.683 74.7685C313.507 75.0622 313.096 75.4733 312.391 75.4733C311.804 75.4733 311.04 75.1209 311.04 73.7701V71.4795H311.745V73.6526C311.745 74.4161 311.98 74.886 312.626 74.886C313.096 74.886 313.448 74.5336 313.566 74.2399C313.624 74.1225 313.624 74.005 313.624 73.8875V71.4795H314.329V74.3574Z" fill="#E1C196"/>
<path d="M315.504 72.536C315.504 72.1249 315.504 71.7724 315.445 71.4788H316.091L316.15 72.1248C316.385 71.7724 316.737 71.42 317.383 71.42C317.912 71.42 318.323 71.7137 318.499 72.1836C318.617 71.9487 318.793 71.7725 318.911 71.655C319.145 71.4788 319.38 71.3613 319.792 71.3613C320.32 71.3613 321.084 71.7137 321.084 73.0646V75.3551H320.379V73.1233C320.379 72.3598 320.085 71.9487 319.557 71.9487C319.145 71.9487 318.852 72.2423 318.734 72.5947C318.676 72.7122 318.676 72.8296 318.676 72.9471V75.3551H317.971V73.0058C317.971 72.3598 317.677 71.9487 317.149 71.9487C316.679 71.9487 316.385 72.301 316.268 72.6534C316.209 72.7709 316.209 72.8884 316.209 73.0058V75.3551H315.504V72.536Z" fill="#E1C196"/>
<path d="M322.669 73.593C322.669 74.5328 323.315 74.9439 324.02 74.9439C324.548 74.9439 324.842 74.8264 325.077 74.7677L325.194 75.2963C324.959 75.4137 324.489 75.5312 323.902 75.5312C322.727 75.5312 321.964 74.7677 321.964 73.5343C321.964 72.3009 322.669 71.4199 323.785 71.4199C325.077 71.4199 325.429 72.5358 325.429 73.2406C325.429 73.3581 325.429 73.4756 325.429 73.593H322.669ZM324.724 73.0644C324.724 72.5946 324.548 71.8898 323.726 71.8898C323.021 71.8898 322.669 72.5359 322.61 73.0644H324.724Z" fill="#E1C196"/>
<path d="M326.311 72.536C326.311 72.1249 326.311 71.7724 326.252 71.4788H326.898L326.957 72.1248C327.133 71.7724 327.603 71.3613 328.249 71.3613C328.777 71.3613 329.658 71.655 329.658 73.0058V75.3551H328.954V73.1233C328.954 72.4772 328.719 71.9487 328.073 71.9487C327.603 71.9487 327.25 72.301 327.133 72.6534C327.074 72.7709 327.074 72.8884 327.074 73.0058V75.3551H326.369V72.536H326.311Z" fill="#E1C196"/>
<path d="M330.598 75.0032C330.598 74.7095 330.774 74.4746 331.068 74.4746C331.361 74.4746 331.537 74.7095 331.537 75.0032C331.537 75.2969 331.361 75.5318 331.068 75.5318C330.833 75.5318 330.598 75.2969 330.598 75.0032Z" fill="#E1C196"/>
<defs>
<filter id="filter0_d_504_2" x="0" y="24.3682" width="25.9863" height="25.9863" filterUnits="userSpaceOnUse" color-interpolation-filters="sRGB">
<feFlood flood-opacity="0" result="BackgroundImageFix"/>
<feColorMatrix in="SourceAlpha" type="matrix" values="0 0 0 0 0 0 0 0 0 0 0 0 0 0 0 0 0 0 127 0" result="hardAlpha"/>
<feOffset dx="5"/>
<feGaussianBlur stdDeviation="4"/>
<feComposite in2="hardAlpha" operator="out"/>
<feColorMatrix type="matrix" values="0 0 0 0 0 0 0 0 0 0 0 0 0 0 0 0 0 0 0.25 0"/>
<feBlend mode="normal" in2="BackgroundImageFix" result="effect1_dropShadow_504_2"/>
<feBlend mode="normal" in="SourceGraphic" in2="effect1_dropShadow_504_2" result="shape"/>
</filter>
</defs>
</svg>
