<svg width="732" height="135" viewBox="0 0 732 135" fill="none" xmlns="http://www.w3.org/2000/svg">
<path d="M378.2 57.8799C378.123 62.9934 377.789 68.0998 377.2 73.1799C377.922 69.4226 378.291 65.6059 378.3 61.7799C378.3 60.3799 378.2 59.0799 378.2 57.8799Z" fill="#E1C196"/>
<g filter="url(#filter0_d_320_171)">
<path d="M32.8 70.5805C35.5294 70.5805 38.1975 69.7711 40.4669 68.2548C42.7363 66.7384 44.505 64.5831 45.5495 62.0615C46.594 59.5399 46.8673 56.7652 46.3348 54.0882C45.8024 51.4113 44.488 48.9524 42.5581 47.0224C40.6281 45.0924 38.1692 43.7781 35.4922 43.2456C32.8153 42.7132 30.0406 42.9864 27.519 44.0309C24.9973 45.0754 22.8421 46.8442 21.3257 49.1136C19.8094 51.383 19 54.0511 19 56.7805C19 60.4405 20.4539 63.9505 23.0419 66.5385C25.6299 69.1265 29.14 70.5805 32.8 70.5805V70.5805Z" fill="#E1C196"/>
</g>
<path d="M159.1 77.3799V122.38H141.4V95.3799H117.9V77.3799H159.1Z" fill="#372C2E" stroke="#372C2E" stroke-miterlimit="10"/>
<path d="M211.2 66.3799H189.7V122.28H211.2V66.3799Z" fill="#372C2E" stroke="#372C2E" stroke-miterlimit="10"/>
<path d="M246.2 1.37988L221 40.5799L211.2 55.9799V63.8799H189.7V55.9799L179.9 40.5799L154.7 1.37988H178L200.5 34.0799L222.9 1.37988H246.2Z" fill="#372C2E" stroke="#372C2E" stroke-miterlimit="10"/>
<path d="M253.4 101.98H213.9V122.28H253.4V101.98Z" fill="#372C2E" stroke="#372C2E" stroke-miterlimit="10"/>
<path d="M187.4 69.7801H85.5002C87.8002 81.6801 96.0002 92.8801 112.2 99.3801C116.538 101.089 121.023 102.394 125.6 103.28L119.8 114.98L116.6 121.58C93.3002 121.58 77.7002 108.58 69.9002 91.1801C66.9179 84.4212 65.0277 77.2317 64.3002 69.8801H49.7002C52.857 66.3245 54.6004 61.7348 54.6004 56.9801C54.6004 52.2254 52.857 47.6357 49.7002 44.0801H179.4L187.4 56.8801V69.7801V69.7801Z" fill="#E1C196" stroke="#E1C196" stroke-miterlimit="10"/>
<path d="M153.2 8.17979L150.2 29.3798C124.3 10.2798 99.8998 21.2798 90.1998 41.2798H67.2998C75.1998 10.3798 103.8 -11.9202 153.2 8.17979Z" fill="#372C2E" stroke="#372C2E" stroke-miterlimit="10"/>
<path d="M373.2 37.8799C370.166 30.5039 365.598 23.857 359.8 18.3799C353.949 12.784 347.096 8.33987 339.6 5.27993C335.353 3.53565 330.926 2.2679 326.4 1.49993C323 0.898436 319.553 0.597275 316.1 0.599934C307.966 0.573412 299.908 2.17132 292.4 5.29993C284.879 8.31141 278.017 12.7612 272.2 18.3999C264.847 25.3391 259.464 34.1033 256.6 43.7999H221.7L213.5 56.7999V69.8999H254.7C256.742 85.0009 264.6 98.7075 276.6 108.1C282.196 112.526 288.479 116.005 295.2 118.4C301.876 120.781 308.912 121.999 316 122C316.934 122.017 317.869 121.983 318.8 121.9C325.875 121.598 332.844 120.076 339.4 117.4C346.925 114.294 353.809 109.819 359.7 104.2C365.429 98.6774 369.957 92.0322 373 84.6799C374.558 80.908 375.731 76.988 376.5 72.9799C377.1 67.7799 377.4 62.4799 377.5 57.1799C377.286 50.5343 375.828 43.9877 373.2 37.8799V37.8799ZM342.1 88.9799C339.167 92.1981 335.634 94.8136 331.7 96.6799C326.808 98.9213 321.48 100.048 316.1 99.9799C305.4 99.9799 296.6 96.2799 289.8 88.9799C285.854 84.7914 282.973 79.7153 281.4 74.1799H264.2V66.4999H279.9C279.78 65.5377 279.713 64.5695 279.7 63.5999H264.3V55.8999H280C280.084 54.9271 280.218 53.9592 280.4 52.9999H264.3V45.2999H282.5C284.25 40.9373 286.793 36.9365 290 33.4999C296.9 25.9999 305.6 22.2999 316.1 22.2999C323.229 22.1675 330.221 24.2651 336.1 28.2999C338.25 29.8129 340.229 31.5566 342 33.4999C348.9 40.9999 352.4 50.1999 352.4 61.1999C352.3 72.3799 348.9 81.5799 342.1 88.9799V88.9799Z" fill="#E1C196" stroke="#E1C196" stroke-miterlimit="10"/>
<path d="M417.1 111.18H731.5" stroke="#E1C196" stroke-miterlimit="10"/>
<path d="M446.6 41.2799C442.885 43.389 438.671 44.4597 434.4 44.3799C432.068 44.4681 429.743 44.069 427.573 43.2081C425.404 42.3472 423.438 41.0434 421.8 39.3799C418.6 36.0799 417 31.5799 417 26.0799C416.927 23.5284 417.357 20.9874 418.266 18.6023C419.176 16.2172 420.547 14.0348 422.3 12.1799C424.063 10.4062 426.17 9.01198 428.492 8.08329C430.813 7.15459 433.301 6.71104 435.8 6.77994C439.234 6.65436 442.652 7.30376 445.8 8.67994V13.3799C442.686 11.4414 439.067 10.4672 435.4 10.5799C433.529 10.5187 431.667 10.8623 429.941 11.5872C428.215 12.3121 426.666 13.4012 425.4 14.7799C422.726 17.7639 421.326 21.6765 421.5 25.6799C421.5 30.2799 422.7 33.8799 425.1 36.4799C426.36 37.7926 427.887 38.8199 429.577 39.4927C431.268 40.1654 433.083 40.468 434.9 40.3799C437.468 40.4216 440.008 39.8382 442.3 38.6799V28.4999H434.3V24.5999H446.5V41.2999L446.6 41.2799Z" fill="#372C2E" stroke="#372C2E" stroke-width="0.5" stroke-miterlimit="10"/>
<path d="M475.3 31.7802H457C457.1 34.6802 457.8 36.8802 459.3 38.4802C460.086 39.293 461.037 39.9278 462.09 40.3418C463.142 40.7558 464.271 40.9394 465.4 40.8802C468.348 40.8468 471.2 39.8257 473.5 37.9802V41.8802C471.2 43.5802 468.2 44.3802 464.5 44.3802C462.898 44.459 461.298 44.1866 459.813 43.582C458.327 42.9774 456.992 42.0553 455.9 40.8802C453.8 38.5802 452.8 35.1802 452.8 30.9802C452.647 27.3699 453.861 23.8349 456.2 21.0802C457.257 19.8685 458.564 18.9011 460.032 18.2449C461.5 17.5888 463.092 17.2596 464.7 17.2802C466.18 17.1996 467.66 17.4545 469.028 18.026C470.396 18.5974 471.617 19.4705 472.6 20.5802C474.5 22.7802 475.4 25.7802 475.4 29.6802V31.7802H475.3ZM471.1 28.2802C471.213 26.2712 470.611 24.2872 469.4 22.6802C468.801 22.0081 468.059 21.4794 467.228 21.1332C466.397 20.787 465.499 20.6321 464.6 20.6802C463.666 20.6636 462.74 20.8418 461.879 21.2034C461.018 21.565 460.242 22.102 459.6 22.7802C458.165 24.2753 457.283 26.2156 457.1 28.2802H471.1Z" fill="#372C2E" stroke="#372C2E" stroke-width="0.5" stroke-miterlimit="10"/>
<path d="M493.7 43.5002C492.479 44.0647 491.144 44.3386 489.8 44.3002C485.3 44.3002 483 41.8002 483 36.7002V21.2802H478.5V17.7802H483V11.5002L487.2 10.2002V17.9002H493.7V21.4002H487.2V36.0002C487.083 37.2991 487.399 38.6002 488.1 39.7002C488.475 40.083 488.928 40.3797 489.429 40.5697C489.93 40.7596 490.466 40.8383 491 40.8002C491.977 40.8244 492.933 40.506 493.7 39.9002V43.5002Z" fill="#372C2E" stroke="#372C2E" stroke-width="0.5" stroke-miterlimit="10"/>
<path d="M520.8 43.6801H516.6V28.8801C516.6 23.3801 514.6 20.5801 510.6 20.5801C509.619 20.5668 508.646 20.7654 507.749 21.1624C506.852 21.5593 506.05 22.1452 505.4 22.8801C504.007 24.5208 503.292 26.6306 503.4 28.7801V43.5801H499.2V17.5801H503.4V21.8801H503.5C504.324 20.3561 505.555 19.0909 507.056 18.2257C508.557 17.3604 510.269 16.9292 512 16.9801C513.218 16.9048 514.436 17.1089 515.563 17.5769C516.69 18.0448 517.694 18.7643 518.5 19.6801C520 21.4801 520.8 24.1801 520.8 27.5801V43.6801V43.6801Z" fill="#372C2E" stroke="#372C2E" stroke-width="0.5" stroke-miterlimit="10"/>
<path d="M549.5 31.7802H531.2C531.3 34.6802 532 36.8802 533.5 38.4802C534.286 39.293 535.238 39.9278 536.29 40.3418C537.342 40.7558 538.471 40.9394 539.6 40.8802C542.548 40.8468 545.401 39.8257 547.7 37.9802V41.8802C545.4 43.5802 542.4 44.3802 538.7 44.3802C537.098 44.459 535.498 44.1866 534.013 43.582C532.527 42.9774 531.192 42.0553 530.1 40.8802C528 38.5802 527 35.1802 527 30.9802C526.848 27.3699 528.062 23.8349 530.4 21.0802C531.457 19.8685 532.764 18.9011 534.232 18.2449C535.7 17.5888 537.293 17.2596 538.9 17.2802C540.38 17.1996 541.86 17.4545 543.228 18.026C544.596 18.5974 545.817 19.4705 546.8 20.5802C548.7 22.7802 549.6 25.7802 549.6 29.6802V31.7802H549.5ZM545.2 28.2802C545.313 26.2712 544.711 24.2872 543.5 22.6802C542.901 22.0081 542.159 21.4794 541.328 21.1332C540.497 20.787 539.599 20.6321 538.7 20.6802C537.767 20.6636 536.84 20.8418 535.979 21.2034C535.118 21.565 534.342 22.102 533.7 22.7802C532.265 24.2753 531.383 26.2156 531.2 28.2802H545.2Z" fill="#372C2E" stroke="#372C2E" stroke-width="0.5" stroke-miterlimit="10"/>
<path d="M567.8 43.5002C566.579 44.0647 565.245 44.3386 563.9 44.3002C559.4 44.3002 557.1 41.8002 557.1 36.7002V21.2802H552.6V17.7802H557.1V11.5002L561.3 10.2002V17.9002H567.8V21.4002H561.3V36.0002C561.183 37.2991 561.499 38.6002 562.2 39.7002C562.575 40.083 563.028 40.3797 563.529 40.5697C564.03 40.7596 564.566 40.8383 565.1 40.8002C566.078 40.8244 567.033 40.506 567.8 39.9002V43.5002V43.5002Z" fill="#372C2E" stroke="#372C2E" stroke-width="0.5" stroke-miterlimit="10"/>
<path d="M611.7 7.37988L599.7 30.2799V43.6799H595.5V30.3799L583.8 7.37988H588.6L596.7 23.7799C596.8 23.9799 597.1 24.6799 597.6 25.9799H597.7C597.964 25.2169 598.298 24.4803 598.7 23.7799L607.2 7.37988H611.7Z" fill="#372C2E" stroke="#372C2E" stroke-width="0.5" stroke-miterlimit="10"/>
<path d="M629.8 43.6798H625.6V39.5798H625.5C624.738 41.0321 623.585 42.2422 622.171 43.0728C620.757 43.9035 619.139 44.3216 617.5 44.2798C615.27 44.4053 613.08 43.6514 611.4 42.1798C610.666 41.4907 610.09 40.6516 609.711 39.7197C609.331 38.7879 609.157 37.7851 609.2 36.7798C609.2 31.9798 612.1 29.0798 617.8 28.2798L625.6 27.1798C625.6 22.7798 623.8 20.5798 620.3 20.5798C617.178 20.6109 614.167 21.7443 611.8 23.7798V19.4998C614.446 17.8822 617.498 17.0499 620.6 17.0998C626.7 17.0998 629.7 20.2998 629.7 26.7998V43.6998L629.8 43.6798ZM625.6 30.5798L619.3 31.4798C617.75 31.625 616.249 32.1025 614.9 32.8798C614.37 33.3075 613.955 33.8608 613.693 34.4895C613.431 35.1181 613.33 35.8023 613.4 36.4798C613.391 37.0676 613.512 37.6502 613.754 38.186C613.996 38.7218 614.353 39.1977 614.8 39.5798C615.807 40.4172 617.092 40.8456 618.4 40.7798C619.361 40.8205 620.318 40.6438 621.201 40.2629C622.084 39.882 622.87 39.3066 623.5 38.5798C624.83 37.0608 625.544 35.0986 625.5 33.0798V30.5798H625.6Z" fill="#372C2E" stroke="#372C2E" stroke-width="0.5" stroke-miterlimit="10"/>
<path d="M670.3 17.7797L662.5 43.7797H658.2L652.9 25.1797C652.702 24.3918 652.568 23.5892 652.5 22.7797H652.4C652.29 23.5905 652.123 24.3925 651.9 25.1797L646.1 43.7797H641.9L634 17.7797H638.4L643.8 37.2797C644.008 38.0315 644.142 38.8018 644.2 39.5797H644.4C644.49 38.7656 644.657 37.962 644.9 37.1797L650.9 17.6797H654.7L660.1 37.2797C660.308 38.0315 660.442 38.8018 660.5 39.5797H660.7C660.752 38.8011 660.886 38.0302 661.1 37.2797L666.4 17.6797H670.3V17.7797Z" fill="#372C2E" stroke="#372C2E" stroke-width="0.5" stroke-miterlimit="10"/>
<path d="M696.7 43.6803H690.9L679.4 31.1803H679.3V43.6803H675.1V5.28027H679.3V29.6803H679.4L690.3 17.7803H695.7L683.7 30.2803L696.7 43.6803Z" fill="#372C2E" stroke="#372C2E" stroke-width="0.5" stroke-miterlimit="10"/>
<path d="M719.5 43.6798H715.3V39.5798H715.2C714.438 41.0321 713.285 42.2422 711.871 43.0728C710.458 43.9035 708.839 44.3216 707.2 44.2798C704.97 44.4053 702.78 43.6514 701.1 42.1798C700.367 41.4907 699.791 40.6516 699.411 39.7197C699.031 38.7879 698.857 37.7851 698.9 36.7798C698.9 31.9798 701.8 29.0798 707.5 28.2798L715.3 27.1798C715.3 22.7798 713.5 20.5798 710 20.5798C706.878 20.6109 703.867 21.7443 701.5 23.7798V19.4998C704.147 17.8822 707.198 17.0499 710.3 17.0998C716.4 17.0998 719.4 20.2998 719.4 26.7998V43.6998L719.5 43.6798ZM715.3 30.5798L709 31.4998C707.45 31.645 705.949 32.1225 704.6 32.8998C704.07 33.3275 703.655 33.8808 703.393 34.5095C703.131 35.1381 703.03 35.8223 703.1 36.4998C703.091 37.0876 703.212 37.6702 703.454 38.206C703.696 38.7418 704.053 39.2177 704.5 39.5998C705.507 40.4372 706.792 40.8656 708.1 40.7998C709.061 40.8405 710.018 40.6638 710.901 40.2829C711.785 39.9019 712.57 39.3266 713.2 38.5998C714.545 37.0896 715.261 35.1214 715.2 33.0998V30.5998L715.3 30.5798Z" fill="#372C2E" stroke="#372C2E" stroke-width="0.5" stroke-miterlimit="10"/>
<path d="M731.5 43.6803H727.3V5.28027H731.5V43.6803Z" fill="#372C2E" stroke="#372C2E" stroke-width="0.5" stroke-miterlimit="10"/>
<path d="M433.2 87.5005H418.4V58.9805H421.7V84.5005H433.2V87.5005Z" fill="#372C2E" stroke="#372C2E" stroke-width="0.5" stroke-miterlimit="10"/>
<path d="M451.7 87.5003H448.4V84.3003H448.3C447.699 85.4434 446.791 86.3956 445.678 87.0495C444.565 87.7034 443.291 88.0327 442 88.0003C440.254 88.1042 438.535 87.5312 437.2 86.4003C436.618 85.8524 436.164 85.1831 435.87 84.4399C435.576 83.6967 435.45 82.8979 435.5 82.1003C435.5 78.3003 437.7 76.1003 442.2 75.5003L448.3 74.6003C448.3 71.1003 446.9 69.4003 444.1 69.4003C441.661 69.3603 439.3 70.2548 437.5 71.9003V68.6003C439.562 67.2993 441.963 66.6381 444.4 66.7003C449.2 66.7003 451.6 69.2003 451.6 74.3003V87.5003H451.7ZM448.4 77.2003L443.5 77.9003C442.298 78.0059 441.136 78.382 440.1 79.0003C439.667 79.3393 439.329 79.7844 439.119 80.2925C438.908 80.8006 438.833 81.3545 438.9 81.9003C438.888 82.3578 438.981 82.8118 439.172 83.2278C439.362 83.6438 439.646 84.0107 440 84.3003C440.798 84.9216 441.79 85.2405 442.8 85.2003C443.549 85.217 444.293 85.0741 444.983 84.781C445.673 84.4879 446.292 84.0513 446.8 83.5003C447.341 82.9271 447.761 82.2511 448.036 81.5125C448.311 80.7739 448.434 79.9876 448.4 79.2003V77.2003Z" fill="#372C2E" stroke="#372C2E" stroke-width="0.5" stroke-miterlimit="10"/>
<path d="M483.5 67.18L477.4 87.58H474L469.8 72.98C469.595 72.3677 469.494 71.7256 469.5 71.08H469.4C469.342 71.6943 469.208 72.299 469 72.88L464.4 87.5H461.1L454.9 67.1H458.3L462.5 82.4C462.6 82.9 462.7 83.5 462.8 84.2H463C463.047 83.5515 463.181 82.9123 463.4 82.3L468.1 67H471.1L475.3 82.4C475.4 82.9 475.5 83.5 475.6 84.2H475.8C475.818 83.5891 475.919 82.9836 476.1 82.4L480.2 67H483.5V67.18Z" fill="#372C2E" stroke="#372C2E" stroke-width="0.5" stroke-miterlimit="10"/>
<path d="M510.4 87.9801C508.589 88.0637 506.782 87.7488 505.106 87.0576C503.43 86.3665 501.926 85.3159 500.7 83.9801C498.189 81.1098 496.866 77.3911 497 73.5801C497 68.9801 498.2 65.3801 500.7 62.5801C503.2 59.7801 506.6 58.4801 510.8 58.4801C512.58 58.4062 514.355 58.7265 515.997 59.4179C517.639 60.1094 519.109 61.155 520.3 62.4801C522.774 65.3655 524.061 69.0826 523.9 72.8801C523.9 77.5801 522.7 81.1801 520.2 83.8801C517.7 86.5801 514.5 87.9801 510.4 87.9801ZM510.6 61.4801C509.223 61.4461 507.855 61.7151 506.594 62.2681C505.332 62.8211 504.208 63.6445 503.3 64.6801C501.345 67.0685 500.347 70.0977 500.5 73.1801C500.363 76.244 501.32 79.2567 503.2 81.6801C504.068 82.7112 505.157 83.534 506.386 84.0879C507.615 84.6417 508.952 84.9125 510.3 84.8801C511.687 84.9529 513.073 84.7119 514.354 84.1752C515.635 83.6385 516.779 82.8198 517.7 81.7801C519.5 79.6801 520.4 76.8801 520.4 73.1801C520.4 69.4801 519.5 66.4801 517.8 64.4801C516.889 63.4895 515.773 62.7097 514.529 62.195C513.285 61.6803 511.945 61.4432 510.6 61.5001V61.4801Z" fill="#372C2E" stroke="#372C2E" stroke-width="0.5" stroke-miterlimit="10"/>
<path d="M539.2 60.1798C538.53 59.8055 537.766 59.6319 537 59.6798C534.7 59.6798 533.6 61.0798 533.6 63.9798V67.0798H538.4V69.8798H533.6V87.4998H530.4V69.8798H526.9V67.0798H530.4V63.8798C530.317 62.0108 530.962 60.1824 532.2 58.7798C532.802 58.1729 533.518 57.6922 534.308 57.3659C535.098 57.0396 535.945 56.8744 536.8 56.8798C537.62 56.8309 538.44 56.9676 539.2 57.2798V60.1798V60.1798Z" fill="#372C2E" stroke="#372C2E" stroke-width="0.5" stroke-miterlimit="10"/>
<path d="M552 60.1798C551.33 59.8055 550.566 59.6319 549.8 59.6798C547.5 59.6798 546.4 61.0798 546.4 63.9798V67.0798H551.2V69.8798H546.4V87.4998H543.2V69.8798H539.7V67.0798H543.2V63.8798C543.117 62.0108 543.762 60.1824 545 58.7798C545.602 58.1729 546.319 57.6922 547.109 57.3659C547.898 57.0396 548.746 56.8744 549.6 56.8798C550.42 56.8309 551.24 56.9676 552 57.2798V60.1798V60.1798Z" fill="#372C2E" stroke="#372C2E" stroke-width="0.5" stroke-miterlimit="10"/>
<path d="M556.3 61.9802C555.828 61.9687 555.375 61.7946 555.016 61.4873C554.658 61.18 554.416 60.7585 554.333 60.2938C554.249 59.8292 554.328 59.3499 554.557 58.937C554.786 58.5241 555.151 58.2028 555.589 58.0275C556.027 57.8521 556.513 57.8335 556.963 57.9746C557.414 58.1158 557.802 58.4081 558.062 58.8022C558.322 59.1964 558.437 59.6681 558.39 60.1378C558.342 60.6075 558.134 61.0464 557.8 61.3802C557.605 61.5791 557.372 61.7351 557.113 61.8384C556.855 61.9418 556.578 61.99 556.3 61.9802V61.9802ZM557.9 87.5002H554.6V67.0802H557.9V87.5002Z" fill="#372C2E" stroke="#372C2E" stroke-width="0.5" stroke-miterlimit="10"/>
<path d="M578.4 86.5796C576.69 87.5333 574.758 88.0164 572.8 87.9796C571.501 88.0389 570.205 87.8198 568.997 87.3368C567.79 86.8539 566.7 86.1184 565.8 85.1796C564.883 84.1864 564.171 83.0208 563.708 81.7505C563.244 80.4802 563.038 79.1304 563.1 77.7796C562.961 74.8029 564.003 71.8916 566 69.6796C566.996 68.6535 568.195 67.8475 569.522 67.3136C570.848 66.7796 572.271 66.5296 573.7 66.5796C575.325 66.5211 576.94 66.8646 578.4 67.5796V70.8796C576.988 69.8203 575.265 69.2578 573.5 69.2796C572.539 69.2389 571.582 69.4156 570.699 69.7965C569.816 70.1775 569.03 70.7528 568.4 71.4796C567.034 73.1353 566.322 75.2345 566.4 77.3796C566.327 78.3926 566.458 79.41 566.784 80.3717C567.11 81.3335 567.626 82.2202 568.3 82.9796C568.93 83.6733 569.704 84.2207 570.568 84.5835C571.431 84.9463 572.364 85.1156 573.3 85.0796C575.122 85.0606 576.884 84.4262 578.3 83.2796V86.5796H578.4Z" fill="#372C2E" stroke="#372C2E" stroke-width="0.5" stroke-miterlimit="10"/>
<path d="M599.7 78.1795H585.3C585.278 80.0998 585.913 81.9698 587.1 83.4795C587.736 84.0898 588.489 84.5641 589.315 84.8736C590.14 85.183 591.02 85.3212 591.9 85.2795C594.202 85.2609 596.427 84.4485 598.2 82.9795V86.0795C596.092 87.4449 593.608 88.1099 591.1 87.9795C589.83 88.0481 588.56 87.8324 587.384 87.348C586.207 86.8636 585.154 86.1228 584.3 85.1795C582.6 83.2795 581.8 80.6795 581.8 77.3795C581.657 74.5584 582.627 71.7938 584.5 69.6795C585.341 68.7338 586.373 67.9773 587.528 67.4601C588.683 66.9429 589.934 66.6769 591.2 66.6795C592.362 66.6217 593.522 66.8253 594.595 67.2753C595.668 67.7252 596.627 68.4101 597.4 69.2795C598.9 70.9795 599.6 73.3795 599.6 76.4795V78.1795H599.7ZM596.4 75.3795C596.476 73.7925 595.979 72.2311 595 70.9795C594.538 70.4578 593.967 70.0441 593.328 69.7676C592.689 69.4911 591.996 69.3586 591.3 69.3795C590.568 69.3829 589.845 69.5354 589.175 69.8277C588.504 70.1199 587.9 70.5459 587.4 71.0795C586.287 72.2596 585.585 73.768 585.4 75.3795H596.4Z" fill="#372C2E" stroke="#372C2E" stroke-width="0.5" stroke-miterlimit="10"/>
<path d="M419.9 122.68H421.1V130.98H425.1V131.98H419.9V122.68Z" fill="#372C2E"/>
<path d="M432.2 128.58C432.243 129.034 432.189 129.491 432.041 129.921C431.893 130.352 431.655 130.746 431.342 131.078C431.03 131.409 430.651 131.67 430.229 131.843C429.808 132.015 429.355 132.097 428.9 132.08C428.46 132.089 428.024 132.005 427.618 131.834C427.213 131.664 426.848 131.41 426.546 131.09C426.245 130.769 426.014 130.39 425.868 129.975C425.722 129.56 425.665 129.119 425.7 128.68C425.667 128.229 425.727 127.776 425.879 127.349C426.03 126.923 426.269 126.533 426.579 126.203C426.89 125.874 427.265 125.613 427.682 125.437C428.099 125.261 428.547 125.173 429 125.18C429.44 125.172 429.876 125.256 430.282 125.426C430.687 125.597 431.052 125.851 431.354 126.171C431.655 126.491 431.886 126.871 432.032 127.286C432.178 127.701 432.235 128.142 432.2 128.58V128.58ZM426.9 128.68C426.9 130.18 427.7 131.28 428.9 131.28C430.1 131.28 430.9 130.18 430.9 128.68C430.9 127.58 430.3 126.08 428.9 126.08C427.5 126.08 426.9 127.38 426.9 128.68Z" fill="#372C2E"/>
<path d="M438.5 131.78C437.911 132.074 437.257 132.212 436.6 132.18C436.153 132.198 435.707 132.121 435.292 131.956C434.877 131.79 434.502 131.538 434.19 131.217C433.879 130.896 433.638 130.514 433.485 130.094C433.332 129.674 433.268 129.226 433.3 128.78C433.274 128.305 433.35 127.83 433.523 127.387C433.696 126.943 433.962 126.543 434.304 126.211C434.645 125.879 435.053 125.625 435.501 125.464C435.949 125.303 436.426 125.241 436.9 125.28C437.477 125.304 438.049 125.405 438.6 125.58L438.3 126.48C437.874 126.241 437.386 126.136 436.9 126.18C436.273 126.222 435.685 126.497 435.252 126.952C434.818 127.406 434.571 128.006 434.558 128.634C434.546 129.262 434.769 129.872 435.184 130.343C435.599 130.814 436.175 131.113 436.8 131.18C437.312 131.159 437.819 131.058 438.3 130.88L438.5 131.78Z" fill="#372C2E"/>
<path d="M443.6 131.98L443.5 131.18C443.262 131.485 442.959 131.733 442.613 131.906C442.267 132.079 441.887 132.173 441.5 132.18C441.241 132.2 440.98 132.165 440.736 132.078C440.491 131.991 440.267 131.853 440.078 131.674C439.89 131.495 439.741 131.279 439.642 131.038C439.542 130.798 439.494 130.54 439.5 130.28C439.5 128.68 440.9 127.78 443.5 127.78V127.68C443.524 127.477 443.502 127.272 443.435 127.079C443.368 126.886 443.259 126.711 443.114 126.566C442.97 126.422 442.794 126.312 442.601 126.245C442.408 126.178 442.203 126.156 442 126.18C441.397 126.178 440.806 126.352 440.3 126.68L440 125.88C440.649 125.446 441.421 125.236 442.2 125.28C444.2 125.28 444.7 126.68 444.7 127.98V130.5C444.68 131.036 444.714 131.572 444.8 132.1H443.6V131.98ZM443.4 128.58C442.1 128.58 440.6 128.78 440.6 130.08C440.583 130.234 440.599 130.389 440.647 130.535C440.694 130.682 440.773 130.817 440.877 130.93C440.981 131.044 441.109 131.134 441.251 131.194C441.393 131.255 441.546 131.284 441.7 131.28C442.047 131.284 442.387 131.18 442.674 130.983C442.96 130.786 443.179 130.506 443.3 130.18C443.3 130.08 443.4 129.88 443.4 129.78V128.58V128.58Z" fill="#372C2E"/>
<path d="M446.5 122.18H447.7V131.98H446.5V122.18Z" fill="#372C2E"/>
<path d="M457.5 127.68H453.9V130.98H457.9V131.98H452.7V122.68H457.7V123.68H453.9V126.58H457.5V127.68Z" fill="#372C2E"/>
<path d="M460 125.28L460.9 126.68C461.1 127.08 461.4 127.38 461.6 127.78C461.797 127.391 462.032 127.023 462.3 126.68L463.2 125.28H464.5L462.2 128.48L464.5 131.88H463.1L462.1 130.38C461.83 130.002 461.595 129.601 461.4 129.18C461.2 129.58 460.9 129.98 460.7 130.38L459.7 131.88H458.4L460.8 128.48L458.5 125.18H460V125.28Z" fill="#372C2E"/>
<path d="M465.8 127.5C465.822 126.766 465.788 126.03 465.7 125.3H466.8L466.9 126.4C467.148 125.989 467.501 125.652 467.923 125.423C468.345 125.195 468.821 125.083 469.3 125.1C470.9 125.1 472.1 126.5 472.1 128.5C472.1 130.9 470.6 132.1 469.1 132.1C468.696 132.115 468.293 132.031 467.928 131.857C467.562 131.683 467.244 131.423 467 131.1V134.7H465.8V127.5ZM467 129.3C466.985 129.473 467.019 129.647 467.1 129.8C467.197 130.203 467.428 130.561 467.755 130.815C468.082 131.069 468.486 131.205 468.9 131.2C470.2 131.2 470.9 130.2 470.9 128.6C470.9 127.3 470.2 126.1 468.9 126.1C468.476 126.113 468.068 126.268 467.741 126.54C467.415 126.812 467.189 127.185 467.1 127.6C467.1 127.8 467 127.9 467 128.1V129.3Z" fill="#372C2E"/>
<path d="M474.3 128.88C474.278 129.187 474.322 129.496 474.43 129.786C474.537 130.075 474.706 130.337 474.924 130.556C475.142 130.774 475.405 130.942 475.694 131.05C475.983 131.158 476.292 131.202 476.6 131.18C477.212 131.173 477.819 131.072 478.4 130.88L478.6 131.78C477.903 132.066 477.153 132.203 476.4 132.18C475.949 132.215 475.496 132.15 475.073 131.99C474.65 131.83 474.267 131.579 473.952 131.254C473.637 130.929 473.398 130.539 473.25 130.112C473.103 129.684 473.052 129.229 473.1 128.78C473.1 126.68 474.3 125.18 476.2 125.18C476.593 125.182 476.981 125.266 477.34 125.427C477.699 125.588 478.02 125.821 478.283 126.113C478.547 126.404 478.746 126.748 478.87 127.121C478.993 127.494 479.038 127.889 479 128.28V128.88H474.3ZM477.9 127.98C477.9 127.18 477.6 125.98 476.2 125.98C475.691 126.017 475.215 126.242 474.863 126.612C474.512 126.982 474.311 127.47 474.3 127.98H477.9Z" fill="#372C2E"/>
<path d="M480.5 127.38C480.522 126.679 480.488 125.976 480.4 125.28H481.5V126.58H481.6C481.704 126.173 481.934 125.808 482.257 125.539C482.58 125.27 482.98 125.109 483.4 125.08H483.7V126.18H483.3C483.089 126.177 482.88 126.217 482.684 126.296C482.489 126.376 482.312 126.494 482.163 126.643C482.013 126.792 481.896 126.969 481.816 127.165C481.737 127.36 481.697 127.569 481.7 127.78C481.7 127.98 481.6 128.18 481.6 128.38V131.98H480.5V127.38Z" fill="#372C2E"/>
<path d="M486.8 123.38V125.28H488.5V126.18H486.8V129.78C486.8 130.58 487 131.08 487.7 131.08C488 131.08 488.3 131.08 488.4 130.98L488.5 131.88C488.152 132.023 487.777 132.091 487.4 132.08C487.161 132.091 486.921 132.053 486.698 131.966C486.474 131.88 486.27 131.749 486.1 131.58C485.758 131.08 485.583 130.485 485.6 129.88V126.28H484.6V125.38H485.6V123.78L486.8 123.38Z" fill="#372C2E"/>
<path d="M491.3 123.5C491.3 123.601 491.278 123.7 491.236 123.791C491.194 123.883 491.133 123.964 491.058 124.03C490.982 124.096 490.893 124.146 490.797 124.175C490.701 124.204 490.6 124.213 490.5 124.2C490.407 124.203 490.315 124.187 490.229 124.153C490.143 124.118 490.065 124.067 489.999 124.001C489.933 123.936 489.882 123.858 489.848 123.771C489.814 123.685 489.797 123.593 489.8 123.5C489.799 123.395 489.819 123.29 489.858 123.193C489.898 123.095 489.957 123.006 490.031 122.932C490.106 122.857 490.195 122.798 490.292 122.758C490.39 122.719 490.495 122.699 490.6 122.7C490.701 122.701 490.8 122.723 490.891 122.765C490.983 122.806 491.064 122.867 491.13 122.943C491.196 123.018 491.246 123.107 491.275 123.203C491.304 123.299 491.313 123.401 491.3 123.5V123.5ZM489.9 132V125.3H491.1V132H489.9Z" fill="#372C2E"/>
<path d="M493 130.78C493.489 131.064 494.036 131.235 494.6 131.28C495.5 131.28 495.9 130.88 495.9 130.28C495.9 129.68 495.6 129.38 494.7 129.08C493.5 128.68 492.9 127.98 492.9 127.18C492.911 126.894 492.98 126.614 493.103 126.356C493.227 126.099 493.402 125.869 493.617 125.682C493.833 125.494 494.084 125.353 494.357 125.267C494.629 125.18 494.916 125.151 495.2 125.18C495.76 125.166 496.313 125.304 496.8 125.58L496.5 126.48C496.088 126.2 495.598 126.06 495.1 126.08C494.4 126.08 494 126.48 494 126.98C494 127.48 494.4 127.78 495.3 128.08C496.5 128.48 497 129.08 497 130.08C497 131.28 496.1 132.08 494.5 132.08C493.834 132.081 493.179 131.909 492.6 131.58L493 130.78Z" fill="#372C2E"/>
<path d="M499.3 128.88C499.278 129.187 499.322 129.496 499.43 129.786C499.537 130.075 499.706 130.337 499.924 130.556C500.142 130.774 500.405 130.942 500.694 131.05C500.983 131.158 501.292 131.202 501.6 131.18C502.212 131.173 502.819 131.072 503.4 130.88L503.6 131.78C502.903 132.066 502.153 132.203 501.4 132.18C500.949 132.215 500.496 132.15 500.073 131.99C499.65 131.83 499.267 131.579 498.952 131.254C498.637 130.929 498.398 130.539 498.25 130.112C498.103 129.684 498.052 129.229 498.1 128.78C498.1 126.68 499.3 125.18 501.2 125.18C501.593 125.182 501.981 125.266 502.34 125.427C502.699 125.588 503.02 125.821 503.283 126.113C503.547 126.404 503.746 126.748 503.87 127.121C503.993 127.494 504.038 127.889 504 128.28V128.88H499.3ZM502.8 127.98C502.8 127.18 502.5 125.98 501.1 125.98C500.591 126.017 500.115 126.242 499.763 126.612C499.412 126.982 499.211 127.47 499.2 127.98H502.8Z" fill="#372C2E"/>
<path d="M505 131.28C505.017 131.124 505.079 130.977 505.179 130.856C505.278 130.735 505.41 130.645 505.56 130.598C505.709 130.55 505.869 130.547 506.02 130.589C506.17 130.63 506.306 130.714 506.41 130.831C506.514 130.948 506.582 131.093 506.606 131.248C506.629 131.403 506.607 131.561 506.543 131.704C506.478 131.846 506.374 131.967 506.242 132.052C506.11 132.136 505.956 132.181 505.8 132.18C505.577 132.159 505.37 132.055 505.222 131.888C505.073 131.721 504.994 131.503 505 131.28V131.28Z" fill="#372C2E"/>
<path d="M512.3 122.68V131.98H511.1V122.68H512.3Z" fill="#372C2E"/>
<path d="M514.5 127.08C514.522 126.478 514.489 125.876 514.4 125.28H515.5L515.6 126.38C515.816 125.986 516.134 125.657 516.521 125.428C516.908 125.199 517.35 125.079 517.8 125.08C518.7 125.08 520.2 125.58 520.2 127.88V131.88H519V128.08C519 126.98 518.6 126.08 517.5 126.08C517.142 126.091 516.797 126.212 516.51 126.427C516.224 126.642 516.011 126.94 515.9 127.28C515.818 127.469 515.784 127.675 515.8 127.88V131.88H514.5V127.08Z" fill="#372C2E"/>
<path d="M523.6 123.38V125.28H525.3V126.18H523.6V129.78C523.6 130.58 523.8 131.08 524.5 131.08C524.8 131.08 525.1 131.08 525.2 130.98L525.3 131.88C524.951 132.023 524.577 132.091 524.2 132.08C523.96 132.091 523.721 132.053 523.497 131.966C523.274 131.88 523.07 131.749 522.9 131.58C522.557 131.08 522.382 130.485 522.4 129.88V126.28H521.4V125.38H522.4V123.78L523.6 123.38Z" fill="#372C2E"/>
<path d="M527.2 128.88C527.178 129.187 527.222 129.496 527.329 129.786C527.437 130.075 527.606 130.337 527.824 130.556C528.042 130.774 528.305 130.942 528.594 131.05C528.883 131.158 529.192 131.202 529.5 131.18C530.112 131.173 530.719 131.072 531.3 130.88L531.5 131.78C530.803 132.066 530.053 132.203 529.3 132.18C528.851 132.206 528.402 132.135 527.983 131.972C527.564 131.809 527.185 131.558 526.872 131.235C526.559 130.912 526.319 130.526 526.168 130.102C526.018 129.679 525.96 129.228 526 128.78C526 126.68 527.2 125.18 529.1 125.18C529.493 125.182 529.881 125.266 530.24 125.427C530.598 125.588 530.92 125.821 531.183 126.113C531.446 126.404 531.646 126.748 531.77 127.121C531.893 127.494 531.937 127.889 531.9 128.28V128.88H527.2ZM530.8 127.98C530.8 127.18 530.5 125.98 529.1 125.98C528.591 126.017 528.115 126.242 527.763 126.612C527.412 126.982 527.211 127.47 527.2 127.98H530.8Z" fill="#372C2E"/>
<path d="M533.5 127.38C533.522 126.679 533.488 125.976 533.4 125.28H534.5V126.58H534.6C534.704 126.173 534.934 125.808 535.257 125.539C535.58 125.27 535.98 125.109 536.4 125.08H536.7V126.18H536.3C536.089 126.177 535.88 126.217 535.684 126.296C535.489 126.376 535.312 126.494 535.163 126.643C535.013 126.792 534.896 126.969 534.816 127.165C534.737 127.36 534.697 127.569 534.7 127.78C534.7 127.98 534.6 128.18 534.6 128.38V131.98H533.5V127.38Z" fill="#372C2E"/>
<path d="M538 127.08C538.022 126.478 537.989 125.876 537.9 125.28H539L539.1 126.38C539.316 125.986 539.634 125.657 540.021 125.428C540.408 125.199 540.85 125.079 541.3 125.08C542.2 125.08 543.7 125.58 543.7 127.88V131.88H542.5V128.08C542.5 126.98 542.1 126.08 541 126.08C540.642 126.091 540.297 126.212 540.01 126.427C539.724 126.642 539.511 126.94 539.4 127.28C539.318 127.469 539.284 127.675 539.3 127.88V131.88H538.1V127.08H538Z" fill="#372C2E"/>
<path d="M549.3 131.98L549.2 131.18C548.962 131.485 548.659 131.733 548.313 131.906C547.967 132.079 547.587 132.173 547.2 132.18C546.941 132.2 546.68 132.165 546.435 132.078C546.19 131.991 545.967 131.853 545.778 131.674C545.59 131.495 545.441 131.279 545.341 131.038C545.242 130.798 545.193 130.54 545.2 130.28C545.2 128.68 546.6 127.78 549.2 127.78V127.68C549.224 127.477 549.202 127.272 549.135 127.079C549.068 126.886 548.958 126.711 548.814 126.566C548.669 126.422 548.494 126.312 548.301 126.245C548.108 126.178 547.903 126.156 547.7 126.18C547.097 126.178 546.506 126.352 546 126.68L545.7 125.88C546.348 125.446 547.121 125.236 547.9 125.28C549.9 125.28 550.4 126.68 550.4 127.98V130.5C550.38 131.036 550.413 131.572 550.5 132.1H549.3V131.98ZM549.2 128.58C547.9 128.58 546.4 128.78 546.4 130.08C546.383 130.234 546.398 130.389 546.446 130.535C546.494 130.682 546.573 130.817 546.677 130.93C546.781 131.044 546.908 131.134 547.05 131.194C547.192 131.255 547.346 131.284 547.5 131.28C547.847 131.284 548.187 131.18 548.474 130.983C548.76 130.786 548.978 130.506 549.1 130.18C549.1 130.08 549.2 129.88 549.2 129.78V128.58V128.58Z" fill="#372C2E"/>
<path d="M553.7 123.38V125.28H555.4V126.18H553.7V129.78C553.7 130.58 553.9 131.08 554.6 131.08C554.9 131.08 555.2 131.08 555.3 130.98L555.4 131.88C555.051 132.023 554.677 132.091 554.3 132.08C554.06 132.091 553.821 132.053 553.597 131.966C553.374 131.88 553.17 131.749 553 131.58C552.658 131.08 552.482 130.485 552.5 129.88V126.28H551.5V125.38H552.5V123.78L553.7 123.38Z" fill="#372C2E"/>
<path d="M558.1 123.5C558.099 123.601 558.077 123.7 558.036 123.791C557.994 123.883 557.933 123.964 557.857 124.03C557.782 124.096 557.693 124.146 557.597 124.175C557.501 124.204 557.4 124.213 557.3 124.2C557.207 124.203 557.115 124.187 557.029 124.153C556.943 124.118 556.864 124.067 556.799 124.001C556.733 123.936 556.682 123.858 556.648 123.771C556.613 123.685 556.597 123.593 556.6 123.5C556.599 123.395 556.618 123.29 556.658 123.193C556.698 123.095 556.757 123.006 556.831 122.932C556.906 122.857 556.995 122.798 557.092 122.758C557.19 122.719 557.295 122.699 557.4 122.7C557.5 122.701 557.6 122.723 557.691 122.765C557.782 122.806 557.864 122.867 557.93 122.943C557.996 123.018 558.046 123.107 558.075 123.203C558.104 123.299 558.113 123.401 558.1 123.5V123.5ZM556.8 132V125.3H558V132H556.8Z" fill="#372C2E"/>
<path d="M566 128.58C566.043 129.034 565.989 129.491 565.841 129.921C565.693 130.352 565.455 130.746 565.143 131.078C564.83 131.409 564.451 131.67 564.03 131.843C563.609 132.015 563.155 132.097 562.7 132.08C562.26 132.089 561.824 132.005 561.418 131.834C561.013 131.664 560.648 131.41 560.346 131.09C560.045 130.769 559.814 130.39 559.668 129.975C559.522 129.56 559.465 129.119 559.5 128.68C559.467 128.229 559.528 127.776 559.679 127.349C559.831 126.923 560.069 126.533 560.379 126.203C560.69 125.874 561.065 125.613 561.482 125.437C561.899 125.261 562.348 125.173 562.8 125.18C563.24 125.172 563.677 125.256 564.082 125.426C564.487 125.597 564.853 125.851 565.154 126.171C565.455 126.491 565.687 126.871 565.832 127.286C565.978 127.701 566.035 128.142 566 128.58V128.58ZM560.7 128.68C560.7 130.18 561.5 131.28 562.7 131.28C563.9 131.28 564.7 130.18 564.7 128.68C564.7 127.58 564.1 126.08 562.7 126.08C561.3 126.08 560.7 127.38 560.7 128.68Z" fill="#372C2E"/>
<path d="M567.5 127.08C567.522 126.478 567.489 125.876 567.4 125.28H568.5L568.6 126.38C568.816 125.986 569.134 125.657 569.521 125.428C569.908 125.199 570.35 125.079 570.8 125.08C571.7 125.08 573.2 125.58 573.2 127.88V131.88H572V128.08C572 126.98 571.6 126.08 570.5 126.08C570.142 126.091 569.797 126.212 569.51 126.427C569.224 126.642 569.011 126.94 568.9 127.28C568.818 127.469 568.784 127.675 568.8 127.88V131.88H567.5V127.08Z" fill="#372C2E"/>
<path d="M578.9 131.98L578.8 131.18C578.562 131.485 578.259 131.733 577.913 131.906C577.567 132.079 577.187 132.173 576.8 132.18C576.541 132.2 576.28 132.165 576.035 132.078C575.791 131.991 575.567 131.853 575.378 131.674C575.19 131.495 575.041 131.279 574.941 131.038C574.842 130.798 574.794 130.54 574.8 130.28C574.8 128.68 576.2 127.78 578.8 127.78V127.68C578.824 127.477 578.802 127.272 578.735 127.079C578.668 126.886 578.558 126.711 578.414 126.566C578.27 126.422 578.094 126.312 577.901 126.245C577.708 126.178 577.503 126.156 577.3 126.18C576.697 126.178 576.106 126.352 575.6 126.68L575.3 125.88C575.949 125.446 576.721 125.236 577.5 125.28C579.5 125.28 580 126.68 580 127.98V130.5C579.98 131.036 580.014 131.572 580.1 132.1H578.9V131.98ZM578.7 128.58C577.4 128.58 575.9 128.78 575.9 130.08C575.883 130.234 575.899 130.389 575.946 130.535C575.994 130.682 576.073 130.817 576.177 130.93C576.281 131.044 576.409 131.134 576.551 131.194C576.692 131.255 576.846 131.284 577 131.28C577.347 131.284 577.687 131.18 577.974 130.983C578.26 130.786 578.479 130.506 578.6 130.18C578.6 130.08 578.7 129.88 578.7 129.78V128.58V128.58Z" fill="#372C2E"/>
<path d="M581.8 122.18H583V131.98H581.8V122.18Z" fill="#372C2E"/>
<path d="M588 122.88C588.828 122.755 589.663 122.689 590.5 122.68C591.873 122.582 593.232 123.011 594.3 123.88C594.736 124.308 595.077 124.823 595.301 125.392C595.525 125.96 595.627 126.569 595.6 127.18C595.652 128.503 595.185 129.795 594.3 130.78C593.16 131.74 591.685 132.207 590.2 132.08C589.465 132.104 588.73 132.07 588 131.98V122.88V122.88ZM589.2 131.08C589.593 131.172 589.997 131.205 590.4 131.18C593 131.18 594.3 129.78 594.3 127.28C594.3 125.08 593.1 123.68 590.5 123.68C589.9 123.68 589.4 123.78 589.1 123.78V131.08H589.2Z" fill="#372C2E"/>
<path d="M597.9 128.88C597.878 129.187 597.922 129.496 598.03 129.786C598.137 130.075 598.306 130.337 598.524 130.556C598.742 130.774 599.005 130.942 599.294 131.05C599.583 131.158 599.892 131.202 600.2 131.18C600.812 131.173 601.419 131.072 602 130.88L602.2 131.78C601.503 132.066 600.753 132.203 600 132.18C599.551 132.206 599.102 132.135 598.683 131.972C598.264 131.809 597.885 131.558 597.572 131.235C597.259 130.912 597.019 130.526 596.868 130.102C596.718 129.679 596.661 129.228 596.7 128.78C596.7 126.68 597.9 125.18 599.8 125.18C600.193 125.182 600.581 125.266 600.94 125.427C601.299 125.588 601.62 125.821 601.883 126.113C602.147 126.404 602.346 126.748 602.47 127.121C602.593 127.494 602.638 127.889 602.6 128.28V128.88H597.9ZM601.4 127.98C601.4 127.18 601.1 125.98 599.7 125.98C599.191 126.017 598.715 126.242 598.363 126.612C598.012 126.982 597.811 127.47 597.8 127.98H601.4Z" fill="#372C2E"/>
<path d="M604.1 127.5C604.121 126.766 604.088 126.03 604 125.3H605.1L605.2 126.4C605.448 125.989 605.801 125.652 606.223 125.423C606.645 125.195 607.12 125.083 607.6 125.1C609.2 125.1 610.4 126.5 610.4 128.5C610.4 130.9 608.9 132.1 607.4 132.1C606.995 132.115 606.593 132.031 606.228 131.857C605.862 131.683 605.544 131.423 605.3 131.1V134.7H604.1V127.5V127.5ZM605.3 129.3C605.284 129.473 605.319 129.647 605.4 129.8C605.497 130.203 605.728 130.561 606.055 130.815C606.382 131.069 606.786 131.205 607.2 131.2C608.5 131.2 609.2 130.2 609.2 128.6C609.2 127.3 608.5 126.1 607.2 126.1C606.775 126.113 606.368 126.268 606.041 126.54C605.715 126.812 605.489 127.185 605.4 127.6C605.4 127.8 605.3 127.9 605.3 128.1V129.3Z" fill="#372C2E"/>
<path d="M613.4 123.38V125.28H615.1V126.18H613.4V129.78C613.4 130.58 613.6 131.08 614.3 131.08C614.6 131.08 614.9 131.08 615 130.98L615.1 131.88C614.752 132.023 614.377 132.091 614 132.08C613.761 132.091 613.521 132.053 613.298 131.966C613.074 131.88 612.87 131.749 612.7 131.58C612.358 131.08 612.183 130.485 612.2 129.88V126.28H611.2V125.38H612.2V123.78L613.4 123.38Z" fill="#372C2E"/>
<path d="M616.5 122.18H617.7V126.38C617.948 126.031 618.252 125.727 618.6 125.48C618.971 125.287 619.382 125.184 619.8 125.18C620.7 125.18 622.1 125.68 622.1 127.98V131.98H620.9V128.18C620.9 127.08 620.5 126.18 619.4 126.18C619.042 126.191 618.697 126.312 618.41 126.527C618.124 126.742 617.911 127.039 617.8 127.38C617.71 127.566 617.675 127.774 617.7 127.98V131.98H616.5V122.18Z" fill="#372C2E"/>
<path d="M623.8 131.28C623.818 131.124 623.88 130.977 623.979 130.856C624.078 130.735 624.211 130.645 624.36 130.598C624.509 130.55 624.669 130.547 624.82 130.589C624.971 130.63 625.106 130.714 625.211 130.831C625.315 130.948 625.382 131.093 625.406 131.248C625.429 131.403 625.408 131.561 625.343 131.704C625.278 131.846 625.174 131.967 625.042 132.052C624.91 132.136 624.757 132.181 624.6 132.18C624.377 132.159 624.171 132.055 624.022 131.888C623.874 131.721 623.794 131.503 623.8 131.28V131.28Z" fill="#372C2E"/>
<path d="M629.9 122.88C630.625 122.745 631.362 122.678 632.1 122.68C632.993 122.574 633.892 122.825 634.6 123.38C634.852 123.563 635.056 123.804 635.195 124.082C635.334 124.361 635.405 124.669 635.4 124.98C635.389 125.443 635.227 125.889 634.938 126.251C634.649 126.612 634.249 126.868 633.8 126.98C634.338 127.075 634.825 127.359 635.173 127.78C635.521 128.202 635.708 128.734 635.7 129.28C635.705 129.635 635.637 129.987 635.5 130.314C635.362 130.641 635.158 130.936 634.9 131.18C633.986 131.875 632.842 132.197 631.7 132.08C630.9 132.08 630.2 131.98 629.8 131.98V122.88H629.9ZM631.1 126.68H632.2C633.5 126.68 634.2 125.98 634.2 125.08C634.2 123.98 633.4 123.58 632.2 123.58C631.83 123.54 631.456 123.574 631.1 123.68V126.68ZM631.1 131.08C631.3 131.08 631.7 131.18 632.1 131.18C633.3 131.18 634.5 130.68 634.5 129.38C634.5 128.08 633.4 127.58 632.1 127.58H631.1V131.08Z" fill="#372C2E"/>
<path d="M642.9 130.18C642.877 130.782 642.911 131.385 643 131.98H641.9L641.8 130.88C641.57 131.256 641.246 131.564 640.86 131.774C640.474 131.985 640.039 132.091 639.6 132.08C638.6 132.08 637.3 131.48 637.3 129.18V125.28H638.5V128.98C638.5 130.28 638.9 131.08 640 131.08C640.344 131.069 640.677 130.959 640.961 130.765C641.244 130.57 641.466 130.297 641.6 129.98C641.681 129.791 641.716 129.585 641.7 129.38V125.28H642.9V130.18V130.18Z" fill="#372C2E"/>
<path d="M644.7 130.78C645.189 131.064 645.736 131.235 646.3 131.28C647.2 131.28 647.6 130.88 647.6 130.28C647.6 129.68 647.3 129.38 646.4 129.08C645.2 128.68 644.6 127.98 644.6 127.18C644.611 126.894 644.68 126.614 644.803 126.356C644.927 126.099 645.101 125.869 645.317 125.682C645.532 125.494 645.784 125.353 646.056 125.267C646.329 125.18 646.616 125.151 646.9 125.18C647.46 125.166 648.012 125.304 648.5 125.58L648.2 126.48C647.788 126.2 647.297 126.06 646.8 126.08C646.1 126.08 645.7 126.48 645.7 126.98C645.7 127.48 646.1 127.78 647 128.08C648.2 128.48 648.7 129.08 648.7 130.08C648.7 131.28 647.8 132.08 646.2 132.08C645.534 132.081 644.879 131.909 644.3 131.58L644.7 130.78Z" fill="#372C2E"/>
<path d="M651.7 123.5C651.699 123.601 651.677 123.7 651.636 123.791C651.594 123.883 651.533 123.964 651.458 124.03C651.382 124.096 651.293 124.146 651.197 124.175C651.101 124.204 651 124.213 650.9 124.2C650.807 124.203 650.715 124.187 650.629 124.153C650.543 124.118 650.464 124.067 650.399 124.001C650.333 123.936 650.282 123.858 650.248 123.771C650.213 123.685 650.197 123.593 650.2 123.5C650.199 123.395 650.218 123.29 650.258 123.193C650.298 123.095 650.357 123.006 650.431 122.932C650.506 122.857 650.595 122.798 650.692 122.758C650.79 122.719 650.895 122.699 651 122.7C651.1 122.701 651.2 122.723 651.291 122.765C651.382 122.806 651.464 122.867 651.53 122.943C651.596 123.018 651.646 123.107 651.675 123.203C651.704 123.299 651.713 123.401 651.7 123.5V123.5ZM650.4 132V125.3H651.6V132H650.4Z" fill="#372C2E"/>
<path d="M653.6 127.08C653.622 126.478 653.589 125.876 653.5 125.28H654.6L654.7 126.38C654.916 125.986 655.234 125.657 655.621 125.428C656.009 125.199 656.45 125.079 656.9 125.08C657.8 125.08 659.3 125.58 659.3 127.88V131.88H658.1V128.08C658.1 126.98 657.7 126.08 656.6 126.08C656.242 126.091 655.897 126.212 655.61 126.427C655.324 126.642 655.111 126.94 655 127.28C654.919 127.469 654.884 127.675 654.9 127.88V131.88H653.7V127.08H653.6Z" fill="#372C2E"/>
<path d="M661.9 128.88C661.878 129.187 661.922 129.496 662.03 129.786C662.137 130.075 662.306 130.337 662.524 130.556C662.742 130.774 663.005 130.942 663.294 131.05C663.583 131.158 663.892 131.202 664.2 131.18C664.812 131.173 665.419 131.072 666 130.88L666.2 131.78C665.503 132.066 664.753 132.203 664 132.18C663.551 132.206 663.102 132.135 662.683 131.972C662.264 131.809 661.885 131.558 661.572 131.235C661.259 130.912 661.019 130.526 660.868 130.102C660.718 129.679 660.661 129.228 660.7 128.78C660.7 126.68 661.9 125.18 663.8 125.18C664.193 125.182 664.581 125.266 664.94 125.427C665.299 125.588 665.62 125.821 665.883 126.113C666.147 126.404 666.346 126.748 666.47 127.121C666.593 127.494 666.638 127.889 666.6 128.28V128.88H661.9ZM665.4 127.98C665.4 127.18 665.1 125.98 663.7 125.98C663.191 126.017 662.715 126.242 662.363 126.612C662.012 126.982 661.811 127.47 661.8 127.98H665.4Z" fill="#372C2E"/>
<path d="M667.9 130.78C668.389 131.064 668.936 131.235 669.5 131.28C670.4 131.28 670.8 130.88 670.8 130.28C670.8 129.68 670.5 129.38 669.6 129.08C668.4 128.68 667.8 127.98 667.8 127.18C667.811 126.894 667.88 126.614 668.003 126.356C668.127 126.099 668.302 125.869 668.517 125.682C668.733 125.494 668.984 125.353 669.257 125.267C669.529 125.18 669.816 125.151 670.1 125.18C670.66 125.166 671.213 125.304 671.7 125.58L671.4 126.48C670.988 126.2 670.497 126.06 670 126.08C669.3 126.08 668.9 126.48 668.9 126.98C668.9 127.48 669.3 127.78 670.2 128.08C671.4 128.48 671.9 129.08 671.9 130.08C671.9 131.28 671 132.08 669.4 132.08C668.734 132.081 668.079 131.909 667.5 131.58L667.9 130.78Z" fill="#372C2E"/>
<path d="M673.4 130.78C673.889 131.064 674.436 131.235 675 131.28C675.9 131.28 676.3 130.88 676.3 130.28C676.3 129.68 676 129.38 675.1 129.08C673.9 128.68 673.3 127.98 673.3 127.18C673.311 126.894 673.38 126.614 673.503 126.356C673.627 126.099 673.802 125.869 674.017 125.682C674.233 125.494 674.484 125.353 674.757 125.267C675.029 125.18 675.316 125.151 675.6 125.18C676.16 125.166 676.713 125.304 677.2 125.58L676.9 126.48C676.488 126.2 675.997 126.06 675.5 126.08C674.8 126.08 674.4 126.48 674.4 126.98C674.4 127.48 674.8 127.78 675.7 128.08C676.9 128.48 677.4 129.08 677.4 130.08C677.4 131.28 676.5 132.08 674.9 132.08C674.234 132.081 673.579 131.909 673 131.58L673.4 130.78Z" fill="#372C2E"/>
<path d="M683.5 129.08L682.5 131.98H681.3L684.5 122.68H685.9L689.1 131.98H687.8L686.8 129.08H683.5ZM686.5 128.18L685.6 125.48C685.4 124.88 685.3 124.28 685.1 123.78C684.979 124.359 684.812 124.927 684.6 125.48L683.7 128.18H686.5Z" fill="#372C2E"/>
<path d="M694.9 131.78C694.312 132.074 693.657 132.212 693 132.18C692.553 132.198 692.108 132.121 691.693 131.956C691.277 131.79 690.902 131.538 690.59 131.217C690.279 130.896 690.039 130.514 689.885 130.094C689.732 129.674 689.669 129.226 689.7 128.78C689.674 128.305 689.75 127.83 689.924 127.387C690.097 126.943 690.363 126.543 690.704 126.211C691.045 125.879 691.453 125.625 691.901 125.464C692.349 125.303 692.826 125.241 693.3 125.28C693.878 125.304 694.449 125.405 695 125.58L694.7 126.48C694.274 126.241 693.786 126.136 693.3 126.18C692.674 126.222 692.086 126.497 691.652 126.952C691.219 127.406 690.971 128.006 690.959 128.634C690.946 129.262 691.169 129.872 691.584 130.343C691.999 130.814 692.576 131.113 693.2 131.18C693.713 131.159 694.219 131.058 694.7 130.88L694.9 131.78Z" fill="#372C2E"/>
<path d="M701.9 130.18C701.877 130.782 701.911 131.385 702 131.98H700.9L700.8 130.88C700.57 131.256 700.246 131.564 699.86 131.774C699.474 131.985 699.039 132.091 698.6 132.08C697.6 132.08 696.3 131.48 696.3 129.18V125.28H697.5V128.98C697.5 130.28 697.9 131.08 699 131.08C699.344 131.069 699.677 130.959 699.961 130.765C700.244 130.57 700.466 130.297 700.6 129.98C700.681 129.791 700.716 129.585 700.7 129.38V125.28H701.9V130.18V130.18Z" fill="#372C2E"/>
<path d="M703.9 127.08C703.922 126.478 703.889 125.876 703.8 125.28H704.9L705 126.38C705.211 126.011 705.518 125.706 705.887 125.495C706.256 125.284 706.675 125.175 707.1 125.18C707.514 125.176 707.92 125.301 708.26 125.538C708.6 125.774 708.859 126.11 709 126.5C709.183 126.164 709.419 125.86 709.7 125.6C710.123 125.258 710.656 125.08 711.2 125.1C712.1 125.1 713.4 125.7 713.4 128V131.9H712.2V128.1C712.2 126.8 711.7 126.1 710.8 126.1C710.48 126.11 710.171 126.222 709.919 126.42C709.667 126.618 709.485 126.891 709.4 127.2C709.318 127.389 709.284 127.595 709.3 127.8V131.9H708.1V127.9C708.1 126.8 707.6 126.1 706.7 126.1C706.355 126.114 706.023 126.238 705.753 126.454C705.483 126.67 705.289 126.966 705.2 127.3C705.118 127.489 705.084 127.695 705.1 127.9V131.9H703.9V127.08Z" fill="#372C2E"/>
<path d="M716.1 128.88C716.077 129.187 716.122 129.496 716.229 129.786C716.337 130.075 716.506 130.337 716.724 130.556C716.942 130.774 717.205 130.942 717.494 131.05C717.783 131.158 718.092 131.202 718.4 131.18C719.012 131.173 719.619 131.072 720.2 130.88L720.4 131.78C719.703 132.066 718.953 132.203 718.2 132.18C717.751 132.206 717.302 132.135 716.883 131.972C716.464 131.809 716.085 131.558 715.772 131.235C715.459 130.912 715.219 130.526 715.068 130.102C714.918 129.679 714.86 129.228 714.9 128.78C714.9 126.68 716.1 125.18 718 125.18C718.393 125.182 718.781 125.266 719.14 125.427C719.498 125.588 719.819 125.821 720.083 126.113C720.346 126.404 720.546 126.748 720.669 127.121C720.793 127.494 720.837 127.889 720.8 128.28V128.88H716.1ZM719.6 127.98C719.6 127.18 719.3 125.98 717.9 125.98C717.391 126.017 716.914 126.242 716.563 126.612C716.212 126.982 716.011 127.47 716 127.98H719.6Z" fill="#372C2E"/>
<path d="M722.3 127.08C722.323 126.478 722.289 125.876 722.2 125.28H723.3L723.4 126.38C723.616 125.986 723.934 125.657 724.322 125.428C724.709 125.199 725.15 125.079 725.6 125.08C726.5 125.08 728 125.58 728 127.88V131.88H726.8V128.08C726.8 126.98 726.4 126.08 725.3 126.08C724.942 126.091 724.597 126.212 724.311 126.427C724.024 126.642 723.811 126.94 723.7 127.28C723.619 127.469 723.584 127.675 723.6 127.88V131.88H722.4V127.08H722.3Z" fill="#372C2E"/>
<path d="M729.6 131.28C729.617 131.124 729.679 130.977 729.779 130.856C729.878 130.735 730.01 130.645 730.16 130.598C730.309 130.55 730.469 130.547 730.62 130.589C730.771 130.63 730.906 130.714 731.01 130.831C731.114 130.948 731.182 131.093 731.206 131.248C731.229 131.403 731.207 131.561 731.143 131.704C731.078 131.846 730.974 131.967 730.842 132.052C730.71 132.136 730.557 132.181 730.4 132.18C730.177 132.159 729.971 132.055 729.822 131.888C729.673 131.721 729.594 131.503 729.6 131.28V131.28Z" fill="#372C2E"/>
<defs>
<filter id="filter0_d_320_171" x="4" y="27.9805" width="67.6001" height="67.5996" filterUnits="userSpaceOnUse" color-interpolation-filters="sRGB">
<feFlood flood-opacity="0" result="BackgroundImageFix"/>
<feColorMatrix in="SourceAlpha" type="matrix" values="0 0 0 0 0 0 0 0 0 0 0 0 0 0 0 0 0 0 127 0" result="hardAlpha"/>
<feOffset dx="5" dy="5"/>
<feGaussianBlur stdDeviation="10"/>
<feComposite in2="hardAlpha" operator="out"/>
<feColorMatrix type="matrix" values="0 0 0 0 0 0 0 0 0 0 0 0 0 0 0 0 0 0 0.25 0"/>
<feBlend mode="normal" in2="BackgroundImageFix" result="effect1_dropShadow_320_171"/>
<feBlend mode="normal" in="SourceGraphic" in2="effect1_dropShadow_320_171" result="shape"/>
</filter>
</defs>
</svg>
