<svg width="386" height="70" viewBox="0 0 386 70" fill="none" xmlns="http://www.w3.org/2000/svg">
<path d="M153.958 30.1133C153.916 32.2986 153.79 34.442 153.538 36.5433C153.832 34.9883 154 33.3913 154 31.7523C154 31.1639 153.958 30.6176 153.958 30.1133Z" fill="#E1C196"/>
<g filter="url(#filter0_d_715_45)">
<path d="M8.79961 35.4508C12.0026 35.4508 14.5992 32.8542 14.5992 29.6512C14.5992 26.4481 12.0026 23.8516 8.79961 23.8516C5.59657 23.8516 3 26.4481 3 29.6512C3 32.8542 5.59657 35.4508 8.79961 35.4508Z" fill="#E1C196"/>
</g>
<path d="M61.8783 38.3086V57.2204H54.4396V45.8733H44.5635V38.3086H61.8783Z" fill="#F5F5F5" stroke="#F5F5F5" stroke-miterlimit="10"/>
<path d="M83.7739 33.6855H74.7383V57.1782H83.7739V33.6855Z" fill="#F5F5F5" stroke="#F5F5F5" stroke-miterlimit="10"/>
<path d="M98.4832 6.36719L87.8926 22.8415L83.7741 29.3135V32.6335H74.7385V29.3135L70.6199 22.8415L60.0293 6.36719H69.8214L79.2773 20.1098L88.6912 6.36719H98.4832Z" fill="#F5F5F5" stroke="#F5F5F5" stroke-miterlimit="10"/>
<path d="M101.51 48.6465H84.9092V57.1778H101.51V48.6465Z" fill="#F5F5F5" stroke="#F5F5F5" stroke-miterlimit="10"/>
<path d="M73.7724 35.1132H30.9477C31.9143 40.1143 35.3605 44.8213 42.1687 47.553C43.8497 48.2254 45.6989 48.7717 47.8002 49.192L45.3627 54.1091L44.0179 56.8828C34.2258 56.8828 27.6697 51.4194 24.3916 44.1068C23.1308 41.3331 22.3744 38.2652 22.0382 35.1552H15.9023C16.3226 34.6509 17.9616 32.7177 17.9616 29.7339C17.9616 26.75 16.3226 24.8168 15.9023 24.3125H70.4103L73.7724 29.6918V35.1132Z" fill="#E1C196" stroke="#E1C196" stroke-miterlimit="10"/>
<path d="M59.3993 9.22588L58.1385 18.1354C47.2538 10.1084 36.9994 14.7313 32.9228 23.1365H23.2988C26.6189 10.1505 38.6384 0.778619 59.3993 9.22588Z" fill="#F5F5F5" stroke="#F5F5F5" stroke-miterlimit="10"/>
<path d="M151.857 21.707C150.596 18.6391 148.705 15.8654 146.225 13.5119C143.746 11.1584 140.93 9.30928 137.736 8.00647C135.929 7.25 134.08 6.74569 132.189 6.40948C130.76 6.15733 129.331 6.03125 127.86 6.03125C124.456 6.03125 121.136 6.66163 117.9 8.00647C114.664 9.30928 111.848 11.1584 109.411 13.5119C106.931 15.9074 105.04 18.6391 103.737 21.707C103.401 22.5055 103.107 23.346 102.854 24.1866H88.1874L84.7412 29.65V35.1554H102.056C102.392 37.719 103.149 40.1565 104.241 42.4679C105.88 45.8721 108.192 48.7719 111.26 51.2094C113.655 53.1006 116.261 54.5294 119.077 55.5381C121.934 56.5467 124.834 57.051 127.818 57.051C128.196 57.051 128.617 57.051 128.995 57.009C131.979 56.8829 134.836 56.2525 137.652 55.1178C140.804 53.815 143.662 51.9658 146.183 49.5704C148.621 47.2169 150.47 44.4852 151.773 41.3753C152.445 39.7783 152.908 38.1392 153.244 36.4582C153.496 34.2728 153.622 32.0454 153.664 29.8181C153.58 27.0023 152.95 24.2706 151.857 21.707ZM138.787 43.1824C137.484 44.5692 136.055 45.6619 134.416 46.4184C132.441 47.343 130.256 47.8053 127.86 47.8053C123.363 47.8053 119.665 46.2503 116.807 43.1824C115.126 41.3753 113.949 39.316 113.277 36.9625H106.048V33.7265H112.647C112.605 33.3483 112.563 32.928 112.563 32.5077H106.091V29.2717H112.689C112.731 28.8515 112.773 28.4732 112.857 28.053H106.091V24.8169H113.739C114.454 23.0098 115.504 21.3708 116.891 19.8579C119.791 16.7059 123.447 15.1509 127.86 15.1509C131.054 15.1509 133.828 15.9914 136.265 17.6725C137.148 18.3029 137.988 19.0173 138.745 19.8579C141.645 23.0098 143.116 26.8762 143.116 31.4991C143.074 36.206 141.645 40.0724 138.787 43.1824Z" fill="#E1C196" stroke="#E1C196" stroke-miterlimit="10"/>
<path d="M164 51H361" stroke="#E1C196" stroke-miterlimit="10"/>
<path d="M177.72 17.6866C176.051 18.66 174.151 19.1235 172.065 19.1235C169.655 19.1235 167.708 18.3355 166.225 16.8059C164.742 15.2763 164 13.1905 164 10.6412C164 8.04548 164.834 5.9133 166.457 4.19829C168.125 2.52964 170.211 1.69531 172.714 1.69531C174.568 1.69531 176.098 1.97342 177.349 2.57599V4.75451C176.005 3.87384 174.383 3.45668 172.529 3.45668C170.628 3.45668 169.099 4.10559 167.894 5.40343C166.688 6.70128 166.086 8.36993 166.086 10.4557C166.086 12.5879 166.642 14.2566 167.754 15.4617C168.867 16.6669 170.397 17.2694 172.297 17.2694C173.595 17.2694 174.754 16.9913 175.727 16.4814V11.7536H172.019V9.94589H177.674V17.6866H177.72Z" fill="#F5F5F5" stroke="#F5F5F5" stroke-width="0.5" stroke-miterlimit="10"/>
<path d="M191.023 13.2835H182.541C182.587 14.6277 182.911 15.6474 183.607 16.389C184.302 17.1307 185.229 17.5015 186.434 17.5015C187.778 17.5015 189.03 17.0379 190.189 16.1573V17.965C189.122 18.753 187.732 19.1238 186.017 19.1238C184.302 19.1238 183.004 18.5675 182.031 17.5015C181.057 16.4354 180.594 14.8594 180.594 12.9127C180.594 11.0586 181.104 9.52901 182.17 8.32387C183.236 7.16508 184.534 6.5625 186.11 6.5625C187.686 6.5625 188.891 7.07238 189.771 8.09211C190.652 9.11184 191.069 10.5024 191.069 12.3101V13.2835H191.023ZM189.076 11.6612C189.076 10.5487 188.798 9.66805 188.288 9.06548C187.778 8.46291 187.037 8.13845 186.063 8.13845C185.136 8.13845 184.395 8.46291 183.746 9.11183C183.097 9.76075 182.726 10.5951 182.587 11.6612H189.076Z" fill="#F5F5F5" stroke="#F5F5F5" stroke-width="0.5" stroke-miterlimit="10"/>
<path d="M199.552 18.7065C199.089 18.9383 198.486 19.0774 197.745 19.0774C195.659 19.0774 194.593 17.9186 194.593 15.5546V8.41651H192.507V6.7942H194.593V3.87406L196.539 3.27148V6.84056H199.552V8.46286H196.539V15.2302C196.539 16.0182 196.678 16.6207 196.957 16.9452C197.235 17.2696 197.698 17.4551 198.301 17.4551C198.764 17.4551 199.228 17.316 199.552 17.0379V18.7065Z" fill="#F5F5F5" stroke="#F5F5F5" stroke-width="0.5" stroke-miterlimit="10"/>
<path d="M212.113 18.7997H210.167V11.9397C210.167 9.39032 209.24 8.09249 207.386 8.09249C206.412 8.09249 205.624 8.46329 204.975 9.15856C204.326 9.90019 204.048 10.7809 204.048 11.8933V18.7533H202.102V6.70194H204.048V8.69505H204.095C205.022 7.16545 206.32 6.42383 208.035 6.42383C209.332 6.42383 210.352 6.84098 211.047 7.67531C211.743 8.50964 212.113 9.76114 212.113 11.3371V18.7997Z" fill="#F5F5F5" stroke="#F5F5F5" stroke-width="0.5" stroke-miterlimit="10"/>
<path d="M225.415 13.2835H216.933C216.979 14.6277 217.304 15.6474 217.999 16.389C218.694 17.1307 219.621 17.5015 220.827 17.5015C222.171 17.5015 223.422 17.0379 224.581 16.1573V17.965C223.515 18.753 222.124 19.1238 220.409 19.1238C218.694 19.1238 217.397 18.5675 216.423 17.5015C215.45 16.4354 214.986 14.8594 214.986 12.9127C214.986 11.0586 215.496 9.52901 216.562 8.32387C217.628 7.16508 218.926 6.5625 220.502 6.5625C222.078 6.5625 223.283 7.07238 224.164 8.09211C225.045 9.11184 225.462 10.5024 225.462 12.3101V13.2835H225.415ZM223.422 11.6612C223.422 10.5487 223.144 9.66805 222.634 9.06548C222.124 8.46291 221.383 8.13845 220.409 8.13845C219.482 8.13845 218.741 8.46291 218.092 9.11183C217.443 9.76075 217.072 10.5951 216.933 11.6612H223.422Z" fill="#F5F5F5" stroke="#F5F5F5" stroke-width="0.5" stroke-miterlimit="10"/>
<path d="M233.898 18.7065C233.434 18.9383 232.832 19.0774 232.09 19.0774C230.004 19.0774 228.938 17.9186 228.938 15.5546V8.41651H226.853V6.7942H228.938V3.87406L230.885 3.27148V6.84056H233.898V8.46286H230.885V15.2302C230.885 16.0182 231.024 16.6207 231.302 16.9452C231.58 17.2696 232.044 17.4551 232.646 17.4551C233.11 17.4551 233.574 17.316 233.898 17.0379V18.7065Z" fill="#F5F5F5" stroke="#F5F5F5" stroke-width="0.5" stroke-miterlimit="10"/>
<path d="M254.247 1.97266L248.684 12.5871V18.7983H246.738V12.6335L241.314 1.97266H243.539L247.294 9.5743C247.34 9.667 247.479 9.99147 247.711 10.594H247.757C247.85 10.3159 247.989 9.99147 248.221 9.5743L252.161 1.97266H254.247Z" fill="#F5F5F5" stroke="#F5F5F5" stroke-width="0.5" stroke-miterlimit="10"/>
<path d="M262.636 18.7982H260.69V16.8978H260.643C259.809 18.3347 258.557 19.0764 256.935 19.0764C255.73 19.0764 254.803 18.7519 254.108 18.103C253.412 17.454 253.088 16.6197 253.088 15.6C253.088 13.3751 254.432 12.0309 257.074 11.6601L260.69 11.1502C260.69 9.11077 259.855 8.09105 258.233 8.09105C256.796 8.09105 255.498 8.60091 254.293 9.57429V7.58118C255.498 6.83956 256.842 6.46875 258.372 6.46875C261.199 6.46875 262.59 7.95199 262.59 10.9648V18.7982H262.636ZM260.69 12.7262L257.769 13.1434C256.889 13.2824 256.193 13.4678 255.73 13.7923C255.266 14.1167 255.035 14.673 255.035 15.4609C255.035 16.0635 255.266 16.527 255.684 16.8978C256.101 17.2687 256.657 17.4541 257.352 17.4541C258.326 17.4541 259.114 17.1296 259.716 16.4343C260.319 15.7391 260.643 14.9047 260.643 13.885V12.7262H260.69Z" fill="#F5F5F5" stroke="#F5F5F5" stroke-width="0.5" stroke-miterlimit="10"/>
<path d="M281.409 6.7944L277.793 18.8458H275.8L273.343 10.2244C273.251 9.89995 273.204 9.52914 273.158 9.11198H273.112C273.065 9.39009 273.019 9.7609 272.88 10.2244L270.192 18.8458H268.245L264.583 6.7944H266.622L269.125 15.8329C269.218 16.1111 269.265 16.4819 269.311 16.899H269.404C269.45 16.5746 269.496 16.2038 269.635 15.7866L272.416 6.74805H274.178L276.681 15.8329C276.773 16.1111 276.82 16.4819 276.866 16.899H276.959C276.959 16.5746 277.052 16.2501 277.144 15.8329L279.601 6.74805H281.409V6.7944Z" fill="#F5F5F5" stroke="#F5F5F5" stroke-width="0.5" stroke-miterlimit="10"/>
<path d="M293.645 18.799H290.956L285.626 13.005H285.58V18.799H283.633V1H285.58V12.3098H285.626L290.678 6.79394H293.181L287.619 12.5879L293.645 18.799Z" fill="#F5F5F5" stroke="#F5F5F5" stroke-width="0.5" stroke-miterlimit="10"/>
<path d="M304.213 18.7982H302.267V16.8978H302.22C301.386 18.3347 300.135 19.0764 298.512 19.0764C297.307 19.0764 296.38 18.7519 295.685 18.103C294.989 17.454 294.665 16.6197 294.665 15.6C294.665 13.3751 296.009 12.0309 298.651 11.6601L302.267 11.1502C302.267 9.11077 301.432 8.09105 299.81 8.09105C298.373 8.09105 297.075 8.60091 295.87 9.57429V7.58118C297.075 6.83956 298.419 6.46875 299.949 6.46875C302.777 6.46875 304.167 7.95199 304.167 10.9648V18.7982H304.213ZM302.267 12.7262L299.347 13.1434C298.466 13.2824 297.771 13.4678 297.307 13.7923C296.844 14.1167 296.612 14.673 296.612 15.4609C296.612 16.0635 296.844 16.527 297.261 16.8978C297.678 17.2687 298.234 17.4541 298.929 17.4541C299.903 17.4541 300.691 17.1296 301.293 16.4343C301.896 15.7854 302.22 14.9047 302.22 13.885V12.7262H302.267Z" fill="#F5F5F5" stroke="#F5F5F5" stroke-width="0.5" stroke-miterlimit="10"/>
<path d="M309.776 18.799H307.829V1H309.776V18.799Z" fill="#F5F5F5" stroke="#F5F5F5" stroke-width="0.5" stroke-miterlimit="10"/>
<path d="M171.509 39.1008H164.649V25.8906H166.179V37.7103H171.509V39.1008Z" fill="#F5F5F5" stroke="#F5F5F5" stroke-width="0.5" stroke-miterlimit="10"/>
<path d="M180.084 39.1001H178.555V37.6169H178.508C177.859 38.7293 176.886 39.3319 175.588 39.3319C174.661 39.3319 173.919 39.1001 173.363 38.5902C172.807 38.0804 172.575 37.4315 172.575 36.5971C172.575 34.8358 173.595 33.816 175.681 33.5379L178.508 33.1208C178.508 31.4985 177.859 30.7105 176.561 30.7105C175.403 30.7105 174.383 31.0813 173.502 31.8693V30.3397C174.429 29.7371 175.495 29.459 176.7 29.459C178.925 29.459 180.038 30.6178 180.038 32.9817V39.1001H180.084ZM178.555 34.3259L176.283 34.6504C175.588 34.7431 175.032 34.9285 174.707 35.1602C174.337 35.392 174.151 35.8555 174.151 36.5044C174.151 36.9679 174.337 37.3387 174.661 37.6169C174.985 37.895 175.449 38.034 175.959 38.034C176.7 38.034 177.349 37.7559 177.813 37.246C178.323 36.7362 178.555 36.0409 178.555 35.2529V34.3259Z" fill="#F5F5F5" stroke="#F5F5F5" stroke-width="0.5" stroke-miterlimit="10"/>
<path d="M194.824 29.6923L191.996 39.148H190.421L188.474 32.3807C188.381 32.1026 188.335 31.8245 188.335 31.5H188.288C188.288 31.7318 188.196 32.0099 188.103 32.3343L185.971 39.1017H184.441L181.567 29.646H183.143L185.09 36.7377C185.136 36.9695 185.183 37.2476 185.229 37.5721H185.322C185.322 37.294 185.415 37.0158 185.507 36.6914L187.686 29.5996H189.076L191.023 36.7377C191.069 36.9695 191.116 37.2476 191.162 37.5721H191.255C191.255 37.3403 191.301 37.0622 191.394 36.7377L193.294 29.5996H194.824V29.6923Z" fill="#F5F5F5" stroke="#F5F5F5" stroke-width="0.5" stroke-miterlimit="10"/>
<path d="M207.292 39.3339C205.438 39.3339 203.909 38.7313 202.796 37.4798C201.684 36.2283 201.081 34.6524 201.081 32.6592C201.081 30.5271 201.637 28.8584 202.796 27.5606C203.955 26.2627 205.531 25.6602 207.478 25.6602C209.285 25.6602 210.769 26.2627 211.881 27.5142C212.993 28.7657 213.55 30.3417 213.55 32.3348C213.55 34.5133 212.993 36.1819 211.835 37.4334C210.722 38.7313 209.193 39.3339 207.292 39.3339ZM207.385 27.0507C205.994 27.0507 204.882 27.5606 204.001 28.5339C203.121 29.5537 202.703 30.8515 202.703 32.4738C202.703 34.0961 203.121 35.394 203.955 36.4137C204.789 37.3871 205.902 37.897 207.246 37.897C208.683 37.897 209.841 37.4334 210.676 36.4601C211.51 35.4867 211.927 34.1888 211.927 32.4738C211.927 30.7125 211.51 29.3683 210.722 28.4412C209.934 27.5606 208.822 27.0507 207.385 27.0507Z" fill="#F5F5F5" stroke="#F5F5F5" stroke-width="0.5" stroke-miterlimit="10"/>
<path d="M220.642 26.4476C220.364 26.2622 219.993 26.2158 219.622 26.2158C218.556 26.2158 218.046 26.8647 218.046 28.2089V29.6458H220.271V30.9437H218.046V39.1015H216.563V30.9437H214.94V29.6458H216.563V28.1626C216.563 27.1892 216.841 26.4012 217.397 25.7986C217.953 25.2424 218.695 24.918 219.529 24.918C219.993 24.918 220.364 24.9643 220.642 25.1034V26.4476Z" fill="#F5F5F5" stroke="#F5F5F5" stroke-width="0.5" stroke-miterlimit="10"/>
<path d="M226.574 26.4476C226.296 26.2622 225.925 26.2158 225.555 26.2158C224.488 26.2158 223.979 26.8647 223.979 28.2089V29.6458H226.203V30.9437H223.979V39.1015H222.495V30.9437H220.873V29.6458H222.495V28.1626C222.495 27.1892 222.773 26.4012 223.33 25.7986C223.886 25.2424 224.628 24.918 225.462 24.918C225.925 24.918 226.296 24.9643 226.574 25.1034V26.4476Z" fill="#F5F5F5" stroke="#F5F5F5" stroke-width="0.5" stroke-miterlimit="10"/>
<path d="M228.568 27.2808C228.29 27.2808 228.058 27.188 227.873 27.0026C227.687 26.8172 227.595 26.5855 227.595 26.3074C227.595 26.0293 227.687 25.7975 227.873 25.6121C228.058 25.4267 228.29 25.334 228.568 25.334C228.846 25.334 229.078 25.4267 229.263 25.6121C229.449 25.7975 229.541 26.0293 229.541 26.3074C229.541 26.5855 229.449 26.8172 229.263 27.0026C229.078 27.188 228.846 27.2808 228.568 27.2808ZM229.31 39.1004H227.78V29.6447H229.31V39.1004Z" fill="#F5F5F5" stroke="#F5F5F5" stroke-width="0.5" stroke-miterlimit="10"/>
<path d="M238.812 38.6844C238.07 39.1015 237.236 39.3333 236.216 39.3333C234.872 39.3333 233.806 38.9161 232.971 38.0354C232.137 37.1548 231.72 36.0423 231.72 34.6054C231.72 33.0295 232.183 31.778 233.064 30.8509C233.945 29.9239 235.15 29.4141 236.633 29.4141C237.467 29.4141 238.209 29.5531 238.812 29.8776V31.4072C238.116 30.8973 237.375 30.6655 236.54 30.6655C235.567 30.6655 234.779 30.99 234.176 31.6853C233.574 32.3806 233.249 33.3076 233.249 34.42C233.249 35.5325 233.527 36.4131 234.13 37.0157C234.733 37.6646 235.474 37.9891 236.448 37.9891C237.282 37.9891 238.024 37.711 238.765 37.1548V38.6844H238.812Z" fill="#F5F5F5" stroke="#F5F5F5" stroke-width="0.5" stroke-miterlimit="10"/>
<path d="M248.685 34.7894H242.01C242.056 35.8555 242.334 36.6435 242.844 37.246C243.401 37.8023 244.142 38.0804 245.069 38.0804C246.135 38.0804 247.109 37.7096 247.989 37.0143V38.4512C247.155 39.0538 246.043 39.3319 244.698 39.3319C243.354 39.3319 242.334 38.9147 241.546 38.034C240.759 37.1533 240.388 35.9482 240.388 34.4186C240.388 32.9354 240.805 31.7302 241.639 30.8495C242.474 29.9689 243.493 29.459 244.745 29.459C245.996 29.459 246.923 29.8762 247.619 30.6641C248.314 31.4521 248.638 32.5645 248.638 34.0014V34.7894H248.685ZM247.155 33.4916C247.155 32.6109 246.923 31.962 246.506 31.4521C246.089 30.9886 245.533 30.7105 244.791 30.7105C244.096 30.7105 243.493 30.9886 242.983 31.4985C242.474 32.0083 242.195 32.6572 242.056 33.4916H247.155Z" fill="#F5F5F5" stroke="#F5F5F5" stroke-width="0.5" stroke-miterlimit="10"/>
<path d="M166.084 61.645H167.376V65.997H169.493V67H166.084V61.645ZM174.063 64.9345C174.063 65.2688 174.007 65.5692 173.893 65.8355C173.786 66.1018 173.635 66.3285 173.443 66.5155C173.25 66.7025 173.023 66.847 172.763 66.949C172.502 67.0453 172.222 67.0935 171.921 67.0935C171.621 67.0935 171.34 67.0482 171.08 66.9575C170.825 66.8612 170.604 66.7252 170.417 66.5495C170.23 66.3738 170.082 66.1585 169.975 65.9035C169.867 65.6428 169.813 65.3482 169.813 65.0195C169.813 64.6738 169.867 64.365 169.975 64.093C170.088 63.821 170.241 63.5915 170.434 63.4045C170.626 63.2175 170.853 63.0758 171.114 62.9795C171.374 62.8775 171.655 62.8265 171.955 62.8265C172.256 62.8265 172.533 62.8718 172.788 62.9625C173.049 63.0532 173.273 63.1892 173.46 63.3705C173.647 63.5462 173.794 63.7643 173.902 64.025C174.009 64.2857 174.063 64.5888 174.063 64.9345ZM172.771 64.977C172.771 64.756 172.749 64.569 172.703 64.416C172.658 64.2573 172.596 64.1298 172.516 64.0335C172.437 63.9315 172.346 63.8578 172.244 63.8125C172.142 63.7672 172.037 63.7445 171.93 63.7445C171.822 63.7445 171.717 63.7643 171.615 63.804C171.519 63.8437 171.431 63.9117 171.352 64.008C171.278 64.1043 171.219 64.2318 171.173 64.3905C171.128 64.5435 171.105 64.739 171.105 64.977C171.105 65.3907 171.19 65.6938 171.36 65.8865C171.53 66.0792 171.726 66.1755 171.947 66.1755C172.054 66.1755 172.156 66.1557 172.253 66.116C172.355 66.0707 172.443 66.0027 172.516 65.912C172.596 65.8157 172.658 65.691 172.703 65.538C172.749 65.385 172.771 65.198 172.771 64.977ZM177.042 66.1755C177.223 66.1755 177.382 66.1528 177.518 66.1075C177.659 66.0565 177.767 66.0112 177.841 65.9715L178.07 66.8215C177.974 66.8782 177.812 66.9377 177.586 67C177.359 67.0623 177.11 67.0935 176.838 67.0935C176.52 67.0935 176.226 67.0482 175.954 66.9575C175.687 66.8668 175.455 66.7337 175.257 66.558C175.064 66.3767 174.911 66.1557 174.798 65.895C174.684 65.6287 174.628 65.3227 174.628 64.977C174.628 64.6597 174.682 64.3707 174.789 64.11C174.897 63.8437 175.05 63.617 175.248 63.43C175.447 63.2373 175.682 63.09 175.954 62.988C176.226 62.8803 176.529 62.8265 176.863 62.8265C177.039 62.8265 177.229 62.8463 177.433 62.886C177.642 62.9257 177.855 63.0022 178.07 63.1155L177.807 63.974C177.693 63.906 177.566 63.8493 177.424 63.804C177.288 63.7587 177.149 63.736 177.008 63.736C176.679 63.736 176.413 63.838 176.209 64.042C176.005 64.2403 175.903 64.5407 175.903 64.943C175.903 65.1697 175.937 65.3623 176.005 65.521C176.073 65.674 176.161 65.8015 176.268 65.9035C176.376 65.9998 176.498 66.0707 176.634 66.116C176.77 66.1557 176.906 66.1755 177.042 66.1755ZM178.81 63.277C179.042 63.141 179.303 63.0333 179.592 62.954C179.886 62.869 180.187 62.8265 180.493 62.8265C180.997 62.8265 181.402 62.9483 181.708 63.192C182.014 63.4357 182.167 63.8238 182.167 64.3565V67H181.207L181.096 66.592H181.062C180.949 66.7393 180.79 66.8612 180.586 66.9575C180.388 67.0482 180.153 67.0935 179.881 67.0935C179.648 67.0935 179.444 67.0595 179.269 66.9915C179.099 66.9235 178.957 66.8328 178.844 66.7195C178.73 66.6062 178.643 66.473 178.58 66.32C178.524 66.1613 178.495 65.9942 178.495 65.8185C178.495 65.5805 178.546 65.3765 178.648 65.2065C178.756 65.0365 178.898 64.8977 179.073 64.79C179.255 64.6823 179.464 64.603 179.702 64.552C179.946 64.501 180.204 64.4755 180.476 64.4755H180.901V64.2545C180.901 64.1015 180.847 63.9853 180.739 63.906C180.632 63.821 180.479 63.7785 180.28 63.7785C180.11 63.7785 179.943 63.804 179.779 63.855C179.614 63.906 179.433 63.9882 179.235 64.1015L178.81 63.277ZM180.909 65.2405L180.629 65.249C180.47 65.2547 180.337 65.2717 180.229 65.3C180.122 65.3283 180.034 65.3652 179.966 65.4105C179.903 65.4502 179.858 65.5012 179.83 65.5635C179.801 65.6202 179.787 65.6797 179.787 65.742C179.787 65.9177 179.838 66.0395 179.94 66.1075C180.048 66.1698 180.17 66.201 180.306 66.201C180.442 66.201 180.564 66.1613 180.671 66.082C180.785 66.0027 180.864 65.9148 180.909 65.8185V65.2405ZM183.191 67V60.9225H184.432V67H183.191ZM187.492 61.645H191.062V62.631H188.784V63.7275H190.841V64.705H188.784V66.014H191.088V67H187.492V61.645ZM194.415 64.909L195.86 67H194.415L194.075 66.49L193.624 65.6825L193.208 66.4815L192.885 67H191.457L192.885 64.909L191.542 62.92H192.944L193.284 63.447L193.684 64.2205L194.058 63.447L194.372 62.92H195.749L194.415 64.909ZM198.42 67.0935C198.278 67.0935 198.139 67.0765 198.003 67.0425C197.867 67.0142 197.757 66.9773 197.672 66.932V68.955H196.422V62.92H197.357L197.476 63.3535C197.641 63.1892 197.83 63.0617 198.046 62.971C198.267 62.8747 198.508 62.8265 198.768 62.8265C199.029 62.8265 199.267 62.8747 199.482 62.971C199.698 63.0673 199.879 63.2062 200.026 63.3875C200.174 63.5632 200.287 63.7785 200.366 64.0335C200.451 64.2885 200.494 64.5718 200.494 64.8835C200.494 65.2348 200.44 65.5493 200.332 65.827C200.225 66.099 200.077 66.3285 199.89 66.5155C199.703 66.7025 199.482 66.847 199.227 66.949C198.978 67.0453 198.709 67.0935 198.42 67.0935ZM198.411 63.7615C198.241 63.7615 198.091 63.8012 197.961 63.8805C197.83 63.9598 197.734 64.0392 197.672 64.1185V65.9885C197.813 66.1132 198.009 66.1755 198.258 66.1755C198.372 66.1755 198.485 66.1528 198.598 66.1075C198.712 66.0622 198.811 65.9913 198.896 65.895C198.986 65.793 199.06 65.6627 199.117 65.504C199.173 65.3453 199.202 65.1498 199.202 64.9175C199.202 64.5945 199.134 64.3225 198.998 64.1015C198.862 63.8748 198.666 63.7615 198.411 63.7615ZM204.95 65.3255H202.315V65.3595C202.315 65.6428 202.426 65.8497 202.647 65.98C202.868 66.1103 203.146 66.1755 203.48 66.1755C203.712 66.1755 203.916 66.1528 204.092 66.1075C204.268 66.0622 204.415 66.0083 204.534 65.946L204.763 66.813C204.61 66.8867 204.415 66.9518 204.177 67.0085C203.945 67.0652 203.658 67.0935 203.318 67.0935C203.012 67.0935 202.721 67.0538 202.443 66.9745C202.171 66.8895 201.93 66.762 201.72 66.592C201.516 66.422 201.352 66.2067 201.227 65.946C201.108 65.6853 201.049 65.3737 201.049 65.011C201.049 64.688 201.097 64.3933 201.193 64.127C201.295 63.855 201.437 63.6227 201.618 63.43C201.8 63.2373 202.015 63.09 202.264 62.988C202.519 62.8803 202.8 62.8265 203.106 62.8265C203.667 62.8265 204.115 62.9965 204.449 63.3365C204.783 63.6765 204.95 64.161 204.95 64.79V65.3255ZM203.667 64.467C203.667 64.3707 203.656 64.2772 203.633 64.1865C203.61 64.0958 203.573 64.0165 203.522 63.9485C203.477 63.8748 203.415 63.8182 203.335 63.7785C203.262 63.7332 203.171 63.7105 203.063 63.7105C202.865 63.7105 202.701 63.7813 202.57 63.923C202.44 64.059 202.364 64.246 202.341 64.484L203.667 64.467ZM205.727 67V62.92H206.713L206.841 63.634C206.892 63.532 206.954 63.4328 207.028 63.3365C207.102 63.2345 207.189 63.1467 207.291 63.073C207.393 62.9993 207.51 62.9398 207.64 62.8945C207.776 62.8492 207.926 62.8265 208.09 62.8265C208.215 62.8265 208.328 62.8435 208.43 62.8775C208.538 62.9058 208.623 62.9398 208.685 62.9795L208.481 63.957C208.419 63.923 208.34 63.8918 208.243 63.8635C208.147 63.8352 208.028 63.821 207.886 63.821C207.626 63.821 207.408 63.906 207.232 64.076C207.062 64.246 206.977 64.5407 206.977 64.96V67H205.727ZM211.879 63.821H210.834V65.5465C210.834 65.7335 210.873 65.8638 210.953 65.9375C211.038 66.0112 211.154 66.048 211.301 66.048C211.415 66.048 211.528 66.0367 211.641 66.014C211.755 65.9913 211.842 65.9602 211.905 65.9205L212.092 66.779C211.995 66.83 211.848 66.881 211.65 66.932C211.457 66.9773 211.25 67 211.029 67C210.502 67 210.128 66.898 209.907 66.694C209.692 66.49 209.584 66.1812 209.584 65.7675V63.821H208.947V62.92H209.584V61.679H210.834V62.92H211.879V63.821ZM212.744 67V62.92H214.002V67H212.744ZM213.373 62.121C213.157 62.121 212.993 62.0615 212.88 61.9425C212.766 61.8178 212.71 61.6705 212.71 61.5005C212.71 61.3305 212.766 61.186 212.88 61.067C212.999 60.9423 213.163 60.88 213.373 60.88C213.582 60.88 213.744 60.9395 213.857 61.0585C213.976 61.1775 214.036 61.3248 214.036 61.5005C214.036 61.6762 213.979 61.8235 213.866 61.9425C213.752 62.0615 213.588 62.121 213.373 62.121ZM217.598 63.9655C217.445 63.8918 217.284 63.8352 217.114 63.7955C216.944 63.7502 216.78 63.7275 216.621 63.7275C216.474 63.7275 216.355 63.753 216.264 63.804C216.173 63.855 216.128 63.9258 216.128 64.0165C216.128 64.1128 216.17 64.195 216.255 64.263C216.346 64.3253 216.522 64.3933 216.782 64.467L217.037 64.5435C217.377 64.6455 217.635 64.7957 217.811 64.994C217.987 65.1867 218.074 65.436 218.074 65.742C218.074 65.946 218.032 66.133 217.947 66.303C217.862 66.4673 217.74 66.609 217.581 66.728C217.428 66.847 217.241 66.9377 217.02 67C216.805 67.0623 216.564 67.0935 216.298 67.0935C216.009 67.0935 215.751 67.068 215.524 67.017C215.303 66.966 215.097 66.8923 214.904 66.796L215.176 65.8865C215.34 65.9715 215.51 66.0423 215.686 66.099C215.867 66.15 216.051 66.1755 216.238 66.1755C216.454 66.1755 216.604 66.1443 216.689 66.082C216.78 66.0197 216.825 65.946 216.825 65.861C216.825 65.81 216.814 65.7675 216.791 65.7335C216.774 65.6938 216.74 65.657 216.689 65.623C216.638 65.589 216.564 65.5578 216.468 65.5295C216.377 65.4955 216.258 65.4558 216.111 65.4105L215.847 65.334C215.513 65.2263 215.269 65.079 215.116 64.892C214.963 64.6993 214.887 64.4415 214.887 64.1185C214.887 63.9315 214.924 63.7615 214.997 63.6085C215.071 63.4498 215.176 63.3138 215.312 63.2005C215.454 63.0815 215.624 62.9908 215.822 62.9285C216.026 62.8605 216.258 62.8265 216.519 62.8265C216.78 62.8265 217.02 62.852 217.241 62.903C217.468 62.9483 217.672 63.0135 217.853 63.0985L217.598 63.9655ZM222.498 65.3255H219.863V65.3595C219.863 65.6428 219.974 65.8497 220.195 65.98C220.416 66.1103 220.693 66.1755 221.028 66.1755C221.26 66.1755 221.464 66.1528 221.64 66.1075C221.815 66.0622 221.963 66.0083 222.082 65.946L222.311 66.813C222.158 66.8867 221.963 66.9518 221.725 67.0085C221.492 67.0652 221.206 67.0935 220.866 67.0935C220.56 67.0935 220.268 67.0538 219.991 66.9745C219.719 66.8895 219.478 66.762 219.268 66.592C219.064 66.422 218.9 66.2067 218.775 65.946C218.656 65.6853 218.597 65.3737 218.597 65.011C218.597 64.688 218.645 64.3933 218.741 64.127C218.843 63.855 218.985 63.6227 219.166 63.43C219.348 63.2373 219.563 63.09 219.812 62.988C220.067 62.8803 220.348 62.8265 220.654 62.8265C221.215 62.8265 221.662 62.9965 221.997 63.3365C222.331 63.6765 222.498 64.161 222.498 64.79V65.3255ZM221.215 64.467C221.215 64.3707 221.203 64.2772 221.181 64.1865C221.158 64.0958 221.121 64.0165 221.07 63.9485C221.025 63.8748 220.963 63.8182 220.883 63.7785C220.81 63.7332 220.719 63.7105 220.611 63.7105C220.413 63.7105 220.249 63.7813 220.118 63.923C219.988 64.059 219.911 64.246 219.889 64.484L221.215 64.467ZM223.082 66.3455C223.082 66.1302 223.153 65.9545 223.294 65.8185C223.442 65.6768 223.614 65.606 223.813 65.606C224.011 65.606 224.181 65.6768 224.323 65.8185C224.464 65.9545 224.535 66.1302 224.535 66.3455C224.535 66.5778 224.464 66.762 224.323 66.898C224.181 67.0283 224.011 67.0935 223.813 67.0935C223.614 67.0935 223.442 67.0283 223.294 66.898C223.153 66.762 223.082 66.5778 223.082 66.3455ZM228.578 61.645V67H227.286V61.645H228.578ZM230.892 67H229.634V62.92H230.611L230.756 63.43C230.937 63.243 231.141 63.0957 231.368 62.988C231.594 62.8803 231.841 62.8265 232.107 62.8265C232.566 62.8265 232.917 62.9512 233.161 63.2005C233.405 63.4498 233.527 63.8153 233.527 64.297V67H232.269V64.4245C232.269 64.2262 232.22 64.0703 232.124 63.957C232.033 63.838 231.897 63.7785 231.716 63.7785C231.58 63.7785 231.436 63.8182 231.283 63.8975C231.135 63.9768 231.005 64.0817 230.892 64.212V67ZM236.997 63.821H235.952V65.5465C235.952 65.7335 235.992 65.8638 236.071 65.9375C236.156 66.0112 236.272 66.048 236.419 66.048C236.533 66.048 236.646 66.0367 236.759 66.014C236.873 65.9913 236.961 65.9602 237.023 65.9205L237.21 66.779C237.114 66.83 236.966 66.881 236.768 66.932C236.575 66.9773 236.368 67 236.147 67C235.62 67 235.246 66.898 235.025 66.694C234.81 66.49 234.702 66.1812 234.702 65.7675V63.821H234.065V62.92H234.702V61.679H235.952V62.92H236.997V63.821ZM241.449 65.3255H238.814V65.3595C238.814 65.6428 238.924 65.8497 239.145 65.98C239.366 66.1103 239.644 66.1755 239.978 66.1755C240.211 66.1755 240.415 66.1528 240.59 66.1075C240.766 66.0622 240.913 66.0083 241.032 65.946L241.262 66.813C241.109 66.8867 240.913 66.9518 240.675 67.0085C240.443 67.0652 240.157 67.0935 239.817 67.0935C239.511 67.0935 239.219 67.0538 238.941 66.9745C238.669 66.8895 238.429 66.762 238.219 66.592C238.015 66.422 237.851 66.2067 237.726 65.946C237.607 65.6853 237.547 65.3737 237.547 65.011C237.547 64.688 237.596 64.3933 237.692 64.127C237.794 63.855 237.936 63.6227 238.117 63.43C238.298 63.2373 238.514 63.09 238.763 62.988C239.018 62.8803 239.298 62.8265 239.604 62.8265C240.165 62.8265 240.613 62.9965 240.947 63.3365C241.282 63.6765 241.449 64.161 241.449 64.79V65.3255ZM240.165 64.467C240.165 64.3707 240.154 64.2772 240.131 64.1865C240.109 64.0958 240.072 64.0165 240.021 63.9485C239.976 63.8748 239.913 63.8182 239.834 63.7785C239.76 63.7332 239.67 63.7105 239.562 63.7105C239.364 63.7105 239.199 63.7813 239.069 63.923C238.939 64.059 238.862 64.246 238.839 64.484L240.165 64.467ZM242.226 67V62.92H243.212L243.339 63.634C243.39 63.532 243.453 63.4328 243.526 63.3365C243.6 63.2345 243.688 63.1467 243.79 63.073C243.892 62.9993 244.008 62.9398 244.138 62.8945C244.274 62.8492 244.425 62.8265 244.589 62.8265C244.714 62.8265 244.827 62.8435 244.929 62.8775C245.037 62.9058 245.122 62.9398 245.184 62.9795L244.98 63.957C244.918 63.923 244.838 63.8918 244.742 63.8635C244.646 63.8352 244.527 63.821 244.385 63.821C244.124 63.821 243.906 63.906 243.73 64.076C243.56 64.246 243.475 64.5407 243.475 64.96V67H242.226ZM246.813 67H245.555V62.92H246.532L246.677 63.43C246.858 63.243 247.062 63.0957 247.289 62.988C247.515 62.8803 247.762 62.8265 248.028 62.8265C248.487 62.8265 248.838 62.9512 249.082 63.2005C249.326 63.4498 249.448 63.8153 249.448 64.297V67H248.19V64.4245C248.19 64.2262 248.141 64.0703 248.045 63.957C247.954 63.838 247.818 63.7785 247.637 63.7785C247.501 63.7785 247.357 63.8182 247.204 63.8975C247.056 63.9768 246.926 64.0817 246.813 64.212V67ZM250.47 63.277C250.703 63.141 250.963 63.0333 251.252 62.954C251.547 62.869 251.847 62.8265 252.153 62.8265C252.658 62.8265 253.063 62.9483 253.369 63.192C253.675 63.4357 253.828 63.8238 253.828 64.3565V67H252.867L252.757 66.592H252.723C252.61 66.7393 252.451 66.8612 252.247 66.9575C252.049 67.0482 251.813 67.0935 251.541 67.0935C251.309 67.0935 251.105 67.0595 250.929 66.9915C250.759 66.9235 250.618 66.8328 250.504 66.7195C250.391 66.6062 250.303 66.473 250.241 66.32C250.184 66.1613 250.156 65.9942 250.156 65.8185C250.156 65.5805 250.207 65.3765 250.309 65.2065C250.417 65.0365 250.558 64.8977 250.734 64.79C250.915 64.6823 251.125 64.603 251.363 64.552C251.607 64.501 251.864 64.4755 252.136 64.4755H252.561V64.2545C252.561 64.1015 252.508 63.9853 252.4 63.906C252.292 63.821 252.139 63.7785 251.941 63.7785C251.771 63.7785 251.604 63.804 251.439 63.855C251.275 63.906 251.094 63.9882 250.895 64.1015L250.47 63.277ZM252.57 65.2405L252.289 65.249C252.131 65.2547 251.998 65.2717 251.89 65.3C251.782 65.3283 251.694 65.3652 251.626 65.4105C251.564 65.4502 251.519 65.5012 251.49 65.5635C251.462 65.6202 251.448 65.6797 251.448 65.742C251.448 65.9177 251.499 66.0395 251.601 66.1075C251.709 66.1698 251.83 66.201 251.966 66.201C252.102 66.201 252.224 66.1613 252.332 66.082C252.445 66.0027 252.525 65.9148 252.57 65.8185V65.2405ZM257.351 63.821H256.305V65.5465C256.305 65.7335 256.345 65.8638 256.424 65.9375C256.509 66.0112 256.626 66.048 256.773 66.048C256.886 66.048 257 66.0367 257.113 66.014C257.226 65.9913 257.314 65.9602 257.376 65.9205L257.563 66.779C257.467 66.83 257.32 66.881 257.121 66.932C256.929 66.9773 256.722 67 256.501 67C255.974 67 255.6 66.898 255.379 66.694C255.164 66.49 255.056 66.1812 255.056 65.7675V63.821H254.418V62.92H255.056V61.679H256.305V62.92H257.351V63.821ZM258.215 67V62.92H259.473V67H258.215ZM258.844 62.121C258.629 62.121 258.465 62.0615 258.351 61.9425C258.238 61.8178 258.181 61.6705 258.181 61.5005C258.181 61.3305 258.238 61.186 258.351 61.067C258.47 60.9423 258.635 60.88 258.844 60.88C259.054 60.88 259.216 60.9395 259.329 61.0585C259.448 61.1775 259.507 61.3248 259.507 61.5005C259.507 61.6762 259.451 61.8235 259.337 61.9425C259.224 62.0615 259.06 62.121 258.844 62.121ZM264.592 64.9345C264.592 65.2688 264.535 65.5692 264.422 65.8355C264.314 66.1018 264.164 66.3285 263.971 66.5155C263.778 66.7025 263.552 66.847 263.291 66.949C263.03 67.0453 262.75 67.0935 262.45 67.0935C262.149 67.0935 261.869 67.0482 261.608 66.9575C261.353 66.8612 261.132 66.7252 260.945 66.5495C260.758 66.3738 260.611 66.1585 260.503 65.9035C260.395 65.6428 260.342 65.3482 260.342 65.0195C260.342 64.6738 260.395 64.365 260.503 64.093C260.616 63.821 260.769 63.5915 260.962 63.4045C261.155 63.2175 261.381 63.0758 261.642 62.9795C261.903 62.8775 262.183 62.8265 262.484 62.8265C262.784 62.8265 263.062 62.8718 263.317 62.9625C263.577 63.0532 263.801 63.1892 263.988 63.3705C264.175 63.5462 264.322 63.7643 264.43 64.025C264.538 64.2857 264.592 64.5888 264.592 64.9345ZM263.3 64.977C263.3 64.756 263.277 64.569 263.232 64.416C263.186 64.2573 263.124 64.1298 263.045 64.0335C262.965 63.9315 262.875 63.8578 262.773 63.8125C262.671 63.7672 262.566 63.7445 262.458 63.7445C262.35 63.7445 262.246 63.7643 262.144 63.804C262.047 63.8437 261.959 63.9117 261.88 64.008C261.806 64.1043 261.747 64.2318 261.702 64.3905C261.656 64.5435 261.634 64.739 261.634 64.977C261.634 65.3907 261.719 65.6938 261.889 65.8865C262.059 66.0792 262.254 66.1755 262.475 66.1755C262.583 66.1755 262.685 66.1557 262.781 66.116C262.883 66.0707 262.971 66.0027 263.045 65.912C263.124 65.8157 263.186 65.691 263.232 65.538C263.277 65.385 263.3 65.198 263.3 64.977ZM266.626 67H265.368V62.92H266.346L266.49 63.43C266.672 63.243 266.876 63.0957 267.102 62.988C267.329 62.8803 267.576 62.8265 267.842 62.8265C268.301 62.8265 268.652 62.9512 268.896 63.2005C269.14 63.4498 269.261 63.8153 269.261 64.297V67H268.003V64.4245C268.003 64.2262 267.955 64.0703 267.859 63.957C267.768 63.838 267.632 63.7785 267.451 63.7785C267.315 63.7785 267.17 63.8182 267.017 63.8975C266.87 63.9768 266.74 64.0817 266.626 64.212V67ZM270.284 63.277C270.517 63.141 270.777 63.0333 271.066 62.954C271.361 62.869 271.661 62.8265 271.967 62.8265C272.472 62.8265 272.877 62.9483 273.183 63.192C273.489 63.4357 273.642 63.8238 273.642 64.3565V67H272.681L272.571 66.592H272.537C272.424 66.7393 272.265 66.8612 272.061 66.9575C271.863 67.0482 271.627 67.0935 271.355 67.0935C271.123 67.0935 270.919 67.0595 270.743 66.9915C270.573 66.9235 270.432 66.8328 270.318 66.7195C270.205 66.6062 270.117 66.473 270.055 66.32C269.998 66.1613 269.97 65.9942 269.97 65.8185C269.97 65.5805 270.021 65.3765 270.123 65.2065C270.231 65.0365 270.372 64.8977 270.548 64.79C270.729 64.6823 270.939 64.603 271.177 64.552C271.421 64.501 271.678 64.4755 271.95 64.4755H272.375V64.2545C272.375 64.1015 272.322 63.9853 272.214 63.906C272.106 63.821 271.953 63.7785 271.755 63.7785C271.585 63.7785 271.418 63.804 271.253 63.855C271.089 63.906 270.908 63.9882 270.709 64.1015L270.284 63.277ZM272.384 65.2405L272.103 65.249C271.945 65.2547 271.812 65.2717 271.704 65.3C271.596 65.3283 271.508 65.3652 271.44 65.4105C271.378 65.4502 271.333 65.5012 271.304 65.5635C271.276 65.6202 271.262 65.6797 271.262 65.742C271.262 65.9177 271.313 66.0395 271.415 66.1075C271.523 66.1698 271.644 66.201 271.78 66.201C271.916 66.201 272.038 66.1613 272.146 66.082C272.259 66.0027 272.339 65.9148 272.384 65.8185V65.2405ZM274.666 67V60.9225H275.907V67H274.666ZM280.879 61.645C281.304 61.645 281.69 61.6988 282.035 61.8065C282.381 61.9142 282.676 62.0757 282.919 62.291C283.169 62.5063 283.358 62.7755 283.489 63.0985C283.625 63.4158 283.693 63.787 283.693 64.212C283.693 64.688 283.613 65.1017 283.455 65.453C283.296 65.7987 283.078 66.0877 282.8 66.32C282.528 66.5467 282.208 66.7167 281.84 66.83C281.471 66.9433 281.08 67 280.667 67H278.967V61.645H280.879ZM280.259 66.014H280.59C280.817 66.014 281.035 65.9857 281.245 65.929C281.46 65.8723 281.647 65.776 281.806 65.64C281.964 65.4983 282.092 65.3113 282.188 65.079C282.285 64.8467 282.333 64.5577 282.333 64.212C282.333 63.6963 282.188 63.3053 281.899 63.039C281.61 62.767 281.219 62.631 280.726 62.631H280.259V66.014ZM288.174 65.3255H285.539V65.3595C285.539 65.6428 285.649 65.8497 285.87 65.98C286.091 66.1103 286.369 66.1755 286.703 66.1755C286.936 66.1755 287.14 66.1528 287.315 66.1075C287.491 66.0622 287.638 66.0083 287.757 65.946L287.987 66.813C287.834 66.8867 287.638 66.9518 287.4 67.0085C287.168 67.0652 286.882 67.0935 286.542 67.0935C286.236 67.0935 285.944 67.0538 285.666 66.9745C285.394 66.8895 285.154 66.762 284.944 66.592C284.74 66.422 284.576 66.2067 284.451 65.946C284.332 65.6853 284.272 65.3737 284.272 65.011C284.272 64.688 284.321 64.3933 284.417 64.127C284.519 63.855 284.661 63.6227 284.842 63.43C285.023 63.2373 285.239 63.09 285.488 62.988C285.743 62.8803 286.023 62.8265 286.329 62.8265C286.89 62.8265 287.338 62.9965 287.672 63.3365C288.007 63.6765 288.174 64.161 288.174 64.79V65.3255ZM286.89 64.467C286.89 64.3707 286.879 64.2772 286.856 64.1865C286.834 64.0958 286.797 64.0165 286.746 63.9485C286.701 63.8748 286.638 63.8182 286.559 63.7785C286.485 63.7332 286.395 63.7105 286.287 63.7105C286.089 63.7105 285.924 63.7813 285.794 63.923C285.664 64.059 285.587 64.246 285.564 64.484L286.89 64.467ZM290.949 67.0935C290.807 67.0935 290.668 67.0765 290.532 67.0425C290.396 67.0142 290.286 66.9773 290.201 66.932V68.955H288.951V62.92H289.886L290.005 63.3535C290.169 63.1892 290.359 63.0617 290.575 62.971C290.796 62.8747 291.036 62.8265 291.297 62.8265C291.558 62.8265 291.796 62.8747 292.011 62.971C292.226 63.0673 292.408 63.2062 292.555 63.3875C292.702 63.5632 292.816 63.7785 292.895 64.0335C292.98 64.2885 293.023 64.5718 293.023 64.8835C293.023 65.2348 292.969 65.5493 292.861 65.827C292.753 66.099 292.606 66.3285 292.419 66.5155C292.232 66.7025 292.011 66.847 291.756 66.949C291.507 67.0453 291.238 67.0935 290.949 67.0935ZM290.94 63.7615C290.77 63.7615 290.62 63.8012 290.49 63.8805C290.359 63.9598 290.263 64.0392 290.201 64.1185V65.9885C290.342 66.1132 290.538 66.1755 290.787 66.1755C290.9 66.1755 291.014 66.1528 291.127 66.1075C291.24 66.0622 291.34 65.9913 291.425 65.895C291.515 65.793 291.589 65.6627 291.646 65.504C291.702 65.3453 291.731 65.1498 291.731 64.9175C291.731 64.5945 291.663 64.3225 291.527 64.1015C291.391 63.8748 291.195 63.7615 290.94 63.7615ZM296.323 63.821H295.278V65.5465C295.278 65.7335 295.317 65.8638 295.397 65.9375C295.482 66.0112 295.598 66.048 295.745 66.048C295.858 66.048 295.972 66.0367 296.085 66.014C296.198 65.9913 296.286 65.9602 296.349 65.9205L296.536 66.779C296.439 66.83 296.292 66.881 296.094 66.932C295.901 66.9773 295.694 67 295.473 67C294.946 67 294.572 66.898 294.351 66.694C294.136 66.49 294.028 66.1812 294.028 65.7675V63.821H293.391V62.92H294.028V61.679H295.278V62.92H296.323V63.821ZM298.369 67H297.111V60.9225H298.369V63.243C298.522 63.124 298.703 63.0248 298.913 62.9455C299.123 62.8662 299.347 62.8265 299.585 62.8265C299.834 62.8265 300.049 62.8633 300.231 62.937C300.412 63.0107 300.562 63.1155 300.681 63.2515C300.8 63.3818 300.888 63.5377 300.945 63.719C301.007 63.9003 301.038 64.1015 301.038 64.3225V67H299.78V64.5265C299.78 64.2545 299.723 64.0618 299.61 63.9485C299.502 63.8352 299.349 63.7785 299.151 63.7785C299.015 63.7785 298.876 63.8097 298.735 63.872C298.593 63.9343 298.471 64.0165 298.369 64.1185V67ZM301.923 66.3455C301.923 66.1302 301.993 65.9545 302.135 65.8185C302.282 65.6768 302.455 65.606 302.654 65.606C302.852 65.606 303.022 65.6768 303.164 65.8185C303.305 65.9545 303.376 66.1302 303.376 66.3455C303.376 66.5778 303.305 66.762 303.164 66.898C303.022 67.0283 302.852 67.0935 302.654 67.0935C302.455 67.0935 302.282 67.0283 302.135 66.898C301.993 66.762 301.923 66.5778 301.923 66.3455Z" fill="#F5F5F5"/>
<path d="M308.141 61.645C308.714 61.645 309.17 61.7697 309.51 62.019C309.85 62.2683 310.02 62.614 310.02 63.056C310.02 63.2203 309.989 63.3677 309.926 63.498C309.87 63.6283 309.793 63.7417 309.697 63.838C309.601 63.9287 309.493 64.0052 309.374 64.0675C309.261 64.1298 309.147 64.1723 309.034 64.195C309.187 64.2233 309.331 64.2715 309.467 64.3395C309.609 64.4018 309.731 64.4868 309.833 64.5945C309.941 64.6965 310.026 64.8212 310.088 64.9685C310.15 65.1158 310.181 65.2858 310.181 65.4785C310.181 65.6995 310.133 65.9035 310.037 66.0905C309.941 66.2775 309.802 66.439 309.62 66.575C309.439 66.7053 309.218 66.8102 308.957 66.8895C308.702 66.9632 308.416 67 308.099 67H306.127V61.645H308.141ZM307.419 63.753H307.937C308.181 63.753 308.368 63.6992 308.498 63.5915C308.629 63.4782 308.694 63.3308 308.694 63.1495C308.694 62.9795 308.632 62.8492 308.507 62.7585C308.382 62.6622 308.195 62.614 307.946 62.614H307.419V63.753ZM307.419 66.031H307.92C308.198 66.031 308.422 65.98 308.592 65.878C308.768 65.776 308.855 65.6032 308.855 65.3595C308.855 65.1328 308.77 64.9685 308.6 64.8665C308.43 64.7645 308.207 64.7135 307.929 64.7135H307.419V66.031ZM313.59 62.92H314.848V67H313.922L313.794 66.558H313.76C313.704 66.6147 313.636 66.6742 313.556 66.7365C313.477 66.7988 313.381 66.8583 313.267 66.915C313.16 66.966 313.035 67.0085 312.893 67.0425C312.752 67.0765 312.59 67.0935 312.409 67.0935C311.967 67.0935 311.621 66.9717 311.372 66.728C311.123 66.4843 310.998 66.1245 310.998 65.6485V62.92H312.256V65.5465C312.256 65.7562 312.307 65.912 312.409 66.014C312.517 66.1103 312.653 66.1585 312.817 66.1585C313.015 66.1585 313.177 66.1188 313.301 66.0395C313.432 65.9545 313.528 65.8667 313.59 65.776V62.92ZM318.353 63.9655C318.2 63.8918 318.039 63.8352 317.869 63.7955C317.699 63.7502 317.534 63.7275 317.376 63.7275C317.228 63.7275 317.109 63.753 317.019 63.804C316.928 63.855 316.883 63.9258 316.883 64.0165C316.883 64.1128 316.925 64.195 317.01 64.263C317.101 64.3253 317.277 64.3933 317.537 64.467L317.792 64.5435C318.132 64.6455 318.39 64.7957 318.566 64.994C318.741 65.1867 318.829 65.436 318.829 65.742C318.829 65.946 318.787 66.133 318.702 66.303C318.617 66.4673 318.495 66.609 318.336 66.728C318.183 66.847 317.996 66.9377 317.775 67C317.56 67.0623 317.319 67.0935 317.053 67.0935C316.764 67.0935 316.506 67.068 316.279 67.017C316.058 66.966 315.851 66.8923 315.659 66.796L315.931 65.8865C316.095 65.9715 316.265 66.0423 316.441 66.099C316.622 66.15 316.806 66.1755 316.993 66.1755C317.209 66.1755 317.359 66.1443 317.444 66.082C317.534 66.0197 317.58 65.946 317.58 65.861C317.58 65.81 317.568 65.7675 317.546 65.7335C317.529 65.6938 317.495 65.657 317.444 65.623C317.393 65.589 317.319 65.5578 317.223 65.5295C317.132 65.4955 317.013 65.4558 316.866 65.4105L316.602 65.334C316.268 65.2263 316.024 65.079 315.871 64.892C315.718 64.6993 315.642 64.4415 315.642 64.1185C315.642 63.9315 315.679 63.7615 315.752 63.6085C315.826 63.4498 315.931 63.3138 316.067 63.2005C316.208 63.0815 316.378 62.9908 316.577 62.9285C316.781 62.8605 317.013 62.8265 317.274 62.8265C317.534 62.8265 317.775 62.852 317.996 62.903C318.223 62.9483 318.427 63.0135 318.608 63.0985L318.353 63.9655ZM319.708 67V62.92H320.966V67H319.708ZM320.337 62.121C320.121 62.121 319.957 62.0615 319.844 61.9425C319.73 61.8178 319.674 61.6705 319.674 61.5005C319.674 61.3305 319.73 61.186 319.844 61.067C319.963 60.9423 320.127 60.88 320.337 60.88C320.546 60.88 320.708 60.9395 320.821 61.0585C320.94 61.1775 321 61.3248 321 61.5005C321 61.6762 320.943 61.8235 320.83 61.9425C320.716 62.0615 320.552 62.121 320.337 62.121ZM323.304 67H322.046V62.92H323.024L323.168 63.43C323.35 63.243 323.554 63.0957 323.78 62.988C324.007 62.8803 324.253 62.8265 324.52 62.8265C324.979 62.8265 325.33 62.9512 325.574 63.2005C325.817 63.4498 325.939 63.8153 325.939 64.297V67H324.681V64.4245C324.681 64.2262 324.633 64.0703 324.537 63.957C324.446 63.838 324.31 63.7785 324.129 63.7785C323.993 63.7785 323.848 63.8182 323.695 63.8975C323.548 63.9768 323.418 64.0817 323.304 64.212V67ZM330.608 65.3255H327.973V65.3595C327.973 65.6428 328.083 65.8497 328.304 65.98C328.525 66.1103 328.803 66.1755 329.137 66.1755C329.369 66.1755 329.573 66.1528 329.749 66.1075C329.925 66.0622 330.072 66.0083 330.191 65.946L330.421 66.813C330.268 66.8867 330.072 66.9518 329.834 67.0085C329.602 67.0652 329.316 67.0935 328.976 67.0935C328.67 67.0935 328.378 67.0538 328.1 66.9745C327.828 66.8895 327.587 66.762 327.378 66.592C327.174 66.422 327.009 66.2067 326.885 65.946C326.766 65.6853 326.706 65.3737 326.706 65.011C326.706 64.688 326.754 64.3933 326.851 64.127C326.953 63.855 327.094 63.6227 327.276 63.43C327.457 63.2373 327.672 63.09 327.922 62.988C328.177 62.8803 328.457 62.8265 328.763 62.8265C329.324 62.8265 329.772 62.9965 330.106 63.3365C330.44 63.6765 330.608 64.161 330.608 64.79V65.3255ZM329.324 64.467C329.324 64.3707 329.313 64.2772 329.29 64.1865C329.267 64.0958 329.231 64.0165 329.18 63.9485C329.134 63.8748 329.072 63.8182 328.993 63.7785C328.919 63.7332 328.828 63.7105 328.721 63.7105C328.522 63.7105 328.358 63.7813 328.228 63.923C328.097 64.059 328.021 64.246 327.998 64.484L329.324 64.467ZM333.901 63.9655C333.748 63.8918 333.586 63.8352 333.416 63.7955C333.246 63.7502 333.082 63.7275 332.923 63.7275C332.776 63.7275 332.657 63.753 332.566 63.804C332.475 63.855 332.43 63.9258 332.43 64.0165C332.43 64.1128 332.473 64.195 332.558 64.263C332.648 64.3253 332.824 64.3933 333.085 64.467L333.34 64.5435C333.68 64.6455 333.937 64.7957 334.113 64.994C334.289 65.1867 334.377 65.436 334.377 65.742C334.377 65.946 334.334 66.133 334.249 66.303C334.164 66.4673 334.042 66.609 333.884 66.728C333.731 66.847 333.544 66.9377 333.323 67C333.107 67.0623 332.866 67.0935 332.6 67.0935C332.311 67.0935 332.053 67.068 331.827 67.017C331.606 66.966 331.399 66.8923 331.206 66.796L331.478 65.8865C331.642 65.9715 331.812 66.0423 331.988 66.099C332.169 66.15 332.354 66.1755 332.541 66.1755C332.756 66.1755 332.906 66.1443 332.991 66.082C333.082 66.0197 333.127 65.946 333.127 65.861C333.127 65.81 333.116 65.7675 333.093 65.7335C333.076 65.6938 333.042 65.657 332.991 65.623C332.94 65.589 332.866 65.5578 332.77 65.5295C332.679 65.4955 332.56 65.4558 332.413 65.4105L332.15 65.334C331.815 65.2263 331.572 65.079 331.419 64.892C331.266 64.6993 331.189 64.4415 331.189 64.1185C331.189 63.9315 331.226 63.7615 331.3 63.6085C331.373 63.4498 331.478 63.3138 331.614 63.2005C331.756 63.0815 331.926 62.9908 332.124 62.9285C332.328 62.8605 332.56 62.8265 332.821 62.8265C333.082 62.8265 333.323 62.852 333.544 62.903C333.77 62.9483 333.974 63.0135 334.156 63.0985L333.901 63.9655ZM337.677 63.9655C337.524 63.8918 337.363 63.8352 337.193 63.7955C337.023 63.7502 336.859 63.7275 336.7 63.7275C336.553 63.7275 336.434 63.753 336.343 63.804C336.252 63.855 336.207 63.9258 336.207 64.0165C336.207 64.1128 336.249 64.195 336.334 64.263C336.425 64.3253 336.601 64.3933 336.861 64.467L337.116 64.5435C337.456 64.6455 337.714 64.7957 337.89 64.994C338.066 65.1867 338.153 65.436 338.153 65.742C338.153 65.946 338.111 66.133 338.026 66.303C337.941 66.4673 337.819 66.609 337.66 66.728C337.507 66.847 337.32 66.9377 337.099 67C336.884 67.0623 336.643 67.0935 336.377 67.0935C336.088 67.0935 335.83 67.068 335.603 67.017C335.382 66.966 335.176 66.8923 334.983 66.796L335.255 65.8865C335.419 65.9715 335.589 66.0423 335.765 66.099C335.946 66.15 336.13 66.1755 336.317 66.1755C336.533 66.1755 336.683 66.1443 336.768 66.082C336.859 66.0197 336.904 65.946 336.904 65.861C336.904 65.81 336.893 65.7675 336.87 65.7335C336.853 65.6938 336.819 65.657 336.768 65.623C336.717 65.589 336.643 65.5578 336.547 65.5295C336.456 65.4955 336.337 65.4558 336.19 65.4105L335.926 65.334C335.592 65.2263 335.348 65.079 335.195 64.892C335.042 64.6993 334.966 64.4415 334.966 64.1185C334.966 63.9315 335.003 63.7615 335.076 63.6085C335.15 63.4498 335.255 63.3138 335.391 63.2005C335.533 63.0815 335.703 62.9908 335.901 62.9285C336.105 62.8605 336.337 62.8265 336.598 62.8265C336.859 62.8265 337.099 62.852 337.32 62.903C337.547 62.9483 337.751 63.0135 337.932 63.0985L337.677 63.9655ZM342.503 61.645H343.88L345.81 67H344.441L344.076 65.8525H342.274L341.908 67H340.557L342.503 61.645ZM342.554 64.9175H343.778L343.574 64.2715C343.506 64.0618 343.436 63.838 343.362 63.6C343.294 63.362 343.234 63.1438 343.183 62.9455H343.166C343.11 63.1438 343.045 63.3592 342.971 63.5915C342.897 63.8238 342.826 64.0505 342.758 64.2715L342.554 64.9175ZM348.66 66.1755C348.842 66.1755 349 66.1528 349.136 66.1075C349.278 66.0565 349.386 66.0112 349.459 65.9715L349.689 66.8215C349.592 66.8782 349.431 66.9377 349.204 67C348.978 67.0623 348.728 67.0935 348.456 67.0935C348.139 67.0935 347.844 67.0482 347.572 66.9575C347.306 66.8668 347.074 66.7337 346.875 66.558C346.683 66.3767 346.53 66.1557 346.416 65.895C346.303 65.6287 346.246 65.3227 346.246 64.977C346.246 64.6597 346.3 64.3707 346.408 64.11C346.515 63.8437 346.668 63.617 346.867 63.43C347.065 63.2373 347.3 63.09 347.572 62.988C347.844 62.8803 348.147 62.8265 348.482 62.8265C348.657 62.8265 348.847 62.8463 349.051 62.886C349.261 62.9257 349.473 63.0022 349.689 63.1155L349.425 63.974C349.312 63.906 349.184 63.8493 349.043 63.804C348.907 63.7587 348.768 63.736 348.626 63.736C348.298 63.736 348.031 63.838 347.827 64.042C347.623 64.2403 347.521 64.5407 347.521 64.943C347.521 65.1697 347.555 65.3623 347.623 65.521C347.691 65.674 347.779 65.8015 347.887 65.9035C347.994 65.9998 348.116 66.0707 348.252 66.116C348.388 66.1557 348.524 66.1755 348.66 66.1755ZM353.027 62.92H354.285V67H353.359L353.231 66.558H353.197C353.141 66.6147 353.073 66.6742 352.993 66.7365C352.914 66.7988 352.818 66.8583 352.704 66.915C352.597 66.966 352.472 67.0085 352.33 67.0425C352.189 67.0765 352.027 67.0935 351.846 67.0935C351.404 67.0935 351.058 66.9717 350.809 66.728C350.56 66.4843 350.435 66.1245 350.435 65.6485V62.92H351.693V65.5465C351.693 65.7562 351.744 65.912 351.846 66.014C351.954 66.1103 352.09 66.1585 352.254 66.1585C352.452 66.1585 352.614 66.1188 352.738 66.0395C352.869 65.9545 352.965 65.8667 353.027 65.776V62.92ZM356.532 67H355.274V62.92H356.252L356.396 63.43C356.578 63.243 356.776 63.0957 356.991 62.988C357.207 62.8803 357.447 62.8265 357.714 62.8265C358.297 62.8265 358.697 63.0333 358.912 63.447C359.094 63.26 359.298 63.1098 359.524 62.9965C359.757 62.8832 360.003 62.8265 360.264 62.8265C360.7 62.8265 361.037 62.9455 361.275 63.1835C361.513 63.4158 361.632 63.7587 361.632 64.212V67H360.374V64.3395C360.374 64.1695 360.329 64.0335 360.238 63.9315C360.148 63.8295 360.026 63.7785 359.873 63.7785C359.737 63.7785 359.595 63.8125 359.448 63.8805C359.3 63.9485 359.179 64.0477 359.082 64.178V67H357.824V64.3395C357.824 64.1695 357.779 64.0335 357.688 63.9315C357.598 63.8295 357.476 63.7785 357.323 63.7785C357.187 63.7785 357.045 63.8182 356.898 63.8975C356.75 63.9768 356.629 64.0817 356.532 64.212V67ZM366.301 65.3255H363.666V65.3595C363.666 65.6428 363.776 65.8497 363.997 65.98C364.218 66.1103 364.496 66.1755 364.83 66.1755C365.063 66.1755 365.267 66.1528 365.442 66.1075C365.618 66.0622 365.765 66.0083 365.884 65.946L366.114 66.813C365.961 66.8867 365.765 66.9518 365.527 67.0085C365.295 67.0652 365.009 67.0935 364.669 67.0935C364.363 67.0935 364.071 67.0538 363.793 66.9745C363.521 66.8895 363.281 66.762 363.071 66.592C362.867 66.422 362.703 66.2067 362.578 65.946C362.459 65.6853 362.399 65.3737 362.399 65.011C362.399 64.688 362.448 64.3933 362.544 64.127C362.646 63.855 362.788 63.6227 362.969 63.43C363.15 63.2373 363.366 63.09 363.615 62.988C363.87 62.8803 364.15 62.8265 364.456 62.8265C365.017 62.8265 365.465 62.9965 365.799 63.3365C366.134 63.6765 366.301 64.161 366.301 64.79V65.3255ZM365.017 64.467C365.017 64.3707 365.006 64.2772 364.983 64.1865C364.961 64.0958 364.924 64.0165 364.873 63.9485C364.828 63.8748 364.765 63.8182 364.686 63.7785C364.612 63.7332 364.522 63.7105 364.414 63.7105C364.216 63.7105 364.051 63.7813 363.921 63.923C363.791 64.059 363.714 64.246 363.691 64.484L365.017 64.467ZM368.336 67H367.078V62.92H368.055L368.2 63.43C368.381 63.243 368.585 63.0957 368.812 62.988C369.039 62.8803 369.285 62.8265 369.551 62.8265C370.01 62.8265 370.362 62.9512 370.605 63.2005C370.849 63.4498 370.971 63.8153 370.971 64.297V67H369.713V64.4245C369.713 64.2262 369.665 64.0703 369.568 63.957C369.478 63.838 369.342 63.7785 369.16 63.7785C369.024 63.7785 368.88 63.8182 368.727 63.8975C368.58 63.9768 368.449 64.0817 368.336 64.212V67ZM371.848 66.3455C371.848 66.1302 371.919 65.9545 372.061 65.8185C372.208 65.6768 372.381 65.606 372.579 65.606C372.778 65.606 372.948 65.6768 373.089 65.8185C373.231 65.9545 373.302 66.1302 373.302 66.3455C373.302 66.5778 373.231 66.762 373.089 66.898C372.948 67.0283 372.778 67.0935 372.579 67.0935C372.381 67.0935 372.208 67.0283 372.061 66.898C371.919 66.762 371.848 66.5778 371.848 66.3455Z" fill="#E1C196"/>
<defs>
<filter id="filter0_d_715_45" x="0" y="15.8516" width="27.5996" height="27.5996" filterUnits="userSpaceOnUse" color-interpolation-filters="sRGB">
<feFlood flood-opacity="0" result="BackgroundImageFix"/>
<feColorMatrix in="SourceAlpha" type="matrix" values="0 0 0 0 0 0 0 0 0 0 0 0 0 0 0 0 0 0 127 0" result="hardAlpha"/>
<feOffset dx="5"/>
<feGaussianBlur stdDeviation="4"/>
<feComposite in2="hardAlpha" operator="out"/>
<feColorMatrix type="matrix" values="0 0 0 0 0 0 0 0 0 0 0 0 0 0 0 0 0 0 0.25 0"/>
<feBlend mode="normal" in2="BackgroundImageFix" result="effect1_dropShadow_715_45"/>
<feBlend mode="normal" in="SourceGraphic" in2="effect1_dropShadow_715_45" result="shape"/>
</filter>
</defs>
</svg>
