<svg width="713" height="135" viewBox="0 0 713 135" fill="none" xmlns="http://www.w3.org/2000/svg">
<path d="M359.2 57.3759C359.1 62.5759 358.8 67.6758 358.2 72.6758C358.9 68.9758 359.3 65.1758 359.3 61.2758C359.3 59.8758 359.2 58.5759 359.2 57.3759Z" fill="#E1C196"/>
<path d="M13.8 70.0758C21.4215 70.0758 27.6 63.8973 27.6 56.2758C27.6 48.6543 21.4215 42.4758 13.8 42.4758C6.17846 42.4758 0 48.6543 0 56.2758C0 63.8973 6.17846 70.0758 13.8 70.0758Z" fill="#E1C196"/>
<path d="M140.1 76.8759V121.876H122.4V94.8759H98.9V76.8759H140.1Z" fill="#F5F5F5"/>
<path d="M192.2 65.8759H170.7V121.776H192.2V65.8759Z" fill="#F5F5F5"/>
<path d="M227.2 0.875854L202 40.0759L192.2 55.4759V63.3759H170.7V55.4759L160.9 40.0759L135.7 0.875854H159L181.5 33.5759L203.9 0.875854H227.2Z" fill="#F5F5F5"/>
<path d="M234.4 101.476H194.9V121.776H234.4V101.476Z" fill="#F5F5F5"/>
<path d="M168.4 69.2759H66.4999C68.7999 81.1759 77 92.3759 93.2 98.8759C97.2 100.476 101.6 101.776 106.6 102.776L100.8 114.476L97.5999 121.076C74.2999 121.076 58.6999 108.076 50.8999 90.6759C47.8999 84.0759 46.0999 76.7759 45.2999 69.3759H30.7C31.7 68.1759 35.5999 63.5759 35.5999 56.4759C35.5999 49.3759 31.7 44.7759 30.7 43.5759H160.4L168.4 56.3759V69.2759V69.2759Z" fill="#E1C196"/>
<path d="M134.2 7.67588L131.2 28.8759C105.3 9.7759 80.9001 20.7759 71.2001 40.7759H48.3C56.2 9.87589 84.8001 -12.4241 134.2 7.67588Z" fill="#F5F5F5"/>
<path d="M354.2 37.3759C351.2 30.0759 346.7 23.4759 340.8 17.8759C334.9 12.2759 328.2 7.87591 320.6 4.77591C316.3 2.97591 311.9 1.77592 307.4 0.975922C304 0.375922 300.6 0.0759277 297.1 0.0759277C289 0.0759277 281.1 1.57591 273.4 4.77591C265.7 7.87591 259 12.2759 253.2 17.8759C247.3 23.5759 242.8 30.0759 239.7 37.3759C238.9 39.2759 238.2 41.2759 237.6 43.2759H202.7L194.5 56.2759V69.3759H235.7C236.5 75.4759 238.3 81.2759 240.9 86.7759C244.8 94.8759 250.3 101.776 257.6 107.576C263.3 112.076 269.5 115.476 276.2 117.876C283 120.276 289.9 121.476 297 121.476C297.9 121.476 298.9 121.476 299.8 121.376C306.9 121.076 313.7 119.576 320.4 116.876C327.9 113.776 334.7 109.376 340.7 103.676C346.5 98.0759 350.9 91.5759 354 84.1759C355.6 80.3759 356.7 76.4759 357.5 72.4759C358.1 67.2759 358.4 61.9759 358.5 56.6759C358.3 49.9759 356.8 43.4759 354.2 37.3759ZM323.1 88.4759C320 91.7759 316.6 94.3759 312.7 96.1759C308 98.3759 302.8 99.4759 297.1 99.4759C286.4 99.4759 277.6 95.7759 270.8 88.4759C266.8 84.1759 264 79.2759 262.4 73.6759H245.2V65.9759H260.9C260.8 65.0759 260.7 64.0759 260.7 63.0759H245.3V55.3759H261C261.1 54.3759 261.2 53.4759 261.4 52.4759H245.3V44.7759H263.5C265.2 40.4759 267.7 36.5759 271 32.9759C277.9 25.4759 286.6 21.7759 297.1 21.7759C304.7 21.7759 311.3 23.7759 317.1 27.7759C319.2 29.2759 321.2 30.9759 323 32.9759C329.9 40.4759 333.4 49.6759 333.4 60.6759C333.3 71.8759 329.9 81.0759 323.1 88.4759Z" fill="#E1C196"/>
<path d="M398.1 110.676H712.5" stroke="#E1C196" stroke-miterlimit="10"/>
<path d="M427.6 40.7759C424 42.8759 419.9 43.8759 415.4 43.8759C410.2 43.8759 406 42.1759 402.8 38.8759C399.6 35.5759 398 31.0759 398 25.5759C398 19.9759 399.8 15.3759 403.3 11.6759C406.9 8.07587 411.4 6.27588 416.8 6.27588C420.8 6.27588 424.1 6.87587 426.8 8.17587V12.8759C423.9 10.9759 420.4 10.0759 416.4 10.0759C412.3 10.0759 409 11.4759 406.4 14.2759C403.8 17.0759 402.5 20.6759 402.5 25.1759C402.5 29.7759 403.7 33.3759 406.1 35.9759C408.5 38.5759 411.8 39.8759 415.9 39.8759C418.7 39.8759 421.2 39.2759 423.3 38.1759V27.9759H415.3V24.0759H427.5V40.7759H427.6Z" fill="#F5F5F5" stroke="#F5F5F5" stroke-width="0.5" stroke-miterlimit="10"/>
<path d="M456.3 31.2759H438C438.1 34.1759 438.8 36.3759 440.3 37.9759C441.8 39.5759 443.8 40.3759 446.4 40.3759C449.3 40.3759 452 39.3759 454.5 37.4759V41.3759C452.2 43.0759 449.2 43.8759 445.5 43.8759C441.8 43.8759 439 42.6759 436.9 40.3759C434.8 38.0759 433.8 34.6759 433.8 30.4759C433.8 26.4759 434.9 23.1759 437.2 20.5759C439.5 18.0759 442.3 16.7759 445.7 16.7759C449.1 16.7759 451.7 17.8759 453.6 20.0759C455.5 22.2759 456.4 25.2759 456.4 29.1759V31.2759H456.3ZM452.1 27.7759C452.1 25.3759 451.5 23.4759 450.4 22.1759C449.3 20.8759 447.7 20.1759 445.6 20.1759C443.6 20.1759 442 20.8759 440.6 22.2759C439.2 23.6759 438.4 25.4759 438.1 27.7759H452.1Z" fill="#F5F5F5" stroke="#F5F5F5" stroke-width="0.5" stroke-miterlimit="10"/>
<path d="M474.7 42.9759C473.7 43.4759 472.4 43.7759 470.8 43.7759C466.3 43.7759 464 41.2759 464 36.1759V20.7759H459.5V17.2759H464V10.9759L468.2 9.6759V17.3759H474.7V20.8759H468.2V35.4759C468.2 37.1759 468.5 38.4759 469.1 39.1759C469.7 39.8759 470.7 40.2759 472 40.2759C473 40.2759 474 39.9759 474.7 39.3759V42.9759Z" fill="#F5F5F5" stroke="#F5F5F5" stroke-width="0.5" stroke-miterlimit="10"/>
<path d="M501.8 43.1758H497.6V28.3758C497.6 22.8758 495.6 20.0758 491.6 20.0758C489.5 20.0758 487.8 20.8758 486.4 22.3758C485 23.9758 484.4 25.8758 484.4 28.2758V43.0758H480.2V17.0758H484.4V21.3758H484.5C486.5 18.0758 489.3 16.4758 493 16.4758C495.8 16.4758 498 17.3758 499.5 19.1758C501 20.9758 501.8 23.6758 501.8 27.0758V43.1758V43.1758Z" fill="#F5F5F5" stroke="#F5F5F5" stroke-width="0.5" stroke-miterlimit="10"/>
<path d="M530.5 31.2759H512.2C512.3 34.1759 513 36.3759 514.5 37.9759C516 39.5759 518 40.3759 520.6 40.3759C523.5 40.3759 526.2 39.3759 528.7 37.4759V41.3759C526.4 43.0759 523.4 43.8759 519.7 43.8759C516 43.8759 513.2 42.6759 511.1 40.3759C509 38.0759 508 34.6759 508 30.4759C508 26.4759 509.1 23.1759 511.4 20.5759C513.7 18.0759 516.5 16.7759 519.9 16.7759C523.3 16.7759 525.9 17.8759 527.8 20.0759C529.7 22.2759 530.6 25.2759 530.6 29.1759V31.2759H530.5ZM526.2 27.7759C526.2 25.3759 525.6 23.4759 524.5 22.1759C523.4 20.8759 521.8 20.1759 519.7 20.1759C517.7 20.1759 516.1 20.8759 514.7 22.2759C513.3 23.6759 512.5 25.4759 512.2 27.7759H526.2Z" fill="#F5F5F5" stroke="#F5F5F5" stroke-width="0.5" stroke-miterlimit="10"/>
<path d="M548.8 42.9759C547.8 43.4759 546.5 43.7759 544.9 43.7759C540.4 43.7759 538.1 41.2759 538.1 36.1759V20.7759H533.6V17.2759H538.1V10.9759L542.3 9.6759V17.3759H548.8V20.8759H542.3V35.4759C542.3 37.1759 542.6 38.4759 543.2 39.1759C543.8 39.8759 544.8 40.2759 546.1 40.2759C547.1 40.2759 548.1 39.9759 548.8 39.3759V42.9759V42.9759Z" fill="#F5F5F5" stroke="#F5F5F5" stroke-width="0.5" stroke-miterlimit="10"/>
<path d="M592.7 6.87585L580.7 29.7758V43.1758H576.5V29.8759L564.8 6.87585H569.6L577.7 23.2758C577.8 23.4758 578.1 24.1759 578.6 25.4759H578.7C578.9 24.8759 579.2 24.1758 579.7 23.2758L588.2 6.87585H592.7V6.87585Z" fill="#F5F5F5" stroke="#F5F5F5" stroke-width="0.5" stroke-miterlimit="10"/>
<path d="M610.8 43.1759H606.6V39.0759H606.5C604.7 42.1759 602 43.7759 598.5 43.7759C595.9 43.7759 593.9 43.0759 592.4 41.6759C590.9 40.2759 590.2 38.4759 590.2 36.2759C590.2 31.4759 593.1 28.5759 598.8 27.7759L606.6 26.6759C606.6 22.2759 604.8 20.0759 601.3 20.0759C598.2 20.0759 595.4 21.1759 592.8 23.2759V18.9759C595.4 17.3759 598.3 16.5759 601.6 16.5759C607.7 16.5759 610.7 19.7759 610.7 26.2759V43.1759H610.8ZM606.6 30.0759L600.3 30.9759C598.4 31.2759 596.9 31.6759 595.9 32.3759C594.9 33.0759 594.4 34.2759 594.4 35.9759C594.4 37.2759 594.9 38.2759 595.8 39.0759C596.7 39.8759 597.9 40.2759 599.4 40.2759C601.5 40.2759 603.2 39.5759 604.5 38.0759C605.8 36.5759 606.5 34.7759 606.5 32.5759V30.0759H606.6Z" fill="#F5F5F5" stroke="#F5F5F5" stroke-width="0.5" stroke-miterlimit="10"/>
<path d="M651.3 17.2759L643.5 43.2759H639.2L633.9 24.6759C633.7 23.9759 633.6 23.1759 633.5 22.2759H633.4C633.3 22.8759 633.2 23.6759 632.9 24.6759L627.1 43.2759H622.9L615 17.2759H619.4L624.8 36.7759C625 37.3759 625.1 38.1759 625.2 39.0759H625.4C625.5 38.3759 625.6 37.5759 625.9 36.6759L631.9 17.1759H635.7L641.1 36.7759C641.3 37.3759 641.4 38.1759 641.5 39.0759H641.7C641.7 38.3759 641.9 37.6759 642.1 36.7759L647.4 17.1759H651.3V17.2759Z" fill="#F5F5F5" stroke="#F5F5F5" stroke-width="0.5" stroke-miterlimit="10"/>
<path d="M677.7 43.1759H671.9L660.4 30.6759H660.3V43.1759H656.1V4.77588H660.3V29.1759H660.4L671.3 17.2759H676.7L664.7 29.7759L677.7 43.1759Z" fill="#F5F5F5" stroke="#F5F5F5" stroke-width="0.5" stroke-miterlimit="10"/>
<path d="M700.5 43.1759H696.3V39.0759H696.2C694.4 42.1759 691.7 43.7759 688.2 43.7759C685.6 43.7759 683.6 43.0759 682.1 41.6759C680.6 40.2759 679.9 38.4759 679.9 36.2759C679.9 31.4759 682.8 28.5759 688.5 27.7759L696.3 26.6759C696.3 22.2759 694.5 20.0759 691 20.0759C687.9 20.0759 685.1 21.1759 682.5 23.2759V18.9759C685.1 17.3759 688 16.5759 691.3 16.5759C697.4 16.5759 700.4 19.7759 700.4 26.2759V43.1759H700.5ZM696.3 30.0759L690 30.9759C688.1 31.2759 686.6 31.6759 685.6 32.3759C684.6 33.0759 684.1 34.2759 684.1 35.9759C684.1 37.2759 684.6 38.2759 685.5 39.0759C686.4 39.8759 687.6 40.2759 689.1 40.2759C691.2 40.2759 692.9 39.5759 694.2 38.0759C695.5 36.6759 696.2 34.7759 696.2 32.5759V30.0759H696.3Z" fill="#F5F5F5" stroke="#F5F5F5" stroke-width="0.5" stroke-miterlimit="10"/>
<path d="M712.5 43.1759H708.3V4.77588H712.5V43.1759Z" fill="#F5F5F5" stroke="#F5F5F5" stroke-width="0.5" stroke-miterlimit="10"/>
<path d="M414.2 86.9758H399.4V58.4758H402.7V83.9758H414.2V86.9758Z" fill="#F5F5F5" stroke="#F5F5F5" stroke-width="0.5" stroke-miterlimit="10"/>
<path d="M432.7 86.9759H429.4V83.7759H429.3C427.9 86.1759 425.8 87.4759 423 87.4759C421 87.4759 419.4 86.9759 418.2 85.8759C417 84.7759 416.5 83.3759 416.5 81.5759C416.5 77.7759 418.7 75.5759 423.2 74.9759L429.3 74.0759C429.3 70.5759 427.9 68.8759 425.1 68.8759C422.6 68.8759 420.4 69.6759 418.5 71.3759V68.0759C420.5 66.7759 422.8 66.1759 425.4 66.1759C430.2 66.1759 432.6 68.6759 432.6 73.7759V86.9759H432.7ZM429.4 76.6759L424.5 77.3759C423 77.5759 421.8 77.9759 421.1 78.4759C420.3 78.9759 419.9 79.9759 419.9 81.3759C419.9 82.3759 420.3 83.1759 421 83.7759C421.7 84.3759 422.7 84.6759 423.8 84.6759C425.4 84.6759 426.8 84.0759 427.8 82.9759C428.9 81.8759 429.4 80.3759 429.4 78.6759V76.6759Z" fill="#F5F5F5" stroke="#F5F5F5" stroke-width="0.5" stroke-miterlimit="10"/>
<path d="M464.5 66.6758L458.4 87.0758H455L450.8 72.4758C450.6 71.8758 450.5 71.2758 450.5 70.5758H450.4C450.4 71.0758 450.2 71.6758 450 72.3758L445.4 86.9758H442.1L435.9 66.5758H439.3L443.5 81.8758C443.6 82.3758 443.7 82.9758 443.8 83.6758H444C444 83.0758 444.2 82.4758 444.4 81.7758L449.1 66.4758H452.1L456.3 81.8758C456.4 82.3758 456.5 82.9758 456.6 83.6758H456.8C456.8 83.1758 456.9 82.5758 457.1 81.8758L461.2 66.4758H464.5V66.6758Z" fill="#F5F5F5" stroke="#F5F5F5" stroke-width="0.5" stroke-miterlimit="10"/>
<path d="M491.4 87.4758C487.4 87.4758 484.1 86.1758 481.7 83.4758C479.3 80.7758 478 77.3758 478 73.0758C478 68.4758 479.2 64.8758 481.7 62.0758C484.2 59.2758 487.6 57.9758 491.8 57.9758C495.7 57.9758 498.9 59.2758 501.3 61.9758C503.7 64.6758 504.9 68.0758 504.9 72.3758C504.9 77.0758 503.7 80.6758 501.2 83.3758C498.8 86.1758 495.5 87.4758 491.4 87.4758ZM491.6 60.9758C488.6 60.9758 486.2 62.0758 484.3 64.1758C482.4 66.3758 481.5 69.1758 481.5 72.6758C481.5 76.1758 482.4 78.9758 484.2 81.1758C486 83.2758 488.4 84.3758 491.3 84.3758C494.4 84.3758 496.9 83.3758 498.7 81.2758C500.5 79.1758 501.4 76.3758 501.4 72.6758C501.4 68.8758 500.5 65.9758 498.8 63.9758C497.1 62.0758 494.7 60.9758 491.6 60.9758Z" fill="#F5F5F5" stroke="#F5F5F5" stroke-width="0.5" stroke-miterlimit="10"/>
<path d="M520.2 59.6758C519.6 59.2758 518.8 59.1758 518 59.1758C515.7 59.1758 514.6 60.5759 514.6 63.4759V66.5759H519.4V69.3759H514.6V86.9759H511.4V69.3759H507.9V66.5759H511.4V63.3759C511.4 61.2759 512 59.5758 513.2 58.2758C514.4 57.0758 516 56.3759 517.8 56.3759C518.8 56.3759 519.6 56.4758 520.2 56.7758V59.6758V59.6758Z" fill="#F5F5F5" stroke="#F5F5F5" stroke-width="0.5" stroke-miterlimit="10"/>
<path d="M533 59.6758C532.4 59.2758 531.6 59.1758 530.8 59.1758C528.5 59.1758 527.4 60.5759 527.4 63.4759V66.5759H532.2V69.3759H527.4V86.9759H524.2V69.3759H520.7V66.5759H524.2V63.3759C524.2 61.2759 524.8 59.5758 526 58.2758C527.2 57.0758 528.8 56.3759 530.6 56.3759C531.6 56.3759 532.4 56.4758 533 56.7758V59.6758V59.6758Z" fill="#F5F5F5" stroke="#F5F5F5" stroke-width="0.5" stroke-miterlimit="10"/>
<path d="M537.3 61.4759C536.7 61.4759 536.2 61.2759 535.8 60.8759C535.4 60.4759 535.2 59.9759 535.2 59.3759C535.2 58.7759 535.4 58.2759 535.8 57.8759C536.2 57.4759 536.7 57.2759 537.3 57.2759C537.9 57.2759 538.4 57.4759 538.8 57.8759C539.2 58.2759 539.4 58.7759 539.4 59.3759C539.4 59.9759 539.2 60.4759 538.8 60.8759C538.4 61.2759 537.9 61.4759 537.3 61.4759ZM538.9 86.9759H535.6V66.5759H538.9V86.9759Z" fill="#F5F5F5" stroke="#F5F5F5" stroke-width="0.5" stroke-miterlimit="10"/>
<path d="M559.4 86.0759C557.8 86.9759 556 87.4759 553.8 87.4759C550.9 87.4759 548.6 86.5759 546.8 84.6759C545 82.7759 544.1 80.3759 544.1 77.2759C544.1 73.8759 545.1 71.1759 547 69.1759C548.9 67.1759 551.5 66.0759 554.7 66.0759C556.5 66.0759 558.1 66.3759 559.4 67.0759V70.3759C557.9 69.2759 556.3 68.7759 554.5 68.7759C552.4 68.7759 550.7 69.4759 549.4 70.9759C548.1 72.4759 547.4 74.4759 547.4 76.8759C547.4 79.2759 548 81.1759 549.3 82.4759C550.6 83.8759 552.2 84.5759 554.3 84.5759C556.1 84.5759 557.7 83.9759 559.3 82.7759V86.0759H559.4Z" fill="#F5F5F5" stroke="#F5F5F5" stroke-width="0.5" stroke-miterlimit="10"/>
<path d="M580.7 77.6759H566.3C566.4 79.9759 567 81.6759 568.1 82.9759C569.3 84.1759 570.9 84.7759 572.9 84.7759C575.2 84.7759 577.3 83.9759 579.2 82.4759V85.5759C577.4 86.8759 575 87.4759 572.1 87.4759C569.2 87.4759 567 86.5759 565.3 84.6759C563.6 82.7759 562.8 80.1759 562.8 76.8759C562.8 73.6759 563.7 71.0759 565.5 69.1759C567.3 67.2759 569.5 66.1759 572.2 66.1759C574.9 66.1759 576.9 67.0759 578.4 68.7759C579.9 70.4759 580.6 72.8759 580.6 75.9759V77.6759H580.7ZM577.4 74.8759C577.4 72.9759 576.9 71.5759 576 70.4759C575.1 69.4759 573.9 68.8759 572.3 68.8759C570.8 68.8759 569.5 69.4759 568.4 70.5759C567.3 71.6759 566.7 73.0759 566.4 74.8759H577.4Z" fill="#F5F5F5" stroke="#F5F5F5" stroke-width="0.5" stroke-miterlimit="10"/>
<path d="M400.9 122.176H402.1V130.476H406.1V131.476H400.9V122.176Z" fill="#F5F5F5"/>
<path d="M413.2 128.076C413.2 130.576 411.5 131.576 409.9 131.576C408.1 131.576 406.7 130.276 406.7 128.176C406.7 125.976 408.2 124.676 410 124.676C411.9 124.676 413.2 126.076 413.2 128.076ZM407.9 128.176C407.9 129.676 408.7 130.776 409.9 130.776C411.1 130.776 411.9 129.676 411.9 128.176C411.9 127.076 411.3 125.576 409.9 125.576C408.5 125.576 407.9 126.876 407.9 128.176Z" fill="#F5F5F5"/>
<path d="M419.5 131.276C419.2 131.476 418.5 131.676 417.6 131.676C415.6 131.676 414.3 130.276 414.3 128.276C414.3 126.176 415.7 124.776 417.9 124.776C418.6 124.776 419.2 124.976 419.6 125.076L419.3 125.976C419 125.776 418.6 125.676 417.9 125.676C416.4 125.676 415.5 126.776 415.5 128.176C415.5 129.676 416.5 130.676 417.8 130.676C418.5 130.676 418.9 130.476 419.3 130.376L419.5 131.276Z" fill="#F5F5F5"/>
<path d="M424.6 131.476L424.5 130.676C424.1 131.176 423.4 131.676 422.5 131.676C421.2 131.676 420.5 130.776 420.5 129.776C420.5 128.176 421.9 127.276 424.5 127.276V127.176C424.5 126.576 424.3 125.676 423 125.676C422.4 125.676 421.7 125.876 421.3 126.176L421 125.376C421.5 124.976 422.3 124.776 423.2 124.776C425.2 124.776 425.7 126.176 425.7 127.476V129.976C425.7 130.576 425.7 131.076 425.8 131.576H424.6V131.476ZM424.4 128.076C423.1 128.076 421.6 128.276 421.6 129.576C421.6 130.376 422.1 130.776 422.7 130.776C423.6 130.776 424.1 130.176 424.3 129.676C424.3 129.576 424.4 129.376 424.4 129.276V128.076V128.076Z" fill="#F5F5F5"/>
<path d="M427.5 121.676H428.7V131.476H427.5V121.676Z" fill="#F5F5F5"/>
<path d="M438.5 127.176H434.9V130.476H438.9V131.476H433.7V122.176H438.7V123.176H434.9V126.076H438.5V127.176Z" fill="#F5F5F5"/>
<path d="M441 124.776L441.9 126.176C442.1 126.576 442.4 126.876 442.6 127.276C442.8 126.876 443 126.576 443.3 126.176L444.2 124.776H445.5L443.2 127.976L445.5 131.376H444.1L443.1 129.876C442.8 129.476 442.6 129.076 442.4 128.676C442.2 129.076 441.9 129.476 441.7 129.876L440.7 131.376H439.4L441.8 127.976L439.5 124.676H441V124.776Z" fill="#F5F5F5"/>
<path d="M446.8 126.976C446.8 126.076 446.8 125.476 446.7 124.776H447.8L447.9 125.876C448.4 125.076 449.2 124.576 450.3 124.576C451.9 124.576 453.1 125.976 453.1 127.976C453.1 130.376 451.6 131.576 450.1 131.576C449.2 131.576 448.4 131.176 448 130.576V134.176H446.8V126.976V126.976ZM448 128.776C448 128.976 448 129.076 448.1 129.276C448.3 130.076 449 130.676 449.9 130.676C451.2 130.676 451.9 129.676 451.9 128.076C451.9 126.776 451.2 125.576 449.9 125.576C449.1 125.576 448.3 126.176 448.1 127.076C448.1 127.276 448 127.376 448 127.576V128.776Z" fill="#F5F5F5"/>
<path d="M455.3 128.376C455.3 129.976 456.4 130.676 457.6 130.676C458.5 130.676 459 130.476 459.4 130.376L459.6 131.276C459.2 131.476 458.4 131.676 457.4 131.676C455.3 131.676 454.1 130.376 454.1 128.276C454.1 126.176 455.3 124.676 457.2 124.676C459.4 124.676 460 126.576 460 127.776C460 127.976 460 128.176 460 128.376H455.3ZM458.9 127.476C458.9 126.676 458.6 125.476 457.2 125.476C456 125.476 455.4 126.576 455.3 127.476H458.9Z" fill="#F5F5F5"/>
<path d="M461.5 126.876C461.5 126.076 461.5 125.376 461.4 124.776H462.5V126.076H462.6C462.9 125.176 463.6 124.576 464.4 124.576C464.5 124.576 464.6 124.576 464.7 124.576V125.676C464.6 125.676 464.5 125.676 464.3 125.676C463.4 125.676 462.8 126.276 462.7 127.276C462.7 127.476 462.6 127.676 462.6 127.876V131.476H461.5V126.876Z" fill="#F5F5F5"/>
<path d="M467.8 122.876V124.776H469.5V125.676H467.8V129.276C467.8 130.076 468 130.576 468.7 130.576C469 130.576 469.3 130.576 469.4 130.476L469.5 131.376C469.3 131.476 468.9 131.576 468.4 131.576C467.8 131.576 467.4 131.376 467.1 131.076C466.8 130.676 466.6 130.076 466.6 129.376V125.776H465.6V124.876H466.6V123.276L467.8 122.876Z" fill="#F5F5F5"/>
<path d="M472.3 122.976C472.3 123.376 472 123.676 471.5 123.676C471.1 123.676 470.8 123.376 470.8 122.976C470.8 122.576 471.1 122.176 471.6 122.176C472 122.176 472.3 122.476 472.3 122.976ZM470.9 131.476V124.776H472.1V131.476H470.9Z" fill="#F5F5F5"/>
<path d="M474 130.276C474.4 130.476 475 130.776 475.6 130.776C476.5 130.776 476.9 130.376 476.9 129.776C476.9 129.176 476.6 128.876 475.7 128.576C474.5 128.176 473.9 127.476 473.9 126.676C473.9 125.576 474.8 124.676 476.2 124.676C476.9 124.676 477.5 124.876 477.8 125.076L477.5 125.976C477.2 125.776 476.8 125.576 476.1 125.576C475.4 125.576 475 125.976 475 126.476C475 126.976 475.4 127.276 476.3 127.576C477.5 127.976 478 128.576 478 129.576C478 130.776 477.1 131.576 475.5 131.576C474.8 131.576 474.1 131.376 473.6 131.076L474 130.276Z" fill="#F5F5F5"/>
<path d="M480.3 128.376C480.3 129.976 481.4 130.676 482.6 130.676C483.5 130.676 484 130.476 484.4 130.376L484.6 131.276C484.2 131.476 483.4 131.676 482.4 131.676C480.3 131.676 479.1 130.376 479.1 128.276C479.1 126.176 480.3 124.676 482.2 124.676C484.4 124.676 485 126.576 485 127.776C485 127.976 485 128.176 485 128.376H480.3ZM483.8 127.476C483.8 126.676 483.5 125.476 482.1 125.476C480.9 125.476 480.3 126.576 480.2 127.476H483.8Z" fill="#F5F5F5"/>
<path d="M486 130.776C486 130.276 486.3 129.876 486.8 129.876C487.3 129.876 487.6 130.276 487.6 130.776C487.6 131.276 487.3 131.676 486.8 131.676C486.4 131.676 486 131.276 486 130.776Z" fill="#F5F5F5"/>
<path d="M493.3 122.176V131.476H492.1V122.176H493.3Z" fill="#F5F5F5"/>
<path d="M495.5 126.576C495.5 125.876 495.5 125.276 495.4 124.776H496.5L496.6 125.876C496.9 125.276 497.7 124.576 498.8 124.576C499.7 124.576 501.2 125.076 501.2 127.376V131.376H500V127.576C500 126.476 499.6 125.576 498.5 125.576C497.7 125.576 497.1 126.176 496.9 126.776C496.8 126.976 496.8 127.176 496.8 127.376V131.376H495.5V126.576Z" fill="#F5F5F5"/>
<path d="M504.6 122.876V124.776H506.3V125.676H504.6V129.276C504.6 130.076 504.8 130.576 505.5 130.576C505.8 130.576 506.1 130.576 506.2 130.476L506.3 131.376C506.1 131.476 505.7 131.576 505.2 131.576C504.6 131.576 504.2 131.376 503.9 131.076C503.6 130.676 503.4 130.076 503.4 129.376V125.776H502.4V124.876H503.4V123.276L504.6 122.876Z" fill="#F5F5F5"/>
<path d="M508.2 128.376C508.2 129.976 509.3 130.676 510.5 130.676C511.4 130.676 511.9 130.476 512.3 130.376L512.5 131.276C512.1 131.476 511.3 131.676 510.3 131.676C508.3 131.676 507 130.376 507 128.276C507 126.176 508.2 124.676 510.1 124.676C512.3 124.676 512.9 126.576 512.9 127.776C512.9 127.976 512.9 128.176 512.9 128.376H508.2ZM511.8 127.476C511.8 126.676 511.5 125.476 510.1 125.476C508.9 125.476 508.3 126.576 508.2 127.476H511.8Z" fill="#F5F5F5"/>
<path d="M514.5 126.876C514.5 126.076 514.5 125.376 514.4 124.776H515.5V126.076H515.6C515.9 125.176 516.6 124.576 517.4 124.576C517.5 124.576 517.6 124.576 517.7 124.576V125.676C517.6 125.676 517.5 125.676 517.3 125.676C516.4 125.676 515.8 126.276 515.7 127.276C515.7 127.476 515.6 127.676 515.6 127.876V131.476H514.5V126.876Z" fill="#F5F5F5"/>
<path d="M519 126.576C519 125.876 519 125.276 518.9 124.776H520L520.1 125.876C520.4 125.276 521.2 124.576 522.3 124.576C523.2 124.576 524.7 125.076 524.7 127.376V131.376H523.5V127.576C523.5 126.476 523.1 125.576 522 125.576C521.2 125.576 520.6 126.176 520.4 126.776C520.3 126.976 520.3 127.176 520.3 127.376V131.376H519.1V126.576H519Z" fill="#F5F5F5"/>
<path d="M530.3 131.476L530.2 130.676C529.8 131.176 529.1 131.676 528.2 131.676C526.9 131.676 526.2 130.776 526.2 129.776C526.2 128.176 527.6 127.276 530.2 127.276V127.176C530.2 126.576 530 125.676 528.7 125.676C528.1 125.676 527.4 125.876 527 126.176L526.7 125.376C527.2 124.976 528 124.776 528.9 124.776C530.9 124.776 531.4 126.176 531.4 127.476V129.976C531.4 130.576 531.4 131.076 531.5 131.576H530.3V131.476ZM530.2 128.076C528.9 128.076 527.4 128.276 527.4 129.576C527.4 130.376 527.9 130.776 528.5 130.776C529.4 130.776 529.9 130.176 530.1 129.676C530.1 129.576 530.2 129.376 530.2 129.276V128.076V128.076Z" fill="#F5F5F5"/>
<path d="M534.7 122.876V124.776H536.4V125.676H534.7V129.276C534.7 130.076 534.9 130.576 535.6 130.576C535.9 130.576 536.2 130.576 536.3 130.476L536.4 131.376C536.2 131.476 535.8 131.576 535.3 131.576C534.7 131.576 534.3 131.376 534 131.076C533.7 130.676 533.5 130.076 533.5 129.376V125.776H532.5V124.876H533.5V123.276L534.7 122.876Z" fill="#F5F5F5"/>
<path d="M539.1 122.976C539.1 123.376 538.8 123.676 538.3 123.676C537.9 123.676 537.6 123.376 537.6 122.976C537.6 122.576 537.9 122.176 538.4 122.176C538.8 122.176 539.1 122.476 539.1 122.976ZM537.8 131.476V124.776H539V131.476H537.8Z" fill="#F5F5F5"/>
<path d="M547 128.076C547 130.576 545.3 131.576 543.7 131.576C541.9 131.576 540.5 130.276 540.5 128.176C540.5 125.976 542 124.676 543.8 124.676C545.7 124.676 547 126.076 547 128.076ZM541.7 128.176C541.7 129.676 542.5 130.776 543.7 130.776C544.9 130.776 545.7 129.676 545.7 128.176C545.7 127.076 545.1 125.576 543.7 125.576C542.4 125.576 541.7 126.876 541.7 128.176Z" fill="#F5F5F5"/>
<path d="M548.5 126.576C548.5 125.876 548.5 125.276 548.4 124.776H549.5L549.6 125.876C549.9 125.276 550.7 124.576 551.8 124.576C552.7 124.576 554.2 125.076 554.2 127.376V131.376H553V127.576C553 126.476 552.6 125.576 551.5 125.576C550.7 125.576 550.1 126.176 549.9 126.776C549.8 126.976 549.8 127.176 549.8 127.376V131.376H548.5V126.576Z" fill="#F5F5F5"/>
<path d="M559.9 131.476L559.8 130.676C559.4 131.176 558.7 131.676 557.8 131.676C556.5 131.676 555.8 130.776 555.8 129.776C555.8 128.176 557.2 127.276 559.8 127.276V127.176C559.8 126.576 559.6 125.676 558.3 125.676C557.7 125.676 557 125.876 556.6 126.176L556.3 125.376C556.8 124.976 557.6 124.776 558.5 124.776C560.5 124.776 561 126.176 561 127.476V129.976C561 130.576 561 131.076 561.1 131.576H559.9V131.476ZM559.7 128.076C558.4 128.076 556.9 128.276 556.9 129.576C556.9 130.376 557.4 130.776 558 130.776C558.9 130.776 559.4 130.176 559.6 129.676C559.6 129.576 559.7 129.376 559.7 129.276V128.076V128.076Z" fill="#F5F5F5"/>
<path d="M562.8 121.676H564V131.476H562.8V121.676Z" fill="#F5F5F5"/>
<path d="M569 122.376C569.7 122.276 570.6 122.176 571.5 122.176C573.2 122.176 574.4 122.576 575.3 123.376C576.1 124.176 576.6 125.176 576.6 126.676C576.6 128.176 576.1 129.476 575.3 130.276C574.4 131.176 573 131.576 571.2 131.576C570.3 131.576 569.6 131.576 569 131.476V122.376V122.376ZM570.2 130.576C570.5 130.676 570.9 130.676 571.4 130.676C574 130.676 575.3 129.276 575.3 126.776C575.3 124.576 574.1 123.176 571.5 123.176C570.9 123.176 570.4 123.276 570.1 123.276V130.576H570.2Z" fill="#F5F5F5"/>
<path d="M578.9 128.376C578.9 129.976 580 130.676 581.2 130.676C582.1 130.676 582.6 130.476 583 130.376L583.2 131.276C582.8 131.476 582 131.676 581 131.676C579 131.676 577.7 130.376 577.7 128.276C577.7 126.176 578.9 124.676 580.8 124.676C583 124.676 583.6 126.576 583.6 127.776C583.6 127.976 583.6 128.176 583.6 128.376H578.9ZM582.4 127.476C582.4 126.676 582.1 125.476 580.7 125.476C579.5 125.476 578.9 126.576 578.8 127.476H582.4Z" fill="#F5F5F5"/>
<path d="M585.1 126.976C585.1 126.076 585.1 125.476 585 124.776H586.1L586.2 125.876C586.7 125.076 587.5 124.576 588.6 124.576C590.2 124.576 591.4 125.976 591.4 127.976C591.4 130.376 589.9 131.576 588.4 131.576C587.5 131.576 586.7 131.176 586.3 130.576V134.176H585.1V126.976V126.976ZM586.3 128.776C586.3 128.976 586.3 129.076 586.4 129.276C586.6 130.076 587.3 130.676 588.2 130.676C589.5 130.676 590.2 129.676 590.2 128.076C590.2 126.776 589.5 125.576 588.2 125.576C587.4 125.576 586.6 126.176 586.4 127.076C586.4 127.276 586.3 127.376 586.3 127.576V128.776Z" fill="#F5F5F5"/>
<path d="M594.4 122.876V124.776H596.1V125.676H594.4V129.276C594.4 130.076 594.6 130.576 595.3 130.576C595.6 130.576 595.9 130.576 596 130.476L596.1 131.376C595.9 131.476 595.5 131.576 595 131.576C594.4 131.576 594 131.376 593.7 131.076C593.4 130.676 593.2 130.076 593.2 129.376V125.776H592.2V124.876H593.2V123.276L594.4 122.876Z" fill="#F5F5F5"/>
<path d="M597.5 121.676H598.7V125.876C598.9 125.576 599.2 125.276 599.6 124.976C600 124.776 600.4 124.676 600.8 124.676C601.7 124.676 603.1 125.176 603.1 127.476V131.476H601.9V127.676C601.9 126.576 601.5 125.676 600.4 125.676C599.6 125.676 599 126.276 598.8 126.876C598.7 127.076 598.7 127.176 598.7 127.476V131.476H597.5V121.676Z" fill="#F5F5F5"/>
<path d="M604.8 130.776C604.8 130.276 605.1 129.876 605.6 129.876C606.1 129.876 606.4 130.276 606.4 130.776C606.4 131.276 606.1 131.676 605.6 131.676C605.2 131.676 604.8 131.276 604.8 130.776Z" fill="#F5F5F5"/>
<path d="M610.9 122.376C611.4 122.276 612.2 122.176 613.1 122.176C614.3 122.176 615.1 122.376 615.6 122.876C616.1 123.276 616.4 123.776 616.4 124.476C616.4 125.376 615.8 126.176 614.8 126.476C615.7 126.676 616.7 127.376 616.7 128.776C616.7 129.576 616.4 130.176 615.9 130.676C615.3 131.276 614.2 131.576 612.7 131.576C611.9 131.576 611.2 131.476 610.8 131.476V122.376H610.9ZM612.1 126.176H613.2C614.5 126.176 615.2 125.476 615.2 124.576C615.2 123.476 614.4 123.076 613.2 123.076C612.6 123.076 612.3 123.076 612.1 123.176V126.176ZM612.1 130.576C612.3 130.576 612.7 130.676 613.1 130.676C614.3 130.676 615.5 130.176 615.5 128.876C615.5 127.576 614.4 127.076 613.1 127.076H612.1V130.576Z" fill="#E1C196"/>
<path d="M623.9 129.676C623.9 130.376 623.9 130.976 624 131.476H622.9L622.8 130.376C622.5 130.876 621.8 131.576 620.6 131.576C619.6 131.576 618.3 130.976 618.3 128.676V124.776H619.5V128.476C619.5 129.776 619.9 130.576 621 130.576C621.8 130.576 622.4 129.976 622.6 129.476C622.7 129.276 622.7 129.076 622.7 128.876V124.776H623.9V129.676V129.676Z" fill="#E1C196"/>
<path d="M625.7 130.276C626.1 130.476 626.7 130.776 627.3 130.776C628.2 130.776 628.6 130.376 628.6 129.776C628.6 129.176 628.3 128.876 627.4 128.576C626.2 128.176 625.6 127.476 625.6 126.676C625.6 125.576 626.5 124.676 627.9 124.676C628.6 124.676 629.2 124.876 629.5 125.076L629.2 125.976C628.9 125.776 628.5 125.576 627.8 125.576C627.1 125.576 626.7 125.976 626.7 126.476C626.7 126.976 627.1 127.276 628 127.576C629.2 127.976 629.7 128.576 629.7 129.576C629.7 130.776 628.8 131.576 627.2 131.576C626.5 131.576 625.8 131.376 625.3 131.076L625.7 130.276Z" fill="#E1C196"/>
<path d="M632.7 122.976C632.7 123.376 632.4 123.676 631.9 123.676C631.5 123.676 631.2 123.376 631.2 122.976C631.2 122.576 631.5 122.176 632 122.176C632.4 122.176 632.7 122.476 632.7 122.976ZM631.4 131.476V124.776H632.6V131.476H631.4Z" fill="#E1C196"/>
<path d="M634.6 126.576C634.6 125.876 634.6 125.276 634.5 124.776H635.6L635.7 125.876C636 125.276 636.8 124.576 637.9 124.576C638.8 124.576 640.3 125.076 640.3 127.376V131.376H639.1V127.576C639.1 126.476 638.7 125.576 637.6 125.576C636.8 125.576 636.2 126.176 636 126.776C635.9 126.976 635.9 127.176 635.9 127.376V131.376H634.7V126.576H634.6Z" fill="#E1C196"/>
<path d="M642.9 128.376C642.9 129.976 644 130.676 645.2 130.676C646.1 130.676 646.6 130.476 647 130.376L647.2 131.276C646.8 131.476 646 131.676 645 131.676C643 131.676 641.7 130.376 641.7 128.276C641.7 126.176 642.9 124.676 644.8 124.676C647 124.676 647.6 126.576 647.6 127.776C647.6 127.976 647.6 128.176 647.6 128.376H642.9ZM646.4 127.476C646.4 126.676 646.1 125.476 644.7 125.476C643.5 125.476 642.9 126.576 642.8 127.476H646.4Z" fill="#E1C196"/>
<path d="M648.9 130.276C649.3 130.476 649.9 130.776 650.5 130.776C651.4 130.776 651.8 130.376 651.8 129.776C651.8 129.176 651.5 128.876 650.6 128.576C649.4 128.176 648.8 127.476 648.8 126.676C648.8 125.576 649.7 124.676 651.1 124.676C651.8 124.676 652.4 124.876 652.7 125.076L652.4 125.976C652.1 125.776 651.7 125.576 651 125.576C650.3 125.576 649.9 125.976 649.9 126.476C649.9 126.976 650.3 127.276 651.2 127.576C652.4 127.976 652.9 128.576 652.9 129.576C652.9 130.776 652 131.576 650.4 131.576C649.7 131.576 649 131.376 648.5 131.076L648.9 130.276Z" fill="#E1C196"/>
<path d="M654.4 130.276C654.8 130.476 655.4 130.776 656 130.776C656.9 130.776 657.3 130.376 657.3 129.776C657.3 129.176 657 128.876 656.1 128.576C654.9 128.176 654.3 127.476 654.3 126.676C654.3 125.576 655.2 124.676 656.6 124.676C657.3 124.676 657.9 124.876 658.2 125.076L657.9 125.976C657.6 125.776 657.2 125.576 656.5 125.576C655.8 125.576 655.4 125.976 655.4 126.476C655.4 126.976 655.8 127.276 656.7 127.576C657.9 127.976 658.4 128.576 658.4 129.576C658.4 130.776 657.5 131.576 655.9 131.576C655.2 131.576 654.5 131.376 654 131.076L654.4 130.276Z" fill="#E1C196"/>
<path d="M664.5 128.576L663.5 131.476H662.3L665.5 122.176H666.9L670.1 131.476H668.8L667.8 128.576H664.5ZM667.5 127.676L666.6 124.976C666.4 124.376 666.3 123.776 666.1 123.276C666 123.876 665.8 124.376 665.6 124.976L664.7 127.676H667.5Z" fill="#E1C196"/>
<path d="M675.9 131.276C675.6 131.476 674.9 131.676 674 131.676C672 131.676 670.7 130.276 670.7 128.276C670.7 126.176 672.1 124.776 674.3 124.776C675 124.776 675.6 124.976 676 125.076L675.7 125.976C675.4 125.776 675 125.676 674.3 125.676C672.8 125.676 671.9 126.776 671.9 128.176C671.9 129.676 672.9 130.676 674.2 130.676C674.9 130.676 675.3 130.476 675.7 130.376L675.9 131.276Z" fill="#E1C196"/>
<path d="M682.9 129.676C682.9 130.376 682.9 130.976 683 131.476H681.9L681.8 130.376C681.5 130.876 680.8 131.576 679.6 131.576C678.6 131.576 677.3 130.976 677.3 128.676V124.776H678.5V128.476C678.5 129.776 678.9 130.576 680 130.576C680.8 130.576 681.4 129.976 681.6 129.476C681.7 129.276 681.7 129.076 681.7 128.876V124.776H682.9V129.676V129.676Z" fill="#E1C196"/>
<path d="M684.9 126.576C684.9 125.876 684.9 125.276 684.8 124.776H685.9L686 125.876C686.4 125.276 687 124.676 688.1 124.676C689 124.676 689.7 125.176 690 125.976C690.2 125.576 690.5 125.276 690.7 125.076C691.1 124.776 691.5 124.576 692.2 124.576C693.1 124.576 694.4 125.176 694.4 127.476V131.376H693.2V127.576C693.2 126.276 692.7 125.576 691.8 125.576C691.1 125.576 690.6 126.076 690.4 126.676C690.3 126.876 690.3 127.076 690.3 127.276V131.376H689.1V127.376C689.1 126.276 688.6 125.576 687.7 125.576C686.9 125.576 686.4 126.176 686.2 126.776C686.1 126.976 686.1 127.176 686.1 127.376V131.376H684.9V126.576Z" fill="#E1C196"/>
<path d="M697.1 128.376C697.1 129.976 698.2 130.676 699.4 130.676C700.3 130.676 700.8 130.476 701.2 130.376L701.4 131.276C701 131.476 700.2 131.676 699.2 131.676C697.2 131.676 695.9 130.376 695.9 128.276C695.9 126.176 697.1 124.676 699 124.676C701.2 124.676 701.8 126.576 701.8 127.776C701.8 127.976 701.8 128.176 701.8 128.376H697.1ZM700.6 127.476C700.6 126.676 700.3 125.476 698.9 125.476C697.7 125.476 697.1 126.576 697 127.476H700.6Z" fill="#E1C196"/>
<path d="M703.3 126.576C703.3 125.876 703.3 125.276 703.2 124.776H704.3L704.4 125.876C704.7 125.276 705.5 124.576 706.6 124.576C707.5 124.576 709 125.076 709 127.376V131.376H707.8V127.576C707.8 126.476 707.4 125.576 706.3 125.576C705.5 125.576 704.9 126.176 704.7 126.776C704.6 126.976 704.6 127.176 704.6 127.376V131.376H703.4V126.576H703.3Z" fill="#E1C196"/>
<path d="M710.6 130.776C710.6 130.276 710.9 129.876 711.4 129.876C711.9 129.876 712.2 130.276 712.2 130.776C712.2 131.276 711.9 131.676 711.4 131.676C711 131.676 710.6 131.276 710.6 130.776Z" fill="#E1C196"/>
</svg>
